<?xml version="1.0" encoding="utf-8"?>
<!-- Generator: Adobe Illustrator 22.1.0, SVG Export Plug-In . SVG Version: 6.00 Build 0)  -->
<svg version="1.1" id="Camada_1" xmlns="http://www.w3.org/2000/svg" xmlns:xlink="http://www.w3.org/1999/xlink" x="0px" y="0px"
	 viewBox="0 0 50 20" style="enable-background:new 0 0 50 20;" xml:space="preserve">
<style type="text/css">
	.st0{fill:#FFFFFF;}
</style>
<title>elo-logo-3</title>
<desc>Created with Sketch.</desc>
<g id="Symbols">
	<g id="Elo-maior" transform="translate(0.000000, -5.000000)">
		<g>
			<path d="M0,14.6c0-0.1,0-0.2,0.1-0.3c0.2-2.5,1.2-4.6,3.1-6.3c0,0,0.1-0.1,0.1-0.1c0.9,1,1.7,2,2.6,2.9C4.6,11.9,4,13.3,4,15
				c0,1.7,0.7,3.1,1.9,4.2c-0.9,1-1.7,2-2.6,2.9c0,0-0.1,0-0.1-0.1c-1.5-1.4-2.5-3.1-3-5.1c-0.1-0.4-0.1-0.8-0.2-1.3
				c0-0.1,0-0.2-0.1-0.3C0,15.1,0,14.9,0,14.6z"/>
			<path d="M10,5.4c0,0,0.1,0,0.1,0c1.2,0.1,2.3,0.3,3.4,0.8c2.7,1.2,4.6,3.5,5.3,6.4c0,0.1,0.1,0.3,0.1,0.4
				c-1.3,0.3-2.6,0.5-3.9,0.8c-0.4-1.6-1.3-2.9-2.7-3.7c-1.5-0.8-3-1-4.6-0.5C7.4,8.4,7,7.2,6.6,5.9c0.2-0.1,0.4-0.1,0.6-0.2
				C7.8,5.6,8.4,5.5,9,5.4c0,0,0.1,0,0.1,0C9.5,5.4,9.7,5.4,10,5.4z"/>
			<path d="M9.2,24.6c-0.1,0-0.3,0-0.4-0.1c-0.7-0.1-1.4-0.2-2.1-0.4c0,0-0.1,0-0.2-0.1c0.4-1.2,0.8-2.5,1.2-3.7
				c1.6,0.5,3.2,0.4,4.6-0.5c1.5-0.8,2.3-2.1,2.7-3.7c1.3,0.3,2.6,0.5,3.8,0.8c0,0.1,0,0.1,0,0.2c-0.7,3.1-2.8,5.6-5.7,6.8
				c-0.9,0.4-1.8,0.6-2.8,0.7c-0.1,0-0.3,0-0.4,0.1C9.7,24.6,9.5,24.6,9.2,24.6z"/>
			<path d="M50,15.2c-0.2,0-0.4,0.1-0.5,0.1c-0.7,0.1-1.3,0.3-2,0.4c0,0,0,0-0.1,0c-0.2-0.9-0.7-1.6-1.5-2.1
				c-0.8-0.5-1.7-0.5-2.6-0.3c-0.3-0.8-0.6-1.7-0.8-2.5c0.1,0,0.1,0,0.2-0.1c0.7-0.2,1.5-0.3,2.3-0.2c2.3,0.2,4.3,1.9,5,4.1
				c0,0.1,0.1,0.3,0.1,0.4C50,15.1,50,15.1,50,15.2z"/>
			<path d="M50,17.6c0,0.1,0,0.2-0.1,0.3c-0.6,1.9-1.8,3.2-3.6,3.9c-1.2,0.5-2.5,0.5-3.8,0.1c0,0-0.1,0-0.1,0
				c0.3-0.8,0.6-1.7,0.8-2.5c0.9,0.3,1.8,0.2,2.6-0.3c0.8-0.5,1.3-1.2,1.5-2.1c0.2,0,0.4,0.1,0.7,0.1c0.6,0.1,1.2,0.3,1.9,0.4
				c0,0,0.1,0,0.1,0C50,17.5,50,17.5,50,17.6z"/>
			<path d="M22.4,19.3c-0.2-0.3-0.4-0.7-0.5-1.1c-0.3-0.7-0.4-1.5-0.4-2.3c0.1-1.8,1.1-3.9,3.1-5c0.9-0.5,1.9-0.7,3-0.6
				c1.3,0.1,2.5,0.6,3.5,1.4c0.2,0.2,0.5,0.4,0.7,0.7c0.5,0.6,1,1.5,1.2,2.2C29.4,16.3,25.9,17.8,22.4,19.3z M24.1,16.3
				c1.8-0.8,3.6-1.5,5.3-2.3c0,0,0,0,0-0.1c-0.8-0.9-1.7-1.3-2.8-1c-0.5,0.1-1,0.3-1.4,0.7c-0.7,0.5-1,1.3-1,2.1
				C24.1,15.9,24.1,16.1,24.1,16.3z"/>
			<path d="M34.1,8c0.8,0,1.6,0,2.5,0c0,0,0,0,0,0c0,0,0,0,0,0c0,0,0,0,0,0c0,0,0,0,0,0c0,3.7,0,7.4,0,11.1c0,0,0,0,0,0
				c0.6,0.2,1.1,0.5,1.7,0.7c-0.3,0.8-0.7,1.5-1,2.3c0,0-0.1,0-0.1,0c-0.6-0.2-1.2-0.5-1.8-0.7c-0.7-0.3-1.2-0.9-1.3-1.6
				c0-0.2-0.1-0.4-0.1-0.6c0-3.7,0-7.3,0-11C34.1,8.1,34.1,8,34.1,8z"/>
			<path d="M40.4,11.9c0.6,0.7,1.2,1.3,1.8,2c-0.7,0.6-1.1,1.4-1.1,2.4c0,0.9,0.4,1.7,1.1,2.4c0,0.1-1.6,1.8-1.8,2
				C37.9,18.5,37.7,14.3,40.4,11.9z"/>
			<path d="M24.1,21.1c0.5-0.7,0.9-1.4,1.4-2.1c0,0,0.1,0.1,0.1,0.1c0.6,0.4,1.2,0.6,1.9,0.5c0.6-0.1,1.2-0.3,1.7-0.7
				c0.3-0.2,0.5-0.4,0.7-0.7c0,0,0-0.1,0.1-0.1c0.7,0.5,1.4,1,2.2,1.4c0,0.1-0.1,0.1-0.1,0.2c-0.5,0.8-1.2,1.3-2,1.7
				c-0.6,0.3-1.3,0.5-2,0.6c-1,0.1-2,0-2.9-0.4c-0.3-0.1-0.6-0.3-0.9-0.5C24.2,21.2,24.1,21.1,24.1,21.1z"/>
			<path class="st0" d="M24.1,16.3c0-0.2,0-0.4,0-0.5c0.1-0.8,0.4-1.6,1-2.1c0.4-0.3,0.9-0.5,1.4-0.7c1.2-0.3,2.1,0.1,2.8,1
				c0,0,0,0,0,0.1C27.7,14.8,25.9,15.5,24.1,16.3z"/>
		</g>
	</g>
</g>
</svg>
