<?xml version="1.0" encoding="UTF-8"?>
<svg width="40px" height="40px" viewBox="0 0 40 40" version="1.1" xmlns="http://www.w3.org/2000/svg" xmlns:xlink="http://www.w3.org/1999/xlink">
    <!-- Generator: Sketch 52.2 (67145) - http://www.bohemiancoding.com/sketch -->
    <title>Camera</title>
    <desc>Created with Sketch.</desc>
    <g id="Camera" stroke="none" stroke-width="1" fill="none" fill-rule="evenodd">
        <g id="photo-camera" transform="translate(2.000000, 5.000000)" fill="#000000">
            <path d="M0,8.9522449 L0,24.8363265 C0,27.2608163 1.96897959,29.2297959 4.39346939,29.2297959 L31.6065306,29.2297959 C34.0310204,29.2297959 36,27.2608163 36,24.8363265 L36,8.9522449 C36,6.64530612 34.1265306,4.77183673 31.8195918,4.77183673 L25.9714286,4.77183673 L25.8318367,4.16204082 C25.2661224,1.7155102 23.1134694,0.0110204082 20.6008163,0.0110204082 L15.3918367,0.0110204082 C12.8865306,0.0110204082 10.7338776,1.7155102 10.1608163,4.16204082 L10.0212245,4.77183673 L4.18040816,4.77183673 C1.87346939,4.77183673 0,6.65265306 0,8.9522449 Z M10.7412245,6.57183673 C11.16,6.57183673 11.52,6.28530612 11.6155102,5.87387755 L11.9167347,4.56612245 C12.2987755,2.94244898 13.7240816,1.81102041 15.3918367,1.81102041 L20.6008163,1.81102041 C22.2685714,1.81102041 23.6938776,2.94244898 24.0759184,4.56612245 L24.3771429,5.87387755 C24.4726531,6.27795918 24.8326531,6.57183673 25.2514286,6.57183673 L31.8122449,6.57183673 C33.1273469,6.57183673 34.1926531,7.63714286 34.1926531,8.9522449 L34.1926531,24.8363265 C34.1926531,26.2689796 33.0318367,27.4297959 31.5991837,27.4297959 L4.39346939,27.4297959 C2.96081633,27.4297959 1.8,26.2689796 1.8,24.8363265 L1.8,8.9522449 C1.8,7.63714286 2.86530612,6.57183673 4.18040816,6.57183673 L10.7412245,6.57183673 Z" id="Shape" fill-rule="nonzero"></path>
            <circle id="Oval" cx="6.09061224" cy="10.4142857" r="1.20489796"></circle>
            <path d="M18,24.6085714 C22.1657143,24.6085714 25.56,21.2142857 25.56,17.0485714 C25.56,12.8828571 22.1657143,9.48857143 18,9.48857143 C13.8342857,9.48857143 10.44,12.8755102 10.44,17.0485714 C10.44,21.2216327 13.8342857,24.6085714 18,24.6085714 Z M18,11.2885714 C21.1738776,11.2885714 23.76,13.8746939 23.76,17.0485714 C23.76,20.222449 21.1738776,22.8085714 18,22.8085714 C14.8261224,22.8085714 12.24,20.222449 12.24,17.0485714 C12.24,13.8746939 14.8261224,11.2885714 18,11.2885714 Z" id="Shape" fill-rule="nonzero"></path>
        </g>
    </g>
</svg>