<?xml version="1.0" encoding="UTF-8"?>
<svg width="40px" height="40px" viewBox="0 0 40 40" version="1.1" xmlns="http://www.w3.org/2000/svg" xmlns:xlink="http://www.w3.org/1999/xlink">
    <!-- Generator: Sketch 52.2 (67145) - http://www.bohemiancoding.com/sketch -->
    <title>Galeria</title>
    <desc>Created with Sketch.</desc>
    <g id="Galeria" stroke="none" stroke-width="1" fill="none" fill-rule="evenodd">
        <g id="picture" transform="translate(2.000000, 2.000000)" fill="#000000" fill-rule="nonzero">
            <path d="M0,32.164898 C0,34.2587755 1.7044898,35.9559184 3.79102041,35.9559184 L32.164898,35.9559184 C34.2587755,35.9559184 35.9559184,34.2514286 35.9559184,32.164898 L35.9559184,3.79102041 C35.9559184,1.69714286 34.2514286,0 32.164898,0 L3.79102041,0 C1.69714286,0 0,1.7044898 0,3.79102041 C0,3.79102041 0,32.164898 0,32.164898 Z M32.164898,34.1559184 L3.79102041,34.1559184 C2.69632653,34.1559184 1.8,33.2595918 1.8,32.164898 L1.8,27.4261224 L8.61795918,20.6081633 L14.4440816,26.4342857 C14.7967347,26.7869388 15.362449,26.7869388 15.715102,26.4342857 L26.2359184,15.9134694 L34.1559184,23.8334694 L34.1559184,32.164898 C34.1559184,33.2595918 33.2595918,34.1559184 32.164898,34.1559184 Z M3.79102041,1.8 L32.164898,1.8 C33.2595918,1.8 34.1559184,2.69632653 34.1559184,3.79102041 L34.1559184,21.2840816 L26.8677551,14.0032653 C26.515102,13.6506122 25.9493878,13.6506122 25.5967347,14.0032653 L15.0759184,24.5240816 L9.24979592,18.6979592 C8.89714286,18.3453061 8.33142857,18.3453061 7.97877551,18.6979592 L1.8,24.8767347 L1.8,3.79102041 C1.8,2.69632653 2.69632653,1.8 3.79102041,1.8 Z" id="Shape"></path>
            <path d="M11.1453061,14.4073469 C13.6726531,14.4073469 15.722449,12.3502041 15.722449,9.83020408 C15.722449,7.31020408 13.6653061,5.25306122 11.1453061,5.25306122 C8.62530612,5.25306122 6.56816327,7.31020408 6.56816327,9.83020408 C6.56816327,12.3502041 8.61795918,14.4073469 11.1453061,14.4073469 Z M11.1453061,7.05306122 C12.6808163,7.05306122 13.922449,8.30204082 13.922449,9.83020408 C13.922449,11.3583673 12.6734694,12.6073469 11.1453061,12.6073469 C9.61714286,12.6073469 8.36816327,11.3583673 8.36816327,9.83020408 C8.36816327,8.30204082 9.60979592,7.05306122 11.1453061,7.05306122 Z" id="Shape"></path>
        </g>
    </g>
</svg>