<?xml version="1.0" encoding="UTF-8"?>
<svg width="18px" height="18px" viewBox="0 0 18 18" version="1.1" xmlns="http://www.w3.org/2000/svg" xmlns:xlink="http://www.w3.org/1999/xlink">
    <!-- Generator: Sketch 51.3 (57544) - http://www.bohemiancoding.com/sketch -->
    <title>distance</title>
    <desc>Created with Sketch.</desc>
    <defs></defs>
    <g id="Symbols" stroke="none" stroke-width="1" fill="none" fill-rule="evenodd">
        <g id="14" fill="#00AFFF" fill-rule="nonzero">
            <g id="distance">
                <path d="M2.99998828,11.9999883 C2.58655078,11.9999883 2.25,12.3365391 2.25,12.7499766 C2.25,13.1634141 2.58655078,13.5 2.99998828,13.5 C3.41342578,13.5 3.74997656,13.1634492 3.74997656,12.7500117 C3.74997656,12.3365742 3.41346094,11.9999883 2.99998828,11.9999883 Z" id="Shape"></path>
                <path d="M6.75,2.25 C6.3365625,2.25 6.00001172,2.58655078 6.00001172,2.99998828 C6.00001172,3.41342578 6.3365625,3.74997656 6.75,3.74997656 C7.1634375,3.74997656 7.49998828,3.41342578 7.49998828,2.99998828 C7.49998828,2.58655078 7.1634375,2.25 6.75,2.25 Z" id="Shape"></path>
                <path d="M15.0000117,3.75001172 C13.3458398,3.75001172 12.0000234,5.09582813 12.0000234,6.75 C12.0000234,7.86782813 13.2882187,9.87363281 14.0939648,11.0197617 C14.0456602,11.0563945 14.002875,11.1006563 13.9760859,11.1595781 C13.8947695,11.3379258 13.965082,11.5466484 14.1324609,11.6411484 C13.9687734,11.7418711 13.906125,11.9528086 13.9936641,12.1282031 C14.059582,12.2596875 14.1917695,12.3354844 14.3294766,12.3354844 C14.3858672,12.3354844 14.4429961,12.3226523 14.4968203,12.2959336 L15.1659492,11.9613516 L15.166125,11.9613164 L15.1677422,11.9605078 C15.1698867,11.959418 15.1707305,11.9568867 15.172875,11.9557617 C15.2206172,11.9308008 15.2640703,11.8971563 15.29775,11.8532109 C15.5742188,11.4920508 18,8.28260156 18,6.75 C18,5.09582813 16.6541836,3.75001172 15.0000117,3.75001172 Z M15.0000117,10.997332 C14.175668,9.86319141 12.7500117,7.70473828 12.7500117,6.75 C12.7500117,5.50926563 13.7592773,4.5 15.0000117,4.5 C16.2407461,4.5 17.2500117,5.50926563 17.2500117,6.75 C17.2500117,7.70470313 15.8243555,9.86315625 15.0000117,10.997332 Z" id="Shape"></path>
                <path d="M15.0000117,6.00001172 C14.5865742,6.00001172 14.2500234,6.3365625 14.2500234,6.75 C14.2500234,7.1634375 14.5865742,7.49998828 15.0000117,7.49998828 C15.4134492,7.49998828 15.75,7.1634375 15.75,6.75 C15.75,6.3365625 15.4134492,6.00001172 15.0000117,6.00001172 Z" id="Shape"></path>
                <path d="M3.91580859,17.0057461 C4.72215234,15.8574023 6.00001172,13.863375 6.00001172,12.7500117 C6.00001172,11.0958398 4.65419531,9.75002344 3.00002344,9.75002344 C1.34581641,9.74998828 0,11.0958398 0,12.7500117 C0,14.2826133 2.42578125,17.4920625 2.70228516,17.8531523 C2.72225391,17.8792031 2.75094141,17.8943555 2.77635937,17.9139727 C2.79165234,17.92575 2.80300781,17.9403398 2.81974219,17.9495859 C2.87476172,17.980207 2.93526562,18 3.00002344,18 L3.00019922,17.9999648 L3.000375,18 C3.00898828,18 3.01725,17.9945508 3.02586328,17.9939531 C3.07501172,17.9903672 3.12359766,17.9821406 3.16683984,17.9606602 C3.16712109,17.9605195 3.1674375,17.9605547 3.16771875,17.9604141 L3.83860547,17.6249531 C4.02391406,17.5323164 4.09897266,17.3070703 4.00633594,17.1217617 C3.98344922,17.0759531 3.95223047,17.0371758 3.91580859,17.0057461 Z M2.99998828,16.9973086 C2.17564453,15.863168 0.749988281,13.7047148 0.749988281,12.7499766 C0.749988281,11.5092422 1.75925391,10.4999766 2.99998828,10.4999766 C4.24072266,10.4999766 5.24998828,11.5092422 5.24998828,12.7499766 C5.24998828,13.7047148 3.82433203,15.863168 2.99998828,16.9973086 Z" id="Shape"></path>
                <path d="M12.9774023,12.2167969 L11.7930586,12.8089687 C11.60775,12.9016055 11.5326914,13.1268516 11.6253281,13.3121602 C11.6912461,13.4436445 11.8234336,13.5194414 11.9611406,13.5194414 C12.0175313,13.5194414 12.0746602,13.5066094 12.1284844,13.4798906 L13.3128281,12.8877187 C13.4981367,12.795082 13.5731953,12.5698359 13.4805586,12.3845273 C13.387957,12.1995703 13.1623594,12.12525 12.9774023,12.2167969 Z" id="Shape"></path>
                <path d="M5.87183203,15.769793 L4.68748828,16.3619648 C4.50217969,16.4546016 4.42712109,16.6798477 4.51975781,16.8651562 C4.58567578,16.9966406 4.71786328,17.0724375 4.85557031,17.0724375 C4.91196094,17.0724375 4.96908984,17.0596055 5.02291406,17.0328867 L6.20725781,16.4407148 C6.39256641,16.3480781 6.467625,16.122832 6.37498828,15.9375234 C6.282,15.7522148 6.05675391,15.6782109 5.87183203,15.769793 Z" id="Shape"></path>
                <path d="M10.60875,13.4011406 L9.42440625,13.9933125 C9.23909766,14.0859492 9.16403906,14.3111953 9.25667578,14.4965039 C9.32259375,14.6279883 9.45478125,14.7037852 9.59248828,14.7037852 C9.64887891,14.7037852 9.70600781,14.6909531 9.75983203,14.6642344 L10.9441758,14.0720625 C11.1294844,13.9794258 11.204543,13.7541797 11.1119063,13.5688711 C11.018918,13.3835625 10.7940586,13.3088555 10.60875,13.4011406 Z" id="Shape"></path>
                <path d="M8.24009766,14.5854492 L7.05614062,15.1776211 C6.87083203,15.2702578 6.79577344,15.4955039 6.88841016,15.6808125 C6.95432812,15.8122969 7.08651562,15.8880938 7.22422266,15.8880938 C7.28061328,15.8880938 7.33774219,15.8752617 7.39156641,15.848543 L8.57552344,15.2563711 C8.76083203,15.1637344 8.83589062,14.9384883 8.74325391,14.7531797 C8.65026562,14.5678711 8.42466797,14.4935156 8.24009766,14.5854492 Z" id="Shape"></path>
                <path d="M8.46861328,8.65613672 C8.38290234,8.84475 8.46604687,9.06704297 8.65466016,9.15271875 L10.0312383,9.77857031 C10.081793,9.80163281 10.1345273,9.81225 10.1861367,9.81225 C10.3289766,9.81225 10.465207,9.73058203 10.5278203,9.59252344 C10.6135312,9.40391016 10.5303867,9.18161719 10.3417734,9.09594141 L8.96519531,8.47008984 C8.77552734,8.38328906 8.55358594,8.46826172 8.46861328,8.65613672 Z" id="Shape"></path>
                <path d="M12.9400664,11.0639531 C13.0829062,11.0639531 13.2191367,10.9822852 13.28175,10.8442266 C13.3674609,10.6556133 13.2843164,10.4333203 13.0957031,10.3476445 L11.7187383,9.72179297 C11.5279453,9.63537891 11.3074805,9.71996484 11.2221562,9.90783984 C11.1364453,10.0964531 11.2195898,10.3187461 11.4082031,10.4044219 L12.785168,11.0302734 C12.8356875,11.0533359 12.8884219,11.0639531 12.9400664,11.0639531 Z" id="Shape"></path>
                <path d="M7.43224219,8.56019531 C7.57508203,8.56019531 7.7113125,8.47852734 7.77392578,8.34046875 C7.85963672,8.15185547 7.77614063,7.9295625 7.58787891,7.84388672 L7.32888281,7.72618359 C8.03925,6.75650391 9.74998828,4.28860547 9.74998828,2.99998828 C9.74998828,1.34581641 8.40417188,0 6.75,0 C5.09582813,0 3.75001172,1.34581641 3.75001172,2.99998828 C3.75001172,4.53258984 6.17579297,7.74203906 6.45229688,8.10312891 C6.45553125,8.10738281 6.46094531,8.109 6.46439063,8.11307812 C6.48928125,8.14310156 6.5210625,8.166375 6.55544531,8.18789062 C6.56757422,8.19544922 6.57678516,8.20652344 6.5896875,8.21264062 C6.59165625,8.21355469 6.59281641,8.21538281 6.59478516,8.21629687 L7.27734375,8.52648047 C7.32789844,8.54957812 7.38063281,8.56019531 7.43224219,8.56019531 Z M4.5,2.99998828 C4.5,1.75925391 5.50926562,0.749988281 6.75,0.749988281 C7.99073438,0.749988281 9,1.75925391 9,2.99998828 C9,3.95469141 7.57434375,6.11314453 6.75,7.24732031 C5.92565625,6.11314453 4.5,3.95472656 4.5,2.99998828 Z" id="Shape"></path>
            </g>
        </g>
    </g>
</svg>