<?xml version="1.0" encoding="UTF-8"?>
<svg width="18px" height="18px" viewBox="0 0 18 18" version="1.1" xmlns="http://www.w3.org/2000/svg" xmlns:xlink="http://www.w3.org/1999/xlink">
    <!-- Generator: Sketch 51.3 (57544) - http://www.bohemiancoding.com/sketch -->
    <title>dna</title>
    <desc>Created with Sketch.</desc>
    <defs></defs>
    <g id="Symbols" stroke="none" stroke-width="1" fill="none" fill-rule="evenodd">
        <g id="15" fill="#00AFFF" fill-rule="nonzero">
            <g id="dna">
                <path d="M8.36419355,4.17483871 C8.37870968,4.17483871 8.39351613,4.17774194 8.41064516,4.17774194 C8.55290323,4.17774194 8.67483871,4.07351613 8.69806452,3.93096774 L8.70096774,3.91325806 C8.72709677,3.73645161 8.76483871,3.55906452 8.81419355,3.39067742 C8.85774194,3.23680645 8.76803226,3.07712903 8.61125806,3.03387097 C8.46290323,2.99032258 8.29770968,3.08322581 8.25416129,3.23390323 C8.20190323,3.42551613 8.15835484,3.62874194 8.12351613,3.84067742 C8.1206129,3.85548387 8.1206129,3.8726129 8.1206129,3.88712903 C8.12032258,4.02677419 8.22483871,4.1516129 8.36419355,4.17483871 Z" id="Shape"></path>
                <path d="M11.9177419,0.740322581 C11.9322581,0.740322581 11.9496774,0.740322581 11.9670968,0.737419355 C12.1470968,0.705483871 12.3360968,0.682258065 12.5245161,0.66483871 C12.6841935,0.653225806 12.8032258,0.510967742 12.7916129,0.351290323 C12.7770968,0.194516129 12.6406452,0.0725806452 12.4780645,0.0870967742 C12.2635161,0.104516129 12.0602903,0.130645161 11.8683871,0.165483871 C11.7290323,0.188709677 11.6274194,0.307741935 11.6274194,0.447387097 C11.6274194,0.464806452 11.6303226,0.482225806 11.6332258,0.499645161 C11.6564516,0.638709677 11.7754839,0.740322581 11.9177419,0.740322581 Z" id="Shape"></path>
                <path d="M15.363871,0.888387097 C15.5380645,0.926129032 15.7206774,0.967064516 15.9241935,1.01903226 C15.9474194,1.02193548 15.9706452,1.02512903 15.9967742,1.02512903 C16.1274194,1.02512903 16.2438387,0.93483871 16.2754839,0.807387097 C16.3164194,0.650612903 16.2206129,0.49383871 16.0664516,0.455806452 C15.8690323,0.406451613 15.6716129,0.360290323 15.4829032,0.319354839 C15.326129,0.287709677 15.1693548,0.391935484 15.1374194,0.543193548 C15.1345161,0.563225806 15.1316129,0.58383871 15.1316129,0.60416129 C15.1319032,0.740322581 15.2277097,0.859354839 15.363871,0.888387097 Z" id="Shape"></path>
                <path d="M6.02419355,16.4670968 C5.84970968,16.4903226 5.66709677,16.5048387 5.46358065,16.5164516 C5.30709677,16.5225484 5.18487097,16.65 5.18487097,16.8067742 C5.18487097,16.8096774 5.18487097,16.8154839 5.18487097,16.8212903 C5.19358065,16.9751613 5.3216129,17.0970968 5.47519355,17.0970968 C5.48129032,17.0970968 5.48680645,17.0970968 5.49,17.0970968 C5.69612903,17.0854839 5.89906452,17.0680645 6.09967742,17.0448387 C6.25645161,17.0245161 6.36967742,16.8793548 6.34935484,16.7196774 C6.32903226,16.5629032 6.18387097,16.4496774 6.02419355,16.4670968 Z" id="Shape"></path>
                <path d="M10.1177419,10.6635484 C10.0744839,10.4690323 10.0277419,10.2716129 9.97258065,10.0770968 C9.93193548,9.92583871 9.76645161,9.83003226 9.6183871,9.87096774 C9.4616129,9.91422581 9.3716129,10.0741935 9.41225806,10.2277742 C9.4616129,10.4022581 9.50516129,10.584871 9.54580645,10.7677742 C9.54580645,10.7735806 9.54580645,10.7793871 9.54870968,10.7851935 L9.5516129,10.7968065 C9.58354839,10.9219355 9.69996774,11.0145484 9.83351613,11.0145484 C9.85354839,11.0145484 9.87416129,11.0116452 9.89448387,11.006129 C10.0280323,10.9768065 10.1238387,10.8577742 10.1238387,10.7216129 C10.1238387,10.7070968 10.1206452,10.6954839 10.1177419,10.6809677 L10.1206452,10.6809677 L10.1177419,10.6635484 Z" id="Shape"></path>
                <path d="M9.95254839,13.3577419 C9.79867742,13.32 9.64190323,13.4187097 9.60416129,13.5725806 C9.5606129,13.7554839 9.50835484,13.9293871 9.44448387,14.0980645 C9.42967742,14.13 9.42416129,14.1677419 9.42416129,14.2025806 C9.42706452,14.3245161 9.49964516,14.4290323 9.61258065,14.4725806 C9.64451613,14.4841935 9.67935484,14.4902903 9.71448387,14.4902903 C9.83641935,14.4902903 9.94383871,14.4145161 9.98709677,14.3041935 C10.0596774,14.1125806 10.1206452,13.9122581 10.1702903,13.706129 C10.2048387,13.5493548 10.1090323,13.3925806 9.95254839,13.3577419 Z" id="Shape"></path>
                <path d="M8.74480645,7.6616129 C8.77383871,7.6616129 8.79967742,7.65870968 8.82580645,7.65 C8.95093548,7.61225806 9.03774194,7.49903226 9.03512903,7.3683871 C9.03512903,7.34225806 9.03193548,7.31612903 9.02351613,7.28970968 C8.96835484,7.08967742 8.919,6.90677419 8.87835484,6.73548387 C8.84351613,6.5816129 8.68383871,6.48290323 8.52996774,6.52064516 C8.37319355,6.55548387 8.2773871,6.71225806 8.31222581,6.86903226 C8.35577419,7.05193548 8.40803226,7.24935484 8.46609677,7.45258065 C8.50093548,7.57451613 8.61677419,7.6616129 8.74480645,7.6616129 Z" id="Shape"></path>
                <path d="M17.4193548,1.4516129 C17.540129,1.4516129 17.6527742,1.37583871 17.694,1.25535484 C17.7459677,1.10380645 17.6649677,0.938612903 17.5134194,0.886354839 C17.4193548,0.854419355 17.325871,0.823064516 17.2329677,0.792870968 C17.2312258,0.792290323 17.2291935,0.792870968 17.2274516,0.792290323 C17.2228065,0.790548387 17.2184516,0.788806452 17.2132258,0.787064516 C17.1464516,0.766451613 17.0782258,0.774870968 17.0169677,0.79983871 C16.956,0.600387097 16.8927097,0.400064516 16.8230323,0.196548387 C16.7707742,0.045 16.605871,-0.0354193548 16.4540323,0.0159677419 C16.3024839,0.0682258065 16.2214839,0.233129032 16.2734516,0.384967742 C16.6630645,1.52216129 16.911871,2.58735484 17.0236452,3.55790323 L14.1630968,0.697354839 C14.1851613,0.699677419 14.2063548,0.700548387 14.2284194,0.702870968 C14.2400323,0.705774194 14.2516452,0.705774194 14.2603548,0.705774194 C14.4084194,0.705774194 14.5329677,0.595451613 14.5506774,0.447387097 C14.5596774,0.368709677 14.5364516,0.293225806 14.4870968,0.232258065 C14.4409355,0.171290323 14.3712581,0.133548387 14.2957742,0.12483871 C14.0838387,0.101612903 13.8803226,0.0841935484 13.6919032,0.075483871 C13.6422581,0.0737419355 13.5963871,0.0876774194 13.554,0.108290323 C13.4430968,0.0444193548 13.301129,0.0551612903 13.2061935,0.150096774 C13.0926774,0.263612903 13.0926774,0.447096774 13.2061935,0.560612903 L17.0863548,4.44077419 C17.109,5.26209677 17.0192903,5.99922581 16.8175161,6.6356129 L11.0592581,0.877645161 C11.0859677,0.809709677 11.0882903,0.731612903 11.0583871,0.659032258 C10.9974194,0.517064516 10.8232258,0.444483871 10.6780645,0.502258065 C10.4832581,0.583548387 10.2948387,0.679354839 10.1174516,0.780967742 C10.0274516,0.833516129 9.97229032,0.929322581 9.97229032,1.03354839 C9.97229032,1.08609677 9.98680645,1.13545161 10.0132258,1.17870968 C10.0654839,1.26580645 10.1612903,1.32096774 10.2626129,1.32096774 C10.3151613,1.32096774 10.367129,1.30935484 10.4106774,1.28322581 C10.4594516,1.25477419 10.5108387,1.22835484 10.5616452,1.20135484 L16.5849677,7.2243871 C16.3924839,7.623 16.1480323,7.97167742 15.8460968,8.25909677 C15.7273548,8.37232258 15.5975806,8.47248387 15.4631613,8.56654839 L9.2673871,2.36990323 C9.35912903,2.22822581 9.46277419,2.09148387 9.57483871,1.96548387 C9.67935484,1.84354839 9.67064516,1.66064516 9.5516129,1.55322581 C9.43548387,1.4516129 9.24096774,1.46322581 9.13935484,1.57935484 C9,1.73612903 8.87225806,1.90741935 8.75903226,2.08451613 C8.73667742,2.12196774 8.72593548,2.16203226 8.72041935,2.20296774 C8.7146129,2.20790323 8.70735484,2.20993548 8.70183871,2.21516129 C8.58832258,2.32867742 8.58832258,2.51216129 8.70183871,2.62567742 L14.9429032,8.86703226 C14.3532581,9.14022581 13.6541613,9.26825806 12.8647742,9.25258065 L8.62954839,5.01706452 C8.60748387,4.87219355 8.48380645,4.75403226 8.33516129,4.77 C8.17548387,4.77609677 8.05064516,4.90935484 8.05645161,5.06903226 C8.06516129,5.26906452 8.07967742,5.47258065 8.10290323,5.67870968 C8.12032258,5.82387097 8.24196774,5.93419355 8.39003226,5.93419355 C8.40164516,5.93419355 8.41325806,5.93419355 8.42487097,5.93419355 C8.50412903,5.92490323 8.5706129,5.88367742 8.61677419,5.8256129 L11.9694194,9.17825806 C11.1890323,9.06764516 10.3386774,8.83654839 9.43054839,8.48351613 C9.41748387,8.44983871 9.40383871,8.41529032 9.39164516,8.3816129 C9.33677419,8.23645161 9.16229032,8.15777419 9.01712903,8.21322581 C8.97532258,8.23006452 8.94019355,8.25648387 8.91029032,8.28812903 C5.96177419,7.20870968 3.54774194,7.37274194 2.08364516,8.76658065 C1.07070968,9.73132258 0.590225806,11.2340323 0.645967742,13.0970323 C0.644806452,13.1127097 0.645677419,13.1272258 0.647129032,13.1429032 C0.67616129,13.9796129 0.81,14.8865806 1.05677419,15.8530645 C1.026,15.8231613 0.990290323,15.7981935 0.946741935,15.7839677 C0.856451613,15.7546452 0.76616129,15.7241613 0.674709677,15.6930968 C0.522870968,15.6417097 0.357967742,15.722129 0.305709677,15.8736774 C0.253741935,16.0252258 0.334741935,16.1904194 0.486290323,16.2426774 C0.580645161,16.2749032 0.674129032,16.3059677 0.767032258,16.3364516 C0.797225806,16.3460323 0.827129032,16.3506774 0.857032258,16.3506774 C0.979548387,16.3506774 1.09306452,16.2725806 1.13312903,16.1503548 C1.13487097,16.145129 1.13341935,16.1401935 1.13487097,16.1349677 C1.23241935,16.4914839 1.34041935,16.8529355 1.46729032,17.2233871 C1.50880645,17.3435806 1.62116129,17.4193548 1.74193548,17.4193548 C1.773,17.4193548 1.80493548,17.414129 1.836,17.4036774 C1.98754839,17.3514194 2.06854839,17.1865161 2.01658065,17.0346774 C1.97390323,16.9098387 1.93674194,16.7881935 1.89754839,16.6650968 C1.90335484,16.6674194 1.90741935,16.6717742 1.91322581,16.6732258 L1.93354839,16.676129 C2.12516129,16.7254839 2.31677419,16.7690323 2.49677419,16.8096774 C2.51709677,16.812871 2.53770968,16.8157742 2.55774194,16.8157742 C2.69448387,16.8157742 2.81322581,16.7199677 2.84225806,16.5864194 C2.85677419,16.5109355 2.84516129,16.4325484 2.80132258,16.3686774 C2.76096774,16.3045161 2.69448387,16.2580645 2.61870968,16.2406452 C2.43029032,16.2 2.24129032,16.1564516 2.0583871,16.1102903 C1.94458065,16.0800968 1.82845161,16.1253871 1.75877419,16.2127742 C1.51867742,15.3865161 1.35725806,14.6023548 1.27683871,13.8724839 L3.85229032,16.4479355 C3.82151613,16.4441613 3.79045161,16.4427097 3.75996774,16.4383548 L3.75677419,16.452871 L3.75387097,16.4383548 C3.59419355,16.4206452 3.44903226,16.5341613 3.42870968,16.6909355 C3.42580645,16.7025484 3.42580645,16.713871 3.42580645,16.7286774 C3.42580645,16.8738387 3.53612903,16.9957742 3.68129032,17.0158065 C3.88451613,17.0422258 4.08483871,17.0622581 4.27964516,17.0767742 C4.28806452,17.0767742 4.29416129,17.0767742 4.30258065,17.0767742 C4.35687097,17.0767742 4.40506452,17.0579032 4.4486129,17.0314839 C4.49912903,17.0680645 4.55632258,17.0915806 4.61612903,17.0915806 C4.69045161,17.0915806 4.76477419,17.063129 4.8213871,17.0065161 C4.93490323,16.893 4.93490323,16.7095161 4.8213871,16.596 L1.21906452,12.9936774 C1.20135484,12.1793226 1.296,11.4468387 1.50183871,10.8127742 L6.99677419,16.3077097 C6.94887097,16.3602581 6.9183871,16.4273226 6.9183871,16.5019355 C6.9183871,16.5309677 6.92129032,16.5629032 6.93290323,16.5948387 C6.97064516,16.7135806 7.08096774,16.7922581 7.20870968,16.7922581 C7.24035484,16.7922581 7.26967742,16.7893548 7.29870968,16.7777419 L7.31641935,16.7716452 C7.51383871,16.7051613 7.70254839,16.6296774 7.87674194,16.5480968 C8.02190323,16.4784194 8.08577419,16.307129 8.01580645,16.1619677 C7.95193548,16.0226129 7.77193548,15.9558387 7.62996774,16.0226129 C7.60819355,16.0330645 7.58467742,16.0417742 7.56232258,16.0519355 L1.73670968,10.2266129 C1.93209677,9.82712903 2.17945161,9.477 2.48429032,9.18667742 C2.60070968,9.07577419 2.72729032,8.97706452 2.85793548,8.88416129 L8.96429032,14.9905161 C8.94541935,15.0044516 8.92480645,15.0166452 8.90970968,15.0355161 C8.79648387,15.1745806 8.67193548,15.3055161 8.5383871,15.4274516 C8.47741935,15.4797097 8.44258065,15.5580968 8.44258065,15.6422903 C8.44258065,15.7119677 8.46870968,15.7813548 8.51806452,15.8368065 C8.57032258,15.8977742 8.64870968,15.9326129 8.73290323,15.9326129 C8.80548387,15.9326129 8.87487097,15.9064839 8.92741935,15.8600323 L8.95354839,15.8339032 C9.1016129,15.6971613 9.23777419,15.552 9.36290323,15.3984194 C9.40296774,15.3461613 9.42096774,15.2825806 9.42096774,15.2178387 C9.46248387,15.2041935 9.50196774,15.1835806 9.53477419,15.1504839 C9.64829032,15.0369677 9.64829032,14.8534839 9.53477419,14.7399677 L3.37325806,8.57874194 C3.95709677,8.29945161 4.64719355,8.16329032 5.42351613,8.16503226 L9.7316129,12.473129 L9.7316129,12.4780645 C9.73480645,12.6348387 9.85935484,12.7625806 10.0190323,12.7625806 L10.0219355,12.7625806 C10.1787097,12.7625806 10.3093548,12.6348387 10.3122581,12.4780645 C10.3122581,12.4519355 10.3122581,12.4231935 10.3122581,12.3970645 C10.3122581,12.383129 10.3108065,12.3683226 10.3105161,12.3543871 C10.3105161,12.3523548 10.3102258,12.3503226 10.3102258,12.3482903 C10.3093548,12.1894839 10.305,12.0292258 10.2919355,11.8657742 C10.2803226,11.7058065 10.1467742,11.583871 9.98129032,11.5954839 C9.9026129,11.6015806 9.83322581,11.6390323 9.78096774,11.6973871 C9.7803871,11.6982581 9.78009677,11.6994194 9.77951613,11.7 L6.30232258,8.22280645 C7.12364516,8.325 8.02277419,8.56190323 8.98490323,8.93583871 C9.00958065,9.00087097 9.03367742,9.06474194 9.06096774,9.13354839 C9.1016129,9.24677419 9.21193548,9.32516129 9.33358065,9.32516129 C9.36551613,9.32516129 9.40035484,9.31906452 9.43258065,9.30483871 C9.50225806,9.27987097 9.55567742,9.22703226 9.58877419,9.16287097 C10.7239355,9.57077419 11.7757742,9.792 12.7216452,9.828 C12.7291935,9.82858065 12.7361613,9.83235484 12.7437097,9.83235484 C12.7477742,9.83235484 12.7515484,9.83032258 12.7556129,9.83003226 C14.1979355,9.87851613 15.3911613,9.495 16.2467419,8.67948387 C16.6468065,8.29858065 16.9603548,7.82912903 17.1920323,7.28651613 C17.1963871,7.27751613 17.2010323,7.2693871 17.2042258,7.26009677 C17.5436129,6.45125806 17.6942903,5.47519355 17.6591613,4.37051613 C17.6655484,4.33306452 17.6646774,4.29619355 17.6562581,4.25932258 C17.6182258,3.3776129 17.4611613,2.41519355 17.1853548,1.38948387 C17.2318065,1.40516129 17.2779677,1.42025806 17.325,1.43622581 C17.3566452,1.44667742 17.3882903,1.4516129 17.4193548,1.4516129 Z" id="Shape"></path>
            </g>
        </g>
    </g>
</svg>