<?xml version="1.0" encoding="UTF-8"?>
<svg width="18px" height="18px" viewBox="0 0 18 18" version="1.1" xmlns="http://www.w3.org/2000/svg" xmlns:xlink="http://www.w3.org/1999/xlink">
    <!-- Generator: Sketch 51.3 (57544) - http://www.bohemiancoding.com/sketch -->
    <title>edit</title>
    <desc>Created with Sketch.</desc>
    <defs></defs>
    <g id="Symbols" stroke="none" stroke-width="1" fill="none" fill-rule="evenodd">
        <g id="16" fill="#00AFFF" fill-rule="nonzero">
            <g id="edit">
                <path d="M17.2739496,16.3815126 L0.72605042,16.3815126 C0.378151261,16.3815126 0.105882353,16.6689076 0.105882353,17.0016807 C0.105882353,17.3344538 0.393277311,17.6218487 0.72605042,17.6218487 L17.2890756,17.6218487 C17.6369748,17.6218487 17.9092437,17.3344538 17.9092437,17.0016807 C17.9092437,16.6689076 17.6218487,16.3815126 17.2739496,16.3815126 Z" id="Shape"></path>
                <path d="M0.105882353,10.8907563 L0.0907563025,13.8403361 C0.0907563025,14.0067227 0.151260504,14.1731092 0.272268908,14.2941176 C0.393277311,14.4151261 0.544537815,14.4756303 0.71092437,14.4756303 L3.64537815,14.4605042 C3.81176471,14.4605042 3.96302521,14.4 4.08403361,14.2789916 L14.2184874,4.14453782 C14.4605042,3.90252101 14.4605042,3.5092437 14.2184874,3.25210084 L11.3142857,0.317647059 C11.0722689,0.0756302521 10.6789916,0.0756302521 10.4218487,0.317647059 L8.39495798,2.35966387 L0.287394958,10.4521008 C0.181512605,10.5731092 0.105882353,10.7243697 0.105882353,10.8907563 Z M10.8756303,1.6487395 L12.9176471,3.6907563 L11.7680672,4.84033613 L9.72605042,2.79831933 L10.8756303,1.6487395 Z M1.36134454,11.1630252 L8.83361345,3.6907563 L10.8756303,5.73277311 L3.40336134,13.189916 L1.34621849,13.205042 L1.36134454,11.1630252 Z" id="Shape"></path>
            </g>
        </g>
    </g>
</svg>