<?xml version="1.0" encoding="UTF-8"?>
<svg width="100px" height="100px" viewBox="0 0 100 100" version="1.1" xmlns="http://www.w3.org/2000/svg" xmlns:xlink="http://www.w3.org/1999/xlink">
    <!-- Generator: Sketch 51.3 (57544) - http://www.bohemiancoding.com/sketch -->
    <title>gps</title>
    <desc>Created with Sketch.</desc>
    <defs></defs>
    <g id="Symbols" stroke="none" stroke-width="1" fill="none" fill-rule="evenodd">
        <g id="5" fill-rule="nonzero">
            <g id="gps">
                <path d="M93.3333984,0 L6.66660156,0 C3.125,0 0,3.125 0,6.66660156 L0,93.3332031 C0,97.0833984 3.125,100 6.66660156,100 L93.3332031,100 C97.0832031,100 99.9998047,97.0833984 99.9998047,93.3333984 L99.9998047,6.66660156 C100,3.125 97.0833984,0 93.3333984,0 Z" id="Shape" fill="#008CCC"></path>
                <rect id="Rectangle-path" fill="#00EFD1" x="8.95839844" y="8.95839844" width="82.0833984" height="82.0833984"></rect>
                <g id="Group" transform="translate(8.789062, 8.593750)" fill="#FFFFFF">
                    <path d="M82.2525391,17.4478516 C77.6691406,18.90625 73.7109375,20.78125 70.3775391,23.0728516 C61.2109375,18.4894531 51.4191406,15.5728516 42.0441406,13.90625 L44.7525391,0.572851563 L40.1691406,0.572851563 L37.6693359,13.28125 C22.4609375,10.5728516 8.7109375,11.1978516 0.169335937,12.03125 L0.169335937,14.3228516 C8.7109375,13.4894531 22.2527344,13.0728516 37.2527344,15.3644531 L29.3359375,54.53125 L34.9609375,73.28125 L8.29433594,60.3646484 C18.5027344,54.1146484 25.3777344,44.7396484 27.8777344,33.6980469 C28.2943359,31.4064453 28.5027344,29.9480469 28.5027344,29.9480469 L24.1277344,29.3230469 C24.1277344,29.3230469 23.9193359,30.7814453 23.5027344,32.8646484 C21.2109375,43.4896484 13.9193359,52.65625 3.29433594,58.0728516 L0.169335937,56.6144531 L0.169335937,59.1144531 L0.794335938,59.3228516 C0.5859375,59.53125 0.377734375,59.53125 0.169335937,59.7394531 L0.169335937,64.9478516 C1.2109375,64.1146484 2.4609375,63.28125 3.91933594,62.65625 C4.54433594,62.2396484 5.16933594,62.03125 6.00273437,61.6146484 L36.2111328,75.9896484 L38.0861328,82.4480469 L42.6695313,82.4480469 L41.4195313,78.4896484 L49.5445313,82.4480469 L54.7529297,82.4480469 L40.5859375,75.78125 L34.1275391,54.1146484 L41.8359375,15.9896484 C50.5859375,17.65625 59.7525391,20.3646484 68.2943359,24.53125 C56.0027344,33.4896484 52.6693359,44.9478516 52.4609375,45.5728516 L56.8359375,46.6144531 C56.8359375,46.4060547 59.9609375,35.1560547 72.8775391,26.8228516 C76.0025391,28.6978516 79.3359375,30.5728516 82.2525391,32.8644531 L82.2525391,30.15625 C79.9609375,28.4896484 77.4609375,26.8228516 75.1691406,25.3646484 C77.2525391,24.1146484 79.7525391,23.0730469 82.2525391,22.03125 L82.2525391,17.4478516 Z" id="Shape"></path>
                    <path d="M37.6693359,5.57285156 L36.6277344,11.1978516 C34.3361328,10.9894531 32.0443359,10.5728516 29.3361328,10.3644531 C29.3361328,10.3644531 29.3361328,10.5728516 29.1277344,10.5728516 C28.2943359,12.03125 27.4611328,13.6978516 27.0443359,15.5728516 C29.9609375,15.78125 32.8777344,16.1978516 35.5859375,16.40625 L33.2943359,27.4478516 C30.5859375,25.5728516 28.7109375,23.28125 27.4609375,20.3646484 C27.0443359,19.53125 26.8359375,18.4896484 26.6275391,17.2396484 C26.0025391,19.7396484 25.7941406,22.4480469 25.5859375,24.53125 L25.5859375,24.7396484 C25.7943359,25.3646484 26.0025391,25.9896484 26.0025391,26.8230469 C26.2109375,28.6980469 26.6275391,30.1564453 27.2525391,31.6146484 C27.6691406,32.2396484 27.8775391,32.65625 28.2941406,33.28125 C33.0857422,39.53125 44.1275391,40.5728516 52.6691406,37.03125 C48.9191406,34.53125 44.7525391,32.4478516 40.5857422,30.9896484 L40.3773438,30.9896484 L43.0859375,17.65625 C50.3775391,19.1146484 57.2525391,21.1978516 63.7109375,23.90625 C63.9193359,22.2396484 63.7109375,20.5728516 63.2943359,18.6978516 C63.2943359,18.4894531 63.2943359,18.0728516 63.0859375,17.8644531 C57.0443359,15.5728516 50.7943359,13.6978516 44.1275391,12.2394531 L46.0025391,3.28105469 C42.2525391,3.69785156 39.5443359,4.53125 37.6693359,5.57285156 Z" id="Shape"></path>
                    <path d="M10.3775391,0.364648437 C8.7109375,7.23964844 7.4609375,17.4478516 11.4193359,27.03125 C15.3777344,36.40625 23.0859375,43.28125 34.7527344,47.2396484 C52.0443359,53.28125 59.7525391,69.53125 63.0859375,82.2396484 L79.3359375,82.2396484 C75.7943359,65.5730469 66.2109375,41.6146484 40.1693359,32.4480469 C32.8777344,29.9480469 28.5027344,26.1980469 26.2109375,20.9896484 C22.8775391,13.0730469 25.5859375,3.69804688 26.8359375,0.15625 L10.3775391,0.15625 L10.3775391,0.364648437 Z" id="Shape"></path>
                </g>
                <g id="Group" transform="translate(24.023438, 13.476562)" fill="#083863">
                    <path d="M5.14316406,24.6484375 L7.01816406,23.3984375 C5.3515625,21.1068359 4.1015625,18.6068359 3.4765625,15.6900391 L1.39316406,16.3150391 C2.01816406,19.2318359 3.4765625,22.1484375 5.14316406,24.6484375 Z" id="Shape"></path>
                    <path d="M0.9765625,0.0650390625 C0.559960938,2.7734375 0.143164063,5.2734375 0.143164063,7.7734375 C0.143164063,8.19003906 0.143164063,8.81503906 0.143164063,9.23183594 L2.43476563,9.23183594 C2.43476563,8.81523438 2.43476563,8.19023437 2.43476563,7.7734375 C2.43476563,5.48183594 2.64316406,2.98183594 3.05976562,0.481835937 L0.9765625,0.0650390625 Z" id="Shape"></path>
                    <path d="M44.5181641,50.2734375 C42.6431641,47.7734375 40.5597656,45.4818359 38.2681641,43.6068359 L36.8097656,45.2734375 C38.8931641,47.1484375 40.9763672,49.2318359 42.8513672,51.7318359 L44.5181641,50.2734375 Z" id="Shape"></path>
                    <path d="M54.9349609,70.2734375 L52.8515625,70.8984375 C53.4765625,72.9818359 54.1015625,75.2734375 54.7265625,77.3568359 L57.0181641,77.3568359 C56.3931641,75.0650391 55.7681641,72.5650391 54.9349609,70.2734375 Z" id="Shape"></path>
                    <path d="M48.4765625,55.8984375 L46.6015625,57.1484375 C48.0599609,59.6484375 49.3099609,62.1484375 50.5599609,65.0650391 L52.6433594,64.2316406 C51.3931641,61.1068359 49.9349609,58.3984375 48.4765625,55.8984375 Z" id="Shape"></path>
                </g>
                <rect id="Rectangle-path" fill="#083863" transform="translate(67.908022, 50.215533) rotate(144.170604) translate(-67.908022, -50.215533) " x="63.6368344" y="44.5899871" width="8.54237571" height="11.2510911"></rect>
                <path d="M71.875,16.875 C64.5833984,6.875 50.4166016,4.58339844 40.2083984,11.875 C30.2083984,19.1666016 27.9167969,33.3333984 35.2083984,43.3333984 C42.5,53.5417969 56.6667969,55.625 66.6667969,48.3333984 C76.875,41.25 79.1666016,27.0833984 71.875,16.875 Z M62.5,42.7083984 C55.625,47.7083984 45.8333984,46.25 40.8333984,39.1667969 C35.8333984,32.2917969 37.2917969,22.5001953 44.375,17.5001953 C51.25,12.5001953 61.0416016,13.9585937 66.0416016,21.0417969 C71.0416016,28.125 69.5833984,37.7083984 62.5,42.7083984 Z" id="Shape" fill="#00ACEA"></path>
                <path d="M83.5416016,60.2083984 L76.25,50 C75.625,49.1666016 74.5833984,48.9583984 73.75,49.5833984 L66.0416016,55.2083984 C65.2082031,55.8333984 65,56.875 65.625,57.7083984 L72.9166016,67.9167969 C75,70.8333984 79.1666016,71.6667969 82.2916016,69.3751953 C85,67.5 85.625,63.3333984 83.5416016,60.2083984 Z" id="Shape" fill="#083863"></path>
                <path d="M77.7083984,48.75 C76.875,47.7083984 75.625,47.5 74.5833984,48.125 L63.9583984,55.8333984 C62.9167969,56.4583984 62.9167969,57.9167969 63.5417969,58.9583984 C64.3751953,60 65.6251953,60.2083984 66.6667969,59.5833984 L77.2917969,51.875 C78.3333984,51.25 78.5416016,49.7916016 77.7083984,48.75 Z" id="Shape" fill="#00ACEA"></path>
            </g>
        </g>
    </g>
</svg>