<?xml version="1.0" encoding="UTF-8"?>
<svg width="17px" height="13px" viewBox="0 0 17 13" version="1.1" xmlns="http://www.w3.org/2000/svg" xmlns:xlink="http://www.w3.org/1999/xlink">
    <!-- Generator: Sketch 51.3 (57544) - http://www.bohemiancoding.com/sketch -->
    <title>Group 2</title>
    <desc>Created with Sketch.</desc>
    <defs></defs>
    <g id="Symbols" stroke="none" stroke-width="1" fill="none" fill-rule="evenodd">
        <g id="Blue-Filter" transform="translate(0.000000, -2.000000)" stroke="#008CCC">
            <g id="Group-2" transform="translate(0.000000, 3.000000)">
                <g id="Group">
                    <path d="M2.9,1.76666667 L2.9,1.63333333 L0.5,1.63333333 L0.5,1.76666667 L2.9,1.76666667 Z" id="Rectangle-3"></path>
                    <circle id="Oval" cx="4.53333333" cy="1.13333333" r="1.13333333"></circle>
                    <path d="M6.16666667,1.63333333 L6.16666667,1.76666667 L16.5,1.76666667 L16.5,1.63333333 L6.16666667,1.63333333 Z" id="Rectangle-3"></path>
                </g>
                <g id="Group" transform="translate(8.500000, 6.033333) scale(-1, 1) translate(-8.500000, -6.033333) translate(0.000000, 4.533333)">
                    <path d="M2.9,1.76666667 L2.9,1.63333333 L0.5,1.63333333 L0.5,1.76666667 L2.9,1.76666667 Z" id="Rectangle-3"></path>
                    <circle id="Oval" cx="4.53333333" cy="1.13333333" r="1.13333333"></circle>
                    <path d="M6.16666667,1.63333333 L6.16666667,1.76666667 L16.5,1.76666667 L16.5,1.63333333 L6.16666667,1.63333333 Z" id="Rectangle-3"></path>
                </g>
                <g id="Group" transform="translate(0.000000, 9.066667)">
                    <path d="M2.9,1.76666667 L2.9,1.63333333 L0.5,1.63333333 L0.5,1.76666667 L2.9,1.76666667 Z" id="Rectangle-3"></path>
                    <circle id="Oval" cx="4.53333333" cy="1.13333333" r="1.13333333"></circle>
                    <path d="M6.16666667,1.63333333 L6.16666667,1.76666667 L16.5,1.76666667 L16.5,1.63333333 L6.16666667,1.63333333 Z" id="Rectangle-3"></path>
                </g>
            </g>
        </g>
    </g>
</svg>