<?xml version="1.0" encoding="UTF-8"?>
<svg width="18px" height="17px" viewBox="0 0 18 17" version="1.1" xmlns="http://www.w3.org/2000/svg" xmlns:xlink="http://www.w3.org/1999/xlink">
    <!-- Generator: Sketch 51.3 (57544) - http://www.bohemiancoding.com/sketch -->
    <title>image</title>
    <desc>Created with Sketch.</desc>
    <defs></defs>
    <g id="Symbols" stroke="none" stroke-width="1" fill="none" fill-rule="evenodd">
        <g id="17" transform="translate(0.000000, -1.000000)" fill="#00AFFF" fill-rule="nonzero">
            <g id="image" transform="translate(0.000000, 1.000000)">
                <path d="M9.35673684,0.0116842105 L0.374280702,0.0116842105 C0.167684211,0.0116842105 0,0.179368421 0,0.385964912 L0,9.36842105 C0,9.57501754 0.167684211,9.74270175 0.374280702,9.74270175 L9.35673684,9.74270175 C9.56333333,9.74270175 9.73101754,9.57501754 9.73101754,9.36842105 L9.73101754,0.385964912 C9.73098246,0.179368421 9.56333333,0.0116842105 9.35673684,0.0116842105 Z M8.98245614,8.99414035 L0.748526316,8.99414035 L0.748526316,0.760245614 L8.98245614,0.760245614 L8.98245614,8.99414035 Z" id="Shape"></path>
                <path d="M8.19424561,7.70368421 L6.69715789,4.70954386 C6.64326316,4.60175439 6.54147368,4.52691228 6.42245614,4.5074386 C6.30192982,4.48722807 6.18291228,4.52764912 6.09757895,4.61224561 L4.96803509,5.74178947 L3.70301754,3.21249123 C3.63564912,3.07701754 3.49715789,2.99466667 3.34147368,3.00663158 C3.19101754,3.01785965 3.06150877,3.11817544 3.01361404,3.26112281 L1.51652632,7.75235088 C1.47761404,7.86687719 1.49705263,7.99263158 1.5674386,8.08992982 C1.63778947,8.188 1.75084211,8.24561404 1.87133333,8.24561404 L7.85964912,8.24561404 C7.98915789,8.24561404 8.10964912,8.17750877 8.17778947,8.06747368 C8.24592982,7.9574386 8.25263158,7.81968421 8.19424561,7.70368421 Z M2.39084211,7.49708772 L3.43803509,4.35621053 L4.53091228,6.54192982 C4.58480702,6.6497193 4.68659649,6.7245614 4.80561404,6.74403509 C4.92463158,6.76350877 5.04515789,6.72382456 5.13049123,6.63922807 L6.26003509,5.50894737 L7.25410526,7.49705263 L2.39084211,7.49705263 L2.39084211,7.49708772 Z" id="Shape"></path>
                <path d="M6.73684211,1.50877193 C5.91119298,1.50877193 5.23975439,2.18021053 5.23975439,3.00585965 C5.23975439,3.83150877 5.91119298,4.50294737 6.73684211,4.50294737 C7.56249123,4.50294737 8.23392982,3.83150877 8.23392982,3.00585965 C8.23392982,2.18021053 7.56249123,1.50877193 6.73684211,1.50877193 Z M6.73684211,3.75438596 C6.32438596,3.75438596 5.98831579,3.4182807 5.98831579,3.00585965 C5.98831579,2.59340351 6.32442105,2.25733333 6.73684211,2.25733333 C7.14926316,2.25733333 7.48536842,2.5934386 7.48536842,3.00585965 C7.48536842,3.4182807 7.14929825,3.75438596 6.73684211,3.75438596 Z" id="Shape"></path>
                <path d="M17.5906316,8.99414035 L11.6023509,8.99414035 C11.3957544,8.99414035 11.2280702,9.16182456 11.2280702,9.36842105 C11.2280702,9.57501754 11.3957544,9.74270175 11.6023509,9.74270175 L17.5906667,9.74270175 C17.7972632,9.74270175 17.9649474,9.57501754 17.9649474,9.36842105 C17.9649474,9.16182456 17.7972281,8.99414035 17.5906316,8.99414035 Z" id="Shape"></path>
                <path d="M17.5906316,11.2397544 L0.374280702,11.2397544 C0.167684211,11.2397544 0,11.4074386 0,11.6140351 C0,11.8206316 0.167684211,11.9883158 0.374280702,11.9883158 L17.5906667,11.9883158 C17.7972632,11.9883158 17.9649474,11.8206316 17.9649474,11.6140351 C17.9649123,11.4074386 17.7972281,11.2397544 17.5906316,11.2397544 Z" id="Shape"></path>
                <path d="M17.5906316,13.4853684 L0.374280702,13.4853684 C0.167684211,13.4853684 0,13.6530526 0,13.8596491 C0,14.0662456 0.167684211,14.2339298 0.374280702,14.2339298 L17.5906667,14.2339298 C17.7972632,14.2339298 17.9649474,14.0662456 17.9649474,13.8596491 C17.9649123,13.6530526 17.7972281,13.4853684 17.5906316,13.4853684 Z" id="Shape"></path>
                <path d="M17.5906316,15.7309825 L0.374280702,15.7309825 C0.167684211,15.7309825 0,15.8986667 0,16.1052632 C0,16.3118596 0.167684211,16.4795439 0.374280702,16.4795439 L17.5906667,16.4795439 C17.7972632,16.4795439 17.9649474,16.3118596 17.9649474,16.1052632 C17.9649123,15.8986667 17.7972281,15.7309825 17.5906316,15.7309825 Z" id="Shape"></path>
            </g>
        </g>
    </g>
</svg>