<?xml version="1.0" encoding="UTF-8"?>
<svg width="18px" height="15px" viewBox="0 0 18 15" version="1.1" xmlns="http://www.w3.org/2000/svg" xmlns:xlink="http://www.w3.org/1999/xlink">
    <!-- Generator: Sketch 51.3 (57544) - http://www.bohemiancoding.com/sketch -->
    <title>layout</title>
    <desc>Created with Sketch.</desc>
    <defs></defs>
    <g id="Symbols" stroke="none" stroke-width="1" fill="none" fill-rule="evenodd">
        <g id="18" transform="translate(0.000000, -2.000000)" fill="#00AFFF" fill-rule="nonzero">
            <g id="layout" transform="translate(0.000000, 2.000000)">
                <path d="M18,0.720703125 C18,0.332336426 17.6852417,0.017578125 17.296875,0.017578125 C16.8288574,0.017578125 1.17114258,0.017578125 0.703125,0.017578125 C0.314758301,0.017578125 0,0.332336426 0,0.720703125 L0,13.7988281 C0,14.1871948 0.314758301,14.5019531 0.703125,14.5019531 C0.707794172,14.5019531 17.2924805,14.496872 17.296875,14.496872 C17.6852417,14.496872 18,14.1819763 18,13.793747 C18,13.2639313 18,1.28361512 18,0.720703125 Z M8.296875,13.0957031 L1.40625,13.0957031 L1.40625,1.42382812 L8.296875,1.42382812 L8.296875,13.0957031 Z M16.59375,13.090622 L9.703125,13.090622 L9.703125,7.96289063 L16.59375,7.96289063 L16.59375,13.090622 Z M16.59375,6.55155946 L9.703125,6.55155946 L9.703125,1.42382813 L16.59375,1.42382813 L16.59375,6.55155946 Z M2.42578125,3.98666384 C2.42578125,3.5982971 2.74053955,3.28353884 3.12890625,3.28353884 L6.57421875,3.28353884 C6.96258545,3.28353884 7.27734375,3.5982971 7.27734375,3.98666384 C7.27734375,4.3750305 6.96258545,4.68978884 6.57421875,4.68978884 L3.12890625,4.68978884 C2.74053955,4.68978884 2.42578125,4.3750305 2.42578125,3.98666384 Z M2.42578125,7.25976563 C2.42578125,6.87139893 2.74053955,6.55664063 3.12890625,6.55664063 L6.57421875,6.55664063 C6.96258545,6.55664063 7.27734375,6.87139893 7.27734375,7.25976563 C7.27734375,7.64813232 6.96258545,7.96289063 6.57421875,7.96289063 L3.12890625,7.96289063 C2.74053955,7.96289063 2.42578125,7.64813232 2.42578125,7.25976563 Z M2.42578125,10.5328674 C2.42578125,10.1445008 2.74053955,9.82974241 3.12890625,9.82974241 L6.57421875,9.82974241 C6.96258545,9.82974241 7.27734375,10.1445008 7.27734375,10.5328674 C7.27734375,10.9212341 6.96258545,11.2359924 6.57421875,11.2359924 L3.12890625,11.2359924 C2.74053955,11.2359924 2.42578125,10.9212341 2.42578125,10.5328674 Z" id="Shape"></path>
            </g>
        </g>
    </g>
</svg>