<?xml version="1.0" encoding="UTF-8"?>
<svg width="15px" height="18px" viewBox="0 0 15 18" version="1.1" xmlns="http://www.w3.org/2000/svg" xmlns:xlink="http://www.w3.org/1999/xlink">
    <!-- Generator: Sketch 51.3 (57544) - http://www.bohemiancoding.com/sketch -->
    <title>low-price</title>
    <desc>Created with Sketch.</desc>
    <defs></defs>
    <g id="Symbols" stroke="none" stroke-width="1" fill="none" fill-rule="evenodd">
        <g id="11" transform="translate(-1.000000, 0.000000)" fill="#00AFFF" fill-rule="nonzero">
            <g id="low-price" transform="translate(1.000000, 0.000000)">
                <path d="M14.7375,10.5 L12.6375,10.5 L12.6375,0.3 C12.6375,0.134325 12.503175,0 12.3375,0 L2.7375,0 C2.571825,0 2.4375,0.134325 2.4375,0.3 L2.4375,10.5 L0.3375,10.5 C0.2557125,10.5 0.17745,10.533375 0.1208625,10.5924375 C0.006225,10.7120625 0.010275,10.9019625 0.1299,11.0166 L7.3299,17.9166 C7.385775,17.9701125 7.4601375,18 7.5375,18 C7.6148625,18 7.6892625,17.9701125 7.7451,17.9166 L14.9451,11.0166 C15.0041625,10.9600125 15.0375375,10.88175 15.0375375,10.7999625 C15.0375,10.6342875 14.903175,10.5 14.7375,10.5 Z M7.5375,17.2845 L1.0839,11.1 L2.7375,11.1 C2.903175,11.1 3.0375,10.965675 3.0375,10.8 L3.0375,0.6 L12.0375,0.6 L12.0375,10.8 C12.0375,10.965675 12.171825,11.1 12.3375,11.1 L13.9911,11.1 L7.5375,17.2845 Z" id="Shape" transform="translate(7.537501, 9.000000) scale(1, -1) translate(-7.537501, -9.000000) "></path>
                <path d="M7.5375,4.5 C8.2002375,4.5 8.7375,5.0372625 8.7375,5.7 L9.3375,5.7 C9.3358875,4.8226125 8.702475,4.0739625 7.8375,3.927 L7.8375,3.3 L7.2375,3.3 L7.2375,3.927 C6.2583,4.09845 5.6034375,5.031225 5.7748875,6.0104625 C5.925,6.867825 6.6670875,7.494975 7.5375,7.5 C8.2002375,7.5 8.7375,8.0372625 8.7375,8.7 C8.7375,9.3627375 8.2002375,9.9 7.5375,9.9 C6.8747625,9.9 6.3375,9.3627375 6.3375,8.7 L5.7375,8.7 C5.7391125,9.5773875 6.372525,10.3260375 7.2375,10.473 L7.2375,11.1 L7.8375,11.1 L7.8375,10.473 C8.8167,10.30155 9.4715625,9.368775 9.3001125,8.3895375 C9.15,7.532175 8.4079125,6.905025 7.5375,6.9 C6.8747625,6.9 6.3375,6.3627375 6.3375,5.7 C6.3375,5.0372625 6.8747625,4.5 7.5375,4.5 Z" id="Shape"></path>
            </g>
        </g>
    </g>
</svg>