<?xml version="1.0" encoding="UTF-8"?>
<svg width="18px" height="18px" viewBox="0 0 18 18" version="1.1" xmlns="http://www.w3.org/2000/svg" xmlns:xlink="http://www.w3.org/1999/xlink">
    <!-- Generator: Sketch 51.3 (57544) - http://www.bohemiancoding.com/sketch -->
    <title>resize</title>
    <desc>Created with Sketch.</desc>
    <defs></defs>
    <g id="Symbols" stroke="none" stroke-width="1" fill="none" fill-rule="evenodd">
        <g id="12" fill="#00AFFF" fill-rule="nonzero">
            <g id="resize">
                <path d="M7.04438478,10.1639996 L1.12018409,16.0880661 L1.12018409,13.144162 C1.12018409,12.8351288 0.869983613,12.5841091 0.560092047,12.5841091 C0.250479411,12.5841091 0,12.8348499 0,13.144162 L0,17.439947 C0,17.5127427 0.014783306,17.5852596 0.0432341969,17.6538716 C0.0998570482,17.7910958 0.208918796,17.899871 0.346152505,17.9570477 C0.414490429,17.9852177 0.487291238,18 0.560092047,18 L4.85645549,18 C5.1657892,18 5.41654754,17.7495381 5.41654754,17.439947 C5.41654754,17.130356 5.16606813,16.879894 4.85645549,16.879894 L1.91206722,16.879894 L7.83598898,10.9558275 C8.05467034,10.7371614 8.05467034,10.3826657 7.83598898,10.1639996 C7.61730763,9.94533347 7.26306614,9.94533347 7.04438478,10.1639996 Z" id="Shape"></path>
                <path d="M17.9567658,0.346116302 C17.900143,0.209175847 17.7910812,0.100125506 17.6538475,0.042950774 C17.5855096,0.0147817599 17.5127088,0 17.439908,0 L13.1435445,0 C12.8342108,0 12.5834525,0.250453214 12.5834525,0.560033468 C12.5834525,0.869613722 12.8339319,1.12006694 13.1435445,1.12006694 L16.0879328,1.12006694 L10.164011,7.04392693 C9.94532966,7.26258541 9.94532966,7.61706875 10.164011,7.83572723 C10.2733517,7.94505648 10.4167219,8 10.560092,8 C10.7034622,8 10.8465535,7.94505648 10.9558941,7.83572723 L16.8798159,1.91186724 L16.8798159,4.85566867 C16.8798159,5.16469112 17.1300164,5.41570213 17.439908,5.41570213 C17.7492417,5.41570213 18,5.16497002 18,4.85566867 L18,0.560033468 C18,0.487240273 17.9852167,0.414447079 17.9567658,0.346116302 Z" id="Shape"></path>
            </g>
        </g>
    </g>
</svg>