<?xml version="1.0" encoding="UTF-8"?>
<svg width="18px" height="18px" viewBox="0 0 18 18" version="1.1" xmlns="http://www.w3.org/2000/svg" xmlns:xlink="http://www.w3.org/1999/xlink">
    <!-- Generator: Sketch 51.3 (57544) - http://www.bohemiancoding.com/sketch -->
    <title>search copy</title>
    <desc>Created with Sketch.</desc>
    <defs></defs>
    <g id="Symbols" stroke="none" stroke-width="1" fill="none" fill-rule="evenodd">
        <g id="Search-2" fill="#008CCC" fill-rule="nonzero">
            <g id="search-copy">
                <path d="M17.4145263,16.3853684 L13.1330526,11.9324211 C14.2338947,10.6237895 14.8370526,8.97726316 14.8370526,7.26315789 C14.8370526,3.25831579 11.5787368,0 7.57389474,0 C3.56905263,0 0.310736842,3.25831579 0.310736842,7.26315789 C0.310736842,11.268 3.56905263,14.5263158 7.57389474,14.5263158 C9.07736842,14.5263158 10.5101053,14.0728421 11.7350526,13.212 L16.0490526,17.6987368 C16.2293684,17.886 16.4718947,17.9892632 16.7317895,17.9892632 C16.9777895,17.9892632 17.2111579,17.8954737 17.3883158,17.7249474 C17.7647368,17.3627368 17.7767368,16.7621053 17.4145263,16.3853684 Z M7.57389474,1.89473684 C10.5341053,1.89473684 12.9423158,4.30294737 12.9423158,7.26315789 C12.9423158,10.2233684 10.5341053,12.6315789 7.57389474,12.6315789 C4.61368421,12.6315789 2.20547368,10.2233684 2.20547368,7.26315789 C2.20547368,4.30294737 4.61368421,1.89473684 7.57389474,1.89473684 Z" id="Shape"></path>
            </g>
        </g>
    </g>
</svg>