<?xml version="1.0" encoding="UTF-8"?>
<svg width="86px" height="100px" viewBox="0 0 86 100" version="1.1" xmlns="http://www.w3.org/2000/svg" xmlns:xlink="http://www.w3.org/1999/xlink">
    <!-- Generator: Sketch 52 (66869) - http://www.bohemiancoding.com/sketch -->
    <title>shopping-bag</title>
    <desc>Created with Sketch.</desc>
    <g id="Symbols" stroke="none" stroke-width="1" fill="none" fill-rule="evenodd">
        <g id="7" transform="translate(-7.000000, 0.000000)" fill-rule="nonzero">
            <g id="shopping-bag" transform="translate(7.000000, 0.000000)">
                <path d="M67.2024227,26.9215238 L83.1794248,26.9215238 L83.1794243,88.6288625 C83.1811798,93.5937501 79.1555479,97.619382 74.1906602,97.6176265 L26.1007726,97.6176265 C21.1358849,97.619382 17.1111306,93.5937501 17.1120085,88.6288625 L17.1120084,26.9215238 L67.2024227,26.9215238 Z" id="Shape" fill="#00EFD1"></path>
                <path d="M26.1007726,97.6176568 L11.2693119,97.6176265 C6.30442427,97.619382 2.27966989,93.5937501 2.28054787,88.6288625 L2.28054772,26.9215238 L5.04476831,28.5840942 C7.91257034,30.3142557 11.502809,30.3142557 14.370611,28.5840942 L17.1348315,26.9215238 L17.1348315,88.6288625 C17.1251755,91.0121137 18.0661867,93.3005618 19.7489465,94.9877106 C21.4317065,96.6748596 23.7183989,97.6220155 26.1007726,97.6176568 Z" id="Shape" fill="#00ACEA"></path>
                <path d="M83.1794243,24.6743328 L69.4267908,24.6743328 L69.4267908,18.6516854 C69.4311798,8.34884135 61.0779494,-0.00438903371 50.7751054,3.19345101e-15 C48.8702598,3.19345101e-15 46.9759481,0.287921348 45.1571279,0.85410809 C43.3383076,0.287921348 41.4439957,3.19345101e-15 39.5391503,3.19345101e-15 C29.2521067,0.0114115056 20.9120436,8.34181888 20.8874649,18.6288625 L20.8874649,24.6515099 L16.7977528,24.6515099 C16.7529845,24.6515099 16.7082162,24.6743328 16.6625703,24.6743328 C16.6406249,24.6743328 16.5958566,24.6962782 16.5730337,24.6962782 C16.5282654,24.6962782 16.5054425,24.7191011 16.4606742,24.7191011 C16.4159058,24.7191011 16.3930829,24.741924 16.3483146,24.741924 C16.31408,24.747191 16.2833569,24.7629915 16.258778,24.7866924 C16.2131321,24.8086378 16.1683638,24.8086378 16.1464184,24.8314607 C16.1235955,24.8542836 16.1007726,24.8542836 16.0560043,24.876229 C16.0156249,24.8937852 15.9778791,24.9166081 15.9436447,24.9438202 C15.9216993,24.9438202 15.9216993,24.9666431 15.8988764,24.9666431 L13.134656,26.6292135 C10.9875351,27.9327598 8.29353933,27.9327598 6.14641843,26.6292135 L3.44978921,24.9885885 C2.75719798,24.5646067 1.8899227,24.5461728 1.18153079,24.9429425 C0.473139101,25.3388342 0.0342346067,26.0867276 0.0333568539,26.8987009 L0.0333568539,88.6069171 C0.0359901124,94.811271 5.06495775,99.8402387 11.2693119,99.8428721 L74.1906602,99.8428721 C80.3958919,99.8402387 85.4248596,94.811271 85.4266153,88.6069171 L85.4266153,26.9215238 C85.4231038,25.6820575 84.4197683,24.677844 83.1794243,24.6743328 Z M64.9324088,18.6516854 L64.9324088,24.6743328 L58.1908357,24.6743328 L58.1908357,18.6516854 C58.2083919,13.7017204 56.241222,8.95014045 52.7299861,5.46084966 C52.4095856,5.13606045 52.0716292,4.82882719 51.7187501,4.53915034 C55.137816,4.7603582 58.3584971,6.22278787 60.7751054,8.65168539 C63.4568117,11.2851124 64.9569874,14.8929074 64.9324088,18.6516854 Z M36.6625703,24.6743328 L36.6625703,18.6516854 C36.6757373,13.010007 40.0280899,7.91169236 45.2018962,5.66274584 C46.8381321,6.37464899 48.3242627,7.3885182 49.5839187,8.65168539 C52.2436798,11.2982796 53.7324438,14.8999299 53.7192766,18.6516854 L53.7193632,24.6743328 L36.6625703,24.6743328 Z M25.4266153,18.6516854 C25.4327598,11.2034762 31.2087429,5.03423461 38.6402739,4.53915034 C34.5321279,8.0775982 32.1690661,13.2303371 32.1681883,18.6516854 L32.1681883,24.6743328 L25.4266153,24.6743328 L25.4266153,18.6516854 Z M4.52773888,88.6288625 L4.52773888,30.8760535 C7.76773169,32.5614467 11.6257022,32.5614467 14.8648175,30.8760535 L14.8648175,88.6288625 C14.8630618,91.0603933 15.6513344,93.4269663 17.1120085,95.3704355 L11.2693119,95.3704355 C7.55091281,95.3599016 4.53915034,92.3481391 4.52773888,88.6288625 Z M80.9322333,88.6288625 C80.9216993,92.3481391 77.9099369,95.3599016 74.1906602,95.3704355 L26.1007726,95.3704355 C22.3823735,95.3599016 19.370611,92.3481391 19.3591996,88.6288625 L19.3591996,29.1687148 L22.7975773,29.1687148 C22.9239818,29.1880267 23.0521418,29.1950492 23.1794243,29.1906602 C23.3146067,29.1906602 23.4269663,29.1687148 23.5621488,29.1687148 L32.1681883,29.1687148 L32.1681883,45.1457164 C32.1681883,46.3869382 33.1750351,47.3929074 34.4153793,47.3929074 C35.6566011,47.3929074 36.6625703,46.3869382 36.6625703,45.1457164 L36.6625703,29.1687148 L55.5846207,29.1687148 C55.7110252,29.1880267 55.8383076,29.1950492 55.9664676,29.1906602 C56.1007726,29.1906602 56.2131321,29.1687148 56.3483146,29.1687148 L64.9552317,29.1687148 L64.9552317,45.1457164 C64.9552317,46.3869382 65.9612009,47.3929074 67.2024227,47.3929074 C68.4436447,47.3929074 69.4496137,46.3869382 69.4496137,45.1457164 L69.4496137,29.1687148 L80.9322333,29.1687148 L80.9322333,88.6288625 Z" id="Shape" fill="#083863"></path>
            </g>
        </g>
    </g>
</svg>