<?xml version="1.0" encoding="UTF-8"?>
<svg width="18px" height="18px" viewBox="0 0 18 18" version="1.1" xmlns="http://www.w3.org/2000/svg" xmlns:xlink="http://www.w3.org/1999/xlink">
    <!-- Generator: Sketch 52 (66869) - http://www.bohemiancoding.com/sketch -->
    <title>Google</title>
    <desc>Created with Sketch.</desc>
    <g id="Page-1" stroke="none" stroke-width="1" fill="none" fill-rule="evenodd">
        <g id="Entrar-na-conta" transform="translate(-109.000000, -372.000000)" fill="#FFFFFF">
            <g id="Google" transform="translate(109.000000, 372.000000)">
                <g id="google-plus-symbol">
                    <path d="M14.9842415,4.49512073 L14.9842415,1.49842825 L13.4859362,1.49842825 L13.4859362,4.49507973 L10.4892027,4.49507973 L10.4892027,5.99358998 L13.4859362,5.99358998 L13.4859362,8.99040547 L14.9842415,8.99040547 L14.9842415,5.99358998 L17.9808109,5.99358998 L17.9808109,14.6094396 C17.9808109,15.5380182 17.6510706,16.3322733 16.99159,16.991754 C16.3323964,17.6512346 15.5382232,17.9809749 14.6095626,17.9809749 L9.13108428,17.9809749 C9.43528018,17.4112893 9.58739863,16.7986743 9.58739863,16.1431298 C9.58739863,15.6278952 9.50149886,15.1499317 9.33006834,14.7090752 C9.1583508,14.2683417 8.94173576,13.9053485 8.68030524,13.6205057 C8.41883371,13.3359499 8.13792711,13.0585285 7.83750342,12.7893895 C7.53699772,12.5202916 7.25617312,12.2880137 6.99461959,12.0927198 C6.73327107,11.897836 6.51661503,11.6849932 6.3450205,11.4549704 C6.17334396,11.2244146 6.0875672,10.9923417 6.0875672,10.7583007 C6.0875672,10.4772711 6.17736219,10.2119453 6.35682916,9.96215945 C6.53641913,9.71253759 6.75496128,9.47259226 7.01233257,9.24232346 C7.26978588,9.01193166 7.52547608,8.76034169 7.77915718,8.4870615 C8.03279727,8.21406834 8.24928929,7.85107517 8.42875626,7.39849203 C8.60834624,6.94590888 8.69801822,6.43465148 8.69801822,5.86484282 C8.69801822,5.29515718 8.59461048,4.72743964 8.38787699,4.1616082 C8.18114351,3.59577677 7.88637813,3.13335308 7.50403189,2.77429613 C7.45720729,2.72763554 7.40259226,2.68470615 7.34014579,2.64554897 C7.27778132,2.60659681 7.2288656,2.57719818 7.19384966,2.5577631 C7.1586287,2.53816401 7.11967654,2.50113895 7.07678815,2.44656492 C7.03377677,2.39199089 6.99289749,2.3256082 6.95394533,2.24758087 L8.53429613,2.24758087 L10.1147699,1.49838724 L4.99871071,1.49838724 C3.92170387,1.49838724 2.96762187,1.64853759 2.1365467,1.94916629 C1.30551253,2.24963098 0.593261959,2.77060592 0.000123006834,3.5118861 C0.000123006834,2.52848747 0.316168565,1.6974533 0.948259681,1.01841458 C1.58051481,0.339334852 2.38809567,0 3.37153531,0 L14.6096036,0 C15.5382232,0 16.3324374,0.329740319 16.991631,0.98909795 C17.6511116,1.64857859 17.9808519,2.44275171 17.9808519,3.3714123 L17.9808519,4.49512073 L14.9842415,4.49512073 Z M2.32979043,8.55143508 C2.5793303,8.87551708 2.88385421,9.13883371 3.24278815,9.34171298 C3.6017221,9.54459226 3.98013212,9.64590888 4.37830524,9.64590888 C5.1353713,9.64590888 5.68353075,9.40961276 6.02307062,8.93755353 C6.36256948,8.46557631 6.5322779,7.83922551 6.5322779,7.05878815 C6.5322779,6.5826287 6.46979043,6.08330296 6.34518451,5.56056492 C6.22025057,5.03774487 6.03684738,4.53050569 5.79489294,4.03884738 C5.5529795,3.54718907 5.22520729,3.14122551 4.81157631,2.82124374 C4.39806834,2.50126196 3.93367654,2.34118907 3.41856492,2.34118907 C2.6927836,2.34118907 2.12883827,2.61045103 1.72689294,3.14893394 C1.32502961,3.68745786 1.12403645,4.33123462 1.12403645,5.08055125 C1.12403645,5.44719362 1.16885194,5.83339408 1.25868793,6.23935763 C1.34848292,6.64519818 1.48698861,7.05116173 1.67436902,7.45696128 C1.86150342,7.86276082 2.08004556,8.22759909 2.32979043,8.55143508 Z M3.76954442,11.2966196 C3.76954442,11.1015718 3.85142597,10.7658041 4.01539408,10.2896856 C3.7188246,10.3286788 3.44570843,10.3483599 3.19596355,10.3483599 C1.86933485,10.3483599 0.80405467,9.88782232 0.00020501139,8.96699317 L0.00020501139,14.0358588 C1.17848747,13.4268929 2.68085194,13.0954715 4.50709339,13.0407335 C4.01535308,12.4006059 3.76954442,11.8194396 3.76954442,11.2966196 Z M7.77267882,16.253959 C7.73360364,16.1254169 7.66533485,15.9908884 7.56783144,15.8501276 C7.47024601,15.7098178 7.38836446,15.5908292 7.32198178,15.4931617 C7.25568109,15.3957813 7.15227335,15.2806879 7.01175854,15.1480046 C6.87136674,15.0154032 6.76402278,14.9158907 6.68984966,14.849549 C6.61575854,14.7831663 6.4908656,14.6838178 6.31529385,14.5510934 C6.1398861,14.418369 6.01872437,14.328533 5.95250569,14.2819954 C5.88628702,14.2350888 5.75753986,14.1453349 5.56630524,14.0126105 C5.37507062,13.8798861 5.256082,13.7979226 5.2092574,13.7667608 C5.07661503,13.751344 4.88542141,13.7435125 4.63563554,13.7435125 C4.20650569,13.7435125 3.78889749,13.770574 3.38317995,13.8252711 C2.9772574,13.8798861 2.55973121,13.9734533 2.13051936,14.1062187 C1.70134852,14.2389431 1.31112984,14.4318998 0.95994533,14.6855809 C0.608801822,14.939303 0.339539863,15.2415308 0.152118451,15.5928793 C0.362952164,16.3028747 0.766865604,16.8784647 1.36381777,17.3193212 C1.96097494,17.7604647 2.63009112,17.9809339 3.37153531,17.9809339 L7.81995444,17.9809339 C7.89798178,17.7234396 7.93693394,17.4461822 7.93693394,17.1498178 C7.93693394,16.9859317 7.91938497,16.8279089 7.883918,16.6757084 C7.84886105,16.523344 7.81163098,16.3827882 7.77267882,16.253959 Z" id="Shape" fill-rule="nonzero"></path>
                </g>
            </g>
        </g>
    </g>
</svg>