<?xml version="1.0" encoding="UTF-8"?>
<svg width="36px" height="16px" viewBox="0 0 36 16" version="1.1" xmlns="http://www.w3.org/2000/svg" xmlns:xlink="http://www.w3.org/1999/xlink">
    <!-- Generator: Sketch 52 (66869) - http://www.bohemiancoding.com/sketch -->
    <title>Hipercard</title>
    <desc>Created with Sketch.</desc>
    <g id="Page-1" stroke="none" stroke-width="1" fill="none" fill-rule="evenodd">
        <g id="Add-Cards" transform="translate(-142.000000, -147.000000)" fill="#B3131B">
            <g id="Hipercard" transform="translate(142.000000, 143.000000)">
                <g id="Hipercard_logo" transform="translate(0.000000, 4.000000)">
                    <path d="M15.0394138,15.663463 L0.00909604851,15.6688221 L0.00909604851,15.6326493 C0.00909604851,15.6127538 0.0330681556,15.4837559 0.0623665892,15.3459881 C0.0916650227,15.2082222 0.137215301,14.9890861 0.163588621,14.8590204 C0.189960121,14.7289547 0.235051986,14.507934 0.263790191,14.3678632 C0.292528342,14.2277925 0.340276093,13.9944928 0.369896507,13.8494196 C0.399516922,13.7043463 0.445918539,13.4751396 0.473010403,13.3400714 C0.500102268,13.2050032 0.545332384,12.9839825 0.573524804,12.8489143 C0.601715406,12.713846 0.649777862,12.4805464 0.680331474,12.3304706 C0.710883268,12.1803948 0.757326725,11.9511881 0.783538145,11.8211224 C0.809751384,11.6910568 0.851406967,11.4905009 0.876106715,11.3754428 C0.900806462,11.2603847 0.932295092,11.1048516 0.946080236,11.0298137 C0.9598672,10.9547758 1.004477,10.7337551 1.04521394,10.5386566 C1.0859527,10.343558 1.13092632,10.1225373 1.14515714,10.0474994 C1.15938797,9.97246151 1.20456351,9.75144079 1.24554603,9.55634225 C1.28653036,9.36124372 1.3315531,9.140223 1.34559656,9.0651851 C1.35964183,8.99014721 1.40491379,8.76912649 1.44620373,8.57402795 C1.48749368,8.37892942 1.532058,8.16200168 1.54523557,8.09196631 C1.55841313,8.02193093 1.59450591,7.84183998 1.62543971,7.69176418 C1.65637528,7.54168839 1.71491212,7.25927303 1.7555199,7.06417449 C1.7961295,6.86907596 1.86558822,6.52935893 1.9098724,6.30924776 C1.95415658,6.08913659 2.00707604,5.82718611 2.02746997,5.72713558 C2.04786573,5.62708505 2.08474617,5.4469941 2.10942773,5.32693346 C2.13410929,5.20687282 2.17892829,4.98994508 2.20902349,4.84487181 C2.23912051,4.69979854 2.28808705,4.46240592 2.31784026,4.31733265 C2.34759347,4.17225938 2.3934439,3.94714514 2.41972627,3.81707945 C2.44601045,3.68701376 2.49086947,3.47008602 2.51941298,3.33501781 C2.54795648,3.19994959 2.59705583,2.96255697 2.62852081,2.80747865 C2.65998579,2.65240032 2.71269605,2.4150077 2.74565269,2.27993948 C2.77861116,2.14487127 2.8252056,1.98115222 2.8491959,1.91611937 C2.87318801,1.85108653 2.93942328,1.71011133 2.9963866,1.60284097 L3.09995527,1.40780405 L3.19410828,1.28449832 C3.24589261,1.21668007 3.33834658,1.10951431 3.39956295,1.04635204 C3.4607775,0.983189779 3.56407331,0.88814705 3.62910615,0.8351461 C3.694139,0.782145332 3.78827745,0.710617025 3.83830272,0.676194731 C3.88832798,0.641772255 3.98655941,0.58150891 4.05659479,0.542275822 C4.12663016,0.503042917 4.22486159,0.451666605 4.27488685,0.428106525 C4.32491212,0.404546444 4.42723652,0.361547636 4.50227442,0.332553902 C4.57731232,0.303559986 4.72056649,0.254960713 4.82061702,0.224555539 C4.92066755,0.194150365 5.10847331,0.148320673 5.23796234,0.122711921 C5.36745138,0.0971029874 5.57210019,0.0628988034 5.69273748,0.0467024416 L5.91207735,0.0172546599 L20.9514907,0.0115290409 L35.9909045,0.00580360384 L35.9909045,0.0419560445 C35.9909045,0.061839905 35.9667759,0.19082705 35.9372847,0.328594448 C35.9077934,0.466361663 35.8585158,0.701869698 35.8277803,0.851945494 C35.797043,1.00202129 35.7521785,1.21894903 35.7280808,1.33400714 C35.7039814,1.44906531 35.6583602,1.67008602 35.6267006,1.82516435 C35.5950391,1.98024267 35.5463272,2.21763529 35.5184532,2.35270351 C35.4905773,2.48777172 35.4454508,2.70879244 35.4181716,2.84386066 C35.3908906,2.97892887 35.3454894,3.19994959 35.3172806,3.33501781 C35.2890719,3.47008602 35.2453352,3.68292079 35.2200879,3.80798395 C35.1948424,3.93304711 35.1491412,4.15816135 35.1185312,4.30823715 C35.087923,4.45831295 35.0387545,4.69570557 35.0092687,4.83577631 C34.9797829,4.97584705 34.9348675,5.1927748 34.9094547,5.31783796 C34.8840418,5.44290112 34.8383078,5.66801482 34.8078233,5.81809061 C34.7773389,5.96816641 34.7282814,6.20555903 34.6988046,6.34562977 C34.6693298,6.48570052 34.6253985,6.69853528 34.601179,6.81859592 C34.5769613,6.93865655 34.5313928,7.16377025 34.4999169,7.31884857 C34.468441,7.47392689 34.4225597,7.69904059 34.3979582,7.81910122 C34.3733566,7.93916186 34.329409,8.15199662 34.3002961,8.29206737 C34.271185,8.43213811 34.2214217,8.67362371 34.189713,8.82870203 C34.1580042,8.98378035 34.112614,9.20480107 34.0888457,9.31985918 C34.0650773,9.43491729 34.0205948,9.65184503 33.9899958,9.80192083 C33.9593948,9.95199662 33.9107103,10.1893892 33.8818047,10.32946 C33.8529011,10.4695307 33.8075673,10.6905515 33.7810648,10.8206171 C33.7545623,10.9506828 33.7084936,11.1757965 33.6786894,11.3208698 C33.6488853,11.4659431 33.600208,11.7033357 33.5705148,11.848409 C33.5408234,11.9934822 33.4963264,12.21041 33.4716303,12.3304706 C33.4469342,12.4505312 33.4017914,12.671552 33.3713124,12.8216278 C33.3408315,12.9717035 33.2912483,13.2082012 33.2611258,13.3471786 L33.2063582,13.5998644 L33.1410925,13.7746673 C33.1051943,13.8708085 33.051238,13.9985858 33.0211865,14.0586161 C32.9911367,14.1186464 32.9299258,14.2245581 32.8851632,14.2939786 C32.8404024,14.3633973 32.7780073,14.4523459 32.7465077,14.4916421 C32.7150082,14.5309401 32.6202003,14.6323896 32.5358231,14.7170851 L32.3824111,14.8710774 L32.234782,14.9759976 C32.1535846,15.0337031 32.0661241,15.0923855 32.040422,15.1064017 C32.01472,15.1204178 31.9168887,15.1703485 31.8230195,15.2173595 C31.7291521,15.2643706 31.5965506,15.3241971 31.5283507,15.3503067 C31.4601508,15.3764162 31.3250826,15.4208678 31.2281991,15.4490857 C31.1313156,15.4773035 31.0274886,15.5050921 30.9974735,15.5108368 C30.9674583,15.5165816 30.8632621,15.5381415 30.7659274,15.5587483 C30.6685928,15.5793551 30.47213,15.6101397 30.3293433,15.6271592 L30.0697322,15.658104 L15.0394138,15.663463 Z M9.69188762,11.7756449 L10.0830201,11.7756449 L10.0940618,11.7468704 C10.1001349,11.7310442 10.1051036,11.6938382 10.1051036,11.6641886 C10.1051036,11.6345391 10.1179961,11.5267447 10.1337535,11.4246458 C10.1495111,11.3225452 10.1864909,11.0875701 10.2159308,10.9024767 C10.2453708,10.7173832 10.2894532,10.4390608 10.3138919,10.2839825 C10.3383305,10.1289042 10.3681563,9.93039481 10.3801716,9.84285059 C10.3921869,9.75530638 10.4068533,9.68367929 10.4127632,9.68367929 C10.4186732,9.68367929 10.4439595,9.72236247 10.468955,9.76964271 L10.5144012,9.85560794 L10.6152456,9.95721199 L10.7160902,10.058816 L10.8402207,10.1085084 L10.964351,10.1582008 L11.1122917,10.1773795 L11.2602324,10.1965565 L11.4480211,10.1850361 L11.6358099,10.1735158 L11.8391277,10.1208983 L12.0424457,10.0682808 L12.1515917,10.0184611 C12.211622,9.99105999 12.3180394,9.93131891 12.3880748,9.88570314 L12.5154118,9.80276307 L12.6341398,9.6840995 C12.69944,9.61883563 12.791532,9.51418278 12.8387886,9.45154023 C12.886045,9.38889769 12.9247094,9.33306949 12.9247094,9.32748121 C12.9247094,9.32189112 12.947927,9.2830988 12.9763039,9.24127768 C13.0046809,9.19945473 13.0627563,9.08337611 13.1053603,8.98332558 C13.1479646,8.88327505 13.2145477,8.70318409 13.2533229,8.58312346 L13.3238234,8.36483139 L13.3602654,8.17574498 C13.3803085,8.071747 13.4060929,7.899842 13.4175642,7.79373387 L13.4384213,7.60080916 L13.4263755,7.43709011 L13.4143298,7.27337106 L13.3763714,7.10965201 L13.3384129,6.94593296 L13.276967,6.82335468 L13.2155211,6.70077641 L13.09683,6.57495832 L12.9781388,6.44913841 L12.8377304,6.3765654 L12.6973219,6.30399056 L12.5426983,6.26697005 L12.3880748,6.22994953 L12.2334512,6.21859834 L12.0788277,6.20724897 L11.9065834,6.22704261 L11.7343392,6.24683442 L11.5937531,6.28273073 L11.4531668,6.31862522 L11.3310366,6.37515377 C11.2638648,6.40624402 11.166124,6.45904887 11.1138349,6.49249849 C11.0615455,6.52594812 11.0076065,6.56443301 10.99397,6.57801987 C10.9803334,6.59160855 10.9476864,6.61677944 10.9214208,6.63395357 L10.8736652,6.66518207 L10.9070604,6.50540501 C10.9254279,6.4175279 10.9407784,6.33539733 10.9411728,6.32289102 L10.9418895,6.30015226 L10.608385,6.30015226 L10.2748804,6.30015226 L10.2164005,6.66852012 C10.1842365,6.87112245 10.133453,7.18423513 10.1035484,7.36432608 C10.0736437,7.54441704 10.0285482,7.81455347 10.0033364,7.96462927 C9.97812437,8.11470506 9.93315329,8.38074852 9.90340063,8.55583695 C9.87364796,8.73092538 9.82447149,9.00924776 9.79411943,9.17433114 C9.76376756,9.33941451 9.71930237,9.58090011 9.69530789,9.7109658 C9.67131359,9.84103149 9.62615333,10.0866101 9.59495194,10.256696 C9.56375072,10.4267819 9.51360922,10.6969183 9.48352639,10.8569992 C9.45344374,11.01708 9.40448847,11.2708445 9.37473708,11.4209203 C9.34498569,11.5709961 9.31616877,11.7122038 9.31069928,11.7347152 L9.30075481,11.7756449 L9.69188726,11.7756449 L9.69188762,11.7756449 Z M11.3757259,9.67242816 L11.2238504,9.68155822 L11.1245761,9.66403483 L11.0253018,9.64650961 L10.924475,9.60047545 L10.8236483,9.55444129 L10.7532067,9.48717459 L10.6827653,9.41990971 L10.6421064,9.32895468 C10.6197441,9.27892942 10.5910203,9.19394832 10.578276,9.1401084 L10.5551045,9.04221896 L10.5643883,8.88543432 L10.5736721,8.7286515 L10.6205437,8.48307293 C10.6463231,8.34800471 10.692611,8.09424018 10.7234057,7.91915175 C10.7542003,7.74406332 10.8008248,7.48751921 10.8270156,7.34905292 L10.8746353,7.09729668 L10.9789153,7.01051466 C11.0362691,6.9627851 11.1271214,6.89881461 11.1808092,6.86835923 L11.2784234,6.81298581 L11.4057605,6.77356954 L11.5330975,6.73415327 L11.6968166,6.72454114 L11.8605356,6.71492901 L11.9938439,6.74334155 L12.1271521,6.77175408 L12.2212314,6.81508141 L12.3153108,6.85840875 L12.3941999,6.93772336 L12.473089,7.01703614 L12.5156492,7.10102401 C12.5390574,7.14721825 12.5719355,7.23763664 12.5887118,7.3019564 L12.6192139,7.4188991 L12.6098706,7.76452821 L12.6005272,8.11015731 L12.5538085,8.31444958 C12.5281131,8.42681178 12.4791992,8.59871679 12.4451107,8.6964607 L12.3831317,8.87417955 L12.3072285,9.01804129 C12.2654818,9.09716671 12.2011064,9.20409162 12.1641721,9.25565403 C12.1272378,9.30721461 12.0683679,9.37400653 12.0333502,9.40407808 C11.9983325,9.43414963 11.9396876,9.48114791 11.9030282,9.50851628 L11.8363745,9.55827596 L11.6819878,9.61078611 L11.5276011,9.66329809 L11.3757259,9.67242816 Z M15.1531076,10.1725189 L15.3532087,10.1748055 L15.5533098,10.1565545 C15.6633653,10.1465167 15.8434563,10.1256189 15.9535119,10.1101165 C16.0635675,10.0946123 16.2536882,10.0599093 16.3760023,10.0329975 L16.5983916,9.98406737 L16.6094679,9.9020896 C16.6155599,9.85700137 16.6405356,9.72277722 16.6649696,9.6038135 L16.7093947,9.38751517 L16.6995927,9.37771386 L16.6897908,9.36791072 L16.6218028,9.40074549 C16.5844096,9.4188037 16.4679424,9.46188 16.3629869,9.49647202 L16.1721587,9.55936378 L15.9718802,9.59815974 L15.7716018,9.63695569 L15.4532592,9.63757419 L15.1349166,9.63819268 L15.0257706,9.60333508 C14.9657403,9.58416358 14.8774473,9.54908586 14.8295642,9.52538662 L14.7425037,9.48229395 L14.6706494,9.41737934 L14.5987951,9.35246292 L14.5427326,9.25447525 L14.48667,9.15648758 L14.4515209,9.03357823 L14.4163719,8.91066888 L14.4161209,8.6832231 L14.4158698,8.45577732 L14.4470752,8.25287303 L14.4782804,8.04996691 L14.7520258,8.03717864 L15.0257713,8.02438854 L16.0376678,8.03088637 L17.0495643,8.03738419 L17.0801172,7.90777874 C17.0969212,7.83649546 17.1226121,7.68914832 17.1372081,7.58034064 L17.1637462,7.38250799 L17.1643065,7.21609304 L17.1648668,7.04967808 L17.1360546,6.92544261 L17.1072424,6.80120713 L17.0596027,6.71894195 C17.0334007,6.67369728 16.9872332,6.60812598 16.9570083,6.57323018 C16.9267834,6.53833437 16.8728158,6.48913498 16.8370801,6.4638986 C16.8013446,6.43866221 16.7311766,6.3962517 16.6811514,6.36965645 L16.5901963,6.32129748 L16.4312763,6.28299632 L16.2723562,6.24469516 L16.0765517,6.2259748 L15.8807471,6.20725261 L15.6988371,6.2190986 L15.516927,6.23094458 L15.2986349,6.27286029 L15.0803429,6.31477783 L14.9439103,6.3693272 C14.8688724,6.39932962 14.7542691,6.45404089 14.6892363,6.4909086 C14.6242034,6.52777631 14.5341579,6.58779026 14.4891352,6.62427232 C14.4441125,6.66075256 14.3661602,6.73167747 14.3159081,6.78188101 C14.2656558,6.83208455 14.1913226,6.92227555 14.1507232,6.98230587 C14.1101238,7.04233619 14.047884,7.14875357 14.0124128,7.21878894 C13.9769414,7.28882432 13.930721,7.38705575 13.9097006,7.43708101 C13.8886801,7.48710628 13.8504817,7.58943068 13.8248151,7.66446858 C13.7991487,7.73950648 13.7588045,7.88276065 13.7351613,7.98281118 C13.7115181,8.08286171 13.6791201,8.24755761 13.6631659,8.34880148 L13.6341587,8.53289081 L13.6344279,8.80358571 L13.6346971,9.07428061 L13.6623458,9.19252214 C13.6775526,9.25755499 13.706628,9.35578642 13.7269577,9.41081421 C13.7472876,9.465842 13.7848808,9.54770153 13.8104985,9.59272426 C13.8361159,9.637747 13.8908256,9.71023634 13.9320755,9.7538129 C13.9733252,9.79738945 14.0480048,9.86351194 14.09803,9.90075074 C14.1480553,9.93798955 14.2371123,9.99036509 14.2959345,10.0171441 L14.4028838,10.0658305 L14.5520026,10.1018778 C14.634018,10.1217042 14.7577958,10.1451942 14.8270644,10.1540805 C14.896333,10.162965 15.0430528,10.1712619 15.1531084,10.1725189 L15.1531076,10.1725189 Z M15.4957547,7.60990466 C14.9921396,7.60990466 14.580091,7.6062992 14.580091,7.60189334 C14.580091,7.59748748 14.6015784,7.53404635 14.6278407,7.46091305 C14.6541031,7.38777975 14.7002271,7.27892659 14.7303385,7.21901633 L14.7850861,7.11008859 L14.9054284,6.99040451 L15.0257706,6.87072042 L15.1440121,6.81418096 C15.209045,6.78308344 15.2949975,6.74922452 15.3350177,6.7389375 C15.3750379,6.72865049 15.4896412,6.7150036 15.5896918,6.70861128 L15.7716018,6.69698541 L15.9112966,6.71493811 L16.0509911,6.73289081 L16.1525098,6.77936883 L16.2540287,6.82584503 L16.3097178,6.88588808 C16.3403469,6.91891204 16.376847,6.96754569 16.3908293,6.99396085 L16.4162516,7.04198874 L16.4330399,7.1485844 L16.4498282,7.25518005 L16.4306232,7.43254235 L16.4114182,7.60990466 L15.4957547,7.60990466 Z M20.9379584,10.1726171 L21.1381722,10.1748364 L21.365447,10.147901 C21.4904501,10.1330863 21.6568451,10.1085357 21.7352156,10.0933444 C21.8135879,10.0781531 21.9404701,10.047996 22.0171761,10.0263305 C22.093884,10.0046632 22.1632827,9.98123867 22.171394,9.97427333 C22.1795054,9.96730799 22.2011818,9.88474993 22.219562,9.79080976 C22.2379422,9.69686959 22.2610957,9.57089506 22.2710134,9.51086474 C22.2809312,9.45083442 22.2860574,9.39850436 22.2824065,9.39457874 C22.2787537,9.3906513 22.265336,9.39572477 22.2525878,9.40584806 C22.2398395,9.41597136 22.1505835,9.45353397 22.0542421,9.48931567 L21.8790773,9.55437581 L21.6296368,9.60270385 L21.3801981,9.65103008 L21.1681182,9.64379369 L20.9560384,9.63655549 L20.8355776,9.59477985 L20.7151149,9.5530042 L20.6220315,9.47157581 L20.5289463,9.39014923 L20.4672006,9.27769243 L20.4054549,9.16523563 L20.3760473,9.01479056 L20.3466397,8.86434549 L20.3468216,8.66916146 L20.3470035,8.47397742 L20.3827398,8.23749435 L20.4184778,8.00101128 L20.4562896,7.87367424 C20.4770874,7.80363887 20.5006193,7.72177934 20.5085833,7.69176418 C20.5165455,7.66174902 20.5499078,7.57579652 20.5827189,7.50075863 C20.6155301,7.42572073 20.6740614,7.30974579 20.7127901,7.24303574 L20.783202,7.12174539 L20.8696839,7.03214013 L20.9561639,6.94253488 L21.0477465,6.88573164 L21.139331,6.82892841 L21.2569431,6.79270284 C21.3216303,6.77278005 21.4359517,6.74691062 21.5109896,6.73521562 L21.6474221,6.7139558 L21.8475232,6.72399723 L22.0476243,6.73403867 L22.2841073,6.78137348 L22.5205904,6.8287083 L22.6167753,6.86458096 C22.6696766,6.88431274 22.7152724,6.90045544 22.7180956,6.90045544 C22.7209207,6.90045544 22.7336089,6.83292133 22.7462898,6.75037965 C22.7589726,6.66783796 22.7815458,6.53203664 22.7964515,6.44860178 C22.8113573,6.36516509 22.8199634,6.2933088 22.8155757,6.28892113 C22.8111863,6.28453346 22.7401031,6.27324594 22.6576123,6.26383755 C22.5751198,6.25442917 22.3509174,6.23772437 22.1593843,6.22671517 L21.8111412,6.20669961 L21.5655626,6.22554549 L21.319984,6.24439137 L21.138074,6.28261795 L20.9561639,6.32084635 L20.839012,6.36770274 C20.7745795,6.39347576 20.6802027,6.43998106 20.6292879,6.47104948 C20.5783731,6.50211972 20.5135622,6.54391173 20.4852643,6.56392184 C20.4569645,6.58393195 20.3711121,6.66200228 20.2944788,6.7374131 L20.1551448,6.87452234 L20.0773692,6.98846353 C20.034593,7.05112972 19.9605938,7.18180117 19.9129279,7.27884291 L19.8262624,7.45528111 L19.7598379,7.64628667 C19.7233031,7.75133973 19.6722955,7.92324473 19.6464843,8.02829779 L19.5995569,8.21930335 L19.5825229,8.3921179 L19.5654907,8.56493245 L19.5656726,8.79232002 L19.5658545,9.01970759 L19.5830341,9.15198712 L19.6002136,9.28426848 L19.6547012,9.42034084 L19.7091869,9.5564132 L19.7721186,9.65479198 L19.8350486,9.75316893 L19.935121,9.85165504 L20.0351933,9.95014114 L20.1410432,10.0060858 L20.246893,10.0620304 L20.3859705,10.100659 C20.4624618,10.1219043 20.5729722,10.1462875 20.6315491,10.1548427 C20.6901241,10.1633998 20.8281465,10.1713983 20.9382622,10.1726171 L20.9379584,10.1726171 Z M23.9302678,10.1658974 L24.1758464,10.1588611 L24.3304699,10.1192866 L24.4850935,10.0797102 L24.585144,10.03241 C24.6401718,10.006395 24.7302173,9.95503998 24.7852451,9.91828869 C24.8402729,9.8815374 24.9254486,9.81166939 24.9745225,9.76302664 C25.0235982,9.71438207 25.0963731,9.63138925 25.1362442,9.57859895 C25.1761152,9.52580683 25.2111402,9.48501532 25.2140762,9.48795135 C25.2170104,9.49088738 25.2078367,9.57500986 25.1936877,9.67489122 C25.1795406,9.77477257 25.1678037,9.90765605 25.1676091,9.97018763 L25.1672635,10.0838814 L25.5011248,10.0838814 L25.8349862,10.0838814 L25.8451931,9.82465959 L25.8553983,9.56543776 L25.9030369,9.22890415 C25.9292392,9.04381067 25.9715588,8.76958126 25.9970807,8.61950547 C26.0226009,8.46942967 26.0669633,8.21566514 26.0956633,8.0555843 C26.1243632,7.89550345 26.169828,7.64583189 26.1966979,7.50075863 L26.2455517,7.23698904 L26.2471889,7.00915034 L26.2488261,6.78131345 L26.1973073,6.676013 L26.1457904,6.57071436 L26.0759297,6.50364958 L26.0060689,6.4365848 L25.8913728,6.37846454 L25.7766767,6.32034609 L25.6057376,6.28232507 L25.4348004,6.24430223 L25.1994506,6.22639319 L24.9641009,6.20848232 L24.6609387,6.22723907 C24.4941999,6.23755519 24.2595468,6.25792548 24.1394862,6.27250557 L23.9211941,6.29901714 L23.7724226,6.29958106 L23.6236511,6.30014498 L23.6020057,6.40474326 C23.5900996,6.46227232 23.5570157,6.59895226 23.5284867,6.70847666 C23.4999559,6.81799925 23.4792582,6.91025494 23.4824908,6.91348748 C23.4857233,6.91672002 23.5652889,6.89866181 23.6593037,6.87335812 C23.7533184,6.84805261 23.9530284,6.80643887 24.1031042,6.78088232 L24.3759693,6.73441522 L24.6215479,6.72429374 L24.8671264,6.71417227 L25.0253118,6.74190082 L25.1834971,6.76962755 L25.2890814,6.82174114 L25.3946656,6.87385292 L25.4537864,6.96197015 L25.5129071,7.05008738 L25.5120703,7.18901209 L25.5112336,7.3279368 L25.4798941,7.48038834 L25.4485546,7.6328417 L24.794015,7.63520289 L24.1394771,7.63756408 L23.9252562,7.69630102 C23.807433,7.72860643 23.6769672,7.77149718 23.6353298,7.79161279 C23.5936942,7.81173023 23.5520459,7.82818945 23.5427794,7.82818945 C23.5335129,7.82818945 23.4634229,7.86705635 23.3870244,7.91455852 L23.2481178,8.0009276 L23.1387208,8.11011183 C23.0785522,8.17016398 23.0016825,8.26022583 22.9678981,8.3102511 C22.9341156,8.36027636 22.8792261,8.46478187 22.8459238,8.54248475 L22.7853714,8.68376338 L22.757581,8.84263634 L22.7297906,9.00150931 L22.7297906,9.1681753 L22.7297906,9.33484311 L22.7563404,9.47360774 L22.782892,9.61237419 L22.8321496,9.7028799 C22.8592433,9.75265777 22.9089611,9.82557277 22.9426363,9.86491628 L23.0038636,9.93644695 L23.1126676,10.0025403 L23.2214698,10.0686337 L23.3460091,10.103877 C23.4145073,10.1232613 23.51876,10.1467277 23.5776843,10.1560233 L23.6848184,10.1729264 L23.930397,10.1658901 L23.9302678,10.1658974 Z M24.1576554,9.65723321 L24.0121273,9.66482068 L23.9157423,9.64027373 C23.8627301,9.62677237 23.7822913,9.59666262 23.7369884,9.57336358 L23.6546195,9.53099854 L23.6096641,9.47757338 C23.5849389,9.44818763 23.5471671,9.39044938 23.5257271,9.34926312 L23.4867474,9.27438167 L23.4791036,9.09951153 L23.4714615,8.92464321 L23.5022971,8.81856964 C23.5192584,8.76022927 23.5590476,8.65899632 23.59072,8.59360511 L23.6483072,8.47471416 L23.7585829,8.36519885 L23.8688586,8.25568536 L23.9859705,8.1992987 L24.1030824,8.14291204 L24.2486104,8.10834367 L24.3941385,8.0737753 L24.8489136,8.0737753 L25.3036887,8.0737753 L25.3324614,8.08567222 L25.3612323,8.09756914 L25.3370183,8.24029577 C25.3236988,8.31879541 25.2919355,8.46078894 25.2664299,8.55583695 C25.2409243,8.65088495 25.1958979,8.79060643 25.1663703,8.86633013 C25.1368426,8.94205383 25.1126832,9.00900036 25.1126832,9.01510163 C25.1126832,9.02120289 25.0827881,9.07637985 25.0462496,9.13771628 L24.9798179,9.24923806 L24.8707319,9.35731264 C24.8107361,9.41675357 24.7550407,9.46538723 24.7469676,9.46538723 C24.7388944,9.46538723 24.7021176,9.4858612 24.6652445,9.51088475 L24.5981997,9.55638045 L24.4506925,9.6030131 L24.3031834,9.64964574 L24.1576554,9.65723321 Z M30.0788277,10.1724007 L30.2516422,10.1745781 L30.4153613,10.1480065 C30.5054068,10.1333919 30.6200101,10.1098491 30.6700354,10.095691 C30.7200606,10.0815311 30.8101061,10.0447817 30.8701364,10.0140261 L30.9792825,9.95810698 L31.0731772,9.87546161 L31.1670719,9.79281623 L31.26596,9.66093508 C31.3203493,9.58840208 31.3695996,9.51677682 31.375408,9.50176924 L31.385966,9.47448273 L31.3767832,9.56543776 C31.3717316,9.61546302 31.3604059,9.69732255 31.3516141,9.74734781 C31.3428243,9.79737308 31.3302197,9.89355802 31.3236055,9.96109213 L31.3115776,10.0838814 L31.6684214,10.0838814 L32.0252653,10.0838814 L32.0252653,9.96109213 L32.0252653,9.83830284 L32.0796309,9.3744322 C32.1095333,9.11930335 32.1537502,8.77958632 32.1778915,8.61950547 C32.2020327,8.45942462 32.2392952,8.23021795 32.2606987,8.11015731 C32.2821005,7.99009668 32.3200051,7.77316893 32.3449285,7.62809566 C32.3698502,7.4830224 32.4148711,7.22925787 32.4449718,7.06417449 C32.4750725,6.89909112 32.5232477,6.63714064 32.5520259,6.48206231 C32.5808059,6.32698399 32.6255357,6.08549839 32.6514252,5.94542765 C32.6773164,5.80535691 32.7237017,5.55977833 32.7545027,5.39969748 C32.7853055,5.23961663 32.830301,5.01450294 32.8544914,4.89944483 C32.8786836,4.78438672 32.8984426,4.6841088 32.8984008,4.67660501 L32.8984009,4.66296176 L32.5090805,4.66296176 L32.1197603,4.66296176 L32.1082617,4.77665554 C32.1019386,4.83918712 32.0721362,5.04588243 32.0420319,5.23597843 C32.0119295,5.42607444 31.9628556,5.72895468 31.9329805,5.90904564 C31.9031054,6.08913659 31.8743036,6.26377207 31.8689773,6.29712346 L31.8592942,6.35776499 L31.8285696,6.34470021 C31.811672,6.33751295 31.7200784,6.31210739 31.6250304,6.28824079 L31.4522159,6.24484796 L31.2157328,6.22643139 L30.9792497,6.208013 L30.7791487,6.22665878 L30.5790476,6.24530456 L30.3971375,6.29128596 L30.2152275,6.33726737 L30.0424129,6.42155539 L29.8695984,6.50584342 L29.7422613,6.60011648 L29.6149243,6.69439137 L29.5049542,6.81229819 C29.4444709,6.87714731 29.3570941,6.98440875 29.3107834,7.05065676 L29.2265809,7.17111032 L29.1277019,7.37686332 C29.0733199,7.49002775 29.0071392,7.63991982 28.9806349,7.70995519 C28.9541306,7.77999056 28.907387,7.93523988 28.8767588,8.05495307 L28.8210743,8.27261209 L28.7936386,8.55520572 L28.7662047,8.83779753 L28.7868061,9.0651851 L28.8074056,9.29257267 L28.8317615,9.3744322 C28.8451555,9.41945494 28.8734007,9.49966999 28.8945259,9.5526895 L28.9329362,9.64908728 L29.0029643,9.74388061 L29.0729942,9.83867576 L29.1529528,9.90416883 L29.2329132,9.96966191 L29.3420592,10.0238566 C29.4020895,10.0536625 29.5027913,10.0921838 29.5658413,10.109458 C29.6288914,10.1267321 29.7312158,10.1474699 29.7932289,10.1555431 C29.855242,10.1636162 29.9837469,10.1712019 30.0787949,10.1724007 L30.0788277,10.1724007 Z M30.3889953,9.6562891 L30.2516422,9.66358369 L30.1589354,9.64689708 C30.107946,9.63771972 30.0263539,9.6131182 29.9776202,9.59222765 L29.8890118,9.55424483 L29.8144523,9.49315034 L29.7398929,9.43205403 L29.6844849,9.32593134 L29.6290751,9.21980865 L29.603826,9.10156711 L29.578575,8.98332558 L29.5807161,8.74684251 L29.5828554,8.51035943 L29.6121793,8.30116287 L29.6415032,8.09196631 L29.6870789,7.94643826 C29.7121443,7.86639784 29.7327747,7.79088152 29.7329257,7.77862624 C29.7331076,7.76637096 29.7578256,7.70088334 29.7879244,7.63309819 C29.8180251,7.56531305 29.8683123,7.46073841 29.8996772,7.40070809 C29.9310403,7.34067778 29.9896645,7.24709415 30.0299521,7.19274488 C30.0702379,7.13839561 30.1420087,7.05653609 30.1894399,7.01083483 C30.2368711,6.96513356 30.3123238,6.90519056 30.3571101,6.87762755 L30.4385421,6.82751497 L30.5815743,6.77802088 L30.7246084,6.72852679 L31.02476,6.72834488 L31.3249116,6.72834488 L31.4977261,6.7762891 C31.5927741,6.80265696 31.6936942,6.83323786 31.7219903,6.84424523 L31.7734417,6.86425716 L31.763393,6.91419147 C31.7578666,6.94165443 31.7362466,7.06235539 31.7153488,7.18241603 C31.6944509,7.30247666 31.6532738,7.53168334 31.6238407,7.69176418 C31.5944077,7.85184503 31.5491885,8.09333063 31.52335,8.22839885 C31.4975133,8.36346706 31.4600889,8.53537207 31.4401843,8.61040996 C31.4202797,8.68544786 31.3922001,8.78938217 31.3777819,8.8413757 C31.3633655,8.89336924 31.3290355,8.98341471 31.3014943,9.04147677 C31.2739531,9.09953882 31.2257597,9.18388141 31.1943984,9.22890415 C31.1630389,9.27392689 31.1099939,9.33629475 31.0765225,9.36749779 C31.043051,9.39870264 30.9706417,9.45415428 30.9156139,9.49072548 L30.8155634,9.55721724 L30.6709558,9.60310587 L30.5263483,9.64899632 L30.3889953,9.65629091 L30.3889953,9.6562891 Z M3.61632515,10.0838814 L4.05831929,10.0838814 L4.09003167,9.88832811 C4.10747139,9.78077378 4.14153587,9.57407848 4.16572808,9.42900521 C4.1899203,9.28393195 4.23494668,9.01379551 4.26578771,8.82870203 C4.29662692,8.64360855 4.34285936,8.36937914 4.36852505,8.21930335 C4.39419074,8.06922755 4.43496952,7.83642452 4.45914355,7.70196206 C4.48331939,7.56750142 4.50768625,7.45289809 4.51329453,7.44728798 L4.52349059,7.43709011 L5.71196901,7.43709011 L6.90044744,7.43709011 L6.91364319,7.45028222 L6.92684077,7.46347434 L6.90623218,7.56852376 C6.89489736,7.62630021 6.86136952,7.80454842 6.83172728,7.96462927 C6.80208321,8.12471012 6.75224895,8.39484655 6.72098407,8.56493245 C6.68971919,8.73501835 6.6445109,8.97650395 6.62052243,9.10156711 C6.59653213,9.22663028 6.54798579,9.48858076 6.51264249,9.68367929 C6.47729736,9.87877783 6.4484537,10.0486363 6.44854466,10.0611427 L6.44872657,10.0838814 L6.89253799,10.0838814 L7.33635123,10.0838814 L7.35598842,9.97018763 C7.36679024,9.90765605 7.38416811,9.7950992 7.39460792,9.7200613 C7.40504592,9.64502341 7.43021136,9.48539733 7.45052889,9.3653367 C7.47084825,9.24527606 7.51144511,9.00788344 7.54074355,8.83779753 C7.57004198,8.66771163 7.61908311,8.37711032 7.64972404,8.19201684 C7.68036315,8.00692336 7.72581829,7.73678692 7.75073397,7.59171365 C7.77564946,7.44664038 7.82004606,7.20106181 7.84939325,7.04598349 C7.87874025,6.89090516 7.9276224,6.62895468 7.95802029,6.46387131 C7.98841801,6.29878793 8.03395792,6.04911638 8.05922013,5.90904564 C8.08448253,5.7689749 8.13054397,5.51521037 8.16157928,5.34512447 C8.19261459,5.17503856 8.23180384,4.97652922 8.24866636,4.90399258 L8.27932566,4.77210779 L7.82996198,4.77210779 L7.38059903,4.77210779 L7.36837649,4.85851507 C7.36165492,4.90603907 7.33994577,5.0390608 7.32013577,5.15411891 C7.30032394,5.26917702 7.26428938,5.47382583 7.24005532,5.60889405 C7.21582126,5.74396226 7.17153526,6.00181977 7.14164198,6.18191072 C7.11174688,6.36200168 7.07365128,6.60039844 7.05698286,6.71168192 L7.02667483,6.91401684 L6.36702712,6.92736722 L5.7073776,6.94071759 L5.15485855,6.92760552 C4.85097235,6.9203946 4.60065502,6.91306181 4.5985958,6.91131002 C4.59653657,6.90956368 4.60688726,6.83886797 4.6215965,6.75421613 C4.63630393,6.66956428 4.66413071,6.5225373 4.68343319,6.4274893 C4.70273566,6.33244129 4.73932687,6.14416439 4.76474698,6.00909617 C4.79016528,5.87402795 4.81895982,5.70621593 4.82873203,5.63618056 C4.83850423,5.56614518 4.85898549,5.44949536 4.87424592,5.37695873 C4.88950454,5.30442209 4.91846462,5.15163038 4.93860024,5.03742361 C4.95873587,4.92321502 4.98018852,4.81679764 4.98627341,4.80094054 L4.99733718,4.77210779 L4.55160115,4.77210779 L4.10586512,4.77210779 L4.07731616,4.93127909 C4.06161186,5.0188233 4.04067584,5.14365908 4.03078902,5.20869193 C4.02090221,5.27372477 3.98770181,5.48246656 3.95700994,5.67256257 C3.9263199,5.86265858 3.88101156,6.14507394 3.85632819,6.30015226 C3.83164299,6.45523058 3.78668938,6.73764594 3.75643228,6.92774195 C3.72617518,7.11783796 3.67624996,7.41253225 3.64548897,7.58261815 C3.61472798,7.75270405 3.57019276,7.99418965 3.54652263,8.11925281 C3.52285067,8.24431598 3.47774244,8.4817086 3.44627927,8.64679198 C3.41481793,8.81187535 3.36891838,9.045175 3.3442823,9.16523563 C3.31964441,9.28529627 3.29240883,9.42445746 3.28375537,9.47448273 C3.27510373,9.52450799 3.24694587,9.66878995 3.22118559,9.79511012 C3.19542349,9.92143028 3.17434557,10.0380801 3.17434557,10.0543319 L3.17434557,10.0838814 L3.61633971,10.0838814 L3.61632515,10.0838814 Z M8.50932273,10.0838814 L8.90060471,10.0838814 L8.91164647,10.0551069 C8.91771954,10.0392807 8.92268823,9.99776883 8.92268823,9.96285665 C8.92268823,9.92794448 8.94729302,9.74647646 8.97736548,9.55959481 C9.00743794,9.37271133 9.05712631,9.06836853 9.08778397,8.88327505 C9.11844164,8.69818157 9.16371723,8.42804513 9.18839642,8.28297186 C9.21307561,8.1378986 9.25696523,7.896413 9.28592914,7.7463372 C9.31489304,7.5962614 9.35935586,7.36296176 9.3847354,7.22789354 C9.41011513,7.09282533 9.46002434,6.83585554 9.49564505,6.65684877 C9.53126577,6.477842 9.56485237,6.32419531 9.5702822,6.31540906 L9.58015464,6.29943553 L9.18446589,6.30434165 L8.78877714,6.30924776 L8.75582268,6.54573083 C8.73769789,6.67579652 8.69807115,6.93365403 8.66776329,7.11874751 C8.63745562,7.30384099 8.59161211,7.58625635 8.5658893,7.7463372 C8.54016631,7.90641805 8.49530729,8.16427555 8.46620241,8.31935388 C8.43709771,8.4744322 8.39249645,8.71182482 8.36708835,8.84689304 C8.34168042,8.98196125 8.29608903,9.21935388 8.26577409,9.3744322 C8.23545914,9.52951052 8.19478114,9.73415933 8.17537843,9.82920734 C8.15597554,9.92425534 8.1351372,10.0204403 8.12907068,10.0429517 L8.11804075,10.0838814 L8.50932273,10.0838814 Z M17.6607425,10.0838814 L18.0491248,10.0838814 L18.0607907,9.91954569 C18.0672049,9.82916186 18.089185,9.64702442 18.1096317,9.51479582 C18.1300802,9.38256722 18.171945,9.11884857 18.202666,8.92875256 C18.2333888,8.73865655 18.2904849,8.42224584 18.3295464,8.22561926 C18.368608,8.02899086 18.4127648,7.8335467 18.4276724,7.79129445 C18.4425781,7.74904402 18.4547751,7.7032609 18.4547751,7.68955398 C18.4547751,7.67584523 18.4839753,7.60115479 18.5196661,7.52357378 C18.555355,7.44599278 18.6218668,7.3271946 18.6674698,7.25958045 L18.7503826,7.136642 L18.8613714,7.03388829 L18.9723584,6.93113275 L19.1092202,6.86576883 L19.2460839,6.80040491 L19.4552804,6.80149637 L19.664477,6.80258783 L19.7673271,6.83332336 C19.8238957,6.85023008 19.8750579,6.8640607 19.8810209,6.8640607 C19.8869858,6.8640607 19.8918646,6.84472184 19.8918646,6.82108445 C19.8918646,6.79744887 19.9123295,6.67762654 19.9373421,6.5548136 C19.9623547,6.43200249 19.9828196,6.32633821 19.9828196,6.32000592 C19.9828196,6.31367363 19.9234715,6.29044554 19.8509348,6.26838894 C19.7783982,6.24633235 19.6781203,6.22322977 19.628095,6.21705211 L19.53714,6.20581916 L19.4188984,6.22673336 C19.3538656,6.23823553 19.2571658,6.26362836 19.2040099,6.28316186 C19.1508558,6.30269536 19.0630896,6.34699774 19.008975,6.38161522 C18.9548604,6.41623088 18.8706834,6.48368859 18.8219151,6.5315182 C18.7731468,6.57934781 18.69112,6.67578379 18.6396321,6.74581916 C18.5881425,6.81585453 18.5342971,6.88952811 18.5199717,6.90953821 L18.4939276,6.94592022 L18.5097411,6.8731562 C18.51844,6.83313599 18.542665,6.70216075 18.5635774,6.58210011 C18.5844897,6.46203947 18.6059533,6.34948263 18.6112724,6.33197378 L18.6209463,6.30013953 L18.2740912,6.30013953 L17.927236,6.30013953 L17.927236,6.34398894 C17.927236,6.36810658 17.9067642,6.51340724 17.8817432,6.66687929 C17.8567222,6.82035317 17.8154628,7.07689546 17.7900556,7.23697631 C17.7646484,7.39705716 17.7195558,7.67537955 17.6898497,7.8554705 C17.6601438,8.03556146 17.6150385,8.29341896 17.5896158,8.42848718 C17.5641932,8.56355539 17.5190506,8.80094801 17.4892988,8.95602634 C17.459547,9.11110466 17.4101494,9.36486919 17.3795259,9.51994751 C17.3489026,9.67502583 17.3122625,9.85816742 17.2981035,9.92692942 C17.2839444,9.99569142 17.2723598,10.0591326 17.2723598,10.0679097 L17.2723598,10.0838814 L17.6607425,10.0838687 L17.6607425,10.0838814 Z M26.8802995,10.0838814 L27.2774128,10.0838814 L27.2774128,9.96235276 L27.2774128,9.84082229 L27.3231741,9.53941188 C27.348345,9.37363361 27.3898678,9.11111739 27.4154498,8.95603907 C27.4410318,8.80096075 27.4729188,8.60449789 27.4863074,8.51945494 C27.4996978,8.43441199 27.5351812,8.25022805 27.5651618,8.11015731 C27.5951424,7.97008657 27.6325886,7.81864645 27.6483784,7.77362371 C27.6641663,7.72860097 27.6772038,7.68136439 27.6773494,7.66865433 C27.6775313,7.65594427 27.7113465,7.57420663 27.7525746,7.48701714 L27.8275361,7.3284898 L27.9264279,7.19709435 L28.0253197,7.0656989 L28.1335489,6.98433963 C28.1930753,6.93959339 28.2887945,6.88021067 28.3462563,6.85238025 L28.4507327,6.80177833 L28.6781203,6.80334276 L28.9055078,6.80490719 L28.9950203,6.83365261 L29.0845328,6.86239622 L29.0996186,6.85307151 L29.1147044,6.84374862 L29.1154684,6.78570112 C29.1158868,6.75377591 29.1353566,6.63498318 29.1587375,6.52171689 L29.2012499,6.31577833 L29.1534312,6.29705797 C29.1271325,6.28676186 29.0646846,6.26544928 29.0146593,6.24969587 L28.9237043,6.22105413 L28.7599852,6.22147252 L28.5962662,6.22189091 L28.4628424,6.2688328 L28.3294187,6.31577288 L28.2292372,6.37618157 L28.1290557,6.43659026 L27.9988081,6.5730228 L27.8685623,6.70945534 L27.7985833,6.81529243 C27.7600948,6.87350183 27.7262086,6.91852457 27.7232817,6.91534296 C27.7203529,6.91215954 27.7412726,6.79086009 27.7697688,6.64578682 C27.798265,6.50071355 27.8219333,6.36359885 27.8223644,6.34108748 L27.8231466,6.30015954 L27.486613,6.30015954 L27.1500794,6.30015954 L27.1500794,6.31175084 C27.1500794,6.31812497 27.1333019,6.4347748 27.1127951,6.57097267 C27.0922902,6.70716873 27.0511167,6.97004331 27.0213017,7.1551368 C26.9914848,7.34023028 26.9425619,7.63901754 26.9125849,7.8191085 C26.8826062,7.99919945 26.8374142,8.25705696 26.8121579,8.39212517 C26.7869015,8.52719339 26.7420424,8.76458601 26.712473,8.91966434 C26.6829035,9.07474266 26.6343171,9.32441421 26.6045039,9.47449001 C26.5746907,9.6245658 26.535198,9.82307515 26.5167432,9.91562189 L26.4831881,10.0838887 L26.8803032,10.0838887 L26.8802995,10.0838814 Z M9.27872004,5.64487586 L9.38917328,5.64527606 L9.47696871,5.61536095 L9.56476396,5.58544584 L9.64246702,5.50662785 L9.7201699,5.42780804 L9.76109839,5.32279865 L9.80202688,5.21778743 L9.80348944,5.06316388 L9.804952,4.90854033 L9.76856998,4.84816257 L9.73218797,4.78778662 L9.66884671,4.74856863 L9.60550545,4.70935064 L9.46874565,4.70935064 L9.33198585,4.70934882 L9.23887956,4.75103351 L9.14577326,4.7927182 L9.09172705,4.85062927 L9.03768067,4.90854033 L8.99523705,5.00859086 L8.95279325,5.10864139 L8.94477011,5.26448738 L8.93674696,5.42033336 L8.97626237,5.49779066 L9.0157776,5.57524614 L9.09202229,5.60986181 L9.1682668,5.64447747 L9.27872004,5.64487768 L9.27872004,5.64487586 Z" id="path2997" fill-rule="nonzero"></path>
                </g>
            </g>
        </g>
    </g>
</svg>