<?xml version="1.0" encoding="UTF-8"?>
<svg width="21px" height="21px" viewBox="0 0 21 21" version="1.1" xmlns="http://www.w3.org/2000/svg" xmlns:xlink="http://www.w3.org/1999/xlink">
    <!-- Generator: Sketch 52 (66869) - http://www.bohemiancoding.com/sketch -->
    <title>Interrogation</title>
    <desc>Created with Sketch.</desc>
    <g id="Page-1" stroke="none" stroke-width="1" fill="none" fill-rule="evenodd">
        <g id="Add-Cards" transform="translate(-324.000000, -235.000000)">
            <g id="Interrogation" transform="translate(325.000000, 236.000000)">
                <g id="Material/Light/Radio-button-off" fill="#7B7B7B" fill-rule="evenodd" opacity="0.54">
                    <path d="M9.5,-0.5 C4,-0.5 -0.5,4 -0.5,9.5 C-0.5,15 4,19.5 9.5,19.5 C15,19.5 19.5,15 19.5,9.5 C19.5,4 15,-0.5 9.5,-0.5 L9.5,-0.5 Z M9.5,17.5 C5.1,17.5 1.5,13.9 1.5,9.5 C1.5,5.1 5.1,1.5 9.5,1.5 C13.9,1.5 17.5,5.1 17.5,9.5 C17.5,13.9 13.9,17.5 9.5,17.5 L9.5,17.5 Z" id="Shape"></path>
                </g>
                <text id="?" font-family="Dosis-Bold, Dosis" font-size="14" font-weight="bold" fill="#B8B8B8">
                    <tspan x="7.125" y="14.6041667">?</tspan>
                </text>
            </g>
        </g>
    </g>
</svg>