<?xml version="1.0" encoding="utf-8"?>
<!-- Generator: Adobe Illustrator 22.1.0, SVG Export Plug-In . SVG Version: 6.00 Build 0)  -->
<svg version="1.1" id="Camada_1" xmlns="http://www.w3.org/2000/svg" xmlns:xlink="http://www.w3.org/1999/xlink" x="0px" y="0px"
	 viewBox="0 0 1024 1024" style="enable-background:new 0 0 1024 1024;" xml:space="preserve">
<style type="text/css">
	.st0{fill:#4E8AC8;}
</style>
<g>
	<g>
		<path class="st0" d="M327.3,549.8l-79-295C219.6,147.9,285.9,36.9,396.1,7.3c53.3-14.3,108.8-7.6,156.3,18.8
			c47.7,26.5,81.5,69.7,95.4,121.5l79,295L327.3,549.8z M451.4,26.9c-16.1,0-32.4,2.1-48.4,6.4C307.2,59,249.3,155.2,274.2,247.8
			l72.1,269.1L694,423.7l-72.1-269.1c-12-44.8-41.3-82.1-82.5-105C512.2,34.5,482,26.9,451.4,26.9z"/>
	</g>
	<g>
		<path class="st0" d="M725.8,490.7c25.2,94,50.4,188,75.6,282c26.8,99.9-35.2,203.3-138.3,231l0,0
			c-103.2,27.6-208.5-30.9-235.3-130.9c-25.2-94-50.4-188-75.6-282C476.7,557.5,601.3,524.1,725.8,490.7z"/>
		<path class="st0" d="M611.5,1024c-90.5,0-172.9-58.6-196.8-147.6l-79.1-295l399.6-107.1l79.1,295c13.9,51.9,6.1,106.2-21.9,153
			c-27.9,46.6-72.6,80.2-125.9,94.5C648.1,1021.6,629.7,1024,611.5,1024z M368.6,600.3l72.1,269.1c24.8,92.6,123,147.1,218.8,121.4
			c46.5-12.4,85.5-41.7,109.9-82.3c24.2-40.5,31-87.4,19-132.2l-72.1-269.1L368.6,600.3z"/>
	</g>
	<g>
		<circle class="st0" cx="431.7" cy="131.3" r="27.5"/>
	</g>
	<g>
		<circle class="st0" cx="362.2" cy="249.9" r="27.5"/>
	</g>
	<g>
		<circle class="st0" cx="552.4" cy="228.7" r="23.2"/>
	</g>
	<g>
		<circle class="st0" cx="586.8" cy="292.1" r="23.2"/>
	</g>
	<g>
		<polygon class="st0" points="458.9,500.6 400.7,283.2 357.2,258.7 367.1,241.2 418,269.8 478.4,495.4 		"/>
	</g>
	<g>
		
			<rect x="468.7" y="125.1" transform="matrix(0.9659 -0.2588 0.2588 0.9659 -63.1371 134.3636)" class="st0" width="20.2" height="363.7"/>
	</g>
	<g>
		<polygon class="st0" points="552.4,475.5 503.5,293.2 543.6,223.7 561.1,233.8 525.1,296 571.8,470.3 		"/>
	</g>
	<g>
		<polygon class="st0" points="555,419.1 537.6,408.8 570.4,353.8 576.8,291.1 596.8,293.2 588.9,362.2 		"/>
	</g>
</g>
</svg>
