<?xml version="1.0" encoding="UTF-8"?>
<svg width="36px" height="12px" viewBox="0 0 36 12" version="1.1" xmlns="http://www.w3.org/2000/svg" xmlns:xlink="http://www.w3.org/1999/xlink">
    <!-- Generator: Sketch 52 (66869) - http://www.bohemiancoding.com/sketch -->
    <title>Visa 2</title>
    <desc>Created with Sketch.</desc>
    <g id="Page-1" stroke="none" stroke-width="1" fill="none" fill-rule="evenodd">
        <g id="Add-Cards" transform="translate(-102.000000, -149.000000)">
            <g id="Visa-2" transform="translate(102.000000, 143.000000)">
                <g id="Visa_Inc._logo" transform="translate(0.000000, 6.000000)">
                    <polygon id="polygon9" fill="#00579F" points="15.563736 11.546591 12.6676223 11.546591 14.4790593 0.346025339 17.3750146 0.346025339"></polygon>
                    <path d="M26.0624054,0.619847209 C25.4911645,0.393219623 24.5851293,0.142994895 23.4648193,0.142994895 C20.604814,0.142994895 18.5908217,1.66809878 18.5784688,3.84853805 C18.5547133,5.45726133 20.0204284,6.35078533 21.1166661,6.8871848 C22.2371344,7.43530365 22.6180145,7.79306166 22.6180145,8.28163336 C22.6066118,9.0319908 21.7126127,9.37787106 20.8787943,9.37787106 C19.7225343,9.37787106 19.1029905,9.19954635 18.1614804,8.78208282 L17.7801253,8.60312462 L17.3748562,11.117408 C18.0541055,11.4268632 19.3055459,11.7014769 20.604814,11.713513 C23.6436191,11.713513 25.6219782,10.2120063 25.645417,7.88840045 C25.656978,6.61336293 24.8830234,5.6363779 23.2144362,4.83803432 C22.2015012,4.32554874 21.5811656,3.97998522 21.5811656,3.45562188 C21.5930433,2.97892794 22.1058457,2.49067298 23.2492776,2.49067298 C24.1907878,2.46675909 24.8825483,2.69306994 25.4065949,2.91953916 L25.668539,3.03847509 L26.0624054,0.619847209 Z" id="path11" fill="#00579F"></path>
                    <path d="M29.9115902,7.57862857 C30.1500955,6.93517093 31.0678502,4.44480141 31.0678502,4.44480141 C31.055814,4.46871529 31.3058804,3.78946601 31.4488886,3.37247759 L31.6512855,4.33758486 C31.6512855,4.33758486 32.1997211,7.01863196 32.3188154,7.57862857 C31.8661937,7.57862857 30.4836229,7.57862857 29.9115902,7.57862857 Z M33.486478,0.346025339 L31.2463332,0.346025339 C30.555523,0.346025339 30.0306845,0.548422303 29.732632,1.27534097 L25.4308255,11.5464326 L28.4696306,11.5464326 C28.4696306,11.5464326 28.9699217,10.1640201 29.077455,9.86628439 C29.410824,9.86628439 32.3669599,9.86628439 32.7958261,9.86628439 C32.8789704,10.2595173 33.1413896,11.5464326 33.1413896,11.5464326 L35.8229118,11.5464326 L33.486478,0.346025339 Z" id="path13" fill="#00579F" fill-rule="nonzero"></path>
                    <path d="M10.2486777,0.346025339 L7.4124279,7.98373924 L7.10249765,6.43472147 C6.57813432,4.64735674 4.93361939,2.70542281 3.0984269,1.73984042 L5.6963297,11.5347132 L8.75889033,11.5347132 L13.3110799,0.346025339 L10.2486777,0.346025339 Z" id="path15" fill="#00579F"></path>
                    <path d="M4.77873345,0.346025339 L0.119168931,0.346025339 L0.0714995363,0.572336185 C3.70625127,1.50181019 6.1134765,3.74227173 7.10249765,6.43519658 L6.08956262,1.28753547 C5.92279892,0.572177815 5.41031334,0.369622481 4.77873345,0.346025339 Z" id="path17" fill="#FAA61A"></path>
                </g>
            </g>
        </g>
    </g>
</svg>