<?xml version="1.0" encoding="UTF-8"?>
<svg width="18px" height="17px" viewBox="0 0 18 17" version="1.1" xmlns="http://www.w3.org/2000/svg" xmlns:xlink="http://www.w3.org/1999/xlink">
    <!-- Generator: Sketch 52.2 (67145) - http://www.bohemiancoding.com/sketch -->
    <title>History</title>
    <desc>Created with Sketch.</desc>
    <defs>
        <polygon id="path-1" points="0.0211764706 0.318352941 17.9297647 0.318352941 17.9297647 16.5882353 0.0211764706 16.5882353"></polygon>
    </defs>
    <g id="Page-1" stroke="none" stroke-width="1" fill="none" fill-rule="evenodd">
        <g id="Search" transform="translate(-16.000000, -109.000000)">
            <g id="History" transform="translate(16.000000, 108.000000)">
                <g id="history" transform="translate(0.000000, 1.000000)">
                    <g id="Group-3">
                        <mask id="mask-2" fill="white">
                            <use xlink:href="#path-1"></use>
                        </mask>
                        <g id="Clip-2"></g>
                        <path d="M9.79411765,0.318352941 C5.30788235,0.318352941 1.65847059,3.96776471 1.65988235,8.43070588 C1.65564706,8.50094118 1.61576471,9.68258824 1.95211765,10.9549412 L0.856235294,10.3168235 C0.583058824,10.158 0.237176471,10.2490588 0.0772941176,10.5208235 C-0.0801176471,10.7922353 0.0109411765,11.1409412 0.282705882,11.2997647 L2.84964706,12.7969412 C2.85529412,12.7997647 2.86058824,12.7997647 2.86623529,12.8022353 C2.89376471,12.8174118 2.92129412,12.8272941 2.95164706,12.8382353 C2.97105882,12.8452941 2.99047059,12.852 3.01094118,12.8576471 C3.036,12.8629412 3.05929412,12.8643529 3.084,12.8671765 C3.102,12.8685882 3.12,12.8742353 3.138,12.8742353 C3.14752941,12.8742353 3.15564706,12.87 3.16694118,12.87 C3.17647059,12.87 3.18458824,12.8714118 3.19447059,12.8714118 C3.20823529,12.87 3.22058824,12.8629412 3.23435294,12.8615294 C3.26188235,12.8562353 3.288,12.8505882 3.31447059,12.8424706 C3.33635294,12.834 3.35858824,12.8258824 3.37905882,12.8163529 C3.40270588,12.8036471 3.42458824,12.7912941 3.44682353,12.7775294 C3.46729412,12.7637647 3.48670588,12.75 3.50470588,12.7348235 C3.52517647,12.7182353 3.54176471,12.6991765 3.55976471,12.6797647 C3.57635294,12.6617647 3.59152941,12.6423529 3.60529412,12.6218824 C3.612,12.6109412 3.62329412,12.6024706 3.63,12.5915294 C3.63423529,12.5816471 3.63423529,12.5721176 3.63847059,12.564 C3.64658824,12.5474118 3.65894118,12.5336471 3.666,12.5170588 L4.686,9.98858824 C4.80458824,9.69635294 4.66411765,9.36529412 4.37329412,9.24670588 C4.08070588,9.13094118 3.75,9.27035294 3.63141176,9.56258824 L3.10764706,10.8610588 C2.75717647,9.68929412 2.79741176,8.48717647 2.79882353,8.454 C2.79882353,4.59529412 5.93647059,1.45729412 9.79411765,1.45729412 C13.6531765,1.45729412 16.7908235,4.59529412 16.7908235,8.454 C16.7908235,12.3116471 13.6531765,15.4492941 9.79411765,15.4492941 C9.47964706,15.4492941 9.22482353,15.7044706 9.22482353,16.0189412 C9.22482353,16.3330588 9.47964706,16.5882353 9.79411765,16.5882353 C14.2803529,16.5882353 17.9297647,12.9388235 17.9297647,8.454 C17.9297647,3.96776471 14.2803529,0.318352941 9.79411765,0.318352941 Z" id="Fill-1" fill="#008CCC" mask="url(#mask-2)"></path>
                    </g>
                    <path d="M9.57635294,9.54741176 C9.63423529,9.57211765 9.69352941,9.58058824 9.75564706,9.58447059 C9.768,9.58447059 9.78035294,9.59152941 9.79270588,9.59152941 C9.86047059,9.59152941 9.92505882,9.57635294 9.98576471,9.55411765 C10.0037647,9.54741176 10.0203529,9.53894118 10.0369412,9.53082353 C10.0835294,9.50752941 10.1262353,9.47964706 10.1664706,9.444 C10.176,9.43552941 10.1869412,9.43305882 10.1968235,9.42458824 L13.7495294,5.87047059 C13.9729412,5.64847059 13.9729412,5.28847059 13.7495294,5.06541176 C13.5275294,4.84341176 13.1678824,4.84341176 12.9444706,5.06541176 L9.66035294,8.34917647 L6.71294118,7.11529412 C6.42176471,6.99388235 6.08964706,7.13047059 5.96823529,7.41988235 C5.84682353,7.71105882 5.98341176,8.04458824 6.27282353,8.166 L9.57352941,9.54741176 C9.57352941,9.54741176 9.57494118,9.54741176 9.57635294,9.54741176 Z" id="Fill-4" fill="#008CCC"></path>
                </g>
            </g>
        </g>
    </g>
</svg>