<?xml version="1.0" encoding="UTF-8"?>
<svg width="89px" height="100px" viewBox="0 0 89 100" version="1.1" xmlns="http://www.w3.org/2000/svg" xmlns:xlink="http://www.w3.org/1999/xlink">
    <!-- Generator: Sketch 51.3 (57544) - http://www.bohemiancoding.com/sketch -->
    <title>change</title>
    <desc>Created with Sketch.</desc>
    <defs></defs>
    <g id="Symbols" stroke="none" stroke-width="1" fill="none" fill-rule="evenodd">
        <g id="4" transform="translate(-6.000000, 0.000000)" fill-rule="nonzero">
            <g id="change" transform="translate(6.000000, 0.000000)">
                <path d="M33.1568627,89 L33.1568627,82.0196078 L33.1568627,75.0392157 L33.1568627,68.0588235 L33.1568627,61.0784314 C33.1568627,55.2951765 40.5787647,50.6078431 49.7352941,50.6078431 C51.8939804,50.6078431 53.951451,50.8765882 55.8431373,51.3512549 L55.8431373,0 L0,0 L0,97.7254902 L40.5787647,97.7254902 C36.1078235,95.8495098 33.1568627,92.6437647 33.1568627,89" id="XMLID_127_" fill="#6E8C61"></path>
                <path d="M8.7254902,36.811098 C12.7409608,30.4310196 19.8260588,26.1764706 27.9215686,26.1764706 C36.0170784,26.1764706 43.1021765,30.4292745 47.1176471,36.811098 L47.1176471,19.152451 C46.8297059,19.1786275 46.5400196,19.1960784 46.245098,19.1960784 C40.9434902,19.1960784 36.6470588,14.897902 36.6470588,9.59803922 C36.6470588,9.30311765 36.6645098,9.01343137 36.6906863,8.7254902 L19.152451,8.7254902 C19.1786275,9.01343137 19.1960784,9.30311765 19.1960784,9.59803922 C19.1960784,14.897902 14.8996471,19.1960784 9.59803922,19.1960784 C9.30311765,19.1960784 9.01343137,19.1786275 8.7254902,19.152451 L8.7254902,36.811098 Z" id="XMLID_126_" fill="#E9E8D3"></path>
                <path d="M33.1568627,75.0392157 L33.1568627,70.9277647 C31.4763333,71.3273922 29.726,71.5490196 27.9215686,71.5490196 C19.8260588,71.5490196 12.7409608,67.2962157 8.7254902,60.9143922 L8.7254902,78.5730392 C9.01343137,78.5468627 9.30311765,78.5294118 9.59803922,78.5294118 C14.8996471,78.5294118 19.1960784,82.8258431 19.1960784,88.127451 C19.1960784,88.4223725 19.1786275,88.7120588 19.152451,89 L33.1568627,89 L33.1568627,82.0196078 L33.1568627,75.0392157 Z" id="XMLID_125_" fill="#E9E8D3"></path>
                <path d="M41.8823529,9.59803922 C41.8823529,7.19154902 43.8386078,5.23529412 46.245098,5.23529412 C48.6515882,5.23529412 50.6078431,7.19154902 50.6078431,9.59803922 C50.6078431,12.0045294 48.6515882,13.9607843 46.245098,13.9607843 C43.8386078,13.9607843 41.8823529,12.0045294 41.8823529,9.59803922" id="XMLID_124_" fill="#E9E8D3"></path>
                <path d="M5.23529412,9.59803922 C5.23529412,7.19154902 7.19154902,5.23529412 9.59803922,5.23529412 C12.0045294,5.23529412 13.9607843,7.19154902 13.9607843,9.59803922 C13.9607843,12.0045294 12.0045294,13.9607843 9.59803922,13.9607843 C7.19154902,13.9607843 5.23529412,12.0045294 5.23529412,9.59803922" id="XMLID_123_" fill="#E9E8D3"></path>
                <path d="M5.23529412,88.127451 C5.23529412,85.7209608 7.19154902,83.7647059 9.59803922,83.7647059 C12.0045294,83.7647059 13.9607843,85.7209608 13.9607843,88.127451 C13.9607843,90.5339412 12.0045294,92.4901961 9.59803922,92.4901961 C7.19154902,92.4901961 5.23529412,90.5339412 5.23529412,88.127451" id="XMLID_122_" fill="#E9E8D3"></path>
                <path d="M66.3137255,61.0784314 C66.3137255,66.8616863 58.8918235,71.5490196 49.7352941,71.5490196 C40.5787647,71.5490196 33.1568627,66.8616863 33.1568627,61.0784314 C33.1568627,55.2951765 40.5787647,50.6078431 49.7352941,50.6078431 C58.8918235,50.6078431 66.3137255,55.2951765 66.3137255,61.0784314" id="XMLID_121_" fill="#FCC62D"></path>
                <path d="M49.7352941,92.4901961 C40.5787647,92.4901961 33.1568627,87.8028627 33.1568627,82.0196078 L33.1568627,89 C33.1568627,94.7832549 40.5787647,99.4705882 49.7352941,99.4705882 C58.8918235,99.4705882 66.3137255,94.7832549 66.3137255,89 L66.3137255,82.0196078 C66.3137255,87.8028627 58.8918235,92.4901961 49.7352941,92.4901961" id="XMLID_120_" fill="#D19D18"></path>
                <path d="M49.7352941,85.5098039 C40.5787647,85.5098039 33.1568627,80.8224706 33.1568627,75.0392157 L33.1568627,82.0196078 C33.1568627,87.8028627 40.5787647,92.4901961 49.7352941,92.4901961 C58.8918235,92.4901961 66.3137255,87.8028627 66.3137255,82.0196078 L66.3137255,75.0392157 C66.3137255,80.8224706 58.8918235,85.5098039 49.7352941,85.5098039" id="XMLID_119_" fill="#E4AF18"></path>
                <path d="M49.7352941,78.5294118 C40.5787647,78.5294118 33.1568627,73.8420784 33.1568627,68.0588235 L33.1568627,75.0392157 C33.1568627,80.8224706 40.5787647,85.5098039 49.7352941,85.5098039 C58.8918235,85.5098039 66.3137255,80.8224706 66.3137255,75.0392157 L66.3137255,68.0588235 C66.3137255,73.8420784 58.8918235,78.5294118 49.7352941,78.5294118" id="XMLID_118_" fill="#D19D18"></path>
                <path d="M49.7352941,71.5490196 C40.5787647,71.5490196 33.1568627,66.8616863 33.1568627,61.0784314 L33.1568627,68.0588235 C33.1568627,73.8420784 40.5787647,78.5294118 49.7352941,78.5294118 C58.8918235,78.5294118 66.3137255,73.8420784 66.3137255,68.0588235 L66.3137255,61.0784314 C66.3137255,66.8616863 58.8918235,71.5490196 49.7352941,71.5490196" id="XMLID_117_" fill="#E4AF18"></path>
                <path d="M89,40.1372549 C89,45.9205098 81.578098,50.6078431 72.4215686,50.6078431 C63.2650392,50.6078431 55.8431373,45.9205098 55.8431373,40.1372549 C55.8431373,34.354 63.2650392,29.6666667 72.4215686,29.6666667 C81.578098,29.6666667 89,34.354 89,40.1372549" id="XMLID_116_" fill="#FCC62D"></path>
                <path d="M38.2508039,53.5378627 C41.9137647,46.9937451 38.3921569,40.1372549 38.3921569,40.1372549 C36.9035882,39.7027255 32.5425882,41.0028235 32.0417451,42.4163529 C30.4938431,41.0045686 28.4381176,40.1372549 26.1764706,40.1372549 C23.3406863,40.1372549 22.1400588,43.1039216 21.2779804,43.4023333 C20.8556667,43.5471765 20.4176471,43.6204706 19.9796275,43.627451 C18.6777843,43.6483922 17.4597059,42.9765294 16.5836667,42.0149804 L10.0814314,34.8792745 C7.05543137,38.7341961 5.23529412,43.5820784 5.23529412,48.8627451 C5.23529412,54.1434118 7.05543137,58.9912941 10.0796863,62.8462157 L16.5243333,55.7628627 C17.5836078,54.6006275 19.1437255,53.8956078 20.6916275,54.166098 C20.9115098,54.2062353 21.1296471,54.2603333 21.3460392,54.3336275 C21.9062157,54.522098 24.6495098,57.4451373 25.2515686,57.5131961 C27.0804314,61.8253333 31.0697255,60.0994314 33.8077843,58.1955294 C34.6244902,56.3963333 36.1723922,54.7995686 38.2508039,53.5378627" id="XMLID_115_" fill="#E9E8D3"></path>
                <path d="M72.4215686,92.4901961 C70.0552157,92.4901961 67.8110196,92.1725882 65.7744902,91.6089216 C64.9804706,93.5581961 63.3296078,95.284098 61.0784314,96.6208431 C64.045098,98.3833922 68.0274118,99.4705882 72.4215686,99.4705882 C81.578098,99.4705882 89,94.7832549 89,89 L89,82.0196078 C89,87.8028627 81.578098,92.4901961 72.4215686,92.4901961" id="XMLID_114_" fill="#E4AF18"></path>
                <path d="M72.4215686,85.5098039 C70.2628824,85.5098039 68.2054118,85.2410588 66.3137255,84.7663922 L66.3137255,89 C66.3137255,89.9022157 66.1130392,90.7730196 65.7744902,91.6089216 C67.8110196,92.1725882 70.0552157,92.4901961 72.4215686,92.4901961 C81.578098,92.4901961 89,87.8028627 89,82.0196078 L89,75.0392157 C89,80.8224706 81.578098,85.5098039 72.4215686,85.5098039" id="XMLID_113_" fill="#D19D18"></path>
                <path d="M72.4215686,78.5294118 C70.2628824,78.5294118 68.2054118,78.2606667 66.3137255,77.786 L66.3137255,82.0196078 L66.3137255,84.7663922 C68.2054118,85.2410588 70.2628824,85.5098039 72.4215686,85.5098039 C81.578098,85.5098039 89,80.8224706 89,75.0392157 L89,68.0588235 C89,73.8420784 81.578098,78.5294118 72.4215686,78.5294118" id="XMLID_112_" fill="#E4AF18"></path>
                <path d="M72.4215686,71.5490196 C70.2628824,71.5490196 68.2054118,71.2802745 66.3137255,70.8056078 L66.3137255,75.0392157 L66.3137255,77.786 C68.2054118,78.2606667 70.2628824,78.5294118 72.4215686,78.5294118 C81.578098,78.5294118 89,73.8420784 89,68.0588235 L89,61.0784314 C89,66.8616863 81.578098,71.5490196 72.4215686,71.5490196" id="XMLID_111_" fill="#D19D18"></path>
                <path d="M72.4215686,64.5686275 C70.2628824,64.5686275 68.2054118,64.2998824 66.3137255,63.8252157 L66.3137255,68.0588235 L66.3137255,70.8056078 C68.2054118,71.2802745 70.2628824,71.5490196 72.4215686,71.5490196 C81.578098,71.5490196 89,66.8616863 89,61.0784314 L89,54.0980392 C89,59.8812941 81.578098,64.5686275 72.4215686,64.5686275" id="XMLID_110_" fill="#E4AF18"></path>
                <path d="M72.4215686,57.5882353 C69.5456471,57.5882353 66.8407451,57.1240392 64.4831176,56.3108235 C65.6453529,57.7418039 66.3137255,59.3595098 66.3137255,61.0784314 L66.3137255,63.8252157 C68.2054118,64.2998824 70.2628824,64.5686275 72.4215686,64.5686275 C81.578098,64.5686275 89,59.8812941 89,54.0980392 L89,47.1176471 C89,52.900902 81.578098,57.5882353 72.4215686,57.5882353" id="XMLID_109_" fill="#D19D18"></path>
                <path d="M72.4215686,50.6078431 C63.2650392,50.6078431 55.8431373,45.9205098 55.8431373,40.1372549 L55.8431373,47.1176471 C55.8431373,48.8365686 56.5115098,50.4542745 57.6737451,51.8852549 C60.5898039,52.8921765 62.9631373,54.4400784 64.4831176,56.3108235 C66.8407451,57.1240392 69.5456471,57.5882353 72.4215686,57.5882353 C81.578098,57.5882353 89,52.900902 89,47.1176471 L89,40.1372549 C89,45.9205098 81.578098,50.6078431 72.4215686,50.6078431" id="XMLID_108_" fill="#E4AF18"></path>
                <path d="M71.5490196,29.6945882 L71.5490196,0 L66.3137255,0 L66.3137255,30.4100784 C67.9471373,29.9999804 69.7079412,29.7556667 71.5490196,29.6945882" id="XMLID_107_" fill="#607B53"></path>
                <path d="M66.3137255,30.4100784 L66.3137255,0 L61.0784314,0 L61.0784314,32.5164118 C62.5861961,31.6194314 64.3557255,30.900451 66.3137255,30.4100784" id="XMLID_106_" fill="#546949"></path>
                <path d="M61.0784314,32.5146667 L61.0784314,0.00174509804 L55.8431373,0.00174509804 L55.8431373,40.139 C55.8431373,37.1287059 57.8622157,34.425549 61.0784314,32.5146667" id="XMLID_77_" fill="#607B53"></path>
            </g>
        </g>
    </g>
</svg>