<?xml version="1.0" encoding="UTF-8"?>
<svg width="360px" height="640px" viewBox="0 0 360 640" version="1.1" xmlns="http://www.w3.org/2000/svg" xmlns:xlink="http://www.w3.org/1999/xlink">
    <!-- Generator: Sketch 51.3 (57544) - http://www.bohemiancoding.com/sketch -->
    <title>Filter empty</title>
    <desc>Created with Sketch.</desc>
    <defs></defs>
    <g id="Filter-empty" stroke="none" stroke-width="1" fill="none" fill-rule="evenodd">
        <g id="Barra-Azul">
            <g id="Material/Android/Status-bar-360dp-light-gray-Copy-2">
                <g>
                    <rect id="status-bar-bg" fill="#008CCC" x="0" y="0" width="360" height="24"></rect>
                    <g id="status-bar-contents" stroke-width="1" transform="translate(256.000000, 4.000000)">
                        <g id="time" opacity="0.9" transform="translate(68.000000, 0.000000)" fill="#FFFFFF" font-family="Dosis-Regular, Dosis" font-size="14" font-weight="normal">
                            <text id="12:30">
                                <tspan x="0.98" y="14">12:30</tspan>
                            </text>
                        </g>
                        <g id="battery" transform="translate(41.000000, 0.000000)">
                            <polygon id="bounds" points="0 0 16 0 16 16 0 16"></polygon>
                            <polygon id="Shape" fill-opacity="0.600000024" fill="#FFFFFF" points="9 1.875 9 1 6 1 6 1.875 3 1.875 3 15 12 15 12 1.875"></polygon>
                        </g>
                        <g id="cellular" transform="translate(21.000000, 0.000000)">
                            <polygon id="bounds" points="0 0 16 0 16 16 0 16"></polygon>
                            <polygon id="Shape" fill-opacity="0.600000024" fill="#FFFFFF" points="0 15 14 15 14 1"></polygon>
                        </g>
                        <g id="wifi">
                            <polygon id="bounds" points="2 0 18 0 18 16 2 16"></polygon>
                            <path d="M0.977372085,4.01593123 C3.48821908,2.12256382 6.61301513,1 10,1 C13.3869849,1 16.5117809,2.12256382 19.0226279,4.01593123 L10,15 L0.977372085,4.01593123 Z" id="Shape" fill-opacity="0.600000024" fill="#FFFFFF"></path>
                        </g>
                    </g>
                </g>
            </g>
        </g>
        <text id="Fechar" font-family="Dosis-Regular, Dosis" font-size="14" font-weight="normal" fill="#00AFFF">
            <tspan x="308.36" y="54">Fechar</tspan>
        </text>
        <text id="Filtros" font-family="Dosis-Regular, Dosis" font-size="24" font-weight="normal" fill="#008CCC">
            <tspan x="152.48" y="65">Filtros</tspan>
        </text>
        <text id="Ordene-por" font-family="Dosis-Medium, Dosis" font-size="20" font-weight="400" fill="#008CCC">
            <tspan x="16" y="164">Ordene por</tspan>
        </text>
        <text id="Visualizar" font-family="Dosis-Medium, Dosis" font-size="20" font-weight="400" fill="#008CCC">
            <tspan x="16" y="436">Visualizar</tspan>
        </text>
        <text id="Menor-preço" font-family="Dosis-Regular, Dosis" font-size="14" font-weight="normal" fill="#008CCC">
            <tspan x="42" y="203">Menor preço</tspan>
        </text>
        <text id="Apenas-nome" font-family="Dosis-Regular, Dosis" font-size="14" font-weight="normal" fill="#008CCC">
            <tspan x="42" y="475">Apenas nome</tspan>
        </text>
        <text id="Nome-e-imagem" font-family="Dosis-Regular, Dosis" font-size="14" font-weight="normal" fill="#008CCC">
            <tspan x="42" y="516">Nome e imagem</tspan>
        </text>
        <text id="Como-colunas" font-family="Dosis-Regular, Dosis" font-size="14" font-weight="normal" fill="#008CCC">
            <tspan x="42" y="554">Como colunas</tspan>
        </text>
        <g id="10" transform="translate(16.000000, 189.000000)" fill="#00AFFF">
            <g id="low-price" transform="translate(1.000000, 0.000000)">
                <path d="M14.7375,10.5 L12.6375,10.5 L12.6375,0.3 C12.6375,0.134325 12.503175,0 12.3375,0 L2.7375,0 C2.571825,0 2.4375,0.134325 2.4375,0.3 L2.4375,10.5 L0.3375,10.5 C0.2557125,10.5 0.17745,10.533375 0.1208625,10.5924375 C0.006225,10.7120625 0.010275,10.9019625 0.1299,11.0166 L7.3299,17.9166 C7.385775,17.9701125 7.4601375,18 7.5375,18 C7.6148625,18 7.6892625,17.9701125 7.7451,17.9166 L14.9451,11.0166 C15.0041625,10.9600125 15.0375375,10.88175 15.0375375,10.7999625 C15.0375,10.6342875 14.903175,10.5 14.7375,10.5 Z M7.5375,17.2845 L1.0839,11.1 L2.7375,11.1 C2.903175,11.1 3.0375,10.965675 3.0375,10.8 L3.0375,0.6 L12.0375,0.6 L12.0375,10.8 C12.0375,10.965675 12.171825,11.1 12.3375,11.1 L13.9911,11.1 L7.5375,17.2845 Z" id="Shape" fill-rule="nonzero"></path>
                <path d="M7.5375,4.5 C8.2002375,4.5 8.7375,5.0372625 8.7375,5.7 L9.3375,5.7 C9.3358875,4.8226125 8.702475,4.0739625 7.8375,3.927 L7.8375,3.3 L7.2375,3.3 L7.2375,3.927 C6.2583,4.09845 5.6034375,5.031225 5.7748875,6.0104625 C5.925,6.867825 6.6670875,7.494975 7.5375,7.5 C8.2002375,7.5 8.7375,8.0372625 8.7375,8.7 C8.7375,9.3627375 8.2002375,9.9 7.5375,9.9 C6.8747625,9.9 6.3375,9.3627375 6.3375,8.7 L5.7375,8.7 C5.7391125,9.5773875 6.372525,10.3260375 7.2375,10.473 L7.2375,11.1 L7.8375,11.1 L7.8375,10.473 C8.8167,10.30155 9.4715625,9.368775 9.3001125,8.3895375 C9.15,7.532175 8.4079125,6.905025 7.5375,6.9 C6.8747625,6.9 6.3375,6.3627375 6.3375,5.7 C6.3375,5.0372625 6.8747625,4.5 7.5375,4.5 Z" id="Shape" fill-rule="nonzero"></path>
                <rect id="Rectangle-path" fill-rule="nonzero" x="3.6375" y="1.2" width="1" height="1"></rect>
                <rect id="Rectangle-path" fill-rule="nonzero" x="4.8375" y="1.2" width="1" height="1"></rect>
                <rect id="Rectangle-path" fill-rule="nonzero" x="6.0375" y="1.2" width="1" height="1"></rect>
                <rect id="Rectangle-path" fill-rule="nonzero" x="7.2375" y="1.2" width="1" height="1"></rect>
                <rect id="Rectangle-path" fill-rule="nonzero" x="8.4375" y="1.2" width="1" height="1"></rect>
                <rect id="Rectangle-path" fill-rule="nonzero" x="9.6375" y="1.2" width="1" height="1"></rect>
                <rect id="Rectangle-path" fill-rule="nonzero" x="10.8375" y="1.2" width="1" height="1"></rect>
            </g>
        </g>
        <g id="16" transform="translate(16.000000, 461.000000)" fill="#00AFFF">
            <g id="edit">
                <path d="M17.2739496,16.3815126 L0.72605042,16.3815126 C0.378151261,16.3815126 0.105882353,16.6689076 0.105882353,17.0016807 C0.105882353,17.3344538 0.393277311,17.6218487 0.72605042,17.6218487 L17.2890756,17.6218487 C17.6369748,17.6218487 17.9092437,17.3344538 17.9092437,17.0016807 C17.9092437,16.6689076 17.6218487,16.3815126 17.2739496,16.3815126 Z" id="Shape" fill-rule="nonzero"></path>
                <path d="M0.105882353,10.8907563 L0.0907563025,13.8403361 C0.0907563025,14.0067227 0.151260504,14.1731092 0.272268908,14.2941176 C0.393277311,14.4151261 0.544537815,14.4756303 0.71092437,14.4756303 L3.64537815,14.4605042 C3.81176471,14.4605042 3.96302521,14.4 4.08403361,14.2789916 L14.2184874,4.14453782 C14.4605042,3.90252101 14.4605042,3.5092437 14.2184874,3.25210084 L11.3142857,0.317647059 C11.0722689,0.0756302521 10.6789916,0.0756302521 10.4218487,0.317647059 L8.39495798,2.35966387 L0.287394958,10.4521008 C0.181512605,10.5731092 0.105882353,10.7243697 0.105882353,10.8907563 Z M10.8756303,1.6487395 L12.9176471,3.6907563 L11.7680672,4.84033613 L9.72605042,2.79831933 L10.8756303,1.6487395 Z M1.36134454,11.1630252 L8.83361345,3.6907563 L10.8756303,5.73277311 L3.40336134,13.189916 L1.34621849,13.205042 L1.36134454,11.1630252 Z" id="Shape" fill-rule="nonzero"></path>
            </g>
        </g>
        <g id="17" transform="translate(16.000000, 502.000000)" fill="#00AFFF">
            <g id="image" transform="translate(0.000000, 1.000000)">
                <path d="M9.35673684,0.0116842105 L0.374280702,0.0116842105 C0.167684211,0.0116842105 0,0.179368421 0,0.385964912 L0,9.36842105 C0,9.57501754 0.167684211,9.74270175 0.374280702,9.74270175 L9.35673684,9.74270175 C9.56333333,9.74270175 9.73101754,9.57501754 9.73101754,9.36842105 L9.73101754,0.385964912 C9.73098246,0.179368421 9.56333333,0.0116842105 9.35673684,0.0116842105 Z M8.98245614,8.99414035 L0.748526316,8.99414035 L0.748526316,0.760245614 L8.98245614,0.760245614 L8.98245614,8.99414035 Z" id="Shape" fill-rule="nonzero"></path>
                <path d="M8.19424561,7.70368421 L6.69715789,4.70954386 C6.64326316,4.60175439 6.54147368,4.52691228 6.42245614,4.5074386 C6.30192982,4.48722807 6.18291228,4.52764912 6.09757895,4.61224561 L4.96803509,5.74178947 L3.70301754,3.21249123 C3.63564912,3.07701754 3.49715789,2.99466667 3.34147368,3.00663158 C3.19101754,3.01785965 3.06150877,3.11817544 3.01361404,3.26112281 L1.51652632,7.75235088 C1.47761404,7.86687719 1.49705263,7.99263158 1.5674386,8.08992982 C1.63778947,8.188 1.75084211,8.24561404 1.87133333,8.24561404 L7.85964912,8.24561404 C7.98915789,8.24561404 8.10964912,8.17750877 8.17778947,8.06747368 C8.24592982,7.9574386 8.25263158,7.81968421 8.19424561,7.70368421 Z M2.39084211,7.49708772 L3.43803509,4.35621053 L4.53091228,6.54192982 C4.58480702,6.6497193 4.68659649,6.7245614 4.80561404,6.74403509 C4.92463158,6.76350877 5.04515789,6.72382456 5.13049123,6.63922807 L6.26003509,5.50894737 L7.25410526,7.49705263 L2.39084211,7.49705263 L2.39084211,7.49708772 Z" id="Shape" fill-rule="nonzero"></path>
                <path d="M6.73684211,1.50877193 C5.91119298,1.50877193 5.23975439,2.18021053 5.23975439,3.00585965 C5.23975439,3.83150877 5.91119298,4.50294737 6.73684211,4.50294737 C7.56249123,4.50294737 8.23392982,3.83150877 8.23392982,3.00585965 C8.23392982,2.18021053 7.56249123,1.50877193 6.73684211,1.50877193 Z M6.73684211,3.75438596 C6.32438596,3.75438596 5.98831579,3.4182807 5.98831579,3.00585965 C5.98831579,2.59340351 6.32442105,2.25733333 6.73684211,2.25733333 C7.14926316,2.25733333 7.48536842,2.5934386 7.48536842,3.00585965 C7.48536842,3.4182807 7.14929825,3.75438596 6.73684211,3.75438596 Z" id="Shape" fill-rule="nonzero"></path>
                <path d="M17.5906316,8.99414035 L11.6023509,8.99414035 C11.3957544,8.99414035 11.2280702,9.16182456 11.2280702,9.36842105 C11.2280702,9.57501754 11.3957544,9.74270175 11.6023509,9.74270175 L17.5906667,9.74270175 C17.7972632,9.74270175 17.9649474,9.57501754 17.9649474,9.36842105 C17.9649474,9.16182456 17.7972281,8.99414035 17.5906316,8.99414035 Z" id="Shape" fill-rule="nonzero"></path>
                <path d="M17.5906316,11.2397544 L0.374280702,11.2397544 C0.167684211,11.2397544 0,11.4074386 0,11.6140351 C0,11.8206316 0.167684211,11.9883158 0.374280702,11.9883158 L17.5906667,11.9883158 C17.7972632,11.9883158 17.9649474,11.8206316 17.9649474,11.6140351 C17.9649123,11.4074386 17.7972281,11.2397544 17.5906316,11.2397544 Z" id="Shape" fill-rule="nonzero"></path>
                <path d="M17.5906316,13.4853684 L0.374280702,13.4853684 C0.167684211,13.4853684 0,13.6530526 0,13.8596491 C0,14.0662456 0.167684211,14.2339298 0.374280702,14.2339298 L17.5906667,14.2339298 C17.7972632,14.2339298 17.9649474,14.0662456 17.9649474,13.8596491 C17.9649123,13.6530526 17.7972281,13.4853684 17.5906316,13.4853684 Z" id="Shape" fill-rule="nonzero"></path>
                <path d="M17.5906316,15.7309825 L0.374280702,15.7309825 C0.167684211,15.7309825 0,15.8986667 0,16.1052632 C0,16.3118596 0.167684211,16.4795439 0.374280702,16.4795439 L17.5906667,16.4795439 C17.7972632,16.4795439 17.9649474,16.3118596 17.9649474,16.1052632 C17.9649123,15.8986667 17.7972281,15.7309825 17.5906316,15.7309825 Z" id="Shape" fill-rule="nonzero"></path>
            </g>
        </g>
        <g id="18" transform="translate(16.000000, 540.000000)" fill="#00AFFF">
            <g id="layout" transform="translate(0.000000, 2.000000)">
                <path d="M18,0.720703125 C18,0.332336426 17.6852417,0.017578125 17.296875,0.017578125 C16.8288574,0.017578125 1.17114258,0.017578125 0.703125,0.017578125 C0.314758301,0.017578125 0,0.332336426 0,0.720703125 L0,13.7988281 C0,14.1871948 0.314758301,14.5019531 0.703125,14.5019531 C0.707794172,14.5019531 17.2924805,14.496872 17.296875,14.496872 C17.6852417,14.496872 18,14.1819763 18,13.793747 C18,13.2639313 18,1.28361512 18,0.720703125 Z M8.296875,13.0957031 L1.40625,13.0957031 L1.40625,1.42382812 L8.296875,1.42382812 L8.296875,13.0957031 Z M16.59375,13.090622 L9.703125,13.090622 L9.703125,7.96289063 L16.59375,7.96289063 L16.59375,13.090622 Z M16.59375,6.55155946 L9.703125,6.55155946 L9.703125,1.42382813 L16.59375,1.42382813 L16.59375,6.55155946 Z M2.42578125,3.98666384 C2.42578125,3.5982971 2.74053955,3.28353884 3.12890625,3.28353884 L6.57421875,3.28353884 C6.96258545,3.28353884 7.27734375,3.5982971 7.27734375,3.98666384 C7.27734375,4.3750305 6.96258545,4.68978884 6.57421875,4.68978884 L3.12890625,4.68978884 C2.74053955,4.68978884 2.42578125,4.3750305 2.42578125,3.98666384 Z M2.42578125,7.25976563 C2.42578125,6.87139893 2.74053955,6.55664063 3.12890625,6.55664063 L6.57421875,6.55664063 C6.96258545,6.55664063 7.27734375,6.87139893 7.27734375,7.25976563 C7.27734375,7.64813232 6.96258545,7.96289063 6.57421875,7.96289063 L3.12890625,7.96289063 C2.74053955,7.96289063 2.42578125,7.64813232 2.42578125,7.25976563 Z M2.42578125,10.5328674 C2.42578125,10.1445008 2.74053955,9.82974241 3.12890625,9.82974241 L6.57421875,9.82974241 C6.96258545,9.82974241 7.27734375,10.1445008 7.27734375,10.5328674 C7.27734375,10.9212341 6.96258545,11.2359924 6.57421875,11.2359924 L3.12890625,11.2359924 C2.74053955,11.2359924 2.42578125,10.9212341 2.42578125,10.5328674 Z" id="Shape" fill-rule="nonzero"></path>
            </g>
        </g>
        <g id="11" transform="translate(16.000000, 230.000000)" fill="#00AFFF">
            <g id="low-price" stroke-width="1" fill-rule="evenodd" transform="translate(1.000000, 0.000000)">
                <path d="M14.7375,10.5 L12.6375,10.5 L12.6375,0.3 C12.6375,0.134325 12.503175,0 12.3375,0 L2.7375,0 C2.571825,0 2.4375,0.134325 2.4375,0.3 L2.4375,10.5 L0.3375,10.5 C0.2557125,10.5 0.17745,10.533375 0.1208625,10.5924375 C0.006225,10.7120625 0.010275,10.9019625 0.1299,11.0166 L7.3299,17.9166 C7.385775,17.9701125 7.4601375,18 7.5375,18 C7.6148625,18 7.6892625,17.9701125 7.7451,17.9166 L14.9451,11.0166 C15.0041625,10.9600125 15.0375375,10.88175 15.0375375,10.7999625 C15.0375,10.6342875 14.903175,10.5 14.7375,10.5 Z M7.5375,17.2845 L1.0839,11.1 L2.7375,11.1 C2.903175,11.1 3.0375,10.965675 3.0375,10.8 L3.0375,0.6 L12.0375,0.6 L12.0375,10.8 C12.0375,10.965675 12.171825,11.1 12.3375,11.1 L13.9911,11.1 L7.5375,17.2845 Z" id="Shape" fill-rule="nonzero" transform="translate(7.537501, 9.000000) scale(1, -1) translate(-7.537501, -9.000000) "></path>
                <path d="M7.5375,4.5 C8.2002375,4.5 8.7375,5.0372625 8.7375,5.7 L9.3375,5.7 C9.3358875,4.8226125 8.702475,4.0739625 7.8375,3.927 L7.8375,3.3 L7.2375,3.3 L7.2375,3.927 C6.2583,4.09845 5.6034375,5.031225 5.7748875,6.0104625 C5.925,6.867825 6.6670875,7.494975 7.5375,7.5 C8.2002375,7.5 8.7375,8.0372625 8.7375,8.7 C8.7375,9.3627375 8.2002375,9.9 7.5375,9.9 C6.8747625,9.9 6.3375,9.3627375 6.3375,8.7 L5.7375,8.7 C5.7391125,9.5773875 6.372525,10.3260375 7.2375,10.473 L7.2375,11.1 L7.8375,11.1 L7.8375,10.473 C8.8167,10.30155 9.4715625,9.368775 9.3001125,8.3895375 C9.15,7.532175 8.4079125,6.905025 7.5375,6.9 C6.8747625,6.9 6.3375,6.3627375 6.3375,5.7 C6.3375,5.0372625 6.8747625,4.5 7.5375,4.5 Z" id="Shape" fill-rule="nonzero"></path>
            </g>
            <rect id="Rectangle-path" fill-rule="nonzero" transform="translate(4.937500, 16.500000) scale(1, -1) translate(-4.937500, -16.500000) " x="4.6375" y="16.2" width="1" height="1"></rect>
            <rect id="Rectangle-path" fill-rule="nonzero" transform="translate(6.137500, 16.500000) scale(1, -1) translate(-6.137500, -16.500000) " x="5.8375" y="16.2" width="1" height="1"></rect>
            <rect id="Rectangle-path" fill-rule="nonzero" transform="translate(7.337500, 16.500000) scale(1, -1) translate(-7.337500, -16.500000) " x="7.0375" y="16.2" width="1" height="1"></rect>
            <rect id="Rectangle-path" fill-rule="nonzero" transform="translate(8.537500, 16.500000) scale(1, -1) translate(-8.537500, -16.500000) " x="8.2375" y="16.2" width="1" height="1"></rect>
            <rect id="Rectangle-path" fill-rule="nonzero" transform="translate(9.737500, 16.500000) scale(1, -1) translate(-9.737500, -16.500000) " x="9.4375" y="16.2" width="1" height="1"></rect>
            <rect id="Rectangle-path" fill-rule="nonzero" transform="translate(10.937500, 16.500000) scale(1, -1) translate(-10.937500, -16.500000) " x="10.6375" y="16.2" width="1" height="1"></rect>
            <rect id="Rectangle-path" fill-rule="nonzero" transform="translate(12.137500, 16.500000) scale(1, -1) translate(-12.137500, -16.500000) " x="11.8375" y="16.2" width="1" height="1"></rect>
        </g>
        <g id="12" transform="translate(16.000000, 271.000000)" fill="#00AFFF">
            <g id="resize">
                <path d="M7.04438478,10.1639996 L1.12018409,16.0880661 L1.12018409,13.144162 C1.12018409,12.8351288 0.869983613,12.5841091 0.560092047,12.5841091 C0.250479411,12.5841091 0,12.8348499 0,13.144162 L0,17.439947 C0,17.5127427 0.014783306,17.5852596 0.0432341969,17.6538716 C0.0998570482,17.7910958 0.208918796,17.899871 0.346152505,17.9570477 C0.414490429,17.9852177 0.487291238,18 0.560092047,18 L4.85645549,18 C5.1657892,18 5.41654754,17.7495381 5.41654754,17.439947 C5.41654754,17.130356 5.16606813,16.879894 4.85645549,16.879894 L1.91206722,16.879894 L7.83598898,10.9558275 C8.05467034,10.7371614 8.05467034,10.3826657 7.83598898,10.1639996 C7.61730763,9.94533347 7.26306614,9.94533347 7.04438478,10.1639996 Z" id="Shape" fill-rule="nonzero"></path>
                <path d="M17.9567658,0.346116302 C17.900143,0.209175847 17.7910812,0.100125506 17.6538475,0.042950774 C17.5855096,0.0147817599 17.5127088,0 17.439908,0 L13.1435445,0 C12.8342108,0 12.5834525,0.250453214 12.5834525,0.560033468 C12.5834525,0.869613722 12.8339319,1.12006694 13.1435445,1.12006694 L16.0879328,1.12006694 L10.164011,7.04392693 C9.94532966,7.26258541 9.94532966,7.61706875 10.164011,7.83572723 C10.2733517,7.94505648 10.4167219,8 10.560092,8 C10.7034622,8 10.8465535,7.94505648 10.9558941,7.83572723 L16.8798159,1.91186724 L16.8798159,4.85566867 C16.8798159,5.16469112 17.1300164,5.41570213 17.439908,5.41570213 C17.7492417,5.41570213 18,5.16497002 18,4.85566867 L18,0.560033468 C18,0.487240273 17.9852167,0.414447079 17.9567658,0.346116302 Z" id="Shape" fill-rule="nonzero"></path>
            </g>
        </g>
        <g id="14" transform="translate(16.000000, 312.000000)" fill="#00AFFF">
            <g id="distance">
                <path d="M2.99998828,11.9999883 C2.58655078,11.9999883 2.25,12.3365391 2.25,12.7499766 C2.25,13.1634141 2.58655078,13.5 2.99998828,13.5 C3.41342578,13.5 3.74997656,13.1634492 3.74997656,12.7500117 C3.74997656,12.3365742 3.41346094,11.9999883 2.99998828,11.9999883 Z" id="Shape" fill-rule="nonzero"></path>
                <path d="M6.75,2.25 C6.3365625,2.25 6.00001172,2.58655078 6.00001172,2.99998828 C6.00001172,3.41342578 6.3365625,3.74997656 6.75,3.74997656 C7.1634375,3.74997656 7.49998828,3.41342578 7.49998828,2.99998828 C7.49998828,2.58655078 7.1634375,2.25 6.75,2.25 Z" id="Shape" fill-rule="nonzero"></path>
                <path d="M15.0000117,3.75001172 C13.3458398,3.75001172 12.0000234,5.09582813 12.0000234,6.75 C12.0000234,7.86782813 13.2882187,9.87363281 14.0939648,11.0197617 C14.0456602,11.0563945 14.002875,11.1006563 13.9760859,11.1595781 C13.8947695,11.3379258 13.965082,11.5466484 14.1324609,11.6411484 C13.9687734,11.7418711 13.906125,11.9528086 13.9936641,12.1282031 C14.059582,12.2596875 14.1917695,12.3354844 14.3294766,12.3354844 C14.3858672,12.3354844 14.4429961,12.3226523 14.4968203,12.2959336 L15.1659492,11.9613516 L15.166125,11.9613164 L15.1677422,11.9605078 C15.1698867,11.959418 15.1707305,11.9568867 15.172875,11.9557617 C15.2206172,11.9308008 15.2640703,11.8971563 15.29775,11.8532109 C15.5742188,11.4920508 18,8.28260156 18,6.75 C18,5.09582813 16.6541836,3.75001172 15.0000117,3.75001172 Z M15.0000117,10.997332 C14.175668,9.86319141 12.7500117,7.70473828 12.7500117,6.75 C12.7500117,5.50926563 13.7592773,4.5 15.0000117,4.5 C16.2407461,4.5 17.2500117,5.50926563 17.2500117,6.75 C17.2500117,7.70470313 15.8243555,9.86315625 15.0000117,10.997332 Z" id="Shape" fill-rule="nonzero"></path>
                <path d="M15.0000117,6.00001172 C14.5865742,6.00001172 14.2500234,6.3365625 14.2500234,6.75 C14.2500234,7.1634375 14.5865742,7.49998828 15.0000117,7.49998828 C15.4134492,7.49998828 15.75,7.1634375 15.75,6.75 C15.75,6.3365625 15.4134492,6.00001172 15.0000117,6.00001172 Z" id="Shape" fill-rule="nonzero"></path>
                <path d="M3.91580859,17.0057461 C4.72215234,15.8574023 6.00001172,13.863375 6.00001172,12.7500117 C6.00001172,11.0958398 4.65419531,9.75002344 3.00002344,9.75002344 C1.34581641,9.74998828 0,11.0958398 0,12.7500117 C0,14.2826133 2.42578125,17.4920625 2.70228516,17.8531523 C2.72225391,17.8792031 2.75094141,17.8943555 2.77635937,17.9139727 C2.79165234,17.92575 2.80300781,17.9403398 2.81974219,17.9495859 C2.87476172,17.980207 2.93526562,18 3.00002344,18 L3.00019922,17.9999648 L3.000375,18 C3.00898828,18 3.01725,17.9945508 3.02586328,17.9939531 C3.07501172,17.9903672 3.12359766,17.9821406 3.16683984,17.9606602 C3.16712109,17.9605195 3.1674375,17.9605547 3.16771875,17.9604141 L3.83860547,17.6249531 C4.02391406,17.5323164 4.09897266,17.3070703 4.00633594,17.1217617 C3.98344922,17.0759531 3.95223047,17.0371758 3.91580859,17.0057461 Z M2.99998828,16.9973086 C2.17564453,15.863168 0.749988281,13.7047148 0.749988281,12.7499766 C0.749988281,11.5092422 1.75925391,10.4999766 2.99998828,10.4999766 C4.24072266,10.4999766 5.24998828,11.5092422 5.24998828,12.7499766 C5.24998828,13.7047148 3.82433203,15.863168 2.99998828,16.9973086 Z" id="Shape" fill-rule="nonzero"></path>
                <path d="M12.9774023,12.2167969 L11.7930586,12.8089687 C11.60775,12.9016055 11.5326914,13.1268516 11.6253281,13.3121602 C11.6912461,13.4436445 11.8234336,13.5194414 11.9611406,13.5194414 C12.0175313,13.5194414 12.0746602,13.5066094 12.1284844,13.4798906 L13.3128281,12.8877187 C13.4981367,12.795082 13.5731953,12.5698359 13.4805586,12.3845273 C13.387957,12.1995703 13.1623594,12.12525 12.9774023,12.2167969 Z" id="Shape" fill-rule="nonzero"></path>
                <path d="M5.87183203,15.769793 L4.68748828,16.3619648 C4.50217969,16.4546016 4.42712109,16.6798477 4.51975781,16.8651562 C4.58567578,16.9966406 4.71786328,17.0724375 4.85557031,17.0724375 C4.91196094,17.0724375 4.96908984,17.0596055 5.02291406,17.0328867 L6.20725781,16.4407148 C6.39256641,16.3480781 6.467625,16.122832 6.37498828,15.9375234 C6.282,15.7522148 6.05675391,15.6782109 5.87183203,15.769793 Z" id="Shape" fill-rule="nonzero"></path>
                <path d="M10.60875,13.4011406 L9.42440625,13.9933125 C9.23909766,14.0859492 9.16403906,14.3111953 9.25667578,14.4965039 C9.32259375,14.6279883 9.45478125,14.7037852 9.59248828,14.7037852 C9.64887891,14.7037852 9.70600781,14.6909531 9.75983203,14.6642344 L10.9441758,14.0720625 C11.1294844,13.9794258 11.204543,13.7541797 11.1119063,13.5688711 C11.018918,13.3835625 10.7940586,13.3088555 10.60875,13.4011406 Z" id="Shape" fill-rule="nonzero"></path>
                <path d="M8.24009766,14.5854492 L7.05614062,15.1776211 C6.87083203,15.2702578 6.79577344,15.4955039 6.88841016,15.6808125 C6.95432812,15.8122969 7.08651562,15.8880938 7.22422266,15.8880938 C7.28061328,15.8880938 7.33774219,15.8752617 7.39156641,15.848543 L8.57552344,15.2563711 C8.76083203,15.1637344 8.83589062,14.9384883 8.74325391,14.7531797 C8.65026562,14.5678711 8.42466797,14.4935156 8.24009766,14.5854492 Z" id="Shape" fill-rule="nonzero"></path>
                <path d="M8.46861328,8.65613672 C8.38290234,8.84475 8.46604687,9.06704297 8.65466016,9.15271875 L10.0312383,9.77857031 C10.081793,9.80163281 10.1345273,9.81225 10.1861367,9.81225 C10.3289766,9.81225 10.465207,9.73058203 10.5278203,9.59252344 C10.6135312,9.40391016 10.5303867,9.18161719 10.3417734,9.09594141 L8.96519531,8.47008984 C8.77552734,8.38328906 8.55358594,8.46826172 8.46861328,8.65613672 Z" id="Shape" fill-rule="nonzero"></path>
                <path d="M12.9400664,11.0639531 C13.0829062,11.0639531 13.2191367,10.9822852 13.28175,10.8442266 C13.3674609,10.6556133 13.2843164,10.4333203 13.0957031,10.3476445 L11.7187383,9.72179297 C11.5279453,9.63537891 11.3074805,9.71996484 11.2221562,9.90783984 C11.1364453,10.0964531 11.2195898,10.3187461 11.4082031,10.4044219 L12.785168,11.0302734 C12.8356875,11.0533359 12.8884219,11.0639531 12.9400664,11.0639531 Z" id="Shape" fill-rule="nonzero"></path>
                <path d="M7.43224219,8.56019531 C7.57508203,8.56019531 7.7113125,8.47852734 7.77392578,8.34046875 C7.85963672,8.15185547 7.77614063,7.9295625 7.58787891,7.84388672 L7.32888281,7.72618359 C8.03925,6.75650391 9.74998828,4.28860547 9.74998828,2.99998828 C9.74998828,1.34581641 8.40417188,0 6.75,0 C5.09582813,0 3.75001172,1.34581641 3.75001172,2.99998828 C3.75001172,4.53258984 6.17579297,7.74203906 6.45229688,8.10312891 C6.45553125,8.10738281 6.46094531,8.109 6.46439063,8.11307812 C6.48928125,8.14310156 6.5210625,8.166375 6.55544531,8.18789062 C6.56757422,8.19544922 6.57678516,8.20652344 6.5896875,8.21264062 C6.59165625,8.21355469 6.59281641,8.21538281 6.59478516,8.21629687 L7.27734375,8.52648047 C7.32789844,8.54957812 7.38063281,8.56019531 7.43224219,8.56019531 Z M4.5,2.99998828 C4.5,1.75925391 5.50926562,0.749988281 6.75,0.749988281 C7.99073438,0.749988281 9,1.75925391 9,2.99998828 C9,3.95469141 7.57434375,6.11314453 6.75,7.24732031 C5.92565625,6.11314453 4.5,3.95472656 4.5,2.99998828 Z" id="Shape" fill-rule="nonzero"></path>
            </g>
        </g>
        <g id="15" transform="translate(16.000000, 353.000000)" fill="#00AFFF">
            <g id="dna">
                <path d="M8.36419355,4.17483871 C8.37870968,4.17483871 8.39351613,4.17774194 8.41064516,4.17774194 C8.55290323,4.17774194 8.67483871,4.07351613 8.69806452,3.93096774 L8.70096774,3.91325806 C8.72709677,3.73645161 8.76483871,3.55906452 8.81419355,3.39067742 C8.85774194,3.23680645 8.76803226,3.07712903 8.61125806,3.03387097 C8.46290323,2.99032258 8.29770968,3.08322581 8.25416129,3.23390323 C8.20190323,3.42551613 8.15835484,3.62874194 8.12351613,3.84067742 C8.1206129,3.85548387 8.1206129,3.8726129 8.1206129,3.88712903 C8.12032258,4.02677419 8.22483871,4.1516129 8.36419355,4.17483871 Z" id="Shape" fill-rule="nonzero"></path>
                <path d="M11.9177419,0.740322581 C11.9322581,0.740322581 11.9496774,0.740322581 11.9670968,0.737419355 C12.1470968,0.705483871 12.3360968,0.682258065 12.5245161,0.66483871 C12.6841935,0.653225806 12.8032258,0.510967742 12.7916129,0.351290323 C12.7770968,0.194516129 12.6406452,0.0725806452 12.4780645,0.0870967742 C12.2635161,0.104516129 12.0602903,0.130645161 11.8683871,0.165483871 C11.7290323,0.188709677 11.6274194,0.307741935 11.6274194,0.447387097 C11.6274194,0.464806452 11.6303226,0.482225806 11.6332258,0.499645161 C11.6564516,0.638709677 11.7754839,0.740322581 11.9177419,0.740322581 Z" id="Shape" fill-rule="nonzero"></path>
                <path d="M15.363871,0.888387097 C15.5380645,0.926129032 15.7206774,0.967064516 15.9241935,1.01903226 C15.9474194,1.02193548 15.9706452,1.02512903 15.9967742,1.02512903 C16.1274194,1.02512903 16.2438387,0.93483871 16.2754839,0.807387097 C16.3164194,0.650612903 16.2206129,0.49383871 16.0664516,0.455806452 C15.8690323,0.406451613 15.6716129,0.360290323 15.4829032,0.319354839 C15.326129,0.287709677 15.1693548,0.391935484 15.1374194,0.543193548 C15.1345161,0.563225806 15.1316129,0.58383871 15.1316129,0.60416129 C15.1319032,0.740322581 15.2277097,0.859354839 15.363871,0.888387097 Z" id="Shape" fill-rule="nonzero"></path>
                <path d="M6.02419355,16.4670968 C5.84970968,16.4903226 5.66709677,16.5048387 5.46358065,16.5164516 C5.30709677,16.5225484 5.18487097,16.65 5.18487097,16.8067742 C5.18487097,16.8096774 5.18487097,16.8154839 5.18487097,16.8212903 C5.19358065,16.9751613 5.3216129,17.0970968 5.47519355,17.0970968 C5.48129032,17.0970968 5.48680645,17.0970968 5.49,17.0970968 C5.69612903,17.0854839 5.89906452,17.0680645 6.09967742,17.0448387 C6.25645161,17.0245161 6.36967742,16.8793548 6.34935484,16.7196774 C6.32903226,16.5629032 6.18387097,16.4496774 6.02419355,16.4670968 Z" id="Shape" fill-rule="nonzero"></path>
                <path d="M10.1177419,10.6635484 C10.0744839,10.4690323 10.0277419,10.2716129 9.97258065,10.0770968 C9.93193548,9.92583871 9.76645161,9.83003226 9.6183871,9.87096774 C9.4616129,9.91422581 9.3716129,10.0741935 9.41225806,10.2277742 C9.4616129,10.4022581 9.50516129,10.584871 9.54580645,10.7677742 C9.54580645,10.7735806 9.54580645,10.7793871 9.54870968,10.7851935 L9.5516129,10.7968065 C9.58354839,10.9219355 9.69996774,11.0145484 9.83351613,11.0145484 C9.85354839,11.0145484 9.87416129,11.0116452 9.89448387,11.006129 C10.0280323,10.9768065 10.1238387,10.8577742 10.1238387,10.7216129 C10.1238387,10.7070968 10.1206452,10.6954839 10.1177419,10.6809677 L10.1206452,10.6809677 L10.1177419,10.6635484 Z" id="Shape" fill-rule="nonzero"></path>
                <path d="M9.95254839,13.3577419 C9.79867742,13.32 9.64190323,13.4187097 9.60416129,13.5725806 C9.5606129,13.7554839 9.50835484,13.9293871 9.44448387,14.0980645 C9.42967742,14.13 9.42416129,14.1677419 9.42416129,14.2025806 C9.42706452,14.3245161 9.49964516,14.4290323 9.61258065,14.4725806 C9.64451613,14.4841935 9.67935484,14.4902903 9.71448387,14.4902903 C9.83641935,14.4902903 9.94383871,14.4145161 9.98709677,14.3041935 C10.0596774,14.1125806 10.1206452,13.9122581 10.1702903,13.706129 C10.2048387,13.5493548 10.1090323,13.3925806 9.95254839,13.3577419 Z" id="Shape" fill-rule="nonzero"></path>
                <path d="M8.74480645,7.6616129 C8.77383871,7.6616129 8.79967742,7.65870968 8.82580645,7.65 C8.95093548,7.61225806 9.03774194,7.49903226 9.03512903,7.3683871 C9.03512903,7.34225806 9.03193548,7.31612903 9.02351613,7.28970968 C8.96835484,7.08967742 8.919,6.90677419 8.87835484,6.73548387 C8.84351613,6.5816129 8.68383871,6.48290323 8.52996774,6.52064516 C8.37319355,6.55548387 8.2773871,6.71225806 8.31222581,6.86903226 C8.35577419,7.05193548 8.40803226,7.24935484 8.46609677,7.45258065 C8.50093548,7.57451613 8.61677419,7.6616129 8.74480645,7.6616129 Z" id="Shape" fill-rule="nonzero"></path>
                <path d="M17.4193548,1.4516129 C17.540129,1.4516129 17.6527742,1.37583871 17.694,1.25535484 C17.7459677,1.10380645 17.6649677,0.938612903 17.5134194,0.886354839 C17.4193548,0.854419355 17.325871,0.823064516 17.2329677,0.792870968 C17.2312258,0.792290323 17.2291935,0.792870968 17.2274516,0.792290323 C17.2228065,0.790548387 17.2184516,0.788806452 17.2132258,0.787064516 C17.1464516,0.766451613 17.0782258,0.774870968 17.0169677,0.79983871 C16.956,0.600387097 16.8927097,0.400064516 16.8230323,0.196548387 C16.7707742,0.045 16.605871,-0.0354193548 16.4540323,0.0159677419 C16.3024839,0.0682258065 16.2214839,0.233129032 16.2734516,0.384967742 C16.6630645,1.52216129 16.911871,2.58735484 17.0236452,3.55790323 L14.1630968,0.697354839 C14.1851613,0.699677419 14.2063548,0.700548387 14.2284194,0.702870968 C14.2400323,0.705774194 14.2516452,0.705774194 14.2603548,0.705774194 C14.4084194,0.705774194 14.5329677,0.595451613 14.5506774,0.447387097 C14.5596774,0.368709677 14.5364516,0.293225806 14.4870968,0.232258065 C14.4409355,0.171290323 14.3712581,0.133548387 14.2957742,0.12483871 C14.0838387,0.101612903 13.8803226,0.0841935484 13.6919032,0.075483871 C13.6422581,0.0737419355 13.5963871,0.0876774194 13.554,0.108290323 C13.4430968,0.0444193548 13.301129,0.0551612903 13.2061935,0.150096774 C13.0926774,0.263612903 13.0926774,0.447096774 13.2061935,0.560612903 L17.0863548,4.44077419 C17.109,5.26209677 17.0192903,5.99922581 16.8175161,6.6356129 L11.0592581,0.877645161 C11.0859677,0.809709677 11.0882903,0.731612903 11.0583871,0.659032258 C10.9974194,0.517064516 10.8232258,0.444483871 10.6780645,0.502258065 C10.4832581,0.583548387 10.2948387,0.679354839 10.1174516,0.780967742 C10.0274516,0.833516129 9.97229032,0.929322581 9.97229032,1.03354839 C9.97229032,1.08609677 9.98680645,1.13545161 10.0132258,1.17870968 C10.0654839,1.26580645 10.1612903,1.32096774 10.2626129,1.32096774 C10.3151613,1.32096774 10.367129,1.30935484 10.4106774,1.28322581 C10.4594516,1.25477419 10.5108387,1.22835484 10.5616452,1.20135484 L16.5849677,7.2243871 C16.3924839,7.623 16.1480323,7.97167742 15.8460968,8.25909677 C15.7273548,8.37232258 15.5975806,8.47248387 15.4631613,8.56654839 L9.2673871,2.36990323 C9.35912903,2.22822581 9.46277419,2.09148387 9.57483871,1.96548387 C9.67935484,1.84354839 9.67064516,1.66064516 9.5516129,1.55322581 C9.43548387,1.4516129 9.24096774,1.46322581 9.13935484,1.57935484 C9,1.73612903 8.87225806,1.90741935 8.75903226,2.08451613 C8.73667742,2.12196774 8.72593548,2.16203226 8.72041935,2.20296774 C8.7146129,2.20790323 8.70735484,2.20993548 8.70183871,2.21516129 C8.58832258,2.32867742 8.58832258,2.51216129 8.70183871,2.62567742 L14.9429032,8.86703226 C14.3532581,9.14022581 13.6541613,9.26825806 12.8647742,9.25258065 L8.62954839,5.01706452 C8.60748387,4.87219355 8.48380645,4.75403226 8.33516129,4.77 C8.17548387,4.77609677 8.05064516,4.90935484 8.05645161,5.06903226 C8.06516129,5.26906452 8.07967742,5.47258065 8.10290323,5.67870968 C8.12032258,5.82387097 8.24196774,5.93419355 8.39003226,5.93419355 C8.40164516,5.93419355 8.41325806,5.93419355 8.42487097,5.93419355 C8.50412903,5.92490323 8.5706129,5.88367742 8.61677419,5.8256129 L11.9694194,9.17825806 C11.1890323,9.06764516 10.3386774,8.83654839 9.43054839,8.48351613 C9.41748387,8.44983871 9.40383871,8.41529032 9.39164516,8.3816129 C9.33677419,8.23645161 9.16229032,8.15777419 9.01712903,8.21322581 C8.97532258,8.23006452 8.94019355,8.25648387 8.91029032,8.28812903 C5.96177419,7.20870968 3.54774194,7.37274194 2.08364516,8.76658065 C1.07070968,9.73132258 0.590225806,11.2340323 0.645967742,13.0970323 C0.644806452,13.1127097 0.645677419,13.1272258 0.647129032,13.1429032 C0.67616129,13.9796129 0.81,14.8865806 1.05677419,15.8530645 C1.026,15.8231613 0.990290323,15.7981935 0.946741935,15.7839677 C0.856451613,15.7546452 0.76616129,15.7241613 0.674709677,15.6930968 C0.522870968,15.6417097 0.357967742,15.722129 0.305709677,15.8736774 C0.253741935,16.0252258 0.334741935,16.1904194 0.486290323,16.2426774 C0.580645161,16.2749032 0.674129032,16.3059677 0.767032258,16.3364516 C0.797225806,16.3460323 0.827129032,16.3506774 0.857032258,16.3506774 C0.979548387,16.3506774 1.09306452,16.2725806 1.13312903,16.1503548 C1.13487097,16.145129 1.13341935,16.1401935 1.13487097,16.1349677 C1.23241935,16.4914839 1.34041935,16.8529355 1.46729032,17.2233871 C1.50880645,17.3435806 1.62116129,17.4193548 1.74193548,17.4193548 C1.773,17.4193548 1.80493548,17.414129 1.836,17.4036774 C1.98754839,17.3514194 2.06854839,17.1865161 2.01658065,17.0346774 C1.97390323,16.9098387 1.93674194,16.7881935 1.89754839,16.6650968 C1.90335484,16.6674194 1.90741935,16.6717742 1.91322581,16.6732258 L1.93354839,16.676129 C2.12516129,16.7254839 2.31677419,16.7690323 2.49677419,16.8096774 C2.51709677,16.812871 2.53770968,16.8157742 2.55774194,16.8157742 C2.69448387,16.8157742 2.81322581,16.7199677 2.84225806,16.5864194 C2.85677419,16.5109355 2.84516129,16.4325484 2.80132258,16.3686774 C2.76096774,16.3045161 2.69448387,16.2580645 2.61870968,16.2406452 C2.43029032,16.2 2.24129032,16.1564516 2.0583871,16.1102903 C1.94458065,16.0800968 1.82845161,16.1253871 1.75877419,16.2127742 C1.51867742,15.3865161 1.35725806,14.6023548 1.27683871,13.8724839 L3.85229032,16.4479355 C3.82151613,16.4441613 3.79045161,16.4427097 3.75996774,16.4383548 L3.75677419,16.452871 L3.75387097,16.4383548 C3.59419355,16.4206452 3.44903226,16.5341613 3.42870968,16.6909355 C3.42580645,16.7025484 3.42580645,16.713871 3.42580645,16.7286774 C3.42580645,16.8738387 3.53612903,16.9957742 3.68129032,17.0158065 C3.88451613,17.0422258 4.08483871,17.0622581 4.27964516,17.0767742 C4.28806452,17.0767742 4.29416129,17.0767742 4.30258065,17.0767742 C4.35687097,17.0767742 4.40506452,17.0579032 4.4486129,17.0314839 C4.49912903,17.0680645 4.55632258,17.0915806 4.61612903,17.0915806 C4.69045161,17.0915806 4.76477419,17.063129 4.8213871,17.0065161 C4.93490323,16.893 4.93490323,16.7095161 4.8213871,16.596 L1.21906452,12.9936774 C1.20135484,12.1793226 1.296,11.4468387 1.50183871,10.8127742 L6.99677419,16.3077097 C6.94887097,16.3602581 6.9183871,16.4273226 6.9183871,16.5019355 C6.9183871,16.5309677 6.92129032,16.5629032 6.93290323,16.5948387 C6.97064516,16.7135806 7.08096774,16.7922581 7.20870968,16.7922581 C7.24035484,16.7922581 7.26967742,16.7893548 7.29870968,16.7777419 L7.31641935,16.7716452 C7.51383871,16.7051613 7.70254839,16.6296774 7.87674194,16.5480968 C8.02190323,16.4784194 8.08577419,16.307129 8.01580645,16.1619677 C7.95193548,16.0226129 7.77193548,15.9558387 7.62996774,16.0226129 C7.60819355,16.0330645 7.58467742,16.0417742 7.56232258,16.0519355 L1.73670968,10.2266129 C1.93209677,9.82712903 2.17945161,9.477 2.48429032,9.18667742 C2.60070968,9.07577419 2.72729032,8.97706452 2.85793548,8.88416129 L8.96429032,14.9905161 C8.94541935,15.0044516 8.92480645,15.0166452 8.90970968,15.0355161 C8.79648387,15.1745806 8.67193548,15.3055161 8.5383871,15.4274516 C8.47741935,15.4797097 8.44258065,15.5580968 8.44258065,15.6422903 C8.44258065,15.7119677 8.46870968,15.7813548 8.51806452,15.8368065 C8.57032258,15.8977742 8.64870968,15.9326129 8.73290323,15.9326129 C8.80548387,15.9326129 8.87487097,15.9064839 8.92741935,15.8600323 L8.95354839,15.8339032 C9.1016129,15.6971613 9.23777419,15.552 9.36290323,15.3984194 C9.40296774,15.3461613 9.42096774,15.2825806 9.42096774,15.2178387 C9.46248387,15.2041935 9.50196774,15.1835806 9.53477419,15.1504839 C9.64829032,15.0369677 9.64829032,14.8534839 9.53477419,14.7399677 L3.37325806,8.57874194 C3.95709677,8.29945161 4.64719355,8.16329032 5.42351613,8.16503226 L9.7316129,12.473129 L9.7316129,12.4780645 C9.73480645,12.6348387 9.85935484,12.7625806 10.0190323,12.7625806 L10.0219355,12.7625806 C10.1787097,12.7625806 10.3093548,12.6348387 10.3122581,12.4780645 C10.3122581,12.4519355 10.3122581,12.4231935 10.3122581,12.3970645 C10.3122581,12.383129 10.3108065,12.3683226 10.3105161,12.3543871 C10.3105161,12.3523548 10.3102258,12.3503226 10.3102258,12.3482903 C10.3093548,12.1894839 10.305,12.0292258 10.2919355,11.8657742 C10.2803226,11.7058065 10.1467742,11.583871 9.98129032,11.5954839 C9.9026129,11.6015806 9.83322581,11.6390323 9.78096774,11.6973871 C9.7803871,11.6982581 9.78009677,11.6994194 9.77951613,11.7 L6.30232258,8.22280645 C7.12364516,8.325 8.02277419,8.56190323 8.98490323,8.93583871 C9.00958065,9.00087097 9.03367742,9.06474194 9.06096774,9.13354839 C9.1016129,9.24677419 9.21193548,9.32516129 9.33358065,9.32516129 C9.36551613,9.32516129 9.40035484,9.31906452 9.43258065,9.30483871 C9.50225806,9.27987097 9.55567742,9.22703226 9.58877419,9.16287097 C10.7239355,9.57077419 11.7757742,9.792 12.7216452,9.828 C12.7291935,9.82858065 12.7361613,9.83235484 12.7437097,9.83235484 C12.7477742,9.83235484 12.7515484,9.83032258 12.7556129,9.83003226 C14.1979355,9.87851613 15.3911613,9.495 16.2467419,8.67948387 C16.6468065,8.29858065 16.9603548,7.82912903 17.1920323,7.28651613 C17.1963871,7.27751613 17.2010323,7.2693871 17.2042258,7.26009677 C17.5436129,6.45125806 17.6942903,5.47519355 17.6591613,4.37051613 C17.6655484,4.33306452 17.6646774,4.29619355 17.6562581,4.25932258 C17.6182258,3.3776129 17.4611613,2.41519355 17.1853548,1.38948387 C17.2318065,1.40516129 17.2779677,1.42025806 17.325,1.43622581 C17.3566452,1.44667742 17.3882903,1.4516129 17.4193548,1.4516129 Z" id="Shape" fill-rule="nonzero"></path>
            </g>
        </g>
        <text id="Maior-preço" font-family="Dosis-Regular, Dosis" font-size="14" font-weight="normal" fill="#008CCC">
            <tspan x="42" y="244">Maior preço</tspan>
        </text>
        <text id="Tamanho" font-family="Dosis-Regular, Dosis" font-size="14" font-weight="normal" fill="#008CCC">
            <tspan x="42" y="285">Tamanho</tspan>
        </text>
        <text id="Menor-distância" font-family="Dosis-Regular, Dosis" font-size="14" font-weight="normal" fill="#008CCC">
            <tspan x="42" y="326">Menor distância</tspan>
        </text>
        <text id="Tipo" font-family="Dosis-Regular, Dosis" font-size="14" font-weight="normal" fill="#008CCC">
            <tspan x="42" y="367">Tipo</tspan>
        </text>
        <rect id="Rectangle-2" fill-opacity="0.2" fill="#008CCC" x="16" y="177" width="328" height="1"></rect>
        <rect id="Rectangle-2-Copy-7" fill-opacity="0.2" fill="#008CCC" x="16" y="449" width="328" height="1"></rect>
        <rect id="Rectangle-2-Copy-8" fill-opacity="0.2" fill="#008CCC" x="16" y="490" width="328" height="1"></rect>
        <rect id="Rectangle-2-Copy-9" fill-opacity="0.2" fill="#008CCC" x="16" y="531" width="328" height="1"></rect>
        <rect id="Rectangle-2-Copy" fill-opacity="0.2" fill="#008CCC" x="16" y="218" width="328" height="1"></rect>
        <rect id="Rectangle-2-Copy-2" fill-opacity="0.2" fill="#008CCC" x="16" y="259" width="328" height="1"></rect>
        <rect id="Rectangle-2-Copy-3" fill-opacity="0.2" fill="#008CCC" x="16" y="300" width="328" height="1"></rect>
        <rect id="Rectangle-2-Copy-4" fill-opacity="0.2" fill="#008CCC" x="16" y="341" width="328" height="1"></rect>
        <rect id="Rectangle-2-Copy-5" fill-opacity="0.2" fill="#008CCC" x="16" y="382" width="328" height="1"></rect>
        <rect id="Rectangle-2-Copy-6" fill-opacity="0.2" fill="#008CCC" x="0" y="575" width="360" height="1"></rect>
        <g id="Material/Light/Radio-button-off" transform="translate(320.000000, 186.000000)" fill="#D9D9D9" opacity="0.54">
            <path d="M12,2 C6.5,2 2,6.5 2,12 C2,17.5 6.5,22 12,22 C17.5,22 22,17.5 22,12 C22,6.5 17.5,2 12,2 L12,2 Z M12,20 C7.6,20 4,16.4 4,12 C4,7.6 7.6,4 12,4 C16.4,4 20,7.6 20,12 C20,16.4 16.4,20 12,20 L12,20 Z" id="Shape"></path>
        </g>
        <g id="Material/Light/Radio-button-off" transform="translate(320.000000, 458.000000)" fill="#D9D9D9" opacity="0.54">
            <path d="M12,2 C6.5,2 2,6.5 2,12 C2,17.5 6.5,22 12,22 C17.5,22 22,17.5 22,12 C22,6.5 17.5,2 12,2 L12,2 Z M12,20 C7.6,20 4,16.4 4,12 C4,7.6 7.6,4 12,4 C16.4,4 20,7.6 20,12 C20,16.4 16.4,20 12,20 L12,20 Z" id="Shape"></path>
        </g>
        <g id="Material/Light/Radio-button-off" transform="translate(320.000000, 499.000000)" fill="#D9D9D9" opacity="0.54">
            <path d="M12,2 C6.5,2 2,6.5 2,12 C2,17.5 6.5,22 12,22 C17.5,22 22,17.5 22,12 C22,6.5 17.5,2 12,2 L12,2 Z M12,20 C7.6,20 4,16.4 4,12 C4,7.6 7.6,4 12,4 C16.4,4 20,7.6 20,12 C20,16.4 16.4,20 12,20 L12,20 Z" id="Shape"></path>
        </g>
        <g id="Material/Light/Radio-button-off" transform="translate(320.000000, 540.000000)" fill="#D9D9D9" opacity="0.54">
            <path d="M12,2 C6.5,2 2,6.5 2,12 C2,17.5 6.5,22 12,22 C17.5,22 22,17.5 22,12 C22,6.5 17.5,2 12,2 L12,2 Z M12,20 C7.6,20 4,16.4 4,12 C4,7.6 7.6,4 12,4 C16.4,4 20,7.6 20,12 C20,16.4 16.4,20 12,20 L12,20 Z" id="Shape"></path>
        </g>
        <g id="Material/Light/Radio-button-off" transform="translate(320.000000, 227.000000)" fill="#D9D9D9" opacity="0.54">
            <path d="M12,2 C6.5,2 2,6.5 2,12 C2,17.5 6.5,22 12,22 C17.5,22 22,17.5 22,12 C22,6.5 17.5,2 12,2 L12,2 Z M12,20 C7.6,20 4,16.4 4,12 C4,7.6 7.6,4 12,4 C16.4,4 20,7.6 20,12 C20,16.4 16.4,20 12,20 L12,20 Z" id="Shape"></path>
        </g>
        <g id="Material/Light/Radio-button-off" transform="translate(320.000000, 268.000000)" fill="#D9D9D9" opacity="0.54">
            <path d="M12,2 C6.5,2 2,6.5 2,12 C2,17.5 6.5,22 12,22 C17.5,22 22,17.5 22,12 C22,6.5 17.5,2 12,2 L12,2 Z M12,20 C7.6,20 4,16.4 4,12 C4,7.6 7.6,4 12,4 C16.4,4 20,7.6 20,12 C20,16.4 16.4,20 12,20 L12,20 Z" id="Shape"></path>
        </g>
        <g id="Material/Light/Radio-button-off" transform="translate(320.000000, 309.000000)" fill="#D9D9D9" opacity="0.54">
            <path d="M12,2 C6.5,2 2,6.5 2,12 C2,17.5 6.5,22 12,22 C17.5,22 22,17.5 22,12 C22,6.5 17.5,2 12,2 L12,2 Z M12,20 C7.6,20 4,16.4 4,12 C4,7.6 7.6,4 12,4 C16.4,4 20,7.6 20,12 C20,16.4 16.4,20 12,20 L12,20 Z" id="Shape"></path>
        </g>
        <g id="Material/Light/Radio-button-off" transform="translate(320.000000, 350.000000)" fill="#D9D9D9" opacity="0.54">
            <path d="M12,2 C6.5,2 2,6.5 2,12 C2,17.5 6.5,22 12,22 C17.5,22 22,17.5 22,12 C22,6.5 17.5,2 12,2 L12,2 Z M12,20 C7.6,20 4,16.4 4,12 C4,7.6 7.6,4 12,4 C16.4,4 20,7.6 20,12 C20,16.4 16.4,20 12,20 L12,20 Z" id="Shape"></path>
        </g>
        <rect id="Rectangle-17-Copy-9" fill="#00AFFF" fill-rule="nonzero" x="16" y="592" width="328" height="32" rx="4"></rect>
        <text id="Filtrar" font-family="Dosis-SemiBold, Dosis" font-size="14" font-weight="500" line-spacing="21" fill="#FFFFFF">
            <tspan x="163" y="612">Filtrar</tspan>
        </text>
    </g>
</svg>