<?xml version="1.0" encoding="UTF-8"?>
<svg width="134px" height="218px" viewBox="0 0 134 218" version="1.1" xmlns="http://www.w3.org/2000/svg" xmlns:xlink="http://www.w3.org/1999/xlink">
    <!-- Generator: Sketch 52.2 (67145) - http://www.bohemiancoding.com/sketch -->
    <title>Local</title>
    <desc>Created with Sketch.</desc>
    <g id="Page-1" stroke="none" stroke-width="1" fill="none" fill-rule="evenodd">
        <g id="Cesta-com-produtos" transform="translate(0.000000, -9.000000)" fill="#FFFFFF">
            <rect x="0" y="0" width="360" height="640"></rect>
            <g id="Local" transform="translate(16.000000, 109.000000)">
                <g id="location-point" transform="translate(2.000000, 0.000000)">
                    <path d="M6.674625,2.728125 C4.51251562,2.728125 2.7534375,4.48713281 2.7534375,6.64924219 C2.7534375,8.81135156 4.51251562,10.5703594 6.674625,10.5703594 C8.83673437,10.5703594 10.5958125,8.81135156 10.5958125,6.64924219 C10.5958125,4.48713281 8.83673437,2.728125 6.674625,2.728125 Z M6.674625,9.51560156 C5.09407031,9.51560156 3.808125,8.22972656 3.808125,6.64917188 C3.808125,5.06861719 5.09407031,3.7828125 6.674625,3.7828125 C8.25517969,3.7828125 9.541125,5.0686875 9.541125,6.64924219 C9.541125,8.22979688 8.25525,9.51560156 6.674625,9.51560156 Z" id="Shape" fill-rule="nonzero"></path>
                    <path d="M6.674625,0 C3.00825,0 0.025453125,2.98279688 0.025453125,6.64917187 C0.025453125,8.76360937 1.79873437,11.9138203 2.85574219,13.6033594 C3.55120313,14.7149297 4.29855469,15.7728516 4.96005469,16.5821484 C6.02184375,17.8811016 6.40188281,17.9898047 6.67469531,17.9898047 C6.95158594,17.9898047 7.31039062,17.8810313 8.368875,16.581375 C9.03185156,15.7672266 9.77955469,14.7099375 10.4743125,13.6042031 C11.5385625,11.9105156 13.3238672,8.75467969 13.3238672,6.64910156 C13.3238672,2.98279688 10.3410703,0 6.674625,0 Z M9.74313281,12.7830234 C8.37935156,14.9966719 7.12729687,16.4925 6.66836719,16.8743672 C6.20704687,16.5042422 4.9753125,15.0439922 3.59247656,12.7899844 C1.99589062,10.1873672 1.08021094,7.94910937 1.08021094,6.64917187 C1.08014063,3.56435156 3.58980469,1.0546875 6.674625,1.0546875 C9.75944531,1.0546875 12.2691094,3.56435156 12.2691094,6.64917188 C12.2691797,7.94165625 11.3484375,10.1773125 9.74313281,12.7830234 Z" id="Shape" fill-rule="nonzero"></path>
                </g>
            </g>
        </g>
    </g>
</svg>