<?xml version="1.0" encoding="UTF-8"?>
<svg width="360px" height="640px" viewBox="0 0 360 640" version="1.1" xmlns="http://www.w3.org/2000/svg" xmlns:xlink="http://www.w3.org/1999/xlink">
    <!-- Generator: Sketch 51.3 (57544) - http://www.bohemiancoding.com/sketch -->
    <title>Search medicine</title>
    <desc>Created with Sketch.</desc>
    <defs></defs>
    <g id="Search-medicine" stroke="none" stroke-width="1" fill="none" fill-rule="evenodd">
        <rect id="Rectangle" fill="#008CCC" x="0" y="0" width="360" height="87"></rect>
        <g id="Back" transform="translate(16.000000, 40.000000)" fill="#FFFFFF">
            <g id="back" transform="translate(4.800000, 0.000000)">
                <path d="M0.361792531,12.8471701 L11.146556,23.6283485 C11.6197842,24.1003817 12.3864896,24.1003817 12.8609129,23.6283485 C13.3341411,23.1563154 13.3341411,22.38961 12.8609129,21.9175768 L2.93158506,11.991834 L12.8597178,2.06609129 C13.3329461,1.59405809 13.3329461,0.827352697 12.8597178,0.354124481 C12.3864896,-0.117908714 11.6185892,-0.117908714 11.145361,0.354124481 L0.36059751,11.1352033 C-0.105360996,11.6023568 -0.105360996,12.381112 0.361792531,12.8471701 Z" id="Chevron_Right" fill-rule="nonzero"></path>
            </g>
        </g>
        <text id="Resultado-da-busca" font-family="Dosis-Regular, Dosis" font-size="24" font-weight="normal" fill="#FFFFFF">
            <tspan x="48.136" y="65">Resultado da busca</tspan>
        </text>
        <g id="8" transform="translate(320.000000, 40.000000)" fill="#FFFFFF">
            <g id="search-copy" transform="translate(1.000000, 0.000000)">
                <path d="M21.6655044,21.2172503 L16.2421281,15.4511731 C17.6365734,13.7566392 18.4005983,11.6245686 18.4005983,9.4049908 C18.4005983,4.21916066 14.2732641,0 9.20029913,0 C4.12733419,0 0,4.21916066 0,9.4049908 C0,14.5908209 4.12733419,18.8099816 9.20029913,18.8099816 C11.1047611,18.8099816 12.9196201,18.222783 14.4712705,17.1080872 L19.9358482,22.917918 C20.1642556,23.1604032 20.4714656,23.2941176 20.8006763,23.2941176 C21.1122864,23.2941176 21.407896,23.1726706 21.6323033,22.9518578 C22.1091188,22.482835 22.1243193,21.7050831 21.6655044,21.2172503 Z M9.20029913,2.45347586 C12.950021,2.45347586 16.0005202,5.57184368 16.0005202,9.4049908 C16.0005202,13.2381379 12.950021,16.3565057 9.20029913,16.3565057 C5.45057722,16.3565057 2.40007803,13.2381379 2.40007803,9.4049908 C2.40007803,5.57184368 5.45057722,2.45347586 9.20029913,2.45347586 Z" id="Shape" fill-rule="nonzero"></path>
            </g>
        </g>
        <g id="Barra-Azul">
            <g id="Material/Android/Status-bar-360dp-light-gray-Copy-2">
                <g>
                    <rect id="status-bar-bg" fill="#008CCC" x="0" y="0" width="360" height="24"></rect>
                    <g id="status-bar-contents" stroke-width="1" transform="translate(256.000000, 4.000000)">
                        <g id="time" opacity="0.9" transform="translate(68.000000, 0.000000)" fill="#FFFFFF" font-family="Dosis-Regular, Dosis" font-size="14" font-weight="normal">
                            <text id="12:30">
                                <tspan x="0.98" y="14">12:30</tspan>
                            </text>
                        </g>
                        <g id="battery" transform="translate(41.000000, 0.000000)">
                            <polygon id="bounds" points="0 0 16 0 16 16 0 16"></polygon>
                            <polygon id="Shape" fill-opacity="0.600000024" fill="#FFFFFF" points="9 1.875 9 1 6 1 6 1.875 3 1.875 3 15 12 15 12 1.875"></polygon>
                        </g>
                        <g id="cellular" transform="translate(21.000000, 0.000000)">
                            <polygon id="bounds" points="0 0 16 0 16 16 0 16"></polygon>
                            <polygon id="Shape" fill-opacity="0.600000024" fill="#FFFFFF" points="0 15 14 15 14 1"></polygon>
                        </g>
                        <g id="wifi">
                            <polygon id="bounds" points="2 0 18 0 18 16 2 16"></polygon>
                            <path d="M0.977372085,4.01593123 C3.48821908,2.12256382 6.61301513,1 10,1 C13.3869849,1 16.5117809,2.12256382 19.0226279,4.01593123 L10,15 L0.977372085,4.01593123 Z" id="Shape" fill-opacity="0.600000024" fill="#FFFFFF"></path>
                        </g>
                    </g>
                </g>
            </g>
        </g>
        <rect id="Rectangle-2" fill-opacity="0.2" fill="#888888" x="0" y="120" width="360" height="1"></rect>
        <rect id="Rectangle-2-Copy" fill-opacity="0.2" fill="#888888" x="16" y="294" width="328" height="1"></rect>
        <g id="Group" transform="translate(123.000000, 95.000000)">
            <g id="Blue-Filter" stroke="#008CCC">
                <g id="Group-2" transform="translate(0.000000, 3.000000)">
                    <g id="Group">
                        <path d="M2.9,1.76666667 L2.9,1.63333333 L0.5,1.63333333 L0.5,1.76666667 L2.9,1.76666667 Z" id="Rectangle-3"></path>
                        <circle id="Oval" cx="4.53333333" cy="1.13333333" r="1.13333333"></circle>
                        <path d="M6.16666667,1.63333333 L6.16666667,1.76666667 L16.5,1.76666667 L16.5,1.63333333 L6.16666667,1.63333333 Z" id="Rectangle-3"></path>
                    </g>
                    <g id="Group" transform="translate(8.500000, 6.033333) scale(-1, 1) translate(-8.500000, -6.033333) translate(0.000000, 4.533333)">
                        <path d="M2.9,1.76666667 L2.9,1.63333333 L0.5,1.63333333 L0.5,1.76666667 L2.9,1.76666667 Z" id="Rectangle-3"></path>
                        <circle id="Oval" cx="4.53333333" cy="1.13333333" r="1.13333333"></circle>
                        <path d="M6.16666667,1.63333333 L6.16666667,1.76666667 L16.5,1.76666667 L16.5,1.63333333 L6.16666667,1.63333333 Z" id="Rectangle-3"></path>
                    </g>
                    <g id="Group" transform="translate(0.000000, 9.066667)">
                        <path d="M2.9,1.76666667 L2.9,1.63333333 L0.5,1.63333333 L0.5,1.76666667 L2.9,1.76666667 Z" id="Rectangle-3"></path>
                        <circle id="Oval" cx="4.53333333" cy="1.13333333" r="1.13333333"></circle>
                        <path d="M6.16666667,1.63333333 L6.16666667,1.76666667 L16.5,1.76666667 L16.5,1.63333333 L6.16666667,1.63333333 Z" id="Rectangle-3"></path>
                    </g>
                </g>
            </g>
            <text id="Filtrar-resultados" font-family="Dosis-Regular, Dosis" font-size="14" font-weight="normal" fill="#008CCC">
                <tspan x="25.06" y="14">Filtrar resultados</tspan>
            </text>
        </g>
        <rect id="Rectangle-4" stroke="#979797" fill="#D8D8D8" x="16.5" y="138.5" width="47" height="47"></rect>
        <rect id="Rectangle-7" stroke="#979797" fill="#D8D8D8" x="55.5" y="129.5" width="17" height="17"></rect>
        <text id="Amoxicilina-+-Clavul" font-family="Dosis-Regular, Dosis" font-size="16" font-weight="normal" fill="#008CCC">
            <tspan x="81" y="145">Amoxicilina + Clavulanato de Potássio</tspan>
        </text>
        <text id="+8-tipos-Clavulanato" font-family="Dosis-Regular, Dosis" font-size="14" font-weight="normal" line-spacing="21" fill="#008CCC">
            <tspan x="81" y="171">+8 tipos</tspan>
            <tspan x="81" y="192">Clavulanato de Potássio + Amoxicilina Tri-</tspan>
            <tspan x="81" y="213">Hidratada</tspan>
            <tspan x="81" y="234">30 comprimidos</tspan>
        </text>
        <g id="Group-2" transform="translate(266.000000, 249.000000)">
            <g id="go" transform="translate(60.000000, 19.000000)" fill="#008CCC">
                <g id="back" transform="translate(4.000000, 0.000000)">
                    <path d="M0.267754259,9.81373444 L8.50611525,18.0493568 C8.86760903,18.4099378 9.45328676,18.4099378 9.8156934,18.0493568 C10.1771872,17.6887759 10.1771872,17.1030982 9.8156934,16.7425173 L2.23079022,9.1603527 L9.81478054,1.57818811 C10.1762743,1.21760719 10.1762743,0.631929461 9.81478054,0.270435685 C9.45328676,-0.0901452282 8.86669617,-0.0901452282 8.50520239,0.270435685 L0.266841396,8.50598202 C-0.0890991297,8.86283541 -0.0890991297,9.45771784 0.267754259,9.81373444 Z" id="Chevron_Right" fill-rule="nonzero" transform="translate(5.043407, 9.159896) scale(-1, 1) translate(-5.043407, -9.159896) "></path>
                </g>
            </g>
            <text id="A-partir-de" font-family="Dosis-Regular, Dosis" font-size="12" font-weight="normal" fill="#888888">
                <tspan x="0.276" y="12">A partir de</tspan>
            </text>
            <text id="R$" font-family="Dosis-Regular, Dosis" font-size="12" font-weight="normal" fill="#008CCC">
                <tspan x="0.332" y="31">R$</tspan>
            </text>
            <text id="30,99" font-family="Dosis-Regular, Dosis" font-size="14" font-weight="normal" fill="#008CCC">
                <tspan x="21.002" y="33">30,99</tspan>
            </text>
        </g>
    </g>
</svg>