<?xml version="1.0" encoding="UTF-8"?>
<svg width="360px" height="640px" viewBox="0 0 360 640" version="1.1" xmlns="http://www.w3.org/2000/svg" xmlns:xlink="http://www.w3.org/1999/xlink">
    <!-- Generator: Sketch 51.3 (57544) - http://www.bohemiancoding.com/sketch -->
    <title>Início</title>
    <desc>Created with Sketch.</desc>
    <defs></defs>
    <g id="Início" stroke="none" stroke-width="1" fill="none" fill-rule="evenodd">
        <rect id="Rectangle-2" fill="#008CCC" x="0" y="0" width="360" height="640"></rect>
        <g id="Material/Android/Status-bar-360dp-light-gray">
            <rect id="status-bar-bg" fill="#008CCC" opacity="0" x="0" y="0" width="360" height="24"></rect>
            <g id="status-bar-contents" stroke-width="1" transform="translate(256.000000, 4.000000)">
                <g id="time" opacity="0.9" transform="translate(68.000000, 0.000000)" fill="#FFFFFF" font-family="Dosis-Regular, Dosis" font-size="14" font-weight="normal">
                    <text id="12:30">
                        <tspan x="0.98" y="14">12:30</tspan>
                    </text>
                </g>
                <g id="battery" transform="translate(41.000000, 0.000000)">
                    <polygon id="bounds" points="0 0 16 0 16 16 0 16"></polygon>
                    <polygon id="Shape" fill-opacity="0.600000024" fill="#FFFFFF" points="9 1.875 9 1 6 1 6 1.875 3 1.875 3 15 12 15 12 1.875"></polygon>
                </g>
                <g id="cellular" transform="translate(21.000000, 0.000000)">
                    <polygon id="bounds" points="0 0 16 0 16 16 0 16"></polygon>
                    <polygon id="Shape" fill-opacity="0.600000024" fill="#FFFFFF" points="0 15 14 15 14 1"></polygon>
                </g>
                <g id="wifi">
                    <polygon id="bounds" points="2 0 18 0 18 16 2 16"></polygon>
                    <path d="M0.977372085,4.01593123 C3.48821908,2.12256382 6.61301513,1 10,1 C13.3869849,1 16.5117809,2.12256382 19.0226279,4.01593123 L10,15 L0.977372085,4.01593123 Z" id="Shape" fill-opacity="0.600000024" fill="#FFFFFF"></path>
                </g>
            </g>
        </g>
        <g id="Mediquei" transform="translate(100.000000, 295.000000)">
            <g id="Ativo-2" transform="translate(0.000000, 8.000000)">
                <path d="M2.59923372,14.5900383 L0.539463602,6.88429119 C-0.16491223,4.10658463 1.51418605,1.28339488 4.29118774,0.576245211 C5.62039131,0.190765851 7.04843718,0.351223016 8.25895067,1.02206842 C9.46946416,1.69291382 10.3625066,2.81876318 10.7402299,4.15019157 L12.8061303,11.8559387 L2.59923372,14.5900383 Z" id="Shape" stroke="#FFFFFF" stroke-width="1.2"></path>
                <path d="M13.2291188,13.4252874 L15.2888889,21.1310345 C15.626373,22.468384 15.4178927,23.8850565 14.7094459,25.0684847 C14.000999,26.2519129 12.8508076,27.10484 11.5126437,27.4390805 C8.75164499,28.2262288 5.87529977,26.6261246 5.08812261,23.8651341 L3.02222222,16.159387 L13.2291188,13.4252874 Z" id="Shape" stroke="#FFFFFF" stroke-width="1.2" fill="#FFFFFF" fill-rule="nonzero"></path>
                <circle id="Oval" fill="#FFFFFF" fill-rule="nonzero" cx="5.19233716" cy="3.61072797" r="1"></circle>
                <circle id="Oval" fill="#FFFFFF" fill-rule="nonzero" cx="3.29195402" cy="6.84750958" r="1"></circle>
                <circle id="Oval" fill="#FFFFFF" fill-rule="nonzero" cx="8.49042146" cy="6.27126437" r="1"></circle>
                <circle id="Oval" fill="#FFFFFF" fill-rule="nonzero" cx="9.42835249" cy="8" r="1"></circle>
                <polyline id="Shape" stroke="#FFFFFF" stroke-width="0.9" points="6.20383142 13.6214559 4.58544061 7.57701149 3.29195402 6.84750958"></polyline>
                <path d="M7.76704981,13.2045977 L5.19233716,3.61072797" id="Shape" stroke="#FFFFFF" stroke-width="0.9"></path>
                <polyline id="Shape" stroke="#FFFFFF" stroke-width="0.9" points="8.49042146 6.27126437 7.44827586 8.06743295 8.75402299 12.9409962"></polyline>
                <polyline id="Shape" stroke="#FFFFFF" stroke-width="0.9" points="9.42835249 8 9.25057471 9.77777778 8.32490421 11.3287356"></polyline>
                <path d="M30.2283525,8.00613027 L33.7226054,7.54636015 L33.9126437,10.9670498 C34.3301127,9.8259719 35.1094846,8.85283349 36.1318008,8.19616858 C37.1857946,7.54557642 38.4062032,7.21544843 39.6444444,7.24597701 C40.8711409,7.17397388 42.0899379,7.48456362 43.132567,8.1348659 C44.0112094,8.78628126 44.6406705,9.71857575 44.9164751,10.7770115 C45.7361559,8.53668285 47.9299657,7.10073465 50.3111111,7.24597701 C52.4403576,7.24597701 53.9197957,7.83448276 54.7494253,9.01149425 C55.5790549,10.1885057 55.9877395,11.9785441 55.9754789,14.3816092 L55.9754789,24.251341 C55.9754789,25.4773946 56.3678161,26.3295019 57.1524904,26.7586207 C56.9323672,27.1528258 56.5841325,27.4599645 56.1655172,27.6291188 C55.7101961,27.8319101 55.2172126,27.9363558 54.7187739,27.9356322 C53.8977474,27.9985367 53.0912757,27.6930209 52.5180077,27.1019157 C52.0023949,26.429656 51.7476129,25.5934484 51.8007663,24.7478927 L51.8007663,14.9394636 C51.863599,13.7264812 51.6822368,12.5132306 51.267433,11.3716475 C50.9118774,10.5869732 50.1272031,10.194636 48.91341,10.194636 C47.5884427,10.110499 46.3849416,10.9639372 46.0260536,12.2421456 C45.5199552,13.945455 45.2963041,15.7201679 45.3639847,17.4957854 L45.3639847,27.3655172 L41.1586207,27.3655172 L41.1586207,14.9149425 C41.2201197,13.7025295 41.0409396,12.4899385 40.6314176,11.3471264 C40.2758621,10.5624521 39.4911877,10.1701149 38.2773946,10.1701149 C36.9083815,10.0740408 35.6477198,10.9161629 35.2122605,12.2176245 C34.6402131,13.9165418 34.3765494,15.7040572 34.4337165,17.4957854 L34.4337165,27.3655172 L30.2283525,27.3655172 L30.2283525,8.00613027 Z" id="Shape" fill="#FFFFFF" fill-rule="nonzero"></path>
                <path d="M72.5210728,23.6444444 C72.5291128,24.5335704 72.2031475,25.3933311 71.6076628,26.0536398 C70.9732348,26.7702767 70.1706303,27.3179858 69.2720307,27.6475096 C68.3395318,28.0096445 67.3482374,28.1966812 66.3478927,28.1992337 C63.564751,28.1992337 61.5029374,27.2939974 60.1624521,25.4835249 C58.8219668,23.6730524 58.1435504,21.2372925 58.1272031,18.1762452 C58.1272031,14.9067688 58.856705,12.2687101 60.3157088,10.262069 C61.7747126,8.25542784 63.9816092,7.25006386 66.9363985,7.24597701 C68.5699242,7.16513619 70.1766893,7.68401012 71.4544061,8.70498084 C72.6235376,9.74503917 73.2534468,11.2622398 73.164751,12.8245211 C73.164751,15.0232439 72.3984674,16.5680715 70.8659004,17.4590038 C69.3333333,18.3499361 67.2510856,18.7913155 64.6191571,18.7831418 C63.8896552,18.7831418 63.1908046,18.7831418 62.5348659,18.7095785 C62.5316397,20.3562452 62.8741479,21.9852474 63.5402299,23.4911877 C64.1298619,24.6804744 65.3869637,25.3880501 66.7095785,25.2750958 C67.7542553,25.2969268 68.7807501,24.999671 69.6521073,24.4229885 C70.5270679,23.8205293 71.2169541,22.9862977 71.6444444,22.0137931 C72.2467973,22.3226926 72.59566,22.971626 72.5210728,23.6444444 Z M63.4421456,11.5555556 C62.8400891,13.2418092 62.5311569,15.0186878 62.5287356,16.8091954 C63.2888889,16.8643678 63.840613,16.8888889 64.1961686,16.8888889 C67.3879949,16.8888889 68.983908,15.6097063 68.983908,13.051341 C69.0142146,12.1388694 68.7823231,11.2368327 68.3157088,10.4521073 C67.8934954,9.76507442 67.1285116,9.36492902 66.3233716,9.40996169 C64.9808429,9.40996169 64,10.1210728 63.4421456,11.5555556 Z" id="Shape" fill="#FFFFFF" fill-rule="nonzero"></path>
                <path d="M91.1570881,26.7586207 C90.9589184,27.1344561 90.648095,27.4388487 90.2681992,27.6291188 C89.8497863,27.8381184 89.3871855,27.9432549 88.9195402,27.9356322 C88.2517275,27.9662531 87.5963374,27.7477897 87.0804598,27.3226054 C86.5911781,26.8855724 86.2810718,26.2828306 86.2099617,25.6306513 C85.7973308,26.4754983 85.1069349,27.1529087 84.2544061,27.5494253 C83.3531116,27.9867932 82.3626794,28.2092207 81.3609195,28.1992337 C78.7780332,28.1992337 76.906258,27.2122605 75.7455939,25.2383142 C74.5849298,23.2643678 74.0025543,20.732567 73.9984674,17.6429119 C73.9984674,14.4551724 74.6891443,11.9254151 76.0704981,10.0536398 C77.4518519,8.18186462 79.5954023,7.24597701 82.5011494,7.24597701 C83.6216236,7.23273403 84.7370389,7.39828733 85.805364,7.73639847 L85.805364,0.790804598 L89.9800766,0.337164751 L89.9800766,24.2452107 C89.9800766,25.4896552 90.3724138,26.3601533 91.1570881,26.7586207 Z M82.3111111,9.52030651 C80.8894452,9.40833678 79.5943545,10.3382119 79.245977,11.7210728 C78.709887,13.5848638 78.4658675,15.520476 78.5226054,17.4590038 C78.4813635,19.4206574 78.7630279,21.3757396 79.3563218,23.245977 C79.9162197,24.8521073 80.937931,25.6551724 82.4214559,25.6551724 C83.4242665,25.7122356 84.380887,25.2280781 84.9287356,24.3862069 C85.5316856,23.4405046 85.8429589,22.3382559 85.8237548,21.2168582 L85.8237548,10.697318 C84.7997154,9.9570862 83.5744057,9.54651121 82.3111111,9.52030651 Z" id="Shape" fill="#FFFFFF" fill-rule="nonzero"></path>
                <path d="M97.8758621,24.251341 C97.8758621,25.4773946 98.2681992,26.3295019 99.0528736,26.7586207 C98.8389483,27.1509244 98.4971234,27.4581341 98.0842912,27.6291188 C97.6189643,27.8343709 97.1154704,27.9388302 96.6068966,27.9356322 C95.7847403,28.0065278 94.9749498,27.6997547 94.4061303,27.1019157 C93.8857994,26.431818 93.6285147,25.5945524 93.6827586,24.7478927 L93.6827586,8.00613027 L97.8574713,8.00613027 L97.8758621,24.251341 Z" id="Shape" fill="#FFFFFF" fill-rule="nonzero"></path>
                <path d="M112.073563,30.8168582 C112.050933,29.0748556 112.190488,27.3345275 112.490421,25.6183908 C112.077791,26.4632378 111.387395,27.1406482 110.534866,27.5371648 C109.632811,27.979908 108.640073,28.2065798 107.635249,28.1992337 C105.052363,28.1992337 103.172414,27.2122605 101.995402,25.2383142 C100.818391,23.2643678 100.229885,20.732567 100.229885,17.6429119 C100.229885,14.4551724 100.920562,11.9254151 102.301916,10.0536398 C103.683269,8.18186462 105.814559,7.24597701 108.695785,7.24597701 C110.007801,7.25703017 111.30733,7.50198934 112.533333,7.96934866 L116.248276,7.55249042 L116.248276,34.2007663 L112.073563,34.6544061 L112.073563,30.8168582 Z M108.542529,9.52030651 C107.132009,9.42384868 105.8545,10.350365 105.508046,11.7210728 C104.971956,13.5848638 104.727936,15.520476 104.784674,17.4590038 C104.746114,19.4144653 105.027739,21.363063 105.618391,23.2275862 C106.176245,24.845977 107.218391,25.6796935 108.732567,25.6796935 C109.735378,25.7367567 110.691998,25.2525992 111.239847,24.410728 C111.823967,23.4595047 112.114014,22.3568996 112.073563,21.2413793 L112.073563,10.7340996 C111.047458,9.97967322 109.81562,9.55622904 108.542529,9.52030651 Z" id="Shape" fill="#FFFFFF" fill-rule="nonzero"></path>
                <path d="M134.927203,24.251341 C134.927203,25.4773946 135.31954,26.3295019 136.104215,26.7586207 C135.906045,27.1344561 135.595221,27.4388487 135.215326,27.6291188 C134.79667,27.8374379 134.334237,27.9425362 133.866667,27.9356322 C132.490701,28.0142804 131.298989,26.9904913 131.169349,25.6183908 C130.756718,26.4632378 130.066322,27.1406482 129.213793,27.5371648 C128.302388,27.9843566 127.298659,28.2111407 126.283525,28.1992337 C124.460792,28.1992337 123.075351,27.7905492 122.127203,26.9731801 C121.149321,26.1284033 120.487815,24.9761723 120.251341,23.7057471 C119.910136,21.9491992 119.756019,20.1614408 119.791571,18.3724138 L119.791571,7.95095785 L123.972414,7.95095785 L123.972414,18.2130268 C123.959914,19.488112 124.015165,20.7629609 124.137931,22.0321839 C124.226391,22.9514904 124.547026,23.8332373 125.069732,24.594636 C125.61305,25.3173278 126.4849,25.7163493 127.386973,25.6551724 C128.389784,25.7122356 129.346404,25.2280781 129.894253,24.3862069 C130.475682,23.4338357 130.765513,22.3320541 130.727969,21.2168582 L130.727969,8.00613027 L134.902682,8.00613027 L134.927203,24.251341 Z" id="Shape" fill="#FFFFFF" fill-rule="nonzero"></path>
                <path d="M151.668966,23.6444444 C151.680031,24.534108 151.353662,25.3949347 150.755556,26.0536398 C150.117168,26.771366 149.310331,27.3190885 148.407663,27.6475096 C147.475164,28.0096445 146.48387,28.1966812 145.483525,28.1992337 C142.696296,28.1992337 140.632439,27.2939974 139.291954,25.4835249 C137.951469,23.6730524 137.281226,21.2372925 137.281226,18.1762452 C137.281226,14.9067688 138.008685,12.2687101 139.463602,10.262069 C140.918519,8.25542784 143.127458,7.25006386 146.090421,7.24597701 C147.723496,7.1685364 149.32909,7.6870321 150.608429,8.70498084 C151.776049,9.74567384 152.403789,11.2630892 152.312644,12.8245211 C152.312644,15.0232439 151.548404,16.5680715 150.019923,17.4590038 C148.491443,18.3499361 146.409195,18.7913155 143.77318,18.7831418 C143.037548,18.7831418 142.344828,18.7831418 141.682759,18.7095785 C141.684354,20.3563811 142.02883,21.9848103 142.694253,23.4911877 C143.282579,24.6817128 144.540606,25.3898089 145.863602,25.2750958 C146.908023,25.2949862 147.933952,24.9978941 148.80613,24.4229885 C149.681818,23.8197015 150.373495,22.9858705 150.804598,22.0137931 C151.403481,22.3250149 151.747552,22.9741131 151.668966,23.6444444 Z M142.596169,11.5555556 C141.993878,13.2417475 141.684938,15.0186668 141.682759,16.8091954 C142.442912,16.8643678 143.000766,16.8888889 143.356322,16.8888889 C146.544061,16.8888889 148.137931,15.6097063 148.137931,13.051341 C148.170087,12.1394717 147.940334,11.2374771 147.475862,10.4521073 C147.052702,9.76609001 146.288371,9.36628607 145.483525,9.40996169 C144.116475,9.40996169 143.154023,10.1210728 142.596169,11.5555556 Z" id="Shape" fill="#FFFFFF" fill-rule="nonzero"></path>
                <path d="M158.540996,24.251341 C158.540996,25.4773946 158.933333,26.3295019 159.718008,26.7586207 C159.497884,27.1528258 159.14965,27.4599645 158.731034,27.6291188 C158.263763,27.8350414 157.758128,27.9395114 157.24751,27.9356322 C156.442123,27.9905623 155.653904,27.6851558 155.095785,27.1019157 C154.580173,26.429656 154.325391,25.5934484 154.378544,24.7478927 L154.378544,8.00613027 L158.553257,8.00613027 L158.540996,24.251341 Z" id="Shape" fill="#FFFFFF" fill-rule="nonzero"></path>
                <circle id="Oval" fill="#FFFFFF" fill-rule="nonzero" cx="95.7547893" cy="2.05363985" r="2.05363985"></circle>
                <circle id="Oval" fill="#FFFFFF" fill-rule="nonzero" cx="156.419923" cy="2.05363985" r="2.05363985"></circle>
            </g>
        </g>
    </g>
</svg>