<?xml version="1.0" encoding="UTF-8"?>
<svg width="16px" height="18px" viewBox="0 0 16 18" version="1.1" xmlns="http://www.w3.org/2000/svg" xmlns:xlink="http://www.w3.org/1999/xlink">
    <!-- Generator: Sketch 51.3 (57544) - http://www.bohemiancoding.com/sketch -->
    <title>avatar</title>
    <desc>Created with Sketch.</desc>
    <defs></defs>
    <g id="Symbols" stroke="none" stroke-width="1" fill="none" fill-rule="evenodd">
        <g id="Minha-conta" transform="translate(-1.000000, 0.000000)" fill="#FFFFFF" fill-rule="nonzero">
            <g id="avatar" transform="translate(1.000000, 0.000000)">
                <path d="M7.59130435,9.69689441 C7.60993789,9.69689441 7.62857143,9.69689441 7.65093168,9.69689441 C7.65838509,9.69689441 7.66583851,9.69689441 7.67329193,9.69689441 C7.68447205,9.69689441 7.69937888,9.69689441 7.71055901,9.69689441 C8.80248447,9.67826087 9.68571429,9.29440994 10.3378882,8.56024845 C11.7726708,6.94285714 11.5341615,4.17018634 11.5080745,3.90559006 C11.4149068,1.91925466 10.4757764,0.968944099 9.70062112,0.525465839 C9.12298137,0.19378882 8.4484472,0.0149068323 7.69565217,0 L7.66956522,0 C7.66583851,0 7.65838509,0 7.65465839,0 L7.63229814,0 C7.21863354,0 6.40621118,0.0670807453 5.62732919,0.510559006 C4.8447205,0.954037267 3.89068323,1.90434783 3.79751553,3.90559006 C3.77142857,4.17018634 3.53291925,6.94285714 4.96770186,8.56024845 C5.61614907,9.29440994 6.49937888,9.67826087 7.59130435,9.69689441 Z M4.79254658,3.99875776 C4.79254658,3.98757764 4.79627329,3.97639752 4.79627329,3.9689441 C4.91925466,1.29689441 6.81614907,1.00993789 7.62857143,1.00993789 L7.64347826,1.00993789 C7.65093168,1.00993789 7.6621118,1.00993789 7.67329193,1.00993789 C8.67950311,1.03229814 10.3900621,1.44223602 10.5055901,3.9689441 C10.5055901,3.98012422 10.5055901,3.99130435 10.5093168,3.99875776 C10.5130435,4.02484472 10.773913,6.55900621 9.58881988,7.8931677 C9.11925466,8.42236025 8.4931677,8.68322981 7.66956522,8.69068323 C7.6621118,8.69068323 7.65838509,8.69068323 7.65093168,8.69068323 C7.64347826,8.69068323 7.63975155,8.69068323 7.63229814,8.69068323 C6.81242236,8.68322981 6.1826087,8.42236025 5.71677019,7.8931677 C4.53540373,6.56645963 4.78881988,4.02111801 4.79254658,3.99875776 Z" id="Shape"></path>
                <path d="M15.3093168,14.2956522 C15.3093168,14.2919255 15.3093168,14.2881988 15.3093168,14.284472 C15.3093168,14.2546584 15.3055901,14.2248447 15.3055901,14.1913043 C15.2832298,13.4534161 15.2347826,11.7279503 13.6173913,11.1763975 C13.6062112,11.1726708 13.5913043,11.1689441 13.5801242,11.1652174 C11.8993789,10.736646 10.5018634,9.76770186 10.4869565,9.75652174 C10.2596273,9.59627329 9.94658385,9.65217391 9.7863354,9.87950311 C9.62608696,10.1068323 9.68198758,10.4198758 9.90931677,10.5801242 C9.97267081,10.6248447 11.4559006,11.6571429 13.3118012,12.1341615 C14.1801242,12.4434783 14.2770186,13.3714286 14.3031056,14.221118 C14.3031056,14.2546584 14.3031056,14.284472 14.3068323,14.3142857 C14.310559,14.6496894 14.2881988,15.1677019 14.2285714,15.4658385 C13.6248447,15.8086957 11.2583851,16.9937888 7.65838509,16.9937888 C4.07329193,16.9937888 1.69192547,15.8049689 1.08447205,15.4621118 C1.02484472,15.1639752 0.998757764,14.6459627 1.00621118,14.310559 C1.00621118,14.2807453 1.00993789,14.2509317 1.00993789,14.2173913 C1.03602484,13.3677019 1.13291925,12.4397516 2.00124224,12.1304348 C3.85714286,11.6534161 5.34037267,10.6173913 5.40372671,10.5763975 C5.6310559,10.4161491 5.68695652,10.1031056 5.52670807,9.8757764 C5.36645963,9.6484472 5.05341615,9.59254658 4.82608696,9.75279503 C4.81118012,9.76397516 3.42111801,10.7329193 1.73291925,11.1614907 C1.71801242,11.1652174 1.7068323,11.1689441 1.69565217,11.1726708 C0.0782608696,11.7279503 0.0298136646,13.4534161 0.00745341615,14.1875776 C0.00745341615,14.221118 0.00745341615,14.2509317 0.00372670807,14.2807453 C0.00372670807,14.284472 0.00372670807,14.2881988 0.00372670807,14.2919255 C-3.43475248e-15,14.4857143 -0.00372670807,15.4807453 0.19378882,15.9801242 C0.231055901,16.0770186 0.298136646,16.1590062 0.38757764,16.2149068 C0.499378882,16.289441 3.17888199,17.9962733 7.6621118,17.9962733 C12.1453416,17.9962733 14.8248447,16.2857143 14.936646,16.2149068 C15.0223602,16.1590062 15.0931677,16.0770186 15.1304348,15.9801242 C15.3167702,15.484472 15.3130435,14.489441 15.3093168,14.2956522 Z" id="Shape"></path>
            </g>
        </g>
    </g>
</svg>