<?xml version="1.0" encoding="UTF-8"?>
<svg width="15px" height="12px" viewBox="0 0 15 12" version="1.1" xmlns="http://www.w3.org/2000/svg" xmlns:xlink="http://www.w3.org/1999/xlink">
    <!-- Generator: Sketch 51.3 (57544) - http://www.bohemiancoding.com/sketch -->
    <title>email</title>
    <desc>Created with Sketch.</desc>
    <defs></defs>
    <g id="Symbols" stroke="none" stroke-width="1" fill="none" fill-rule="evenodd">
        <g id="E-mail" transform="translate(0.000000, -2.000000)" fill="#FFFFFF" fill-rule="nonzero">
            <g id="email" transform="translate(0.000000, 2.000000)">
                <path d="M13.6816406,0 L1.31835938,0 C0.592324219,0 0,0.591679687 0,1.31835938 L0,10.1074219 C0,10.8316406 0.5896875,11.4257812 1.31835938,11.4257812 L13.6816406,11.4257812 C14.4058594,11.4257812 15,10.8360937 15,10.1074219 L15,1.31835938 C15,0.594140625 14.4103125,0 13.6816406,0 Z M13.4995898,0.87890625 L7.52794922,6.85057617 L1.5046582,0.87890625 L13.4995898,0.87890625 Z M0.87890625,9.92542969 L0.87890625,1.49616211 L5.11168945,5.69264648 L0.87890625,9.92542969 Z M1.50038086,10.546875 L5.73583008,6.31142578 L7.21992188,7.78277344 C7.39171875,7.95310547 7.66895508,7.95254883 7.84004883,7.78142578 L9.28710938,6.33436523 L13.4996191,10.546875 L1.50038086,10.546875 Z M14.1210937,9.92540039 L9.90858398,5.71289062 L14.1210937,1.50035156 L14.1210937,9.92540039 Z" id="Shape"></path>
            </g>
        </g>
    </g>
</svg>