<?xml version="1.0" encoding="UTF-8"?>
<svg width="18px" height="17px" viewBox="0 0 18 17" version="1.1" xmlns="http://www.w3.org/2000/svg" xmlns:xlink="http://www.w3.org/1999/xlink">
    <!-- Generator: Sketch 51.3 (57544) - http://www.bohemiancoding.com/sketch -->
    <title>home</title>
    <desc>Created with Sketch.</desc>
    <defs></defs>
    <g id="Symbols" stroke="none" stroke-width="1" fill="none" fill-rule="evenodd">
        <g id="Início" transform="translate(0.000000, -1.000000)" fill="#FFFFFF" fill-rule="nonzero">
            <g id="home" transform="translate(0.000000, 1.000000)">
                <path d="M17.8089474,6.35312281 L9.29329825,0.118140351 C9.12908772,-0.00207017544 8.906,-0.00207017544 8.74185965,0.118140351 L0.226140351,6.35312281 C0.0181403509,6.5054386 -0.0270526316,6.79750877 0.125263158,7.00550877 C0.277578947,7.21350877 0.569684211,7.25863158 0.777649123,7.10638596 L9.01754386,1.07326316 L17.2574386,7.10635088 C17.3405263,7.16722807 17.4370877,7.19652632 17.532807,7.19652632 C17.6765263,7.19652632 17.8183509,7.13038596 17.9097895,7.00547368 C18.0621404,6.79750877 18.0169474,6.5054386 17.8089474,6.35312281 Z" id="Shape"></path>
                <path d="M15.5524912,7.21203509 C15.2947368,7.21203509 15.0857193,7.42101754 15.0857193,7.67880702 L15.0857193,15.1085965 L11.351614,15.1085965 L11.351614,11.0529474 C11.351614,9.76592982 10.3045263,8.71891228 9.01757895,8.71891228 C7.73063158,8.71891228 6.68354386,9.766 6.68354386,11.0529474 L6.68354386,15.1086316 L2.94940351,15.1086316 L2.94940351,7.67884211 C2.94940351,7.42105263 2.74038596,7.21207018 2.48263158,7.21207018 C2.22487719,7.21207018 2.01585965,7.42105263 2.01585965,7.67884211 L2.01585965,15.5754386 C2.01585965,15.8332281 2.22487719,16.0422105 2.48263158,16.0422105 L7.15031579,16.0422105 C7.39578947,16.0422105 7.59666667,15.8525614 7.61526316,15.6117895 C7.61638596,15.6008772 7.61708772,15.5889474 7.61708772,15.5754386 L7.61708772,11.0529825 C7.61708772,10.2807368 8.24533333,9.65249123 9.01757895,9.65249123 C9.78982456,9.65249123 10.4180702,10.2807719 10.4180702,11.0529825 L10.4180702,15.5754386 C10.4180702,15.5888772 10.4187719,15.6005965 10.4198947,15.6113684 C10.4382807,15.8523158 10.6392281,16.0422105 10.8848421,16.0422105 L15.5525263,16.0422105 C15.8103158,16.0422105 16.0192982,15.8332281 16.0192982,15.5754386 L16.0192982,7.67884211 C16.0192632,7.42101754 15.8102807,7.21203509 15.5524912,7.21203509 Z" id="Shape"></path>
            </g>
        </g>
    </g>
</svg>