<?xml version="1.0" encoding="UTF-8"?>
<svg width="11px" height="15px" viewBox="0 0 11 15" version="1.1" xmlns="http://www.w3.org/2000/svg" xmlns:xlink="http://www.w3.org/1999/xlink">
    <!-- Generator: Sketch 51.3 (57544) - http://www.bohemiancoding.com/sketch -->
    <title>lock-icon</title>
    <desc>Created with Sketch.</desc>
    <defs></defs>
    <g id="Symbols" stroke="none" stroke-width="1" fill="none" fill-rule="evenodd">
        <g id="Lock" transform="translate(-2.000000, 0.000000)" fill="#FFFFFF" fill-rule="nonzero">
            <g id="lock-icon" transform="translate(2.000000, 0.000000)">
                <path d="M9.14772099,5.85497238 L9.14772099,3.9035221 C9.14772099,1.74745856 7.39984807,0 5.24415746,0 C3.08813536,0 1.34063536,1.74745856 1.34063536,3.9035221 L1.34063536,5.85497238 C0.622127072,5.85497238 0.0395303867,6.43756906 0.0395303867,7.15607735 L0.0395303867,13.6622652 C0.0395303867,14.3809392 0.622127072,14.963453 1.34063536,14.963453 L9.14772099,14.963453 C9.86627072,14.963453 10.4487431,14.3808978 10.4487431,13.6622652 L10.4487431,7.15607735 C10.4487845,6.43756906 9.86627072,5.85497238 9.14772099,5.85497238 Z M2.6418232,3.9035221 C2.6418232,2.46609116 3.80701657,1.30118785 5.24415746,1.30118785 C6.68138122,1.30118785 7.84657459,2.46604972 7.84657459,3.9035221 L7.84657459,5.85497238 L2.6418232,5.85497238 L2.6418232,3.9035221 Z M9.14772099,13.6622238 L1.34063536,13.6622238 L1.34063536,7.15640884 L9.14772099,7.15640884 L9.14772099,13.6622238 Z M4.59356354,10.8794751 L4.59356354,11.710442 C4.59356354,12.0694475 4.88506906,12.3610359 5.24415746,12.3610359 C5.60316298,12.3610359 5.89475138,12.0694475 5.89475138,11.710442 L5.89475138,10.8794751 C6.28164365,10.6540193 6.5453453,10.2390331 6.5453453,9.75878453 C6.5453453,9.03994475 5.96266575,8.45726519 5.24415746,8.45726519 C4.52564917,8.45726519 3.94305249,9.03994475 3.94305249,9.75878453 C3.94305249,10.2390331 4.20650552,10.6540193 4.59356354,10.8794751 Z" id="Shape"></path>
            </g>
        </g>
    </g>
</svg>