<?xml version="1.0" encoding="UTF-8"?>
<svg width="24px" height="17px" viewBox="0 0 24 17" version="1.1" xmlns="http://www.w3.org/2000/svg" xmlns:xlink="http://www.w3.org/1999/xlink">
    <!-- Generator: Sketch 51.3 (57544) - http://www.bohemiancoding.com/sketch -->
    <title>menu</title>
    <desc>Created with Sketch.</desc>
    <defs></defs>
    <g id="Symbols" stroke="none" stroke-width="1" fill="none" fill-rule="evenodd">
        <g id="MENU" transform="translate(0.000000, -4.000000)" fill="#FFFFFF" fill-rule="nonzero">
            <g id="menu" transform="translate(0.000000, 4.000000)">
                <path d="M23.0305312,7.37428125 L0.96946875,7.37428125 C0.4340625,7.37428125 0,7.80829687 0,8.34375 C0,8.87920312 0.4340625,9.31321875 0.96946875,9.31321875 L23.0305313,9.31321875 C23.5659844,9.31321875 24,8.87920312 24,8.34375 C24,7.80834375 23.5659844,7.37428125 23.0305312,7.37428125 Z" id="Shape"></path>
                <path d="M23.0305312,0.020578125 L0.96946875,0.020578125 C0.4340625,0.020578125 0,0.454640625 0,0.990046875 C0,1.52545312 0.4340625,1.95951562 0.96946875,1.95951562 L23.0305313,1.95951562 C23.5659844,1.95951562 24,1.52545312 24,0.990046875 C24,0.454640625 23.5659844,0.020578125 23.0305312,0.020578125 Z" id="Shape"></path>
                <path d="M23.0305312,14.7279844 L0.96946875,14.7279844 C0.4340625,14.7279844 0,15.162 0,15.6974531 C0,16.2329062 0.4340625,16.6669219 0.96946875,16.6669219 L23.0305313,16.6669219 C23.5659844,16.6669219 24,16.2329062 24,15.6974531 C24,15.162 23.5659844,14.7279844 23.0305312,14.7279844 Z" id="Shape"></path>
            </g>
        </g>
    </g>
</svg>