<?xml version="1.0" encoding="UTF-8"?>
<svg width="18px" height="18px" viewBox="0 0 18 18" version="1.1" xmlns="http://www.w3.org/2000/svg" xmlns:xlink="http://www.w3.org/1999/xlink">
    <!-- Generator: Sketch 51.3 (57544) - http://www.bohemiancoding.com/sketch -->
    <title>pharmacy</title>
    <desc>Created with Sketch.</desc>
    <defs></defs>
    <g id="Symbols" stroke="none" stroke-width="1" fill="none" fill-rule="evenodd">
        <g id="Lojas-parceiras" fill="#FFFFFF" fill-rule="nonzero">
            <g id="pharmacy">
                <path d="M18,6.8203125 L18,3.22380067 L16.6640625,3.22380067 L16.6640625,0.94921875 L11.4947205,0.94921875 C10.8301849,0.358566293 9.95622254,0 9,0 C8.04377746,0 7.16981505,0.358566293 6.50527952,0.94921875 L1.3359375,0.94921875 L1.3359375,3.22380067 L0,3.22380067 L0,6.8203125 L0.958419809,6.8203125 L0.958419809,16.9453125 L0,16.9453125 L0,18 L18,18 L18,16.9453125 L17.0415802,16.9453125 L17.0415802,6.8203125 L18,6.8203125 Z M11.0566406,2.00390625 C11.3505249,2.34709168 11.5603638,2.76470947 11.6531982,3.22380067 C11.6883545,3.39779665 11.7070312,3.57756043 11.7070312,3.76171875 C11.7070312,3.93859863 11.6901398,4.1112213 11.6570435,4.27848817 C11.5442963,4.86282347 11.2423096,5.38069152 10.8179627,5.765625 C10.8157654,5.76768495 10.8137055,5.76947021 10.8116455,5.77125548 C10.3316803,6.20466613 9.69612121,6.46875 9,6.46875 C8.30387879,6.46875 7.66831971,6.20466613 7.18835449,5.77125548 C7.18629455,5.76947021 7.1842346,5.76768495 7.18203734,5.765625 C6.75769043,5.38069152 6.45570373,4.86282347 6.34295654,4.27848817 C6.30986024,4.1112213 6.29296875,3.93859863 6.29296875,3.76171875 C6.29296875,3.57756043 6.31164551,3.39779665 6.34680176,3.22380067 C6.43963623,2.76470947 6.6494751,2.34709168 6.94335938,2.00390625 C7.43980409,1.42314149 8.17767334,1.0546875 9,1.0546875 C9.82232666,1.0546875 10.5601959,1.42314149 11.0566406,2.00390625 Z M16.9453125,5.765625 L12.1820526,5.765625 C12.461792,5.32342529 12.6517181,4.81915283 12.7258759,4.27848817 L16.9453125,4.27848817 L16.9453125,5.765625 Z M15.609375,2.00390625 L15.609375,3.22380067 L12.722992,3.22380067 C12.6607819,2.78860472 12.5237274,2.37757873 12.3250122,2.00390625 L15.609375,2.00390625 Z M2.390625,2.00390625 L5.67498779,2.00390625 C5.47627257,2.37757873 5.33921815,2.78860472 5.27700804,3.22380067 L2.390625,3.22380067 L2.390625,2.00390625 Z M1.0546875,4.27848817 L5.27412414,4.27848817 C5.34828185,4.81915283 5.53820801,5.32342529 5.81794738,5.765625 L1.0546875,5.765625 L1.0546875,4.27848817 Z M7.3828125,16.9453125 L4.21875,16.9453125 L4.21875,9.703125 L7.3828125,9.703125 L7.3828125,16.9453125 Z M8.4375,16.9453125 L8.4375,8.6484375 L3.1640625,8.6484375 L3.1640625,16.9453125 L2.01310731,16.9453125 L2.01310731,6.82594298 L6.8203125,6.82594298 C7.43554687,7.26498415 8.18824767,7.5234375 9,7.5234375 C9.81175233,7.5234375 10.5644531,7.26498415 11.1796875,6.82594298 L15.9868927,6.82594298 L15.9868927,16.9453125 L8.4375,16.9453125 Z" id="Shape"></path>
                <path d="M9.6328125,13.8515625 L14.8359375,13.8515625 L14.8359375,8.6484375 L9.6328125,8.6484375 L9.6328125,13.8515625 Z M10.6875,9.703125 L13.78125,9.703125 L13.78125,12.796875 L10.6875,12.796875 L10.6875,9.703125 Z" id="Shape"></path>
                <polygon id="Shape" points="8.47265625 2.13121034 8.47265625 3.22380067 7.38006592 3.22380067 7.38006592 4.27848817 8.47265625 4.27848817 8.47265625 5.37121582 9.52734375 5.37121582 9.52734375 4.27848817 10.6199341 4.27848817 10.6199341 3.22380067 9.52734375 3.22380067 9.52734375 2.13121034"></polygon>
            </g>
        </g>
    </g>
</svg>