<?xml version="1.0" encoding="UTF-8"?>
<svg width="17px" height="18px" viewBox="0 0 17 18" version="1.1" xmlns="http://www.w3.org/2000/svg" xmlns:xlink="http://www.w3.org/1999/xlink">
    <!-- Generator: Sketch 51.3 (57544) - http://www.bohemiancoding.com/sketch -->
    <title>reload</title>
    <desc>Created with Sketch.</desc>
    <defs></defs>
    <g id="Symbols" stroke="none" stroke-width="1" fill="none" fill-rule="evenodd">
        <g id="Histórico-de-pedidos" transform="translate(-1.000000, 0.000000)" fill="#FFFFFF" fill-rule="nonzero">
            <g id="reload" transform="translate(1.000000, 0.000000)">
                <path d="M3.38532245,3.56734286 C6.04124082,1.16489388 10.0159347,1.12815918 12.7085878,3.32122041 L10.574302,3.40203673 C10.2987918,3.41305714 10.0857306,3.64081224 10.096751,3.91632245 C10.1077714,4.18448571 10.3281796,4.39387347 10.5926694,4.39387347 C10.6000163,4.39387347 10.6036898,4.39387347 10.6110367,4.39387347 L13.8877714,4.27264898 C14.1559347,4.26162857 14.3653224,4.04489388 14.3653224,3.77673061 L14.3653224,3.73999592 C14.3653224,3.73264898 14.3653224,3.72897551 14.3653224,3.72162857 L14.3653224,3.7179551 L14.244098,0.477955102 C14.2330776,0.202444898 14.001649,-0.0106163265 13.7298122,0.000404081633 C13.454302,0.0114244898 13.2412408,0.239179592 13.2522612,0.514689796 L13.3294041,2.54611837 C11.9959347,1.45509796 10.3538939,0.823261224 8.59797551,0.735097959 C6.42328163,0.624893878 4.33307755,1.37060816 2.72042449,2.83264898 C0.50164898,4.84203673 -0.438759184,7.89836327 0.266546939,10.807751 C0.32164898,11.0355061 0.523689796,11.1861184 0.747771429,11.1861184 C0.788179592,11.1861184 0.824914286,11.1824449 0.865322449,11.1714245 C1.12981224,11.105302 1.29511837,10.8371388 1.22899592,10.572649 C0.611853061,8.01591429 1.4347102,5.33060816 3.38532245,3.56734286 Z" id="Shape"></path>
                <path d="M16.2534857,7.18203673 C16.1873633,6.91754694 15.9192,6.75224082 15.6547102,6.81836327 C15.3902204,6.88448571 15.2249143,7.15264898 15.2910367,7.41713878 C15.9118531,9.97387347 15.0853224,12.6591796 13.1347102,14.4224449 C11.7645061,15.6604041 10.0453224,16.2702 8.33348571,16.2702 C6.69879184,16.2702 5.06777143,15.7155061 3.75266939,14.6208122 L5.91266939,14.4261184 C6.18450612,14.4004041 6.38654694,14.1616286 6.36083265,13.8861184 C6.33511837,13.6106082 6.09634286,13.4122408 5.82083265,13.4379551 L2.55511837,13.7318327 C2.28328163,13.7575469 2.08124082,13.9963224 2.1069551,14.2718327 L2.40083265,17.5375469 C2.42287347,17.7946898 2.63960816,17.9893837 2.89307755,17.9893837 C2.90777143,17.9893837 2.92246531,17.9893837 2.93715918,17.9857102 C3.20899592,17.9599959 3.41103673,17.7212204 3.38532245,17.4457102 L3.20899592,15.4583633 C4.54246531,16.5383633 6.17715918,17.1665265 7.92205714,17.2546898 C8.06164898,17.2620367 8.20124082,17.2657102 8.33715918,17.2657102 C10.3612408,17.2657102 12.2861388,16.5236694 13.7996082,15.1571388 C16.0183837,13.147751 16.9587918,10.095098 16.2534857,7.18203673 Z" id="Shape"></path>
            </g>
        </g>
    </g>
</svg>