<?xml version="1.0" encoding="UTF-8"?>
<svg width="15px" height="18px" viewBox="0 0 15 18" version="1.1" xmlns="http://www.w3.org/2000/svg" xmlns:xlink="http://www.w3.org/1999/xlink">
    <!-- Generator: Sketch 51.3 (57544) - http://www.bohemiancoding.com/sketch -->
    <title>shopping-bag</title>
    <desc>Created with Sketch.</desc>
    <defs></defs>
    <g id="Symbols" stroke="none" stroke-width="1" fill="none" fill-rule="evenodd">
        <g id="Cesta-de-compras" transform="translate(-2.000000, 0.000000)" fill="#FFFFFF" fill-rule="nonzero">
            <g id="shopping-bag" transform="translate(2.000000, 0.000000)">
                <path d="M14.3185802,15.436021 L13.2960853,3.92199825 C13.2741747,3.66637453 13.0587204,3.47283085 12.8067485,3.47283085 L10.7033304,3.47283085 C10.6741163,1.55200117 9.10385627,0 7.17572305,0 C5.24758983,0 3.67732983,1.55200117 3.64811569,3.47283085 L1.54469763,3.47283085 C1.28907391,3.47283085 1.0772714,3.66637453 1.05536079,3.92199825 L0.0328659071,15.436021 C0.0328659071,15.4506281 0.0292141396,15.4652352 0.0292141396,15.4798422 C0.0292141396,16.7908268 1.23064563,17.8571429 2.70961145,17.8571429 L11.6418346,17.8571429 C13.1208005,17.8571429 14.322232,16.7908268 14.322232,15.4798422 C14.322232,15.4652352 14.322232,15.4506281 14.3185802,15.436021 Z M7.17572305,0.985977213 C8.55974292,0.985977213 9.68813906,2.09611452 9.7173532,3.47283085 L4.6340929,3.47283085 C4.66330704,2.09611452 5.79170318,0.985977213 7.17572305,0.985977213 Z M11.6418346,16.8711656 L2.70961145,16.8711656 C1.78206252,16.8711656 1.02979842,16.2576687 1.01519135,15.5017528 L1.99386503,4.46245983 L3.64446392,4.46245983 L3.64446392,5.95968449 C3.64446392,6.23356705 3.86356997,6.45267309 4.13745253,6.45267309 C4.41133509,6.45267309 4.63044113,6.23356705 4.63044113,5.95968449 L4.63044113,4.46245983 L9.7173532,4.46245983 L9.7173532,5.95968449 C9.7173532,6.23356705 9.93645925,6.45267309 10.2103418,6.45267309 C10.4842244,6.45267309 10.7033304,6.23356705 10.7033304,5.95968449 L10.7033304,4.46245983 L12.3539293,4.46245983 L13.3362547,15.5017528 C13.3216477,16.2576687 12.5657318,16.8711656 11.6418346,16.8711656 Z" id="Shape"></path>
            </g>
        </g>
    </g>
</svg>