<?xml version="1.0" encoding="UTF-8"?>
<svg width="18px" height="18px" viewBox="0 0 18 18" version="1.1" xmlns="http://www.w3.org/2000/svg" xmlns:xlink="http://www.w3.org/1999/xlink">
    <!-- Generator: Sketch 51.3 (57544) - http://www.bohemiancoding.com/sketch -->
    <title>star</title>
    <desc>Created with Sketch.</desc>
    <defs></defs>
    <g id="Symbols" stroke="none" stroke-width="1" fill="none" fill-rule="evenodd">
        <g id="Lembretes" fill="#FFFFFF" fill-rule="nonzero">
            <g id="star">
                <path d="M17.9466639,6.48483197 C17.8876475,6.30409426 17.7327295,6.1749959 17.5446148,6.1454877 L11.9380574,5.34876639 L9.41510656,0.277045082 C9.33027049,0.107372951 9.15690984,0.000405737705 8.96879508,0.000405737705 C8.78068033,0.000405737705 8.60731967,0.107372951 8.52248361,0.280733607 L6.03272951,5.36720902 L0.426172131,6.20081557 C0.238057377,6.23032377 0.0831393443,6.35942213 0.0241229508,6.54015984 C-0.0348934426,6.72089754 0.0167459016,6.92007787 0.153221311,7.04917623 L4.22166393,10.992209 L3.28109016,16.5766352 C3.24789344,16.76475 3.32535246,16.9528648 3.48027049,17.0635205 C3.56510656,17.1262254 3.66838525,17.1594221 3.77166393,17.1594221 C3.85281148,17.1594221 3.93027049,17.1409795 4.00404098,17.1004057 L9.00936885,14.4483566 L14.0294508,17.0708975 C14.1032213,17.1077828 14.1806803,17.1262254 14.2581393,17.1262254 C14.5310902,17.1262254 14.7560902,16.9012254 14.7560902,16.6282746 C14.7560902,16.5877008 14.7524016,16.5508156 14.7413361,16.5139303 L13.7712541,10.9627008 L17.813877,6.99753689 C17.9577295,6.86475 18.0056803,6.66556967 17.9466639,6.48483197 Z M12.8933852,10.4352418 C12.7753525,10.5495861 12.7237131,10.7155697 12.7532213,10.8778648 L13.5978934,15.7208975 L9.23805738,13.4450779 C9.09420492,13.3676189 8.92084426,13.3713074 8.77330328,13.4450779 L4.42822131,15.7467172 L5.24338525,10.8963074 C5.26920492,10.7340123 5.21756557,10.5717172 5.09953279,10.457373 L1.57330328,7.03442213 L6.43846721,6.31147131 C6.6007623,6.28565164 6.74092623,6.18606148 6.8110082,6.03852049 L8.97248361,1.62335656 L11.1634672,6.02745492 C11.2372377,6.1749959 11.3774016,6.27458607 11.5396967,6.30040574 L16.4085492,6.99384836 L12.8933852,10.4352418 Z" id="Shape"></path>
            </g>
        </g>
    </g>
</svg>