<?xml version="1.0" encoding="UTF-8"?>
<svg width="15px" height="10px" viewBox="0 0 15 10" version="1.1" xmlns="http://www.w3.org/2000/svg" xmlns:xlink="http://www.w3.org/1999/xlink">
    <!-- Generator: Sketch 51.3 (57544) - http://www.bohemiancoding.com/sketch -->
    <title>view</title>
    <desc>Created with Sketch.</desc>
    <defs></defs>
    <g id="Symbols" stroke="none" stroke-width="1" fill="none" fill-rule="evenodd">
        <g id="Password-Eye" transform="translate(0.000000, -3.000000)" fill="#FFFFFF" fill-rule="nonzero">
            <g id="view" transform="translate(0.000000, 3.000000)">
                <path d="M14.9046387,4.51291992 C14.7706348,4.32960937 11.5777734,0.0244628906 7.49991211,0.0244628906 C3.42205078,0.0244628906 0.229042969,4.32960937 0.0951855469,4.51274414 C-0.0317285156,4.68665039 -0.0317285156,4.92251953 0.0951855469,5.09642578 C0.229042969,5.27973633 3.42205078,9.58488281 7.49991211,9.58488281 C11.5777734,9.58488281 14.7706348,5.27970703 14.9046387,5.09657227 C15.0317285,4.92269531 15.0317285,4.68665039 14.9046387,4.51291992 Z M7.49991211,8.59587891 C4.49613281,8.59587891 1.89454102,5.7384668 1.12441406,4.80433594 C1.89354492,3.86938477 4.4896875,1.0134668 7.49991211,1.0134668 C10.5035449,1.0134668 13.1049609,3.87038086 13.8754102,4.80500977 C13.1062793,5.73993164 10.5101367,8.59587891 7.49991211,8.59587891 Z" id="Shape"></path>
                <path d="M7.49991211,1.83764648 C5.86391602,1.83764648 4.53287109,3.16869141 4.53287109,4.8046875 C4.53287109,6.44068359 5.86391602,7.77172852 7.49991211,7.77172852 C9.1359082,7.77172852 10.4669531,6.44068359 10.4669531,4.8046875 C10.4669531,3.16869141 9.1359082,1.83764648 7.49991211,1.83764648 Z M7.49991211,6.78269531 C6.40918945,6.78269531 5.5219043,5.89538086 5.5219043,4.8046875 C5.5219043,3.71399414 6.40921875,2.82667969 7.49991211,2.82667969 C8.59060547,2.82667969 9.47791992,3.71399414 9.47791992,4.8046875 C9.47791992,5.89538086 8.59063477,6.78269531 7.49991211,6.78269531 Z" id="Shape"></path>
            </g>
        </g>
    </g>
</svg>