<?xml version="1.0" encoding="UTF-8"?>
<svg width="40px" height="40px" viewBox="0 0 40 40" version="1.1" xmlns="http://www.w3.org/2000/svg" xmlns:xlink="http://www.w3.org/1999/xlink">
    <!-- Generator: Sketch 52.2 (67145) - http://www.bohemiancoding.com/sketch -->
    <title>remedio 3</title>
    <desc>Created with Sketch.</desc>
    <g id="remedio-3" stroke="none" stroke-width="1" fill="none" fill-rule="evenodd">
        <g id="pills-copy" transform="translate(13.000000, 5.000000)">
            <path d="M11.2630208,10.4492188 C10.9036458,10.4492188 10.6119792,10.7408854 10.6119792,11.1002604 C10.6119792,11.4596354 10.9036458,11.7513021 11.2630208,11.7513021 C11.6223958,11.7513021 11.9140625,11.4596354 11.9140625,11.1002604 C11.9140625,10.7408854 11.6223958,10.4492188 11.2630208,10.4492188 Z" id="Path" fill="#008CCC"></path>
            <path d="M7.35677083,0.0325520833 C3.42213542,0.0325520833 0,3.21334635 0,7.19401042 L0,22.8190104 C0,26.8008464 3.4234375,29.9804687 7.35677083,29.9804687 C11.284375,29.9804687 14.7135417,26.8058594 14.7135417,22.8190104 L14.7135417,7.19401042 C14.7135417,3.21217448 11.2901042,0.0325520833 7.35677083,0.0325520833 Z" id="Shape" stroke="#008CCC" stroke-width="1.5" fill-rule="nonzero"></path>
            <path d="M8.87630208,2.89739583 C8.53730469,2.77740885 8.16529948,2.9546875 8.04518229,3.29355469 C7.9250651,3.63248698 8.10247396,4.0046224 8.44140625,4.12473958 C9.73971354,4.58483073 10.6119792,5.81829427 10.6119792,7.19401042 L10.6119792,8.49609375 C10.6119792,8.85566406 10.9034505,9.14713542 11.2630208,9.14713542 C11.6225911,9.14713542 11.9140625,8.85566406 11.9140625,8.49609375 L11.9140625,7.19401042 C11.9140625,5.26803385 10.6932943,3.54134115 8.87630208,2.89739583 Z" id="Path" fill="#008CCC"></path>
        </g>
    </g>
</svg>