<?xml version="1.0" encoding="UTF-8"?>
<svg width="40px" height="40px" viewBox="0 0 40 40" version="1.1" xmlns="http://www.w3.org/2000/svg" xmlns:xlink="http://www.w3.org/1999/xlink">
    <!-- Generator: Sketch 52.2 (67145) - http://www.bohemiancoding.com/sketch -->
    <title>remedio 2</title>
    <desc>Created with Sketch.</desc>
    <g id="remedio-2" stroke="none" stroke-width="1" fill="none" fill-rule="evenodd">
        <g id="pills" transform="translate(6.000000, 5.000000)" fill="#008CCC" fill-rule="nonzero">
            <path d="M14.4673295,0.5859375 C6.99769176,0.5859375 0.298295455,6.93132102 0.298295455,14.7549716 C0.298295455,22.3960227 6.82691761,28.9240057 14.4673295,28.9240057 C22.0785511,28.9240057 28.6363636,22.4553622 28.6363636,14.7549716 C28.6363636,7.11392045 22.1077415,0.5859375 14.4673295,0.5859375 Z M14.4673295,26.7933239 C7.94190341,26.7933239 2.42897727,21.2803977 2.42897727,14.7549716 C2.42897727,11.9733665 3.44211648,9.28519176 5.29921875,7.09346591 L22.1285156,23.9227628 C19.9381747,25.7806108 17.254581,26.7933239 14.4673295,26.7933239 Z M23.6352273,22.4161577 L6.80678267,5.58771307 C8.98519176,3.75117187 11.7178977,2.71661932 14.4673295,2.71661932 C20.9927557,2.71661932 26.5056818,8.22954545 26.5056818,14.7549716 C26.5056818,17.5423295 25.4929688,20.2258168 23.6352273,22.4161577 Z" id="Shape"></path>
        </g>
    </g>
</svg>