<?xml version="1.0" encoding="UTF-8"?>
<svg width="40px" height="40px" viewBox="0 0 40 40" version="1.1" xmlns="http://www.w3.org/2000/svg" xmlns:xlink="http://www.w3.org/1999/xlink">
    <!-- Generator: Sketch 52.2 (67145) - http://www.bohemiancoding.com/sketch -->
    <title>remedio 4</title>
    <desc>Created with Sketch.</desc>
    <g id="remedio-4" stroke="none" stroke-width="1" fill="none" fill-rule="evenodd">
        <g id="clean" transform="translate(10.000000, 5.000000)" fill="#008CCC">
            <path d="M9.94781818,0.0256363636 C9.72309091,0.0256363636 9.51290909,0.136272727 9.38572727,0.321545455 C9.014,0.862909091 0.281636364,13.655 0.281636364,20.1249091 C0.281636364,25.4548182 4.61781818,29.791 9.94772727,29.791 C15.2776364,29.791 19.6137273,25.4548182 19.6137273,20.1249091 C19.6137273,13.655 10.8814545,0.862909091 10.5097273,0.321545455 C10.3827273,0.136363636 10.1724545,0.0256363636 9.94781818,0.0256363636 Z M9.94781818,28.4273636 C5.36981818,28.4273636 1.64536364,24.7029091 1.64536364,20.1249091 C1.64536364,14.9789091 7.99736364,4.90736364 9.94781818,1.93645455 C11.8982727,4.90736364 18.2501818,14.9788182 18.2501818,20.1249091 C18.2501818,24.7029091 14.5257273,28.4273636 9.94781818,28.4273636 Z" id="Shape" fill-rule="nonzero"></path>
            <path d="M9.26609091,25.9271818 C9.26609091,26.3037273 9.57127273,26.609 9.94790909,26.609 C13.5233636,26.609 16.4322727,23.7002727 16.4322727,20.1250909 C16.4322727,19.7485455 16.1270909,19.4432727 15.7504545,19.4432727 C15.3738182,19.4432727 15.0686364,19.7485455 15.0686364,20.1250909 C15.0686364,22.9484545 12.7714545,25.2453636 9.94790909,25.2453636 C9.57127273,25.2453636 9.26609091,25.5506364 9.26609091,25.9271818 Z" id="Path"></path>
        </g>
    </g>
</svg>