<?xml version="1.0" encoding="UTF-8"?>
<svg width="40px" height="40px" viewBox="0 0 40 40" version="1.1" xmlns="http://www.w3.org/2000/svg" xmlns:xlink="http://www.w3.org/1999/xlink">
    <!-- Generator: Sketch 52.2 (67145) - http://www.bohemiancoding.com/sketch -->
    <title>remedio 1</title>
    <desc>Created with Sketch.</desc>
    <g id="remedio-1" stroke="none" stroke-width="1" fill="none" fill-rule="evenodd">
        <g id="pills" transform="translate(13.000000, 5.000000)" fill="#008CCC">
            <path d="M11.2630208,10.4492187 C10.9036458,10.4492187 10.6119792,10.7408854 10.6119792,11.1002604 C10.6119792,11.4596354 10.9036458,11.7513021 11.2630208,11.7513021 C11.6223958,11.7513021 11.9140625,11.4596354 11.9140625,11.1002604 C11.9140625,10.7408854 11.6223958,10.4492187 11.2630208,10.4492187 Z" id="Path"></path>
            <path d="M7.35677083,0.0325520833 C3.42213542,0.0325520833 0,3.21334635 0,7.19401042 L0,22.8190104 C0,26.8008464 3.4234375,29.9804688 7.35677083,29.9804688 C11.284375,29.9804688 14.7135417,26.8058594 14.7135417,22.8190104 L14.7135417,7.19401042 C14.7135417,3.21217448 11.2901042,0.0325520833 7.35677083,0.0325520833 Z M13.4114583,22.8190104 C13.4114583,26.1162109 10.5264974,28.6783854 7.35677083,28.6783854 C4.07480469,28.6783854 1.30208333,25.9951172 1.30208333,22.8190104 L1.30208333,15.6575521 L13.4114583,15.6575521 L13.4114583,22.8190104 Z M13.4114583,14.3554688 L1.30208333,14.3554688 L1.30208333,7.19401042 C1.30208333,4.01790365 4.07480469,1.33463542 7.35677083,1.33463542 C10.638737,1.33463542 13.4114583,4.01790365 13.4114583,7.19401042 L13.4114583,14.3554688 Z" id="Shape" fill-rule="nonzero"></path>
            <path d="M8.87630208,2.89739583 C8.53730469,2.77740885 8.16529948,2.9546875 8.04518229,3.29355469 C7.9250651,3.63248698 8.10247396,4.0046224 8.44140625,4.12473958 C9.73971354,4.58483073 10.6119792,5.81829427 10.6119792,7.19401042 L10.6119792,8.49609375 C10.6119792,8.85566406 10.9034505,9.14713542 11.2630208,9.14713542 C11.6225911,9.14713542 11.9140625,8.85566406 11.9140625,8.49609375 L11.9140625,7.19401042 C11.9140625,5.26803385 10.6932943,3.54134115 8.87630208,2.89739583 Z" id="Path"></path>
        </g>
    </g>
</svg>