<?xml version="1.0" encoding="UTF-8"?>
<svg width="167px" height="230px" viewBox="0 0 167 230" version="1.1" xmlns="http://www.w3.org/2000/svg" xmlns:xlink="http://www.w3.org/1999/xlink">
    <!-- Generator: Sketch 52.2 (67145) - http://www.bohemiancoding.com/sketch -->
    <title>1</title>
    <desc>Created with Sketch.</desc>
    <defs>
        <polygon id="path-1" points="0.0382978723 0.272553191 28.0841856 0.272553191 28.0841856 29.3623404 0.0382978723 29.3623404"></polygon>
    </defs>
    <g id="Page-1" stroke="none" stroke-width="1" fill="none" fill-rule="evenodd">
        <g id="Artboard" transform="translate(0.000000, -625.000000)">
            <rect fill="#FFFFFF" x="0" y="0" width="1024" height="1196"></rect>
            <g id="1" transform="translate(37.000000, 725.000000)">
                <g id="search" transform="translate(1.000000, 0.000000)">
                    <mask id="mask-2" fill="white">
                        <use xlink:href="#path-1"></use>
                    </mask>
                    <g id="Clip-2"></g>
                    <path d="M27.6561702,26.7670213 L20.7344681,19.5689362 C22.5146809,17.4517021 23.49,14.7887234 23.49,12.0165957 C23.49,5.54106383 18.2214894,0.272553191 11.7434043,0.272553191 C5.26851064,0.272553191 0,5.54106383 0,12.0165957 C0,18.4940426 5.26851064,23.7625532 11.7434043,23.7625532 C14.1746809,23.7625532 16.493617,23.0297872 18.4729787,21.6357447 L25.4495745,28.8912766 C25.7412766,29.1957447 26.1325532,29.3623404 26.5544681,29.3623404 C26.9508511,29.3623404 27.3268085,29.2104255 27.6140426,28.9340426 C28.2248936,28.3480851 28.2421277,27.3778723 27.6561702,26.7670213 Z M11.7434043,3.33702128 C16.5306383,3.33702128 20.4255319,7.23191489 20.4255319,12.0165957 C20.4255319,16.8038298 16.5306383,20.6980851 11.7434043,20.6980851 C6.9587234,20.6980851 3.06446809,16.8038298 3.06446809,12.0165957 C3.06446809,7.23191489 6.9587234,3.33702128 11.7434043,3.33702128 Z" id="Fill-1" fill="#FFFFFF" mask="url(#mask-2)"></path>
                </g>
            </g>
        </g>
    </g>
</svg>