<?xml version="1.0" encoding="UTF-8"?>
<svg width="230px" height="230px" viewBox="0 0 230 230" version="1.1" xmlns="http://www.w3.org/2000/svg" xmlns:xlink="http://www.w3.org/1999/xlink">
    <!-- Generator: Sketch 52.2 (67145) - http://www.bohemiancoding.com/sketch -->
    <title>2</title>
    <desc>Created with Sketch.</desc>
    <g id="Page-1" stroke="none" stroke-width="1" fill="none" fill-rule="evenodd">
        <g id="Artboard" transform="translate(-259.000000, -625.000000)" fill="#FFFFFF">
            <rect x="0" y="0" width="1024" height="1196"></rect>
            <g id="2" transform="translate(359.000000, 725.000000)">
                <g id="home" transform="translate(0.000000, 2.000000)">
                    <path d="M29.6815789,10.588538 L15.4888304,0.196900585 C15.2151462,-0.0034502924 14.8433333,-0.0034502924 14.5697661,0.196900585 L0.376900585,10.588538 C0.0302339181,10.8423977 -0.0450877193,11.3291813 0.20877193,11.675848 C0.462631579,12.0225146 0.949473684,12.0977193 1.29608187,11.8439766 L15.0292398,1.78877193 L28.7623977,11.8439181 C28.9008772,11.9453801 29.0618129,11.9942105 29.221345,11.9942105 C29.4608772,11.9942105 29.6972515,11.8839766 29.8496491,11.6757895 C30.1035673,11.3291813 30.0282456,10.8423977 29.6815789,10.588538 Z" id="Path"></path>
                    <path d="M25.9208187,12.0200585 C25.4912281,12.0200585 25.1428655,12.3683626 25.1428655,12.7980117 L25.1428655,25.1809942 L18.9193567,25.1809942 L18.9193567,18.4215789 C18.9193567,16.2765497 17.1742105,14.5315205 15.0292982,14.5315205 C12.884386,14.5315205 11.1392398,16.2766667 11.1392398,18.4215789 L11.1392398,25.1810526 L4.91567251,25.1810526 L4.91567251,12.7980702 C4.91567251,12.3684211 4.56730994,12.020117 4.1377193,12.020117 C3.70812865,12.020117 3.35976608,12.3684211 3.35976608,12.7980702 L3.35976608,25.9590643 C3.35976608,26.3887135 3.70812865,26.7370175 4.1377193,26.7370175 L11.917193,26.7370175 C12.3263158,26.7370175 12.6611111,26.4209357 12.6921053,26.0196491 C12.6939766,26.001462 12.6951462,25.9815789 12.6951462,25.9590643 L12.6951462,18.4216374 C12.6951462,17.1345614 13.7422222,16.0874854 15.0292982,16.0874854 C16.3163743,16.0874854 17.3634503,17.1346199 17.3634503,18.4216374 L17.3634503,25.9590643 C17.3634503,25.981462 17.3646199,26.0009942 17.3664912,26.0189474 C17.3971345,26.4205263 17.7320468,26.7370175 18.1414035,26.7370175 L25.9208772,26.7370175 C26.3505263,26.7370175 26.6988304,26.3887135 26.6988304,25.9590643 L26.6988304,12.7980702 C26.6987719,12.3683626 26.3504678,12.0200585 25.9208187,12.0200585 Z" id="Path"></path>
                </g>
            </g>
        </g>
    </g>
</svg>