<?xml version="1.0" encoding="UTF-8"?>
<svg width="231px" height="230px" viewBox="0 0 231 230" version="1.1" xmlns="http://www.w3.org/2000/svg" xmlns:xlink="http://www.w3.org/1999/xlink">
    <!-- Generator: Sketch 52.2 (67145) - http://www.bohemiancoding.com/sketch -->
    <title>3</title>
    <desc>Created with Sketch.</desc>
    <defs>
        <polygon id="path-1" points="0.003515625 0 30 0 30 30 0.003515625 30"></polygon>
    </defs>
    <g id="Page-1" stroke="none" stroke-width="1" fill="none" fill-rule="evenodd">
        <g id="Artboard" transform="translate(-581.000000, -625.000000)">
            <rect fill="#FFFFFF" x="0" y="0" width="1024" height="1196"></rect>
            <g id="3" transform="translate(681.000000, 725.000000)">
                <g id="24-hours">
                    <g id="Group-3">
                        <mask id="mask-2" fill="white">
                            <use xlink:href="#path-1"></use>
                        </mask>
                        <g id="Clip-2"></g>
                        <path d="M29.3197852,10.5214453 C29.1751172,10.0579688 28.681875,9.80003906 28.2188672,9.94470703 C28.1598047,9.96298828 28.104375,9.98701172 28.0526953,10.0158984 C27.6965625,10.2142969 27.5157422,10.6411523 27.6420703,11.045625 C28.040332,12.3205078 28.2421875,13.6509961 28.2421875,15 C28.2421875,22.3017773 22.3017773,28.2421875 15,28.2421875 C7.69822266,28.2421875 1.7578125,22.3017773 1.7578125,15 C1.7578125,7.69822266 7.69822266,1.7578125 15,1.7578125 C18.4014258,1.7578125 21.6499219,3.06474609 24.0987305,5.38007812 L22.2143555,4.91044922 C21.7433203,4.79326172 21.2663086,5.07978516 21.1488867,5.55082031 C21.0315234,6.02185547 21.3180469,6.49863281 21.789082,6.61605469 L26.8526367,7.87810547 C26.8551563,7.87880859 26.8579102,7.87927734 26.8604297,7.87992187 C26.9283984,7.89621094 26.9970703,7.90417969 27.0652734,7.90417969 C27.2980664,7.90417969 27.5248828,7.81171875 27.6919336,7.64167969 C27.9103125,7.41966797 27.9947461,7.09898438 27.9144141,6.79845703 L26.5692773,1.76607422 C26.4438867,1.29708984 25.9620703,1.01876953 25.4933203,1.14392578 C25.0243359,1.269375 24.7457813,1.75095703 24.8712305,2.21994141 L25.3978711,4.19039062 C22.6139648,1.513125 18.8955469,0 15,0 C10.993418,0 7.22648438,1.56029297 4.39335938,4.39335938 C1.56029297,7.22648438 0,10.9931836 0,15 C0,19.006582 1.56029297,22.7735156 4.39335938,25.6066406 C7.22648438,28.439707 10.993418,30 15,30 C19.006582,30 22.7735156,28.439707 25.6066406,25.6066406 C28.439707,22.7735156 30,19.0068164 30,15 C30,13.4729297 29.7711328,11.9661914 29.3197852,10.5214453 Z" id="Fill-1" fill="#FFFFFF" mask="url(#mask-2)"></path>
                    </g>
                    <path d="M17.0020313,15.7154883 L16.9283203,15.7152539 L16.9283203,11.2389844 C16.9283203,10.8592969 16.6845703,10.5223828 16.3238672,10.4038477 C15.9629297,10.2854883 15.5669531,10.4120508 15.3417188,10.7180859 L11.4072656,16.0638281 C11.2108594,16.3304883 11.1810938,16.6850391 11.330332,16.9805273 C11.4793359,17.27625 11.7821484,17.4629883 12.1133203,17.4636914 L15.1705078,17.4696094 L15.1705078,18.8141016 C15.1705078,19.2995508 15.5641992,19.6930078 16.0494141,19.6930078 C16.5348633,19.6930078 16.9283203,19.2995508 16.9283203,18.8141016 L16.9283203,17.4730664 L17.0004492,17.4730664 C17.4849609,17.4730664 17.8781836,17.0807813 17.8793555,16.5959766 C17.8802344,16.1105273 17.4874805,15.7164258 17.0020313,15.7154883 Z M13.8508008,15.7092773 L15.1705078,13.9157812 L15.1705078,15.7117969 L13.8508008,15.7092773 Z" id="Fill-4" fill="#FFFFFF"></path>
                    <path d="M10.5580664,17.9262305 L7.95544922,17.9262305 C8.36835938,17.4467578 8.85316406,16.9766016 9.30539063,16.5378516 C10.4491406,15.4284375 11.4369727,14.4706055 11.4369727,13.3570898 C11.4369727,11.6846484 10.0758398,10.3241602 8.40269531,10.3241602 C7.18072266,10.3241602 6.08414062,11.0513086 5.60917969,12.1769531 C5.420625,12.6241992 5.63027344,13.1396484 6.07751953,13.3282617 C6.52453125,13.5172852 7.04015625,13.3074023 7.22876953,12.8601563 C7.42810547,12.3873047 7.88912109,12.0819727 8.40269531,12.0819727 C9.10652344,12.0819727 9.67898438,12.6539648 9.67898438,13.3570898 C9.67898438,13.3760742 9.66867188,13.5561914 9.31025391,14.0006836 C9.00076172,14.3845313 8.55421875,14.8175977 8.08160156,15.2760352 C7.12804688,16.2009375 6.04751953,17.2490039 5.51355469,18.4476563 C5.39220703,18.7195313 5.41693359,19.0342969 5.57923828,19.2837305 C5.74125,19.533457 6.01869141,19.684043 6.31623047,19.684043 L10.5578906,19.684043 C11.0433398,19.684043 11.4367969,19.2906445 11.4367969,18.8051367 C11.4367969,18.3199219 11.0435742,17.9262305 10.5580664,17.9262305 Z" id="Fill-5" fill="#FFFFFF"></path>
                    <path d="M21.9811523,13.3614258 C21.6870117,13.3614258 21.4043555,13.4163867 21.1406836,13.5164062 L21.1406836,11.1735352 C21.1406836,10.6880859 20.7472266,10.2946289 20.2617773,10.2946289 C19.7763281,10.2946289 19.3828711,10.6880859 19.3828711,11.1735352 L19.3828711,18.8264648 C19.3828711,19.3119141 19.7763281,19.7053711 20.2617773,19.7053711 C20.7472266,19.7053711 21.1406836,19.3119141 21.1406836,18.8264648 L21.1406836,16.365293 C21.1516406,16.3096875 21.1578516,16.252207 21.1578516,16.1933789 C21.1578516,15.6111328 21.5347852,15.1192383 21.9811523,15.1192383 C22.4276953,15.1192383 22.8046289,15.6111328 22.8046289,16.1933789 L22.8046289,18.8264648 C22.8046289,19.3119141 23.1980859,19.7053711 23.6835352,19.7053711 C24.1689844,19.7053711 24.5624414,19.3119141 24.5624414,18.8264648 L24.5624414,16.1933789 C24.5624414,14.6319727 23.4045703,13.3614258 21.9811523,13.3614258 Z" id="Fill-6" fill="#FFFFFF"></path>
                </g>
            </g>
        </g>
    </g>
</svg>