<?xml version="1.0" encoding="UTF-8"?>
<svg width="210px" height="46px" viewBox="0 0 210 46" version="1.1" xmlns="http://www.w3.org/2000/svg" xmlns:xlink="http://www.w3.org/1999/xlink">
    <!-- Generator: Sketch 52.2 (67145) - http://www.bohemiancoding.com/sketch -->
    <title>Mediquei</title>
    <desc>Created with Sketch.</desc>
    <g id="Page-1" stroke="none" stroke-width="1" fill="none" fill-rule="evenodd">
        <g id="Artboard" transform="translate(-407.000000, -50.000000)">
            <g id="Mediquei" transform="translate(407.000000, 50.000000)">
                <path d="M3.38555133,19.2070175 L0.702661597,9.06280702 C-0.214801314,5.40610252 1.97225611,1.68952181 5.58935361,0.758596491 C7.32066653,0.251133202 9.18072343,0.462366615 10.7574403,1.34549928 C12.3341571,2.22863195 13.4973618,3.71075337 13.9893536,5.46350877 L16.6802281,15.6077193 L3.38555133,19.2070175 Z" id="Path" stroke="#008CCC" stroke-width="0.96"></path>
                <path d="M17.1593156,17.6494737 L19.9140684,27.7694737 C20.3650819,29.5267884 20.105878,31.3932538 19.1936304,32.9571761 C18.2813828,34.5210984 16.7910393,35.6539902 15.0513308,36.1059649 C11.4669136,37.163557 7.71120722,35.0924277 6.6513308,31.4736842 L3.89657795,21.3375439 L17.1593156,17.6494737 Z" id="Path" stroke="#008CCC" stroke-width="0.96" fill="#008CCC"></path>
                <ellipse id="Oval" fill="#008CCC" cx="6.76311787" cy="4.75333333" rx="1" ry="1"></ellipse>
                <ellipse id="Oval" fill="#008CCC" cx="4.2878327" cy="9.01438596" rx="1" ry="1"></ellipse>
                <ellipse id="Oval" fill="#008CCC" cx="11.0589354" cy="8.25578947" rx="1" ry="1"></ellipse>
                <ellipse id="Oval" fill="#008CCC" cx="12.2806084" cy="10.5315789" rx="1" ry="1"></ellipse>
                <polyline id="Path" stroke="#008CCC" stroke-width="0.72" points="8.08060837 17.9319298 5.97262357 9.97473684 4.2878327 9.01438596"></polyline>
                <path d="M10.11673,17.3831579 L6.76311787,4.75333333" id="Path" stroke="#008CCC" stroke-width="0.72"></path>
                <polyline id="Path" stroke="#008CCC" stroke-width="0.72" points="11.0589354 8.25578947 9.70152091 10.6203509 11.4022814 17.0361404"></polyline>
                <polyline id="Path" stroke="#008CCC" stroke-width="0.72" points="12.2806084 10.5315789 12.0490494 12.8719298 10.843346 14.9136842"></polyline>
                <path d="M40.8581749,10.5396491 L45.4095057,9.93438596 L45.6570342,14.4375439 C46.2007955,12.9353749 47.2159423,11.6542893 48.5475285,10.7898246 C49.9203756,9.93335422 51.509981,9.4987581 53.1228137,9.53894737 C54.7230347,9.44513969 56.312795,9.85387693 57.6741445,10.7091228 C58.8134872,11.5716024 59.6320492,12.7969388 59.9977186,14.1873684 C61.0601686,11.2376103 63.9163043,9.34599916 67.0163498,9.53894737 C69.7870722,9.53894737 71.7114068,10.3459649 72.8053232,11.8631579 C73.8992395,13.3803509 74.4022814,15.7691228 74.4022814,18.9326316 L74.4022814,31.925614 C74.4022814,33.5396491 74.913308,34.6614035 75.9353612,35.2263158 C75.6486466,35.7452661 75.1950643,36.149598 74.6498099,36.3722807 C74.0595768,36.6392954 73.4200449,36.7768211 72.773384,36.7757895 C71.7015968,36.858776 70.6486418,36.4567394 69.8988593,35.6782456 C69.2272639,34.7932511 68.8954054,33.6924278 68.9646388,32.5792982 L68.9646388,19.6670175 C69.0464796,18.0701901 68.8102519,16.4730095 68.269962,14.9701754 C67.8068441,13.937193 66.7847909,13.4207018 65.2038023,13.4207018 C63.5016207,13.325743 61.9594178,14.4295393 61.4828897,16.0838596 C60.7959123,18.3324001 60.4802761,20.6799965 60.5486692,23.0322807 L60.5486692,36.0252632 L55.095057,36.0252632 L55.095057,19.6347368 C55.1768979,18.0379094 54.9406702,16.4407288 54.4003802,14.9378947 C53.9372624,13.9049123 52.9152091,13.3884211 51.3342205,13.3884211 C49.5510549,13.2619445 47.909019,14.3705539 47.3418251,16.0838596 C46.5951198,18.3203325 46.2463839,20.6728319 46.3117871,23.0322807 L46.3117871,36.0252632 L40.8581749,36.0252632 L40.8581749,10.5396491 Z" id="Path" fill="#008CCC"></path>
                <path d="M95.9452471,31.1266667 C95.9557194,32.2971542 95.5311434,33.4289839 94.7555133,34.2982456 C93.9224277,35.2449715 92.8684371,35.9662422 91.6893536,36.3964912 C90.4747561,36.8732229 89.1835763,37.1194468 87.8806084,37.122807 C84.2555133,37.122807 81.569962,35.9311111 79.8239544,33.5477193 C78.0779468,31.1643275 77.204943,27.9577778 77.204943,23.9280702 C77.204943,19.6239766 78.1524715,16.1511111 80.0475285,13.5094737 C81.9425856,10.8678363 84.8171103,9.54432749 88.6711027,9.53894737 C90.7989976,9.4310202 92.8923542,10.1142584 94.5558935,11.4596491 C96.0787095,12.8288312 96.8991782,14.826146 96.7836502,16.882807 C96.7836502,19.7773099 95.7855513,21.8109942 93.7893536,22.9838596 C91.7931559,24.1567251 89.0836502,24.7377778 85.6608365,24.7270175 C84.7026616,24.7270175 83.7923954,24.7270175 82.9380228,24.6301754 C82.9338206,26.7979254 83.379944,28.9424211 84.2475285,30.9249123 C85.0155355,32.4905456 86.6529344,33.4220317 88.3756654,33.2733333 C89.7363767,33.3020727 91.0734057,32.9107511 92.208365,32.1515789 C93.3480179,31.3584731 94.2466078,30.2602511 94.8034221,28.98 C95.5879981,29.3866499 96.0423984,30.2409367 95.9452471,31.1266667 Z M84.1277567,15.2122807 C83.3394031,17.4310345 82.9368866,19.7709369 82.9380228,22.1284211 C83.9281369,22.2010526 84.6547529,22.2333333 85.1098859,22.2333333 C89.2673004,22.2333333 91.3460076,20.5493567 91.3460076,17.1814035 C91.3895731,15.9797329 91.0872374,14.7910989 90.4756654,13.7596491 C89.9257245,12.8552065 88.9293185,12.3284362 87.8806084,12.3877193 C86.1,12.3877193 84.8463878,13.3238596 84.1277567,15.2122807 Z" id="Shape" fill="#008CCC" fill-rule="nonzero"></path>
                <path d="M120.219011,35.2263158 C119.960892,35.7210834 119.556038,36.1218001 119.061217,36.3722807 C118.516226,36.6474177 117.91368,36.7858244 117.304563,36.7757895 C115.515188,36.8708564 113.967969,35.5274406 113.791255,33.7252632 C113.253795,34.8374597 112.354541,35.7292349 111.244106,36.2512281 C110.069163,36.8340763 108.776102,37.1324777 107.4673,37.122807 C104.097719,37.122807 101.657034,35.8235088 100.145247,33.2249123 C98.6334601,30.6263158 97.8749049,27.2933333 97.8695817,23.2259649 C97.8695817,19.0294737 98.7692015,15.6991813 100.568441,13.2350877 C102.367681,10.7709942 105.159696,9.53894737 108.944487,9.53894737 C110.403926,9.52151368 111.856775,9.73945588 113.248289,10.1845614 L113.248289,1.04105263 L118.685932,0.443859649 L118.685932,31.9175439 C118.685932,33.5557895 119.196958,34.7017544 120.219011,35.2263158 Z M108.696958,12.5329825 C106.859729,12.4060008 105.19575,13.6257107 104.744487,15.4301754 C104.046219,17.8837582 103.728379,20.4318898 103.802281,22.9838596 C103.746888,25.5669853 104.116561,28.1414611 104.896198,30.6021053 C105.614829,32.7164912 106.945627,33.7736842 108.888593,33.7736842 C110.194773,33.8488049 111.440789,33.211437 112.154373,32.1031579 C112.9152,30.8509225 113.292992,29.399401 113.240304,27.9308772 L113.240304,14.0824561 C111.915388,13.1141697 110.331462,12.5739837 108.696958,12.5329825 Z" id="Shape" fill="#008CCC" fill-rule="nonzero"></path>
                <path d="M128.970342,31.925614 C128.970342,33.5396491 129.481369,34.6614035 130.503422,35.2263158 C130.218764,35.7469384 129.76451,36.1518691 129.217871,36.3722807 C128.612072,36.6434244 127.956059,36.780982 127.293536,36.7757895 C126.238904,36.8541596 125.204894,36.4515274 124.474905,35.6782456 C123.797164,34.7960973 123.462046,33.6938812 123.5327,32.5792982 L123.5327,10.5396491 L128.970342,10.5396491 L128.970342,31.925614 Z" id="Path" fill="#008CCC"></path>
                <path d="M147.463118,40.5687719 C147.433642,38.2755171 147.615414,35.9844668 148.006084,33.7252632 C147.469576,34.8353492 146.573625,35.7266428 145.46692,36.2512281 C144.288875,36.8333402 142.993402,37.1316675 141.682129,37.122807 C138.323194,37.122807 135.874525,35.8235088 134.336122,33.2249123 C132.797719,30.6263158 132.031179,27.2933333 132.036502,23.2259649 C132.036502,19.0294737 132.936122,15.6991813 134.735361,13.2350877 C136.534601,10.7709942 139.310646,9.53894737 143.063498,9.53894737 C144.772524,9.55246038 146.465366,9.87497061 148.061977,10.4912281 L152.908745,9.94245614 L152.908745,45.0235088 L147.463118,45.6207018 L147.463118,40.5687719 Z M142.863878,12.5329825 C141.036335,12.4213865 139.387833,13.6371196 138.935361,15.4301754 C138.240971,17.8845622 137.923207,20.4320836 137.993156,22.9838596 C137.941886,25.5587954 138.311493,28.1246271 139.087072,30.5778947 C139.805703,32.7084211 141.163118,33.8059649 143.135361,33.8059649 C144.441541,33.8810856 145.687557,33.2437177 146.401141,32.1354386 C147.161968,30.8832033 147.53976,29.4316817 147.487072,27.9631579 L147.487072,14.1308772 C146.143888,13.1330514 144.530337,12.5753665 142.863878,12.5329825 Z" id="Shape" fill="#008CCC" fill-rule="nonzero"></path>
                <path d="M177.262357,31.925614 C177.262357,33.5396491 177.773384,34.6614035 178.795437,35.2263158 C178.537317,35.7210834 178.132464,36.1218001 177.637643,36.3722807 C177.092652,36.6474177 176.490105,36.7858244 175.880989,36.7757895 C174.091614,36.8708564 172.544395,35.5274406 172.367681,33.7252632 C171.830221,34.8374597 170.930967,35.7292349 169.820532,36.2512281 C168.635925,36.838985 167.331359,37.1375171 166.011787,37.122807 C163.632319,37.122807 161.825095,36.5847953 160.590114,35.5087719 C159.319367,34.3942013 158.458381,32.8784747 158.146768,31.2073684 C157.705495,28.8946106 157.507435,26.5411744 157.555894,24.1863158 L157.555894,10.4670175 L162.993536,10.4670175 L162.993536,23.9764912 C162.97532,25.6552988 163.049961,27.3338231 163.21711,29.0042105 C163.326118,30.2145556 163.741322,31.3762167 164.422814,32.3775439 C165.130496,33.3289296 166.266098,33.8542204 167.441065,33.7736842 C168.747244,33.8488049 169.993261,33.211437 170.706844,32.1031579 C171.467671,30.8509225 171.845463,29.399401 171.792776,27.9308772 L171.792776,10.5396491 L177.262357,10.5396491 L177.262357,31.925614 Z" id="Path" fill="#008CCC"></path>
                <path d="M199.036882,31.1266667 C199.050323,32.2962148 198.628544,33.4281868 197.855133,34.2982456 C197.03327,35.239467 195.99358,35.9603379 194.828897,36.3964912 C193.6143,36.8732229 192.32312,37.1194468 191.020152,37.122807 C187.395057,37.122807 184.706844,35.9311111 182.955513,33.5477193 C181.204183,31.1643275 180.317871,27.9577778 180.296578,23.9280702 C180.296578,19.6239766 181.244106,16.1511111 183.139163,13.5094737 C185.034221,10.8678363 187.911407,9.54432749 191.770722,9.53894737 C193.897833,9.43700088 195.989149,10.1195732 197.655513,11.4596491 C199.178329,12.8288312 199.998798,14.826146 199.88327,16.882807 C199.88327,19.7773099 198.885171,21.8109942 196.888973,22.9838596 C194.892776,24.1567251 192.180608,24.7377778 188.752471,24.7270175 C187.794297,24.7270175 186.892015,24.7270175 186.037643,24.6301754 C186.03344,26.7979254 186.479564,28.9424211 187.347148,30.9249123 C188.115155,32.4905456 189.752554,33.4220317 191.475285,33.2733333 C192.835664,33.299518 194.171956,32.9084119 195.307985,32.1515789 C196.445641,31.3562721 197.343714,30.2586826 197.903042,28.98 C198.686199,29.3873155 199.137815,30.2423467 199.036882,31.1266667 Z M187.219392,15.2122807 C186.436787,17.4320889 186.039688,19.7719086 186.045627,22.1284211 C187.027757,22.2010526 187.754373,22.2333333 188.21749,22.2333333 C192.369582,22.2333333 194.445627,20.5493567 194.445627,17.1814035 C194.487511,15.9809756 194.188253,14.7935471 193.58327,13.7596491 C193.032096,12.8565435 192.03654,12.3302227 190.988213,12.3877193 C189.239544,12.3877193 187.946008,13.3238596 187.219392,15.2122807 Z" id="Shape" fill="#008CCC" fill-rule="nonzero"></path>
                <path d="M207.987833,31.925614 C207.987833,33.5396491 208.498859,34.6614035 209.520913,35.2263158 C209.234198,35.7452661 208.780616,36.149598 208.235361,36.3722807 C207.629264,36.6424843 206.973454,36.7799995 206.311027,36.7757895 C205.256394,36.8541596 204.222384,36.4515274 203.492395,35.6782456 C202.814655,34.7960973 202.479536,33.6938812 202.55019,32.5792982 L202.55019,10.5396491 L207.987833,10.5396491 L207.987833,31.925614 Z" id="Path" fill="#008CCC"></path>
                <ellipse id="Oval" fill="#008CCC" cx="126.207605" cy="2.70350877" rx="2.67490494" ry="2.70350877"></ellipse>
                <ellipse id="Oval" fill="#008CCC" cx="205.225095" cy="2.70350877" rx="2.67490494" ry="2.70350877"></ellipse>
            </g>
        </g>
    </g>
</svg>