<?xml version="1.0" encoding="UTF-8"?>
<svg width="40px" height="40px" viewBox="0 0 40 40" version="1.1" xmlns="http://www.w3.org/2000/svg" xmlns:xlink="http://www.w3.org/1999/xlink">
    <!-- Generator: Sketch 52.2 (67145) - http://www.bohemiancoding.com/sketch -->
    <title>Cartão de Crédito</title>
    <desc>Created with Sketch.</desc>
    <g id="Cartão-de-Crédito" stroke="none" stroke-width="1" fill="none" fill-rule="evenodd">
        <g id="credit-card" transform="translate(2.000000, 8.000000)" fill="#000000">
            <path d="M32.1871579,0.0233684211 L3.74266667,0.0233684211 C1.6797193,0.0233684211 0,1.70308772 0,3.76610526 L0,20.2339649 C0,22.2969123 1.6797193,23.9766316 3.74266667,23.9766316 L32.1870877,23.9766316 C34.2500351,23.9766316 35.9297544,22.2969123 35.9297544,20.2339649 L35.9297544,3.76610526 C35.9298246,1.70308772 34.2501053,0.0233684211 32.1871579,0.0233684211 Z M34.4327719,20.2338947 C34.4327719,21.472 33.4252632,22.4795088 32.1871579,22.4795088 L3.74266667,22.4795088 C2.5045614,22.4795088 1.49705263,21.472 1.49705263,20.2338947 L1.49705263,3.76610526 C1.49705263,2.528 2.5045614,1.52049123 3.74266667,1.52049123 L32.1870877,1.52049123 C33.425193,1.52049123 34.4327018,2.528 34.4327018,3.76610526 L34.4327018,20.2338947 L34.4327719,20.2338947 Z" id="Shape" fill-rule="nonzero"></path>
            <path d="M35.1812632,4.51459649 L0.748561404,4.51459649 C0.335368421,4.51459649 0,4.84996491 0,5.26315789 L0,9.75438596 C0,10.1675789 0.335368421,10.5029474 0.748561404,10.5029474 L35.1813333,10.5029474 C35.5945263,10.5029474 35.9298947,10.1675789 35.9298947,9.75438596 L35.9298947,5.26315789 C35.9298246,4.84996491 35.5944561,4.51459649 35.1812632,4.51459649 Z M34.4327719,9.00582456 L1.49705263,9.00582456 L1.49705263,6.01164912 L34.4327719,6.01164912 L34.4327719,9.00582456 Z" id="Shape" fill-rule="nonzero"></path>
            <path d="M14.2222456,14.9941754 L5.23978947,14.9941754 C4.82659649,14.9941754 4.49122807,15.3295439 4.49122807,15.7427368 C4.49122807,16.1559298 4.82659649,16.4912281 5.23978947,16.4912281 L14.2222456,16.4912281 C14.6354386,16.4912281 14.970807,16.1558596 14.970807,15.7426667 C14.970807,15.3294737 14.6354386,14.9941754 14.2222456,14.9941754 Z" id="Path"></path>
            <path d="M14.2222456,17.9882807 L5.23978947,17.9882807 C4.82659649,17.9882807 4.49122807,18.3236491 4.49122807,18.7368421 C4.49122807,19.1500351 4.82659649,19.4854035 5.23978947,19.4854035 L14.2222456,19.4854035 C14.6354386,19.4854035 14.970807,19.1500351 14.970807,18.7368421 C14.9707368,18.3236491 14.6354386,17.9882807 14.2222456,17.9882807 Z" id="Path"></path>
            <path d="M29.1929825,13.4970526 L27.6959298,13.4970526 C26.4578246,13.4970526 25.4503158,14.5045614 25.4503158,15.7426667 L25.4503158,17.2397193 C25.4503158,18.4778246 26.4578246,19.4853333 27.6959298,19.4853333 L29.1929825,19.4853333 C30.4310877,19.4853333 31.4385965,18.4778246 31.4385965,17.2397193 L31.4385965,15.7426667 C31.4385965,14.5046316 30.4310877,13.4970526 29.1929825,13.4970526 Z M29.9415439,17.2397895 C29.9415439,17.6529825 29.6061754,17.9883509 29.1929825,17.9883509 L27.6959298,17.9883509 C27.2827368,17.9883509 26.9473684,17.6529825 26.9473684,17.2397895 L26.9473684,15.7427368 C26.9473684,15.3295439 27.2827368,14.9941754 27.6959298,14.9941754 L29.1929825,14.9941754 C29.6061754,14.9941754 29.9415439,15.3295439 29.9415439,15.7427368 L29.9415439,17.2397895 Z" id="Shape" fill-rule="nonzero"></path>
        </g>
    </g>
</svg>