<?xml version="1.0" encoding="UTF-8"?>
<svg width="40px" height="40px" viewBox="0 0 40 40" version="1.1" xmlns="http://www.w3.org/2000/svg" xmlns:xlink="http://www.w3.org/1999/xlink">
    <!-- Generator: Sketch 52.2 (67145) - http://www.bohemiancoding.com/sketch -->
    <title>taxa de Entrega</title>
    <desc>Created with Sketch.</desc>
    <g id="taxa-de-Entrega" stroke="none" stroke-width="1" fill="none" fill-rule="evenodd">
        <g id="scooter" transform="translate(2.000000, 8.000000)" fill="#000000" fill-rule="nonzero">
            <path d="M31.6846652,16.1727862 C31.1983153,16.1727862 30.7310151,16.2548164 30.2945054,16.4038704 L29.7000778,15.2149374 C30.321486,14.9798877 30.9911015,14.8509719 31.6846652,14.8509719 C32.4681123,14.8509719 33.2262117,15.0084233 33.9378143,15.3191274 C34.2328121,15.4477322 34.5767171,15.3130626 34.7055551,15.017987 C34.8343931,14.7227559 34.699568,14.3790065 34.4044147,14.2501685 C33.5446911,13.8749287 32.6296847,13.6846652 31.6846652,13.6846652 C30.8055032,13.6846652 29.957987,13.8561123 29.1765616,14.167905 L27.0161728,9.84712743 C27.1183413,9.86493305 27.2232311,9.87473002 27.3304536,9.87473002 L28.574514,9.87473002 C28.8965702,9.87473002 29.1576674,9.61371058 29.1576674,9.29157667 L29.1576674,6.80345572 C29.1576674,6.48132181 28.8965702,6.22030238 28.574514,6.22030238 L27.3304536,6.22030238 C26.6208726,6.22030238 26.0049071,6.62711015 25.7023672,7.21959395 L25.0857019,5.9862635 C24.7742203,5.36322246 24.1479136,4.9762419 23.4513952,4.9762419 L22.3542117,4.9762419 C22.0321555,4.9762419 21.7710583,5.23726134 21.7710583,5.55939525 C21.7710583,5.88152916 22.0321555,6.1425486 22.3542117,6.1425486 L23.4513952,6.1425486 C23.7033175,6.1425486 23.929892,6.28258315 24.0425572,6.50791361 L25.5528467,9.52841469 L25.2692786,9.67023758 C24.6462376,9.98171922 24.2591793,10.6079482 24.2591793,11.3045443 L24.2591793,17.4168467 L19.2440605,17.4168467 C18.1936847,17.4168467 17.3390929,16.5623326 17.3390929,15.511879 L17.3390929,12.9848812 L17.3779698,12.9848812 C18.3855032,12.9848812 19.2051836,12.1652009 19.2051836,11.1576674 C19.2051836,10.1501339 18.3855032,9.33045356 17.3779698,9.33045356 L12.4017279,9.33045356 C11.9021598,9.33045356 11.4490108,9.53214687 11.1187905,9.85816847 L11.1187905,1.20518359 C11.1187905,0.54062203 10.5781685,0 9.91360691,0 L1.20518359,0 C0.54062203,0 0,0.54062203 0,1.20518359 L0,9.91360691 C0,10.5781685 0.54062203,11.1187905 1.20518359,11.1187905 L2.51409071,11.1187905 C2.48656587,11.2382981 2.4715594,11.36146 2.47358099,11.4873434 C2.48664363,12.3130886 3.16908855,12.9848812 3.99491145,12.9848812 L7.13009935,12.9848812 C6.73580994,13.2366479 6.39804752,13.5031102 6.1169676,13.7557322 C4.82493305,14.9168294 4.13447948,16.3003801 3.91917927,17.208 C3.80309287,17.69746 3.91451404,18.2028596 4.22498488,18.5948164 C4.53117927,18.981486 4.98984881,19.2029287 5.48374082,19.2029287 C5.48482937,19.2029287 5.48584017,19.2029287 5.48692873,19.2029287 L5.79421166,19.2023844 C5.66521814,19.6165788 5.59827214,20.0502117 5.59827214,20.488121 C5.59827214,22.8676199 7.53410799,24.8034557 9.91360691,24.8034557 C12.0952225,24.8034557 13.9027646,23.1757581 14.188432,21.0712743 L25.4643629,21.0712743 C25.786419,21.0712743 26.0475162,20.8102549 26.0475162,20.488121 C26.0475162,20.1081382 26.08546,19.7285443 26.1603369,19.3599914 C26.4718186,17.8255983 27.4021425,16.5390065 28.6575551,15.7377538 L29.2518272,16.9262981 C28.1161555,17.7044579 27.3693305,19.0105659 27.3693305,20.488121 C27.3693305,22.8676199 29.3051663,24.8034557 31.6846652,24.8034557 C34.0641641,24.8034557 36,22.8676199 36,20.488121 C36,18.108622 34.0641641,16.1727862 31.6846652,16.1727862 Z M12.4017279,10.4967603 L17.3779698,10.4967603 C17.7424017,10.4967603 18.0388769,10.7932354 18.0388769,11.1576674 C18.0388769,11.5220994 17.7424017,11.8185745 17.3779698,11.8185745 L12.4017279,11.8185745 C12.0372959,11.8185745 11.7408207,11.5220994 11.7408207,11.1576674 C11.7408207,10.7932354 12.0372959,10.4967603 12.4017279,10.4967603 Z M1.1663067,1.20518359 C1.1663067,1.1838013 1.18372354,1.1663067 1.20518359,1.1663067 L9.91360691,1.1663067 C9.93506695,1.1663067 9.9524838,1.1838013 9.9524838,1.20518359 L9.9524838,2.48812095 L1.1663067,2.48812095 L1.1663067,1.20518359 Z M1.20518359,9.9524838 C1.18372354,9.9524838 1.1663067,9.9349892 1.1663067,9.91360691 L1.1663067,3.65442765 L9.9524838,3.65442765 L9.9524838,9.91360691 C9.9524838,9.9349892 9.93506695,9.9524838 9.91360691,9.9524838 L1.20518359,9.9524838 Z M3.99491145,11.8185745 C3.80215983,11.8185745 3.64284233,11.6617451 3.63980994,11.4689935 C3.63825486,11.3729676 3.67464363,11.2823844 3.74205616,11.2139611 C3.78948596,11.1659093 3.84842333,11.1340302 3.91241469,11.1187905 L10.5755248,11.1206566 C10.5752916,11.1330194 10.5745918,11.1452268 10.5745918,11.1576674 C10.5745918,11.3906955 10.6189114,11.61346 10.6987646,11.8185745 L3.99491145,11.8185745 Z M5.48475162,18.0366998 C5.4844406,18.0366998 5.48412959,18.0366998 5.48381857,18.0366998 C5.29853132,18.0366998 5.18843197,17.932743 5.13929158,17.8706955 C5.05197408,17.7604406 5.02095032,17.6170626 5.05407343,17.4772613 C5.48381857,15.6655983 7.72087257,12.9848812 11.1576674,12.9848812 C13.8256328,12.9848812 14.8198704,15.5346609 14.8198704,17.1419093 C14.8198704,17.577797 14.5792225,18.019594 14.1192311,18.0204492 L5.48475162,18.0366998 Z M10.574514,20.488121 C10.574514,20.8525529 10.2780389,21.1490281 9.91360691,21.1490281 C9.54917495,21.1490281 9.25269978,20.8525529 9.25269978,20.488121 C9.25269978,20.123689 9.54917495,19.8272138 9.91360691,19.8272138 C10.2780389,19.8272138 10.574514,20.123689 10.574514,20.488121 Z M9.91360691,23.637149 C8.1772095,23.637149 6.76457883,22.2245184 6.76457883,20.488121 C6.76457883,20.042203 6.860527,19.6030497 7.04107127,19.2000518 L8.62180562,19.1970972 C8.29119654,19.5279395 8.08639309,19.9845097 8.08639309,20.488121 C8.08639309,21.4956544 8.90607343,22.3153348 9.91360691,22.3153348 C10.9211404,22.3153348 11.7408207,21.4956544 11.7408207,20.488121 C11.7408207,19.9820216 11.5339179,19.5234298 11.2003542,19.1921987 L12.7812441,19.1891663 C12.9649762,19.595041 13.062635,20.0380821 13.062635,20.4880432 C13.062635,22.2245184 11.6500043,23.637149 9.91360691,23.637149 Z M25.0173564,19.1279741 C24.9654168,19.3835508 24.9282505,19.6433261 24.9059352,19.9049676 L14.1891317,19.9049676 C14.1559309,19.6611317 14.1018143,19.4208726 14.0279482,19.1869114 L14.1212527,19.1867559 C15.1843801,19.1848121 15.9860994,18.3057279 15.9860994,17.1419093 C15.9860994,15.8800432 15.5661512,14.6013045 14.8338661,13.6337365 C14.6732268,13.4214687 14.4781425,13.1987819 14.2451145,12.9848812 L16.1727862,12.9848812 L16.1727862,15.511879 C16.1727862,17.2053564 17.5505832,18.5831533 19.2440605,18.5831533 L24.8423326,18.5831533 C24.9715594,18.5831533 25.0906004,18.540622 25.1872484,18.4694773 C25.1204579,18.6844665 25.0628423,18.9037322 25.0173564,19.1279741 Z M27.3304536,7.38660907 L27.9913607,7.38660907 L27.9913607,8.70842333 L27.3304536,8.70842333 C26.9660216,8.70842333 26.6695464,8.41194816 26.6695464,8.0475162 C26.6695464,7.68308423 26.9660216,7.38660907 27.3304536,7.38660907 Z M25.425486,17.8221771 L25.425486,11.3044665 C25.425486,11.0525443 25.5654428,10.8260475 25.790851,10.7133045 L26.074419,10.5714816 L28.1341166,14.6907991 C26.9433952,15.4217624 25.9857797,16.5105486 25.425486,17.8221771 Z M31.6846652,23.637149 C29.9482678,23.637149 28.5356371,22.2245184 28.5356371,20.488121 C28.5356371,18.7517235 29.9482678,17.3390929 31.6846652,17.3390929 C33.4210626,17.3390929 34.8336933,18.7517235 34.8336933,20.488121 C34.8336933,22.2245184 33.4210626,23.637149 31.6846652,23.637149 Z" id="Shape"></path>
            <path d="M31.6846652,18.6609071 C30.6771317,18.6609071 29.8574514,19.4805875 29.8574514,20.488121 C29.8574514,21.4956544 30.6771317,22.3153348 31.6846652,22.3153348 C32.6921987,22.3153348 33.511879,21.4956544 33.511879,20.488121 C33.511879,19.4805875 32.6921987,18.6609071 31.6846652,18.6609071 Z M31.6846652,21.1490281 C31.3202333,21.1490281 31.0237581,20.8525529 31.0237581,20.488121 C31.0237581,20.123689 31.3202333,19.8272138 31.6846652,19.8272138 C32.0490972,19.8272138 32.3455724,20.123689 32.3455724,20.488121 C32.3455724,20.8525529 32.0490972,21.1490281 31.6846652,21.1490281 Z" id="Shape"></path>
        </g>
    </g>
</svg>