<?xml version="1.0" encoding="UTF-8"?>
<svg width="360px" height="640px" viewBox="0 0 360 640" version="1.1" xmlns="http://www.w3.org/2000/svg" xmlns:xlink="http://www.w3.org/1999/xlink">
    <!-- Generator: Sketch 51.3 (57544) - http://www.bohemiancoding.com/sketch -->
    <title>Boas vindas 3</title>
    <desc>Created with Sketch.</desc>
    <defs></defs>
    <g id="Boas-vindas-3" stroke="none" stroke-width="1" fill="none" fill-rule="evenodd">
        <rect id="Rectangle-6" fill="#008CCC" x="0" y="0" width="360" height="640"></rect>
        <g id="3" transform="translate(130.000000, 225.000000)">
            <g id="24-hours">
                <circle id="Oval" fill="#00AFFF" fill-rule="nonzero" cx="50" cy="50" r="50"></circle>
                <path d="M56.9642857,63.531746 L52.5793651,69.9801587 C50.6746032,72.7777778 46.7063492,73.1547619 44.3253968,70.7738095 L29.2063492,55.6547619 C26.8253968,53.2738095 27.202381,49.2857143 30,47.4007937 L36.468254,43.015873 C38.3333333,41.7460317 38.5912698,39.0873016 36.984127,37.5 L25.6547619,26.1706349 C24.265873,24.781746 22.0039683,24.7420635 20.6150794,26.1309524 L20.5952381,26.1507937 C20.5357143,26.2103175 20.4563492,26.2896825 20.3968254,26.3690476 C10.4166667,36.4880952 10.7539683,52.8769841 20.7936508,62.9166667 L37.281746,79.4047619 C47.3412698,89.4642857 63.6904762,89.5634921 73.7896825,79.5436508 C73.8293651,79.5039683 73.8492063,79.484127 73.8888889,79.4444444 L73.9087302,79.4246032 C75.297619,78.0357143 75.2380952,75.7738095 73.8492063,74.3849206 L62.5198413,63.0555556 C60.8928571,61.4087302 58.234127,61.6666667 56.9642857,63.531746 Z" id="Shape" fill="#FFFFFF" fill-rule="nonzero"></path>
                <g id="Group" transform="translate(18.452381, 25.000000)" fill="#083863" fill-rule="nonzero">
                    <path d="M38.5119048,38.531746 L37.2420635,40.4166667 L53.1944444,56.3690476 C53.9285714,55.7936508 54.6230159,55.1785714 55.297619,54.5039683 C55.3373016,54.4642857 55.3571429,54.4444444 55.3968254,54.4047619 L55.4166667,54.3849206 C56.8055556,52.9960317 56.7460317,50.734127 55.3571429,49.3452381 L44.0277778,38.015873 C42.4404762,36.4087302 39.781746,36.6666667 38.5119048,38.531746 Z" id="Shape"></path>
                    <path d="M2.14285714,1.11111111 L2.12301587,1.13095238 C2.06349206,1.19047619 1.98412698,1.26984127 1.92460317,1.34920635 C1.28968254,1.98412698 0.714285714,2.65873016 0.158730159,3.33333333 L16.1111111,19.2857143 L17.9960317,18.015873 C19.8611111,16.7460317 20.1190476,14.0873016 18.5119048,12.5 L7.18253968,1.17063492 C5.79365079,-0.238095238 3.53174603,-0.277777778 2.14285714,1.11111111 Z" id="Shape"></path>
                </g>
                <g id="Group" transform="translate(40.873016, 22.023810)" fill="#083863" fill-rule="nonzero">
                    <path d="M9.70238095,9.18650794 C10.2579365,8.39285714 10.5357143,7.63888889 10.5357143,6.9047619 C10.5357143,6.17063492 10.297619,5.55555556 9.8015873,5.05952381 C9.32539683,4.56349206 8.71031746,4.32539683 7.93650794,4.32539683 C6.54761905,4.32539683 5.23809524,5.31746032 4.00793651,7.28174603 L0.0793650794,4.96031746 C1.11111111,3.37301587 2.24206349,2.16269841 3.45238095,1.34920635 C4.68253968,0.535714286 6.25,0.119047619 8.13492063,0.119047619 C10.0396825,0.119047619 11.7063492,0.714285714 13.1349206,1.92460317 C14.5634921,3.13492063 15.297619,4.78174603 15.297619,6.8452381 C15.297619,7.97619048 15,9.06746032 14.4246032,10.0992063 C13.8492063,11.1309524 12.7777778,12.4603175 11.2301587,14.0873016 L7.26190476,18.2142857 L15.952381,18.2142857 L15.952381,22.6190476 L0.436507937,22.6190476 L0.436507937,18.968254 L6.88492063,12.3611111 C8.23412698,11.0119048 9.1468254,9.96031746 9.70238095,9.18650794 Z" id="Shape"></path>
                    <polygon id="Shape" points="27.6587302 13.0952381 27.6587302 9.26587302 32.3809524 9.26587302 32.3809524 13.0952381 34.8611111 13.0952381 34.8611111 17.3412698 32.3809524 17.3412698 32.3809524 22.5992063 27.6587302 22.5992063 27.6587302 17.3412698 18.8095238 17.3412698 18.8095238 13.5912698 26.6468254 0.595238095 32.0039683 0.595238095 24.5436508 13.0952381"></polygon>
                </g>
                <g id="Group" transform="translate(41.865079, 47.023810)" fill="#FFFFFF" fill-rule="nonzero">
                    <polygon id="Shape" points="7.08333333 5.07936508 2.55952381 5.07936508 2.55952381 0.317460317 0.0198412698 0.317460317 0.0198412698 11.7063492 2.55952381 11.7063492 2.55952381 7.22222222 7.08333333 7.22222222 7.08333333 11.7063492 9.62301587 11.7063492 9.62301587 0.317460317 7.08333333 0.317460317"></polygon>
                    <path d="M21.6468254,4.10714286 C21.6468254,2.77777778 21.2698413,1.82539683 20.515873,1.23015873 C19.7619048,0.634920635 18.4920635,0.337301587 16.7261905,0.337301587 L12.4206349,0.337301587 L12.4206349,11.7063492 L14.9603175,11.7063492 L14.9603175,8.07539683 L16.7261905,8.07539683 L19.2460317,11.7063492 L22.3809524,11.7063492 L19.5039683,7.63888889 C20.9325397,7.1031746 21.6468254,5.93253968 21.6468254,4.10714286 Z M18.5912698,5.45634921 C18.2738095,5.73412698 17.6785714,5.87301587 16.8253968,5.87301587 L14.9603175,5.87301587 L14.9603175,2.5 L16.8650794,2.5 C17.6785714,2.5 18.2539683,2.61904762 18.5714286,2.83730159 C18.8888889,3.05555556 19.0674603,3.49206349 19.0674603,4.10714286 C19.0674603,4.72222222 18.9087302,5.17857143 18.5912698,5.45634921 Z" id="Shape"></path>
                    <path d="M31.5873016,6.07142857 C30.9920635,5.53571429 30.1587302,5.13888889 29.0674603,4.88095238 C27.9960317,4.62301587 27.3015873,4.38492063 27.0039683,4.18650794 C26.7063492,3.98809524 26.547619,3.73015873 26.547619,3.39285714 C26.547619,3.05555556 26.6666667,2.79761905 26.9047619,2.59920635 C27.1428571,2.40079365 27.4801587,2.3015873 27.8968254,2.3015873 C28.9484127,2.3015873 29.9603175,2.67857143 30.952381,3.43253968 L32.2420635,1.56746032 C31.6865079,1.09126984 31.0119048,0.714285714 30.2579365,0.456349206 C29.5039683,0.198412698 28.7301587,0.0595238095 27.9761905,0.0595238095 C26.8055556,0.0595238095 25.8531746,0.357142857 25.0793651,0.932539683 C24.3055556,1.52777778 23.9087302,2.36111111 23.9087302,3.43253968 C23.9087302,4.50396825 24.2063492,5.29761905 24.8214286,5.81349206 C25.4365079,6.30952381 26.4087302,6.72619048 27.7380952,7.04365079 C28.5714286,7.24206349 29.1269841,7.46031746 29.4047619,7.65873016 C29.6825397,7.85714286 29.8214286,8.13492063 29.8214286,8.47222222 C29.8214286,8.80952381 29.6825397,9.08730159 29.4246032,9.28571429 C29.1666667,9.48412698 28.7896825,9.58333333 28.3333333,9.58333333 C27.3015873,9.58333333 26.1507937,9.04761905 24.9404762,7.97619048 L23.4325397,9.84126984 C24.8809524,11.1706349 26.5079365,11.8452381 28.2936508,11.8452381 C29.5436508,11.8452381 30.5555556,11.5277778 31.3095238,10.8928571 C32.0833333,10.2579365 32.4603175,9.42460317 32.4603175,8.41269841 C32.4801587,7.38095238 32.1825397,6.60714286 31.5873016,6.07142857 Z" id="Shape"></path>
                </g>
            </g>
        </g>
        <text id="Não-se-preocupe-com" font-family="Dosis-Medium, Dosis" font-size="20" font-weight="400" line-spacing="30" fill="#FFFFFF">
            <tspan x="65.62" y="354">Não se preocupe com horário!</tspan>
            <tspan x="119.98" y="384">Atendemos 24h</tspan>
        </text>
        <text id="Vocês-são-como-famíl" font-family="Dosis-Regular, Dosis" font-size="14" font-weight="normal" line-spacing="21" fill="#FFFFFF">
            <tspan x="102.461" y="415">Vocês são como família, e por </tspan>
            <tspan x="108.551" y="436">isso, não deixamos na mão.</tspan>
        </text>
        <circle id="Oval" stroke="#FFFFFF" cx="173" cy="572" r="4"></circle>
        <circle id="Oval-Copy" stroke="#FFFFFF" cx="201" cy="572" r="4"></circle>
        <circle id="Oval" stroke="#FFFFFF" cx="159" cy="572" r="4"></circle>
        <circle id="Oval-Copy-2" stroke="#FFFFFF" fill="#FFFFFF" cx="187" cy="572" r="4"></circle>
        <g id="Material/Android/Status-bar-360dp-light-gray">
            <rect id="status-bar-bg" fill="#008CCC" opacity="0" x="0" y="0" width="360" height="24"></rect>
            <g id="status-bar-contents" stroke-width="1" transform="translate(256.000000, 4.000000)">
                <g id="time" opacity="0.9" transform="translate(68.000000, 0.000000)" fill="#FFFFFF" font-family="Dosis-Regular, Dosis" font-size="14" font-weight="normal">
                    <text id="12:30">
                        <tspan x="0.98" y="14">12:30</tspan>
                    </text>
                </g>
                <g id="battery" transform="translate(41.000000, 0.000000)">
                    <polygon id="bounds" points="0 0 16 0 16 16 0 16"></polygon>
                    <polygon id="Shape" fill-opacity="0.600000024" fill="#FFFFFF" points="9 1.875 9 1 6 1 6 1.875 3 1.875 3 15 12 15 12 1.875"></polygon>
                </g>
                <g id="cellular" transform="translate(21.000000, 0.000000)">
                    <polygon id="bounds" points="0 0 16 0 16 16 0 16"></polygon>
                    <polygon id="Shape" fill-opacity="0.600000024" fill="#FFFFFF" points="0 15 14 15 14 1"></polygon>
                </g>
                <g id="wifi">
                    <polygon id="bounds" points="2 0 18 0 18 16 2 16"></polygon>
                    <path d="M0.977372085,4.01593123 C3.48821908,2.12256382 6.61301513,1 10,1 C13.3869849,1 16.5117809,2.12256382 19.0226279,4.01593123 L10,15 L0.977372085,4.01593123 Z" id="Shape" fill-opacity="0.600000024" fill="#FFFFFF"></path>
                </g>
            </g>
        </g>
        <text id="Próximo" font-family="Dosis-Regular, Dosis" font-size="14" font-weight="normal" fill="#FFFFFF">
            <tspan x="158.02" y="606">Próximo</tspan>
        </text>
    </g>
</svg>