<?xml version="1.0" encoding="UTF-8"?>
<svg width="360px" height="640px" viewBox="0 0 360 640" version="1.1" xmlns="http://www.w3.org/2000/svg" xmlns:xlink="http://www.w3.org/1999/xlink">
    <!-- Generator: Sketch 51.3 (57544) - http://www.bohemiancoding.com/sketch -->
    <title>Boas vindas 1</title>
    <desc>Created with Sketch.</desc>
    <defs></defs>
    <g id="Boas-vindas-1" stroke="none" stroke-width="1" fill="none" fill-rule="evenodd">
        <rect id="Rectangle-6" fill="#008CCC" x="0" y="0" width="360" height="640"></rect>
        <g id="1" transform="translate(130.000000, 225.000000)">
            <g id="search">
                <path d="M98.0326733,89.2982178 L78.5352475,69.8007921 C78.6912871,69.1768317 78.6912871,68.4750495 78.6912871,67.7730693 C78.6912871,61.7679208 73.7780198,56.8546535 67.7728713,56.8546535 C61.7677228,56.8546535 56.8544554,61.7679208 56.8544554,67.7730693 C56.8544554,73.7782178 61.7677228,78.6914851 67.7728713,78.6914851 C68.4748515,78.6914851 69.1766337,78.6134653 69.8005941,78.5354455 L89.22,98.0328713 C91.6376238,100.450495 95.5372277,100.450495 97.9548515,98.0328713 C100.450297,95.6154455 100.450297,91.7158416 98.0326733,89.2982178 Z M98.0326733,89.2982178 L78.5352475,69.8007921 C78.6912871,69.1768317 78.6912871,68.4750495 78.6912871,67.7730693 C78.6912871,61.7679208 73.7780198,56.8546535 67.7728713,56.8546535 C61.7677228,56.8546535 56.8544554,61.7679208 56.8544554,67.7730693 C56.8544554,73.7782178 61.7677228,78.6914851 67.7728713,78.6914851 C68.4748515,78.6914851 69.1766337,78.6134653 69.8005941,78.5354455 L89.22,98.0328713 C91.6376238,100.450495 95.5372277,100.450495 97.9548515,98.0328713 C100.450297,95.6154455 100.450297,91.7158416 98.0326733,89.2982178 Z" id="Shape" fill="#B7854E" fill-rule="nonzero"></path>
                <path d="M57.7120792,63.7176238 C59.9738614,65.4334653 62.469505,67.4611881 63.9512871,69.5667327 C65.9790099,72.3742574 67.5388119,75.1819802 69.0986139,78.2235644 L69.3326733,78.6914851 L69.8005941,78.6134653 L71.750297,80.5631683 L70.1124752,77.599604 C68.4746535,74.5580198 66.9928713,71.6724752 64.8871287,68.7867327 C63.2493069,66.5249505 60.519802,64.3413861 58.18,62.5475248 C58.1019802,62.9378218 57.8681188,63.3277228 57.7120792,63.7176238 Z M83.8386139,89.0641584 C82.0449505,85.3986139 80.7970297,82.1231683 79.6271287,79.159604 C77.3653465,73.2324752 75.649703,68.9429703 71.5162376,67.0712871 C69.3324752,66.1354455 68.1627723,65.9794059 67.5388119,66.7594059 C66.5249505,67.9293069 67.7728713,70.3469307 71.2043564,75.650099 L78.6132673,87.1924752 C78.6912871,87.270495 78.6912871,87.3485149 78.7693069,87.3485149 C79.0033663,87.5045545 79.2372277,87.5045545 79.4712871,87.3485149 C79.7831683,87.1924752 79.8611881,86.8025743 79.6273267,86.4906931 L72.2184158,74.9483168 C71.0485149,73.1546535 68.0069307,68.3192079 68.4748515,67.5394059 C68.4748515,67.5394059 68.8647525,67.3053465 70.970495,68.2413861 C74.6360396,69.8792079 76.1958416,73.7786139 78.4574257,79.6279208 C79.5493069,82.5134653 80.8750495,85.8671287 82.6689109,89.610495 C83.2928713,90.9362376 83.7607921,91.950099 84.1506931,92.8861386 L86.3344554,95.069901 C85.9441584,93.7435644 85.1643564,91.8718812 83.8386139,89.0641584 Z M92.1053465,98.4229703 C89.6877228,93.8215842 87.1920792,89.0641584 86.100198,86.1786139 C85.7883168,85.3988119 85.5542574,84.5407921 85.2423762,83.6829703 C83.9166337,79.7835644 82.2788119,75.0261386 79.2372277,70.5807921 L78.5352475,69.8788119 L78.5352475,69.6447525 C76.5075248,66.9930693 73.9338614,64.4974257 70.580396,62.469703 L67.8506931,62.469703 C78.3792079,67.3829703 81.7328713,77.209703 84.0724752,84.0726733 C84.3843564,85.0085149 84.6964356,85.7885149 84.930297,86.6463366 C86.0221782,89.609901 88.5178218,94.4453465 90.9354455,99.0467327 C91.0134653,99.1247525 91.0134653,99.2027723 91.0914851,99.3586139 C91.6374257,99.5926733 92.1833663,99.7485149 92.8073267,99.8265347 L92.1053465,98.4229703 Z M65.6669307,78.5356436 C66.1348515,78.6136634 66.6807921,78.6916832 67.2267327,78.6916832 C64.8091089,74.090297 62.2354455,69.8009901 57.0881188,66.2912871 C57.010099,66.7592079 57.010099,67.2271287 56.9320792,67.7730693 C61.1435644,70.8146535 63.4833663,74.480198 65.6669307,78.5356436 Z M77.2875248,62.469901 L76.039604,62.469901 C76.7415842,62.9378218 77.3653465,63.4837624 77.9893069,64.029703 C77.8332673,63.4837624 77.5994059,62.9378218 77.2875248,62.469901 Z M95.3809901,93.6655446 C93.9772277,89.9219802 93.5873267,87.1144554 94.2891089,85.6326733 L93.3532673,84.6968317 C92.4954455,86.1786139 92.2613861,88.9083168 94.2110891,94.1334653 C94.8350495,95.6932673 95.5368317,97.4869307 96.3168317,99.2807921 C96.7067327,99.1247525 97.0966337,98.8908911 97.4087129,98.5788119 C96.7067327,97.0192079 96.0827723,95.3813861 95.3809901,93.6655446 Z M99.7483168,92.8077228 C99.670297,92.0279208 99.3584158,91.2479208 98.9685149,90.5459406 C98.3445545,91.949703 98.3445545,94.2114851 98.9685149,96.8631683 C99.4364356,96.0833663 99.7483168,95.1473267 99.8263366,94.289505 C99.7483168,93.7435644 99.7483168,93.2756436 99.7483168,92.8077228 Z M95.6148515,99.5148515 C92.1833663,92.0279208 89.0637624,83.9950495 86.8019802,78.0677228 L84.6182178,75.8839604 L85.1641584,77.2877228 C88.1277228,85.0087129 91.1693069,92.8075248 94.3669307,99.8267327 C94.8350495,99.7487129 95.2249505,99.6708911 95.6148515,99.5148515 Z" id="Shape" fill="#BE8D54" fill-rule="nonzero"></path>
                <path d="M99.0465347,96.7071287 C100.372277,94.3675248 100.060396,91.3259406 98.0326733,89.2982178 L78.6132673,69.8007921 C78.7693069,69.1768317 78.7693069,68.4750495 78.7693069,67.7730693 C78.7693069,61.7679208 73.8560396,56.8546535 67.8508911,56.8546535 C65.4332673,56.8546535 63.249505,57.6344554 61.3778218,58.960396 C60.0520792,60.8320792 59.2720792,63.0938614 59.2720792,65.5114851 C59.2720792,71.5166337 64.1853465,76.429901 70.190495,76.429901 C70.8924752,76.429901 71.5942574,76.3518812 72.2182178,76.2738614 L91.6376238,95.7712871 C93.6651485,97.7209901 96.7067327,98.0330693 99.0465347,96.7071287 Z" id="Shape" fill="#CC9357" fill-rule="nonzero"></path>
                <path d="M62.0015842,72.6865347 C62.9374257,73.700396 64.0293069,74.5582178 65.1992079,75.1821782 C63.7174257,72.7645545 62.0015842,70.4247525 59.6619802,68.3192079 C59.9738614,69.6449505 60.5978218,70.8148515 61.3778218,71.9067327 C61.3776238,71.9065347 62.0015842,72.6865347 62.0015842,72.6865347 Z M95.3809901,93.6655446 C93.9772277,89.9219802 93.5873267,87.1144554 94.2891089,85.6326733 L93.3532673,84.6968317 C92.4954455,86.1786139 92.2613861,88.9083168 94.2110891,94.1334653 C94.6009901,95.1473267 95.0689109,96.3172277 95.5368317,97.4869307 C96.0047525,97.4869307 96.4726733,97.4869307 96.8625743,97.4089109 C96.3948515,96.2392079 95.9269307,94.9134653 95.3809901,93.6655446 Z M99.7483168,92.8077228 C99.670297,92.0279208 99.3584158,91.2479208 98.9685149,90.5459406 C98.3445545,91.8716832 98.3445545,94.1334653 98.890495,96.7071287 C98.890495,96.7071287 98.9685149,96.7071287 98.9685149,96.6291089 C99.4364356,95.8493069 99.670495,94.9132673 99.7483168,94.0554455 L99.7483168,92.8077228 Z M59.2718812,64.9655446 C61.0655446,66.3693069 62.7813861,68.0071287 63.9512871,69.5669307 C65.5891089,71.7506931 66.8368317,73.9342574 68.0847525,76.1960396 C68.5526733,76.2740594 69.0986139,76.3520792 69.6445545,76.3520792 C68.2407921,73.7784158 66.8370297,71.2827723 65.0431683,68.7871287 C63.6394059,66.9154455 61.5336634,65.0435644 59.5059406,63.4837624 C59.349901,63.9516832 59.349901,64.419604 59.2718812,64.9655446 Z M86.8021782,78.0677228 L84.6184158,75.8839604 L85.1643564,77.2877228 C87.66,83.8388119 90.3116832,90.5459406 93.0411881,96.6291089 C93.5871287,96.9409901 94.1330693,97.1750495 94.6790099,97.2530693 C91.5594059,90.4681188 88.829901,83.4491089 86.8021782,78.0677228 Z M77.2875248,62.469901 L76.039604,62.469901 C76.7415842,62.9378218 77.3653465,63.4837624 77.9893069,64.029703 C77.8332673,63.4837624 77.5994059,62.9378218 77.2875248,62.469901 Z M86.1782178,86.1005941 C85.8663366,85.3207921 85.6322772,84.4627723 85.320396,83.6049505 C83.9946535,79.7055446 82.3568317,74.9481188 79.3152475,70.5027723 L78.6132673,69.8007921 L78.6132673,69.5667327 C76.5855446,66.9150495 74.0118812,64.4194059 70.6584158,62.3916832 L67.8508911,62.3916832 C78.3794059,67.3049505 81.7330693,77.1316832 84.0726733,83.9946535 C84.3845545,84.930495 84.6966337,85.710495 84.930495,86.5683168 C85.320396,87.7382178 86.0223762,89.22 86.8021782,90.8578218 L89.609703,93.6653465 C88.1279208,90.78 86.8021782,88.050495 86.1782178,86.1005941 Z M71.5162376,67.0712871 C69.3324752,66.1354455 68.1627723,65.9794059 67.5388119,66.7594059 C66.5249505,67.9293069 67.7728713,70.3469307 71.2043564,75.650099 L71.5942574,76.2740594 L72.2182178,76.1960396 L74.48,78.4578218 L72.2182178,74.9483168 C71.0483168,73.1546535 68.0067327,68.3192079 68.4746535,67.5394059 C68.4746535,67.5394059 68.8645545,67.3053465 70.970297,68.2413861 C74.6358416,69.8792079 76.1956436,73.7786139 78.4572277,79.6279208 C79.0031683,81.109703 79.6271287,82.669505 80.3289109,84.3073267 L82.7465347,86.7249505 C81.4986139,83.9174257 80.4847525,81.4215842 79.6269307,79.16 C77.3653465,73.2324752 75.649703,68.9429703 71.5162376,67.0712871 Z" id="Shape" fill="#D49D5E" fill-rule="nonzero"></path>
                <path d="M40.5544554,7.79940594 C58.6479208,7.79940594 73.309901,22.4613861 73.309901,40.5548515 C73.309901,58.6483168 58.6479208,73.310495 40.5544554,73.310495 C22.4609901,73.310495 7.7990099,58.6483168 7.7990099,40.5548515 C7.7990099,22.4613861 22.4609901,7.79940594 40.5544554,7.79940594 Z" id="Shape" fill="#00ACEA" fill-rule="nonzero"></path>
                <path d="M40.5544554,7.79940594 C30.7277228,7.79940594 21.9150495,12.1667327 15.909901,19.029901 C21.6811881,13.9605941 29.1681188,10.9190099 37.4350495,10.9190099 C55.5285149,10.9190099 70.190495,25.5809901 70.190495,43.6744554 C70.190495,51.9413861 67.1489109,59.4283168 62.079604,65.199604 C68.9425743,59.1944554 73.310099,50.3815842 73.310099,40.5550495 C73.309901,22.4613861 58.6479208,7.79940594 40.5544554,7.79940594 Z" id="Shape" fill="#00AFFF" fill-rule="nonzero"></path>
                <path d="M40.5544554,0.000396039604 C18.1714851,0.000396039604 0,18.1718812 0,40.5548515 C0,62.9378218 18.1714851,81.1093069 40.5544554,81.1093069 C62.9374257,81.1093069 81.1089109,62.9378218 81.1089109,40.5548515 C81.1089109,18.1718812 62.9374257,0.000396039604 40.5544554,0.000396039604 Z M40.5544554,72.530495 C22.9289109,72.530495 8.57881188,58.180396 8.57881188,40.5548515 C8.57881188,22.9293069 22.9289109,8.57920792 40.5544554,8.57920792 C58.18,8.57920792 72.530099,22.9293069 72.530099,40.5548515 C72.530099,58.180396 58.18,72.530495 40.5544554,72.530495 Z M40.5544554,0.000396039604 C18.1714851,0.000396039604 0,18.1718812 0,40.5548515 C0,62.9378218 18.1714851,81.1093069 40.5544554,81.1093069 C62.9374257,81.1093069 81.1089109,62.9378218 81.1089109,40.5548515 C81.1089109,18.1718812 62.9374257,0.000396039604 40.5544554,0.000396039604 Z M40.5544554,72.530495 C22.9289109,72.530495 8.57881188,58.180396 8.57881188,40.5548515 C8.57881188,22.9293069 22.9289109,8.57920792 40.5544554,8.57920792 C58.18,8.57920792 72.530099,22.9293069 72.530099,40.5548515 C72.530099,58.180396 58.18,72.530495 40.5544554,72.530495 Z" id="Shape" fill="#083863" fill-rule="nonzero"></path>
            </g>
        </g>
        <text id="Procure-por-medicame" font-family="Dosis-Medium, Dosis" font-size="20" font-weight="400" fill="#FFFFFF">
            <tspan x="75" y="354">Procure por medicamentos</tspan>
        </text>
        <text id="Você-pode-filtrar-e" font-family="Dosis-Regular, Dosis" font-size="14" font-weight="normal" line-spacing="21" fill="#FFFFFF">
            <tspan x="99.724" y="381">Você pode filtrar e encontrar o </tspan>
            <tspan x="101.292" y="402">medicamento ideal para você.</tspan>
        </text>
        <circle id="Oval" stroke="#FFFFFF" cx="173" cy="572" r="4"></circle>
        <circle id="Oval-Copy" stroke="#FFFFFF" cx="201" cy="572" r="4"></circle>
        <circle id="Oval" stroke="#FFFFFF" fill="#FFFFFF" cx="159" cy="572" r="4"></circle>
        <circle id="Oval-Copy-2" stroke="#FFFFFF" cx="187" cy="572" r="4"></circle>
        <g id="Material/Android/Status-bar-360dp-light-gray">
            <rect id="status-bar-bg" fill="#008CCC" opacity="0" x="0" y="0" width="360" height="24"></rect>
            <g id="status-bar-contents" stroke-width="1" transform="translate(256.000000, 4.000000)">
                <g id="time" opacity="0.9" transform="translate(68.000000, 0.000000)" fill="#FFFFFF" font-family="Dosis-Regular, Dosis" font-size="14" font-weight="normal">
                    <text id="12:30">
                        <tspan x="0.98" y="14">12:30</tspan>
                    </text>
                </g>
                <g id="battery" transform="translate(41.000000, 0.000000)">
                    <polygon id="bounds" points="0 0 16 0 16 16 0 16"></polygon>
                    <polygon id="Shape" fill-opacity="0.600000024" fill="#FFFFFF" points="9 1.875 9 1 6 1 6 1.875 3 1.875 3 15 12 15 12 1.875"></polygon>
                </g>
                <g id="cellular" transform="translate(21.000000, 0.000000)">
                    <polygon id="bounds" points="0 0 16 0 16 16 0 16"></polygon>
                    <polygon id="Shape" fill-opacity="0.600000024" fill="#FFFFFF" points="0 15 14 15 14 1"></polygon>
                </g>
                <g id="wifi">
                    <polygon id="bounds" points="2 0 18 0 18 16 2 16"></polygon>
                    <path d="M0.977372085,4.01593123 C3.48821908,2.12256382 6.61301513,1 10,1 C13.3869849,1 16.5117809,2.12256382 19.0226279,4.01593123 L10,15 L0.977372085,4.01593123 Z" id="Shape" fill-opacity="0.600000024" fill="#FFFFFF"></path>
                </g>
            </g>
        </g>
        <text id="Próximo" font-family="Dosis-Regular, Dosis" font-size="14" font-weight="normal" fill="#FFFFFF">
            <tspan x="158.02" y="606">Próximo</tspan>
        </text>
    </g>
</svg>