<?xml version="1.0" encoding="UTF-8"?>
<svg width="360px" height="640px" viewBox="0 0 360 640" version="1.1" xmlns="http://www.w3.org/2000/svg" xmlns:xlink="http://www.w3.org/1999/xlink">
    <!-- Generator: Sketch 51.3 (57544) - http://www.bohemiancoding.com/sketch -->
    <title>Boas vindas 2</title>
    <desc>Created with Sketch.</desc>
    <defs></defs>
    <g id="Boas-vindas-2" stroke="none" stroke-width="1" fill="none" fill-rule="evenodd">
        <rect id="Rectangle-6" fill="#008CCC" x="0" y="0" width="360" height="640"></rect>
        <g id="2" transform="translate(130.000000, 225.000000)">
            <g id="house" transform="translate(0.000000, 6.000000)">
                <polyline id="Shape" fill="#4E2D0D" fill-rule="nonzero" points="25.5754386 62.1744639 25.5754386 83.0083821 16.8348928 83.0083821 16.8348928 62.1711501"></polyline>
                <polyline id="Shape" fill="#673106" fill-rule="nonzero" points="20.7335283 62.1744639 20.7335283 83.0083821 16.8348928 83.0083821 16.8348928 62.1711501"></polyline>
                <ellipse id="Oval" fill="#00EFD1" fill-rule="nonzero" cx="21.2050682" cy="33.4099415" rx="21.2050682" ry="33.3362573"></ellipse>
                <path d="M21.2050682,66.7467836 C9.49278752,66.7467836 0,51.8206628 0,33.4105263 C0,15.0003899 9.49278752,0.0742690058 21.2050682,0.0742690058 C16.0196881,0.0742690058 11.8181287,15.0003899 11.8181287,33.4105263 C11.8181287,51.8206628 16.0196881,66.7467836 21.2050682,66.7467836 Z" id="Shape" fill="#16CAB3" fill-rule="nonzero"></path>
                <polygon id="Shape" fill="#DCF4FF" fill-rule="nonzero" points="91.3641326 45.5910331 91.3641326 88.0352827 35.6803119 88.0352827 35.6803119 45.5910331 63.6791423 18.4306043"></polygon>
                <polyline id="Shape" fill="#0C487E" fill-rule="nonzero" points="77.7391813 30.6054581 77.7391813 22.7653021 91.6602339 22.7653021 91.6602339 43.862963"></polyline>
                <polyline id="Shape" fill="#073359" fill-rule="nonzero" points="77.7391813 30.6054581 77.7391813 22.7653021 81.0824561 22.7653021 81.0824561 43.862963"></polyline>
                <g id="Group" transform="translate(0.000000, 78.947368)" fill="#00EFD1" fill-rule="nonzero">
                    <path d="M69.045614,0.194152047 L96.9475634,0.194152047 C98.525731,0.194152047 99.8052632,1.47348928 99.8052632,3.05185185 L99.8052632,9.08830409 L66.1879142,9.08830409 L66.1879142,3.05185185 C66.1879142,1.47348928 67.4672515,0.194152047 69.045614,0.194152047 Z" id="Shape"></path>
                    <path d="M2.85769981,0.194152047 L35.2214425,0.194152047 C36.7996101,0.194152047 38.0791423,1.47348928 38.0791423,3.05185185 L38.0791423,9.08830409 L0,9.08830409 L0,3.05185185 C0,1.47348928 1.27933723,0.194152047 2.85769981,0.194152047 Z" id="Shape"></path>
                </g>
                <polygon id="Shape" fill="#D1E9FF" fill-rule="nonzero" points="91.3641326 47.2573099 91.3641326 55.1908382 63.5222222 28.6076023 35.6803119 55.1908382 35.6803119 47.2573099 61.3109162 22.8465887 63.5222222 20.7925926 65.7317739 22.8465887"></polygon>
                <polygon id="Shape" fill="#083863" fill-rule="nonzero" points="63.5214425 24.1925926 31.8218324 54.4576998 27.3892788 50.7366472 61.311306 18.4306043 63.5214425 16.3775828 65.7319688 18.4306043 99.6539961 50.7366472 95.2214425 54.4576998"></polygon>
                <rect id="Rectangle-path" fill="#FFFFFF" fill-rule="nonzero" x="42.4916179" y="56.2350877" width="18.3633528" height="31.7996101"></rect>
                <path d="M62.1777778,88.0352827 L59.5350877,88.0352827 L59.5350877,57.5559454 L43.8138402,57.5559454 L43.8138402,88.0352827 L41.171345,88.0352827 L41.171345,56.2346979 C41.171345,55.5048733 41.762768,54.9134503 42.4925926,54.9134503 L60.8565302,54.9134503 C61.5863548,54.9134503 62.1777778,55.5048733 62.1777778,56.2346979 L62.1777778,88.0352827 Z" id="Shape" fill="#00AFFF" fill-rule="nonzero"></path>
                <rect id="Rectangle-path" fill="#A0D9F2" fill-rule="nonzero" x="66.1888889" y="56.2350877" width="20.9124756" height="18.3633528"></rect>
                <rect id="Rectangle-path" fill="#083863" fill-rule="nonzero" x="66.1888889" y="56.2350877" width="20.9124756" height="5.58011696"></rect>
                <g id="Group" transform="translate(52.631579, 54.775828)" fill-rule="nonzero">
                    <path d="M34.4682261,21.1442495 L13.5563353,21.1442495 C12.8265107,21.1442495 12.2350877,20.5528265 12.2350877,19.8230019 L12.2350877,1.45925926 C12.2350877,0.729434698 12.8265107,0.138011696 13.5563353,0.138011696 L34.4684211,0.138011696 C35.1982456,0.138011696 35.7896686,0.729434698 35.7896686,1.45925926 L35.7896686,19.8230019 C35.7894737,20.5524366 35.1980507,21.1442495 34.4682261,21.1442495 Z M14.8775828,18.5017544 L33.1471735,18.5017544 L33.1471735,2.78050682 L14.8775828,2.78050682 L14.8775828,18.5017544 Z" id="Shape" fill="#00AFFF"></path>
                    <path d="M4.09805068,18.5785575 L1.43255361,18.5785575 C0.702729045,18.5785575 0.111306043,17.9871345 0.111306043,17.2573099 C0.111306043,16.5274854 0.702729045,15.9360624 1.43255361,15.9360624 L4.09805068,15.9360624 C4.82787524,15.9360624 5.41929825,16.5274854 5.41929825,17.2573099 C5.41929825,17.9871345 4.82768031,18.5785575 4.09805068,18.5785575 Z" id="Shape" fill="#008CCC"></path>
                </g>
                <circle id="Oval" fill="#008CCC" fill-rule="nonzero" cx="63.5220273" cy="42.0448343" r="5.10818713"></circle>
                <rect id="Rectangle-path" fill="#008CCC" fill-rule="nonzero" x="66.1888889" y="60.4935673" width="20.9124756" height="2.64249513"></rect>
                <path d="M63.5222222,48.4754386 C59.9766082,48.4754386 57.0920078,45.5908382 57.0920078,42.0452242 C57.0920078,38.4996101 59.9764133,35.6150097 63.5222222,35.6150097 C67.0680312,35.6150097 69.9526316,38.4996101 69.9526316,42.0452242 C69.9524366,45.5908382 67.0678363,48.4754386 63.5222222,48.4754386 Z M63.5222222,38.2575049 C61.4339181,38.2575049 59.7345029,39.9567251 59.7345029,42.0452242 C59.7345029,44.1337232 61.4337232,45.8329435 63.5222222,45.8329435 C65.6107212,45.8329435 67.3101365,44.1337232 67.3101365,42.0452242 C67.3101365,39.9567251 65.6107212,38.2575049 63.5222222,38.2575049 Z" id="Shape" fill="#083863" fill-rule="nonzero"></path>
                <g id="Group" transform="translate(2.534113, 74.658869)" fill="#00FFDF" fill-rule="nonzero">
                    <path d="M6.61306043,7.02339181 C5.77095517,7.02339181 5.08849903,6.34074074 5.08849903,5.49883041 L5.08849903,1.6417154 C5.08849903,0.799805068 5.77095517,0.117153996 6.61306043,0.117153996 C7.45516569,0.117153996 8.13762183,0.799805068 8.13762183,1.6417154 L8.13762183,5.49883041 C8.13762183,6.34093567 7.45497076,7.02339181 6.61306043,7.02339181 Z" id="Shape"></path>
                    <path d="M1.71598441,7.02339181 C0.873879142,7.02339181 0.191423002,6.34074074 0.191423002,5.49883041 L0.191423002,1.6417154 C0.191423002,0.799805068 0.873879142,0.117153996 1.71598441,0.117153996 C2.55808967,0.117153996 3.24054581,0.799805068 3.24054581,1.6417154 L3.24054581,5.49883041 C3.24054581,6.34093567 2.55808967,7.02339181 1.71598441,7.02339181 Z" id="Shape"></path>
                    <path d="M28.0935673,7.02339181 C27.251462,7.02339181 26.5690058,6.34074074 26.5690058,5.49883041 L26.5690058,1.6417154 C26.5690058,0.799805068 27.251462,0.117153996 28.0935673,0.117153996 C28.9356725,0.117153996 29.6181287,0.799805068 29.6181287,1.6417154 L29.6181287,5.49883041 C29.6181287,6.34093567 28.9358674,7.02339181 28.0935673,7.02339181 Z" id="Shape"></path>
                </g>
            </g>
        </g>
        <text id="Receba-seus-medicame" font-family="Dosis-Medium, Dosis" font-size="20" font-weight="400" line-spacing="30" fill="#FFFFFF">
            <tspan x="73.46" y="354">Receba seus medicamentos</tspan>
            <tspan x="117.58" y="384">sem sair de casa</tspan>
        </text>
        <text id="Segurança-e-rapidez" font-family="Dosis-Regular, Dosis" font-size="14" font-weight="normal" line-spacing="21" fill="#FFFFFF">
            <tspan x="96.665" y="415">Segurança e rapidez na entrega </tspan>
            <tspan x="115.117" y="436">dos seus medicamentos.</tspan>
        </text>
        <circle id="Oval" stroke="#FFFFFF" fill="#FFFFFF" cx="173" cy="572" r="4"></circle>
        <circle id="Oval-Copy" stroke="#FFFFFF" cx="201" cy="572" r="4"></circle>
        <circle id="Oval" stroke="#FFFFFF" cx="159" cy="572" r="4"></circle>
        <circle id="Oval-Copy-2" stroke="#FFFFFF" cx="187" cy="572" r="4"></circle>
        <g id="Material/Android/Status-bar-360dp-light-gray">
            <rect id="status-bar-bg" fill="#008CCC" opacity="0" x="0" y="0" width="360" height="24"></rect>
            <g id="status-bar-contents" stroke-width="1" transform="translate(256.000000, 4.000000)">
                <g id="time" opacity="0.9" transform="translate(68.000000, 0.000000)" fill="#FFFFFF" font-family="Dosis-Regular, Dosis" font-size="14" font-weight="normal">
                    <text id="12:30">
                        <tspan x="0.98" y="14">12:30</tspan>
                    </text>
                </g>
                <g id="battery" transform="translate(41.000000, 0.000000)">
                    <polygon id="bounds" points="0 0 16 0 16 16 0 16"></polygon>
                    <polygon id="Shape" fill-opacity="0.600000024" fill="#FFFFFF" points="9 1.875 9 1 6 1 6 1.875 3 1.875 3 15 12 15 12 1.875"></polygon>
                </g>
                <g id="cellular" transform="translate(21.000000, 0.000000)">
                    <polygon id="bounds" points="0 0 16 0 16 16 0 16"></polygon>
                    <polygon id="Shape" fill-opacity="0.600000024" fill="#FFFFFF" points="0 15 14 15 14 1"></polygon>
                </g>
                <g id="wifi">
                    <polygon id="bounds" points="2 0 18 0 18 16 2 16"></polygon>
                    <path d="M0.977372085,4.01593123 C3.48821908,2.12256382 6.61301513,1 10,1 C13.3869849,1 16.5117809,2.12256382 19.0226279,4.01593123 L10,15 L0.977372085,4.01593123 Z" id="Shape" fill-opacity="0.600000024" fill="#FFFFFF"></path>
                </g>
            </g>
        </g>
        <text id="Próximo" font-family="Dosis-Regular, Dosis" font-size="14" font-weight="normal" fill="#FFFFFF">
            <tspan x="158.02" y="606">Próximo</tspan>
        </text>
    </g>
</svg>