<?xml version="1.0" encoding="UTF-8"?>
<svg width="360px" height="640px" viewBox="0 0 360 640" version="1.1" xmlns="http://www.w3.org/2000/svg" xmlns:xlink="http://www.w3.org/1999/xlink">
    <!-- Generator: Sketch 51.3 (57544) - http://www.bohemiancoding.com/sketch -->
    <title>Home - Search Empty</title>
    <desc>Created with Sketch.</desc>
    <defs></defs>
    <g id="Home---Search-Empty" stroke="none" stroke-width="1" fill="none" fill-rule="evenodd">
        <rect id="Rectangle-8" fill="#008CCC" x="0" y="0" width="360" height="162"></rect>
        <g id="MENU" transform="translate(16.000000, 40.000000)" fill="#FFFFFF">
            <g id="menu" transform="translate(0.000000, 4.000000)">
                <path d="M23.0305312,7.37428125 L0.96946875,7.37428125 C0.4340625,7.37428125 0,7.80829687 0,8.34375 C0,8.87920312 0.4340625,9.31321875 0.96946875,9.31321875 L23.0305313,9.31321875 C23.5659844,9.31321875 24,8.87920312 24,8.34375 C24,7.80834375 23.5659844,7.37428125 23.0305312,7.37428125 Z" id="Shape" fill-rule="nonzero"></path>
                <path d="M23.0305312,0.020578125 L0.96946875,0.020578125 C0.4340625,0.020578125 0,0.454640625 0,0.990046875 C0,1.52545312 0.4340625,1.95951562 0.96946875,1.95951562 L23.0305313,1.95951562 C23.5659844,1.95951562 24,1.52545312 24,0.990046875 C24,0.454640625 23.5659844,0.020578125 23.0305312,0.020578125 Z" id="Shape" fill-rule="nonzero"></path>
                <path d="M23.0305312,14.7279844 L0.96946875,14.7279844 C0.4340625,14.7279844 0,15.162 0,15.6974531 C0,16.2329062 0.4340625,16.6669219 0.96946875,16.6669219 L23.0305313,16.6669219 C23.5659844,16.6669219 24,16.2329062 24,15.6974531 C24,15.162 23.5659844,14.7279844 23.0305312,14.7279844 Z" id="Shape" fill-rule="nonzero"></path>
            </g>
        </g>
        <g id="Shop" transform="translate(320.000000, 40.000000)" fill="#FFFFFF">
            <g id="shopping-bag" transform="translate(2.000000, 0.000000)">
                <path d="M19.0914403,20.5813614 L17.7281137,5.229331 C17.6988996,4.88849937 17.4116272,4.63044113 17.0756646,4.63044113 L14.2711072,4.63044113 C14.232155,2.06933489 12.138475,0 9.56763073,0 C6.99678644,0 4.90310644,2.06933489 4.86415425,4.63044113 L2.05959684,4.63044113 C1.71876522,4.63044113 1.43636187,4.88849937 1.40714773,5.229331 L0.0438212095,20.5813614 C0.0438212095,20.6008375 0.0389521862,20.6203136 0.0389521862,20.6397897 C0.0389521862,22.387769 1.64086084,23.8095238 3.61281527,23.8095238 L15.5224462,23.8095238 C17.4944006,23.8095238 19.0963093,22.387769 19.0963093,20.6397897 C19.0963093,20.6203136 19.0963093,20.6008375 19.0914403,20.5813614 Z M9.56763073,1.31463628 C11.4129906,1.31463628 12.9175187,2.79481936 12.9564709,4.63044113 L6.17879053,4.63044113 C6.21774272,2.79481936 7.72227091,1.31463628 9.56763073,1.31463628 Z M15.5224462,22.4948875 L3.61281527,22.4948875 C2.37608336,22.4948875 1.37306456,21.6768916 1.35358847,20.6690038 L2.65848671,5.94994644 L4.85928523,5.94994644 L4.85928523,7.94624598 C4.85928523,8.31142273 5.15142662,8.60356413 5.51660337,8.60356413 C5.88178011,8.60356413 6.17392151,8.31142273 6.17392151,7.94624598 L6.17392151,5.94994644 L12.9564709,5.94994644 L12.9564709,7.94624598 C12.9564709,8.31142273 13.2486123,8.60356413 13.6137891,8.60356413 C13.9789658,8.60356413 14.2711072,8.31142273 14.2711072,7.94624598 L14.2711072,5.94994644 L16.4719057,5.94994644 L17.781673,20.6690038 C17.7621969,21.6768916 16.7543091,22.4948875 15.5224462,22.4948875 Z" id="Shape" fill-rule="nonzero"></path>
            </g>
        </g>
        <g id="Group" transform="translate(16.000000, 106.000000)">
            <rect id="Rectangle" stroke="#FFFFFF" x="0.5" y="0.5" width="327" height="39" rx="4"></rect>
            <text id="Pesquisar-medicament" font-family="Dosis-Regular, Dosis" font-size="14" font-weight="normal" line-spacing="21" fill="#E8E8E8">
                <tspan x="34" y="23">Pesquisar medicamentos, sintomas, etc.</tspan>
            </text>
            <g id="Search" transform="translate(8.000000, 11.000000)" fill="#FFFFFF">
                <g id="search">
                    <path d="M17.4145263,16.3853684 L13.1330526,11.9324211 C14.2338947,10.6237895 14.8370526,8.97726316 14.8370526,7.26315789 C14.8370526,3.25831579 11.5787368,0 7.57389474,0 C3.56905263,0 0.310736842,3.25831579 0.310736842,7.26315789 C0.310736842,11.268 3.56905263,14.5263158 7.57389474,14.5263158 C9.07736842,14.5263158 10.5101053,14.0728421 11.7350526,13.212 L16.0490526,17.6987368 C16.2293684,17.886 16.4718947,17.9892632 16.7317895,17.9892632 C16.9777895,17.9892632 17.2111579,17.8954737 17.3883158,17.7249474 C17.7647368,17.3627368 17.7767368,16.7621053 17.4145263,16.3853684 Z M7.57389474,1.89473684 C10.5341053,1.89473684 12.9423158,4.30294737 12.9423158,7.26315789 C12.9423158,10.2233684 10.5341053,12.6315789 7.57389474,12.6315789 C4.61368421,12.6315789 2.20547368,10.2233684 2.20547368,7.26315789 C2.20547368,4.30294737 4.61368421,1.89473684 7.57389474,1.89473684 Z" id="Shape" fill-rule="nonzero"></path>
                </g>
            </g>
            <g id="Filter" transform="translate(303.000000, 12.000000)" stroke="#FFFFFF">
                <g id="Group" transform="translate(0.000000, 2.266667)">
                    <path d="M2.9,1.76666667 L2.9,1.63333333 L0.5,1.63333333 L0.5,1.76666667 L2.9,1.76666667 Z" id="Rectangle-3"></path>
                    <circle id="Oval" cx="4.53333333" cy="1.13333333" r="1.13333333"></circle>
                    <path d="M6.16666667,1.63333333 L6.16666667,1.76666667 L16.5,1.76666667 L16.5,1.63333333 L6.16666667,1.63333333 Z" id="Rectangle-3"></path>
                </g>
                <g id="Group" transform="translate(8.500000, 7.933333) scale(-1, 1) translate(-8.500000, -7.933333) translate(0.000000, 6.800000)">
                    <path d="M2.9,1.76666667 L2.9,1.63333333 L0.5,1.63333333 L0.5,1.76666667 L2.9,1.76666667 Z" id="Rectangle-3"></path>
                    <circle id="Oval" cx="4.53333333" cy="1.13333333" r="1.13333333"></circle>
                    <path d="M6.16666667,1.63333333 L6.16666667,1.76666667 L16.5,1.76666667 L16.5,1.63333333 L6.16666667,1.63333333 Z" id="Rectangle-3"></path>
                </g>
                <g id="Group" transform="translate(0.000000, 11.333333)">
                    <path d="M2.9,1.76666667 L2.9,1.63333333 L0.5,1.63333333 L0.5,1.76666667 L2.9,1.76666667 Z" id="Rectangle-3"></path>
                    <circle id="Oval" cx="4.53333333" cy="1.13333333" r="1.13333333"></circle>
                    <path d="M6.16666667,1.63333333 L6.16666667,1.76666667 L16.5,1.76666667 L16.5,1.63333333 L6.16666667,1.63333333 Z" id="Rectangle-3"></path>
                </g>
            </g>
            <rect id="Rectangle-5" fill="#FFFFFF" x="294" y="8" width="1" height="24"></rect>
        </g>
        <g id="Material/Android/Status-bar-360dp-light-gray">
            <rect id="status-bar-bg" fill="#008CCC" opacity="0" x="0" y="0" width="360" height="24"></rect>
            <g id="status-bar-contents" stroke-width="1" transform="translate(256.000000, 4.000000)">
                <g id="time" opacity="0.9" transform="translate(68.000000, 0.000000)" fill="#FFFFFF" font-family="Dosis-Regular, Dosis" font-size="14" font-weight="normal">
                    <text id="12:30">
                        <tspan x="0.98" y="14">12:30</tspan>
                    </text>
                </g>
                <g id="battery" transform="translate(41.000000, 0.000000)">
                    <polygon id="bounds" points="0 0 16 0 16 16 0 16"></polygon>
                    <polygon id="Shape" fill-opacity="0.600000024" fill="#FFFFFF" points="9 1.875 9 1 6 1 6 1.875 3 1.875 3 15 12 15 12 1.875"></polygon>
                </g>
                <g id="cellular" transform="translate(21.000000, 0.000000)">
                    <polygon id="bounds" points="0 0 16 0 16 16 0 16"></polygon>
                    <polygon id="Shape" fill-opacity="0.600000024" fill="#FFFFFF" points="0 15 14 15 14 1"></polygon>
                </g>
                <g id="wifi">
                    <polygon id="bounds" points="2 0 18 0 18 16 2 16"></polygon>
                    <path d="M0.977372085,4.01593123 C3.48821908,2.12256382 6.61301513,1 10,1 C13.3869849,1 16.5117809,2.12256382 19.0226279,4.01593123 L10,15 L0.977372085,4.01593123 Z" id="Shape" fill-opacity="0.600000024" fill="#FFFFFF"></path>
                </g>
            </g>
        </g>
        <g id="Mediquei" transform="translate(100.000000, 40.000000)">
            <g id="Ativo-2" transform="translate(0.000000, 8.000000)">
                <path d="M2.59923372,14.5900383 L0.539463602,6.88429119 C-0.16491223,4.10658463 1.51418605,1.28339488 4.29118774,0.576245211 C5.62039131,0.190765851 7.04843718,0.351223016 8.25895067,1.02206842 C9.46946416,1.69291382 10.3625066,2.81876318 10.7402299,4.15019157 L12.8061303,11.8559387 L2.59923372,14.5900383 Z" id="Shape" stroke="#FFFFFF" stroke-width="1.2"></path>
                <path d="M13.2291188,13.4252874 L15.2888889,21.1310345 C15.626373,22.468384 15.4178927,23.8850565 14.7094459,25.0684847 C14.000999,26.2519129 12.8508076,27.10484 11.5126437,27.4390805 C8.75164499,28.2262288 5.87529977,26.6261246 5.08812261,23.8651341 L3.02222222,16.159387 L13.2291188,13.4252874 Z" id="Shape" stroke="#FFFFFF" stroke-width="1.2" fill="#FFFFFF" fill-rule="nonzero"></path>
                <circle id="Oval" fill="#FFFFFF" fill-rule="nonzero" cx="5.19233716" cy="3.61072797" r="1"></circle>
                <circle id="Oval" fill="#FFFFFF" fill-rule="nonzero" cx="3.29195402" cy="6.84750958" r="1"></circle>
                <circle id="Oval" fill="#FFFFFF" fill-rule="nonzero" cx="8.49042146" cy="6.27126437" r="1"></circle>
                <circle id="Oval" fill="#FFFFFF" fill-rule="nonzero" cx="9.42835249" cy="8" r="1"></circle>
                <polyline id="Shape" stroke="#FFFFFF" stroke-width="0.9" points="6.20383142 13.6214559 4.58544061 7.57701149 3.29195402 6.84750958"></polyline>
                <path d="M7.76704981,13.2045977 L5.19233716,3.61072797" id="Shape" stroke="#FFFFFF" stroke-width="0.9"></path>
                <polyline id="Shape" stroke="#FFFFFF" stroke-width="0.9" points="8.49042146 6.27126437 7.44827586 8.06743295 8.75402299 12.9409962"></polyline>
                <polyline id="Shape" stroke="#FFFFFF" stroke-width="0.9" points="9.42835249 8 9.25057471 9.77777778 8.32490421 11.3287356"></polyline>
                <path d="M30.2283525,8.00613027 L33.7226054,7.54636015 L33.9126437,10.9670498 C34.3301127,9.8259719 35.1094846,8.85283349 36.1318008,8.19616858 C37.1857946,7.54557642 38.4062032,7.21544843 39.6444444,7.24597701 C40.8711409,7.17397388 42.0899379,7.48456362 43.132567,8.1348659 C44.0112094,8.78628126 44.6406705,9.71857575 44.9164751,10.7770115 C45.7361559,8.53668285 47.9299657,7.10073465 50.3111111,7.24597701 C52.4403576,7.24597701 53.9197957,7.83448276 54.7494253,9.01149425 C55.5790549,10.1885057 55.9877395,11.9785441 55.9754789,14.3816092 L55.9754789,24.251341 C55.9754789,25.4773946 56.3678161,26.3295019 57.1524904,26.7586207 C56.9323672,27.1528258 56.5841325,27.4599645 56.1655172,27.6291188 C55.7101961,27.8319101 55.2172126,27.9363558 54.7187739,27.9356322 C53.8977474,27.9985367 53.0912757,27.6930209 52.5180077,27.1019157 C52.0023949,26.429656 51.7476129,25.5934484 51.8007663,24.7478927 L51.8007663,14.9394636 C51.863599,13.7264812 51.6822368,12.5132306 51.267433,11.3716475 C50.9118774,10.5869732 50.1272031,10.194636 48.91341,10.194636 C47.5884427,10.110499 46.3849416,10.9639372 46.0260536,12.2421456 C45.5199552,13.945455 45.2963041,15.7201679 45.3639847,17.4957854 L45.3639847,27.3655172 L41.1586207,27.3655172 L41.1586207,14.9149425 C41.2201197,13.7025295 41.0409396,12.4899385 40.6314176,11.3471264 C40.2758621,10.5624521 39.4911877,10.1701149 38.2773946,10.1701149 C36.9083815,10.0740408 35.6477198,10.9161629 35.2122605,12.2176245 C34.6402131,13.9165418 34.3765494,15.7040572 34.4337165,17.4957854 L34.4337165,27.3655172 L30.2283525,27.3655172 L30.2283525,8.00613027 Z" id="Shape" fill="#FFFFFF" fill-rule="nonzero"></path>
                <path d="M72.5210728,23.6444444 C72.5291128,24.5335704 72.2031475,25.3933311 71.6076628,26.0536398 C70.9732348,26.7702767 70.1706303,27.3179858 69.2720307,27.6475096 C68.3395318,28.0096445 67.3482374,28.1966812 66.3478927,28.1992337 C63.564751,28.1992337 61.5029374,27.2939974 60.1624521,25.4835249 C58.8219668,23.6730524 58.1435504,21.2372925 58.1272031,18.1762452 C58.1272031,14.9067688 58.856705,12.2687101 60.3157088,10.262069 C61.7747126,8.25542784 63.9816092,7.25006386 66.9363985,7.24597701 C68.5699242,7.16513619 70.1766893,7.68401012 71.4544061,8.70498084 C72.6235376,9.74503917 73.2534468,11.2622398 73.164751,12.8245211 C73.164751,15.0232439 72.3984674,16.5680715 70.8659004,17.4590038 C69.3333333,18.3499361 67.2510856,18.7913155 64.6191571,18.7831418 C63.8896552,18.7831418 63.1908046,18.7831418 62.5348659,18.7095785 C62.5316397,20.3562452 62.8741479,21.9852474 63.5402299,23.4911877 C64.1298619,24.6804744 65.3869637,25.3880501 66.7095785,25.2750958 C67.7542553,25.2969268 68.7807501,24.999671 69.6521073,24.4229885 C70.5270679,23.8205293 71.2169541,22.9862977 71.6444444,22.0137931 C72.2467973,22.3226926 72.59566,22.971626 72.5210728,23.6444444 Z M63.4421456,11.5555556 C62.8400891,13.2418092 62.5311569,15.0186878 62.5287356,16.8091954 C63.2888889,16.8643678 63.840613,16.8888889 64.1961686,16.8888889 C67.3879949,16.8888889 68.983908,15.6097063 68.983908,13.051341 C69.0142146,12.1388694 68.7823231,11.2368327 68.3157088,10.4521073 C67.8934954,9.76507442 67.1285116,9.36492902 66.3233716,9.40996169 C64.9808429,9.40996169 64,10.1210728 63.4421456,11.5555556 Z" id="Shape" fill="#FFFFFF" fill-rule="nonzero"></path>
                <path d="M91.1570881,26.7586207 C90.9589184,27.1344561 90.648095,27.4388487 90.2681992,27.6291188 C89.8497863,27.8381184 89.3871855,27.9432549 88.9195402,27.9356322 C88.2517275,27.9662531 87.5963374,27.7477897 87.0804598,27.3226054 C86.5911781,26.8855724 86.2810718,26.2828306 86.2099617,25.6306513 C85.7973308,26.4754983 85.1069349,27.1529087 84.2544061,27.5494253 C83.3531116,27.9867932 82.3626794,28.2092207 81.3609195,28.1992337 C78.7780332,28.1992337 76.906258,27.2122605 75.7455939,25.2383142 C74.5849298,23.2643678 74.0025543,20.732567 73.9984674,17.6429119 C73.9984674,14.4551724 74.6891443,11.9254151 76.0704981,10.0536398 C77.4518519,8.18186462 79.5954023,7.24597701 82.5011494,7.24597701 C83.6216236,7.23273403 84.7370389,7.39828733 85.805364,7.73639847 L85.805364,0.790804598 L89.9800766,0.337164751 L89.9800766,24.2452107 C89.9800766,25.4896552 90.3724138,26.3601533 91.1570881,26.7586207 Z M82.3111111,9.52030651 C80.8894452,9.40833678 79.5943545,10.3382119 79.245977,11.7210728 C78.709887,13.5848638 78.4658675,15.520476 78.5226054,17.4590038 C78.4813635,19.4206574 78.7630279,21.3757396 79.3563218,23.245977 C79.9162197,24.8521073 80.937931,25.6551724 82.4214559,25.6551724 C83.4242665,25.7122356 84.380887,25.2280781 84.9287356,24.3862069 C85.5316856,23.4405046 85.8429589,22.3382559 85.8237548,21.2168582 L85.8237548,10.697318 C84.7997154,9.9570862 83.5744057,9.54651121 82.3111111,9.52030651 Z" id="Shape" fill="#FFFFFF" fill-rule="nonzero"></path>
                <path d="M97.8758621,24.251341 C97.8758621,25.4773946 98.2681992,26.3295019 99.0528736,26.7586207 C98.8389483,27.1509244 98.4971234,27.4581341 98.0842912,27.6291188 C97.6189643,27.8343709 97.1154704,27.9388302 96.6068966,27.9356322 C95.7847403,28.0065278 94.9749498,27.6997547 94.4061303,27.1019157 C93.8857994,26.431818 93.6285147,25.5945524 93.6827586,24.7478927 L93.6827586,8.00613027 L97.8574713,8.00613027 L97.8758621,24.251341 Z" id="Shape" fill="#FFFFFF" fill-rule="nonzero"></path>
                <path d="M112.073563,30.8168582 C112.050933,29.0748556 112.190488,27.3345275 112.490421,25.6183908 C112.077791,26.4632378 111.387395,27.1406482 110.534866,27.5371648 C109.632811,27.979908 108.640073,28.2065798 107.635249,28.1992337 C105.052363,28.1992337 103.172414,27.2122605 101.995402,25.2383142 C100.818391,23.2643678 100.229885,20.732567 100.229885,17.6429119 C100.229885,14.4551724 100.920562,11.9254151 102.301916,10.0536398 C103.683269,8.18186462 105.814559,7.24597701 108.695785,7.24597701 C110.007801,7.25703017 111.30733,7.50198934 112.533333,7.96934866 L116.248276,7.55249042 L116.248276,34.2007663 L112.073563,34.6544061 L112.073563,30.8168582 Z M108.542529,9.52030651 C107.132009,9.42384868 105.8545,10.350365 105.508046,11.7210728 C104.971956,13.5848638 104.727936,15.520476 104.784674,17.4590038 C104.746114,19.4144653 105.027739,21.363063 105.618391,23.2275862 C106.176245,24.845977 107.218391,25.6796935 108.732567,25.6796935 C109.735378,25.7367567 110.691998,25.2525992 111.239847,24.410728 C111.823967,23.4595047 112.114014,22.3568996 112.073563,21.2413793 L112.073563,10.7340996 C111.047458,9.97967322 109.81562,9.55622904 108.542529,9.52030651 Z" id="Shape" fill="#FFFFFF" fill-rule="nonzero"></path>
                <path d="M134.927203,24.251341 C134.927203,25.4773946 135.31954,26.3295019 136.104215,26.7586207 C135.906045,27.1344561 135.595221,27.4388487 135.215326,27.6291188 C134.79667,27.8374379 134.334237,27.9425362 133.866667,27.9356322 C132.490701,28.0142804 131.298989,26.9904913 131.169349,25.6183908 C130.756718,26.4632378 130.066322,27.1406482 129.213793,27.5371648 C128.302388,27.9843566 127.298659,28.2111407 126.283525,28.1992337 C124.460792,28.1992337 123.075351,27.7905492 122.127203,26.9731801 C121.149321,26.1284033 120.487815,24.9761723 120.251341,23.7057471 C119.910136,21.9491992 119.756019,20.1614408 119.791571,18.3724138 L119.791571,7.95095785 L123.972414,7.95095785 L123.972414,18.2130268 C123.959914,19.488112 124.015165,20.7629609 124.137931,22.0321839 C124.226391,22.9514904 124.547026,23.8332373 125.069732,24.594636 C125.61305,25.3173278 126.4849,25.7163493 127.386973,25.6551724 C128.389784,25.7122356 129.346404,25.2280781 129.894253,24.3862069 C130.475682,23.4338357 130.765513,22.3320541 130.727969,21.2168582 L130.727969,8.00613027 L134.902682,8.00613027 L134.927203,24.251341 Z" id="Shape" fill="#FFFFFF" fill-rule="nonzero"></path>
                <path d="M151.668966,23.6444444 C151.680031,24.534108 151.353662,25.3949347 150.755556,26.0536398 C150.117168,26.771366 149.310331,27.3190885 148.407663,27.6475096 C147.475164,28.0096445 146.48387,28.1966812 145.483525,28.1992337 C142.696296,28.1992337 140.632439,27.2939974 139.291954,25.4835249 C137.951469,23.6730524 137.281226,21.2372925 137.281226,18.1762452 C137.281226,14.9067688 138.008685,12.2687101 139.463602,10.262069 C140.918519,8.25542784 143.127458,7.25006386 146.090421,7.24597701 C147.723496,7.1685364 149.32909,7.6870321 150.608429,8.70498084 C151.776049,9.74567384 152.403789,11.2630892 152.312644,12.8245211 C152.312644,15.0232439 151.548404,16.5680715 150.019923,17.4590038 C148.491443,18.3499361 146.409195,18.7913155 143.77318,18.7831418 C143.037548,18.7831418 142.344828,18.7831418 141.682759,18.7095785 C141.684354,20.3563811 142.02883,21.9848103 142.694253,23.4911877 C143.282579,24.6817128 144.540606,25.3898089 145.863602,25.2750958 C146.908023,25.2949862 147.933952,24.9978941 148.80613,24.4229885 C149.681818,23.8197015 150.373495,22.9858705 150.804598,22.0137931 C151.403481,22.3250149 151.747552,22.9741131 151.668966,23.6444444 Z M142.596169,11.5555556 C141.993878,13.2417475 141.684938,15.0186668 141.682759,16.8091954 C142.442912,16.8643678 143.000766,16.8888889 143.356322,16.8888889 C146.544061,16.8888889 148.137931,15.6097063 148.137931,13.051341 C148.170087,12.1394717 147.940334,11.2374771 147.475862,10.4521073 C147.052702,9.76609001 146.288371,9.36628607 145.483525,9.40996169 C144.116475,9.40996169 143.154023,10.1210728 142.596169,11.5555556 Z" id="Shape" fill="#FFFFFF" fill-rule="nonzero"></path>
                <path d="M158.540996,24.251341 C158.540996,25.4773946 158.933333,26.3295019 159.718008,26.7586207 C159.497884,27.1528258 159.14965,27.4599645 158.731034,27.6291188 C158.263763,27.8350414 157.758128,27.9395114 157.24751,27.9356322 C156.442123,27.9905623 155.653904,27.6851558 155.095785,27.1019157 C154.580173,26.429656 154.325391,25.5934484 154.378544,24.7478927 L154.378544,8.00613027 L158.553257,8.00613027 L158.540996,24.251341 Z" id="Shape" fill="#FFFFFF" fill-rule="nonzero"></path>
                <circle id="Oval" fill="#FFFFFF" fill-rule="nonzero" cx="95.7547893" cy="2.05363985" r="2.05363985"></circle>
                <circle id="Oval" fill="#FFFFFF" fill-rule="nonzero" cx="156.419923" cy="2.05363985" r="2.05363985"></circle>
            </g>
        </g>
        <text id="Procure-um-medicamen" font-family="Dosis-Medium, Dosis" font-size="20" font-weight="400" fill="#008CCC">
            <tspan x="79.16" y="355">Procure um medicamento </tspan>
            <tspan x="73.45" y="381">para começar a economizar</tspan>
        </text>
        <g id="1" transform="translate(130.000000, 226.000000)">
            <g id="search">
                <path d="M98.0326733,89.2982178 L78.5352475,69.8007921 C78.6912871,69.1768317 78.6912871,68.4750495 78.6912871,67.7730693 C78.6912871,61.7679208 73.7780198,56.8546535 67.7728713,56.8546535 C61.7677228,56.8546535 56.8544554,61.7679208 56.8544554,67.7730693 C56.8544554,73.7782178 61.7677228,78.6914851 67.7728713,78.6914851 C68.4748515,78.6914851 69.1766337,78.6134653 69.8005941,78.5354455 L89.22,98.0328713 C91.6376238,100.450495 95.5372277,100.450495 97.9548515,98.0328713 C100.450297,95.6154455 100.450297,91.7158416 98.0326733,89.2982178 Z M98.0326733,89.2982178 L78.5352475,69.8007921 C78.6912871,69.1768317 78.6912871,68.4750495 78.6912871,67.7730693 C78.6912871,61.7679208 73.7780198,56.8546535 67.7728713,56.8546535 C61.7677228,56.8546535 56.8544554,61.7679208 56.8544554,67.7730693 C56.8544554,73.7782178 61.7677228,78.6914851 67.7728713,78.6914851 C68.4748515,78.6914851 69.1766337,78.6134653 69.8005941,78.5354455 L89.22,98.0328713 C91.6376238,100.450495 95.5372277,100.450495 97.9548515,98.0328713 C100.450297,95.6154455 100.450297,91.7158416 98.0326733,89.2982178 Z" id="Shape" fill="#B7854E" fill-rule="nonzero"></path>
                <path d="M57.7120792,63.7176238 C59.9738614,65.4334653 62.469505,67.4611881 63.9512871,69.5667327 C65.9790099,72.3742574 67.5388119,75.1819802 69.0986139,78.2235644 L69.3326733,78.6914851 L69.8005941,78.6134653 L71.750297,80.5631683 L70.1124752,77.599604 C68.4746535,74.5580198 66.9928713,71.6724752 64.8871287,68.7867327 C63.2493069,66.5249505 60.519802,64.3413861 58.18,62.5475248 C58.1019802,62.9378218 57.8681188,63.3277228 57.7120792,63.7176238 Z M83.8386139,89.0641584 C82.0449505,85.3986139 80.7970297,82.1231683 79.6271287,79.159604 C77.3653465,73.2324752 75.649703,68.9429703 71.5162376,67.0712871 C69.3324752,66.1354455 68.1627723,65.9794059 67.5388119,66.7594059 C66.5249505,67.9293069 67.7728713,70.3469307 71.2043564,75.650099 L78.6132673,87.1924752 C78.6912871,87.270495 78.6912871,87.3485149 78.7693069,87.3485149 C79.0033663,87.5045545 79.2372277,87.5045545 79.4712871,87.3485149 C79.7831683,87.1924752 79.8611881,86.8025743 79.6273267,86.4906931 L72.2184158,74.9483168 C71.0485149,73.1546535 68.0069307,68.3192079 68.4748515,67.5394059 C68.4748515,67.5394059 68.8647525,67.3053465 70.970495,68.2413861 C74.6360396,69.8792079 76.1958416,73.7786139 78.4574257,79.6279208 C79.5493069,82.5134653 80.8750495,85.8671287 82.6689109,89.610495 C83.2928713,90.9362376 83.7607921,91.950099 84.1506931,92.8861386 L86.3344554,95.069901 C85.9441584,93.7435644 85.1643564,91.8718812 83.8386139,89.0641584 Z M92.1053465,98.4229703 C89.6877228,93.8215842 87.1920792,89.0641584 86.100198,86.1786139 C85.7883168,85.3988119 85.5542574,84.5407921 85.2423762,83.6829703 C83.9166337,79.7835644 82.2788119,75.0261386 79.2372277,70.5807921 L78.5352475,69.8788119 L78.5352475,69.6447525 C76.5075248,66.9930693 73.9338614,64.4974257 70.580396,62.469703 L67.8506931,62.469703 C78.3792079,67.3829703 81.7328713,77.209703 84.0724752,84.0726733 C84.3843564,85.0085149 84.6964356,85.7885149 84.930297,86.6463366 C86.0221782,89.609901 88.5178218,94.4453465 90.9354455,99.0467327 C91.0134653,99.1247525 91.0134653,99.2027723 91.0914851,99.3586139 C91.6374257,99.5926733 92.1833663,99.7485149 92.8073267,99.8265347 L92.1053465,98.4229703 Z M65.6669307,78.5356436 C66.1348515,78.6136634 66.6807921,78.6916832 67.2267327,78.6916832 C64.8091089,74.090297 62.2354455,69.8009901 57.0881188,66.2912871 C57.010099,66.7592079 57.010099,67.2271287 56.9320792,67.7730693 C61.1435644,70.8146535 63.4833663,74.480198 65.6669307,78.5356436 Z M77.2875248,62.469901 L76.039604,62.469901 C76.7415842,62.9378218 77.3653465,63.4837624 77.9893069,64.029703 C77.8332673,63.4837624 77.5994059,62.9378218 77.2875248,62.469901 Z M95.3809901,93.6655446 C93.9772277,89.9219802 93.5873267,87.1144554 94.2891089,85.6326733 L93.3532673,84.6968317 C92.4954455,86.1786139 92.2613861,88.9083168 94.2110891,94.1334653 C94.8350495,95.6932673 95.5368317,97.4869307 96.3168317,99.2807921 C96.7067327,99.1247525 97.0966337,98.8908911 97.4087129,98.5788119 C96.7067327,97.0192079 96.0827723,95.3813861 95.3809901,93.6655446 Z M99.7483168,92.8077228 C99.670297,92.0279208 99.3584158,91.2479208 98.9685149,90.5459406 C98.3445545,91.949703 98.3445545,94.2114851 98.9685149,96.8631683 C99.4364356,96.0833663 99.7483168,95.1473267 99.8263366,94.289505 C99.7483168,93.7435644 99.7483168,93.2756436 99.7483168,92.8077228 Z M95.6148515,99.5148515 C92.1833663,92.0279208 89.0637624,83.9950495 86.8019802,78.0677228 L84.6182178,75.8839604 L85.1641584,77.2877228 C88.1277228,85.0087129 91.1693069,92.8075248 94.3669307,99.8267327 C94.8350495,99.7487129 95.2249505,99.6708911 95.6148515,99.5148515 Z" id="Shape" fill="#BE8D54" fill-rule="nonzero"></path>
                <path d="M99.0465347,96.7071287 C100.372277,94.3675248 100.060396,91.3259406 98.0326733,89.2982178 L78.6132673,69.8007921 C78.7693069,69.1768317 78.7693069,68.4750495 78.7693069,67.7730693 C78.7693069,61.7679208 73.8560396,56.8546535 67.8508911,56.8546535 C65.4332673,56.8546535 63.249505,57.6344554 61.3778218,58.960396 C60.0520792,60.8320792 59.2720792,63.0938614 59.2720792,65.5114851 C59.2720792,71.5166337 64.1853465,76.429901 70.190495,76.429901 C70.8924752,76.429901 71.5942574,76.3518812 72.2182178,76.2738614 L91.6376238,95.7712871 C93.6651485,97.7209901 96.7067327,98.0330693 99.0465347,96.7071287 Z" id="Shape" fill="#CC9357" fill-rule="nonzero"></path>
                <path d="M62.0015842,72.6865347 C62.9374257,73.700396 64.0293069,74.5582178 65.1992079,75.1821782 C63.7174257,72.7645545 62.0015842,70.4247525 59.6619802,68.3192079 C59.9738614,69.6449505 60.5978218,70.8148515 61.3778218,71.9067327 C61.3776238,71.9065347 62.0015842,72.6865347 62.0015842,72.6865347 Z M95.3809901,93.6655446 C93.9772277,89.9219802 93.5873267,87.1144554 94.2891089,85.6326733 L93.3532673,84.6968317 C92.4954455,86.1786139 92.2613861,88.9083168 94.2110891,94.1334653 C94.6009901,95.1473267 95.0689109,96.3172277 95.5368317,97.4869307 C96.0047525,97.4869307 96.4726733,97.4869307 96.8625743,97.4089109 C96.3948515,96.2392079 95.9269307,94.9134653 95.3809901,93.6655446 Z M99.7483168,92.8077228 C99.670297,92.0279208 99.3584158,91.2479208 98.9685149,90.5459406 C98.3445545,91.8716832 98.3445545,94.1334653 98.890495,96.7071287 C98.890495,96.7071287 98.9685149,96.7071287 98.9685149,96.6291089 C99.4364356,95.8493069 99.670495,94.9132673 99.7483168,94.0554455 L99.7483168,92.8077228 Z M59.2718812,64.9655446 C61.0655446,66.3693069 62.7813861,68.0071287 63.9512871,69.5669307 C65.5891089,71.7506931 66.8368317,73.9342574 68.0847525,76.1960396 C68.5526733,76.2740594 69.0986139,76.3520792 69.6445545,76.3520792 C68.2407921,73.7784158 66.8370297,71.2827723 65.0431683,68.7871287 C63.6394059,66.9154455 61.5336634,65.0435644 59.5059406,63.4837624 C59.349901,63.9516832 59.349901,64.419604 59.2718812,64.9655446 Z M86.8021782,78.0677228 L84.6184158,75.8839604 L85.1643564,77.2877228 C87.66,83.8388119 90.3116832,90.5459406 93.0411881,96.6291089 C93.5871287,96.9409901 94.1330693,97.1750495 94.6790099,97.2530693 C91.5594059,90.4681188 88.829901,83.4491089 86.8021782,78.0677228 Z M77.2875248,62.469901 L76.039604,62.469901 C76.7415842,62.9378218 77.3653465,63.4837624 77.9893069,64.029703 C77.8332673,63.4837624 77.5994059,62.9378218 77.2875248,62.469901 Z M86.1782178,86.1005941 C85.8663366,85.3207921 85.6322772,84.4627723 85.320396,83.6049505 C83.9946535,79.7055446 82.3568317,74.9481188 79.3152475,70.5027723 L78.6132673,69.8007921 L78.6132673,69.5667327 C76.5855446,66.9150495 74.0118812,64.4194059 70.6584158,62.3916832 L67.8508911,62.3916832 C78.3794059,67.3049505 81.7330693,77.1316832 84.0726733,83.9946535 C84.3845545,84.930495 84.6966337,85.710495 84.930495,86.5683168 C85.320396,87.7382178 86.0223762,89.22 86.8021782,90.8578218 L89.609703,93.6653465 C88.1279208,90.78 86.8021782,88.050495 86.1782178,86.1005941 Z M71.5162376,67.0712871 C69.3324752,66.1354455 68.1627723,65.9794059 67.5388119,66.7594059 C66.5249505,67.9293069 67.7728713,70.3469307 71.2043564,75.650099 L71.5942574,76.2740594 L72.2182178,76.1960396 L74.48,78.4578218 L72.2182178,74.9483168 C71.0483168,73.1546535 68.0067327,68.3192079 68.4746535,67.5394059 C68.4746535,67.5394059 68.8645545,67.3053465 70.970297,68.2413861 C74.6358416,69.8792079 76.1956436,73.7786139 78.4572277,79.6279208 C79.0031683,81.109703 79.6271287,82.669505 80.3289109,84.3073267 L82.7465347,86.7249505 C81.4986139,83.9174257 80.4847525,81.4215842 79.6269307,79.16 C77.3653465,73.2324752 75.649703,68.9429703 71.5162376,67.0712871 Z" id="Shape" fill="#D49D5E" fill-rule="nonzero"></path>
                <path d="M40.5544554,7.79940594 C58.6479208,7.79940594 73.309901,22.4613861 73.309901,40.5548515 C73.309901,58.6483168 58.6479208,73.310495 40.5544554,73.310495 C22.4609901,73.310495 7.7990099,58.6483168 7.7990099,40.5548515 C7.7990099,22.4613861 22.4609901,7.79940594 40.5544554,7.79940594 Z" id="Shape" fill="#00ACEA" fill-rule="nonzero"></path>
                <path d="M40.5544554,7.79940594 C30.7277228,7.79940594 21.9150495,12.1667327 15.909901,19.029901 C21.6811881,13.9605941 29.1681188,10.9190099 37.4350495,10.9190099 C55.5285149,10.9190099 70.190495,25.5809901 70.190495,43.6744554 C70.190495,51.9413861 67.1489109,59.4283168 62.079604,65.199604 C68.9425743,59.1944554 73.310099,50.3815842 73.310099,40.5550495 C73.309901,22.4613861 58.6479208,7.79940594 40.5544554,7.79940594 Z" id="Shape" fill="#00AFFF" fill-rule="nonzero"></path>
                <path d="M40.5544554,0.000396039604 C18.1714851,0.000396039604 0,18.1718812 0,40.5548515 C0,62.9378218 18.1714851,81.1093069 40.5544554,81.1093069 C62.9374257,81.1093069 81.1089109,62.9378218 81.1089109,40.5548515 C81.1089109,18.1718812 62.9374257,0.000396039604 40.5544554,0.000396039604 Z M40.5544554,72.530495 C22.9289109,72.530495 8.57881188,58.180396 8.57881188,40.5548515 C8.57881188,22.9293069 22.9289109,8.57920792 40.5544554,8.57920792 C58.18,8.57920792 72.530099,22.9293069 72.530099,40.5548515 C72.530099,58.180396 58.18,72.530495 40.5544554,72.530495 Z M40.5544554,0.000396039604 C18.1714851,0.000396039604 0,18.1718812 0,40.5548515 C0,62.9378218 18.1714851,81.1093069 40.5544554,81.1093069 C62.9374257,81.1093069 81.1089109,62.9378218 81.1089109,40.5548515 C81.1089109,18.1718812 62.9374257,0.000396039604 40.5544554,0.000396039604 Z M40.5544554,72.530495 C22.9289109,72.530495 8.57881188,58.180396 8.57881188,40.5548515 C8.57881188,22.9293069 22.9289109,8.57920792 40.5544554,8.57920792 C58.18,8.57920792 72.530099,22.9293069 72.530099,40.5548515 C72.530099,58.180396 58.18,72.530495 40.5544554,72.530495 Z" id="Shape" fill="#083863" fill-rule="nonzero"></path>
            </g>
        </g>
    </g>
</svg>