<?xml version="1.0" encoding="UTF-8"?>
<svg width="360px" height="640px" viewBox="0 0 360 640" version="1.1" xmlns="http://www.w3.org/2000/svg" xmlns:xlink="http://www.w3.org/1999/xlink">
    <!-- Generator: Sketch 51.3 (57544) - http://www.bohemiancoding.com/sketch -->
    <title>Menu open</title>
    <desc>Created with Sketch.</desc>
    <defs>
        <rect id="path-1" x="0" y="0" width="328" height="640"></rect>
        <filter x="-79.3%" y="-34.4%" width="258.5%" height="181.2%" filterUnits="objectBoundingBox" id="filter-2">
            <feOffset dx="0" dy="20" in="SourceAlpha" result="shadowOffsetOuter1"></feOffset>
            <feGaussianBlur stdDeviation="50" in="shadowOffsetOuter1" result="shadowBlurOuter1"></feGaussianBlur>
            <feColorMatrix values="0 0 0 0 0   0 0 0 0 0   0 0 0 0 0  0 0 0 0.5 0" type="matrix" in="shadowBlurOuter1" result="shadowMatrixOuter1"></feColorMatrix>
            <feOffset dx="0" dy="20" in="SourceAlpha" result="shadowOffsetOuter2"></feOffset>
            <feGaussianBlur stdDeviation="50" in="shadowOffsetOuter2" result="shadowBlurOuter2"></feGaussianBlur>
            <feColorMatrix values="0 0 0 0 0   0 0 0 0 0   0 0 0 0 0  0 0 0 0.5 0" type="matrix" in="shadowBlurOuter2" result="shadowMatrixOuter2"></feColorMatrix>
            <feMerge>
                <feMergeNode in="shadowMatrixOuter1"></feMergeNode>
                <feMergeNode in="shadowMatrixOuter2"></feMergeNode>
            </feMerge>
        </filter>
    </defs>
    <g id="Menu-open" stroke="none" stroke-width="1" fill="none" fill-rule="evenodd">
        <rect id="Rectangle-8" fill="#008CCC" x="0" y="0" width="360" height="162"></rect>
        <g id="MENU" transform="translate(16.000000, 40.000000)" fill="#FFFFFF">
            <g id="menu" transform="translate(0.000000, 4.000000)">
                <path d="M23.0305312,7.37428125 L0.96946875,7.37428125 C0.4340625,7.37428125 0,7.80829687 0,8.34375 C0,8.87920312 0.4340625,9.31321875 0.96946875,9.31321875 L23.0305313,9.31321875 C23.5659844,9.31321875 24,8.87920312 24,8.34375 C24,7.80834375 23.5659844,7.37428125 23.0305312,7.37428125 Z" id="Shape" fill-rule="nonzero"></path>
                <path d="M23.0305312,0.020578125 L0.96946875,0.020578125 C0.4340625,0.020578125 0,0.454640625 0,0.990046875 C0,1.52545312 0.4340625,1.95951562 0.96946875,1.95951562 L23.0305313,1.95951562 C23.5659844,1.95951562 24,1.52545312 24,0.990046875 C24,0.454640625 23.5659844,0.020578125 23.0305312,0.020578125 Z" id="Shape" fill-rule="nonzero"></path>
                <path d="M23.0305312,14.7279844 L0.96946875,14.7279844 C0.4340625,14.7279844 0,15.162 0,15.6974531 C0,16.2329062 0.4340625,16.6669219 0.96946875,16.6669219 L23.0305313,16.6669219 C23.5659844,16.6669219 24,16.2329062 24,15.6974531 C24,15.162 23.5659844,14.7279844 23.0305312,14.7279844 Z" id="Shape" fill-rule="nonzero"></path>
            </g>
        </g>
        <g id="Shop" transform="translate(320.000000, 40.000000)" fill="#FFFFFF">
            <g id="shopping-bag" transform="translate(2.000000, 0.000000)">
                <path d="M19.0914403,20.5813614 L17.7281137,5.229331 C17.6988996,4.88849937 17.4116272,4.63044113 17.0756646,4.63044113 L14.2711072,4.63044113 C14.232155,2.06933489 12.138475,0 9.56763073,0 C6.99678644,0 4.90310644,2.06933489 4.86415425,4.63044113 L2.05959684,4.63044113 C1.71876522,4.63044113 1.43636187,4.88849937 1.40714773,5.229331 L0.0438212095,20.5813614 C0.0438212095,20.6008375 0.0389521862,20.6203136 0.0389521862,20.6397897 C0.0389521862,22.387769 1.64086084,23.8095238 3.61281527,23.8095238 L15.5224462,23.8095238 C17.4944006,23.8095238 19.0963093,22.387769 19.0963093,20.6397897 C19.0963093,20.6203136 19.0963093,20.6008375 19.0914403,20.5813614 Z M9.56763073,1.31463628 C11.4129906,1.31463628 12.9175187,2.79481936 12.9564709,4.63044113 L6.17879053,4.63044113 C6.21774272,2.79481936 7.72227091,1.31463628 9.56763073,1.31463628 Z M15.5224462,22.4948875 L3.61281527,22.4948875 C2.37608336,22.4948875 1.37306456,21.6768916 1.35358847,20.6690038 L2.65848671,5.94994644 L4.85928523,5.94994644 L4.85928523,7.94624598 C4.85928523,8.31142273 5.15142662,8.60356413 5.51660337,8.60356413 C5.88178011,8.60356413 6.17392151,8.31142273 6.17392151,7.94624598 L6.17392151,5.94994644 L12.9564709,5.94994644 L12.9564709,7.94624598 C12.9564709,8.31142273 13.2486123,8.60356413 13.6137891,8.60356413 C13.9789658,8.60356413 14.2711072,8.31142273 14.2711072,7.94624598 L14.2711072,5.94994644 L16.4719057,5.94994644 L17.781673,20.6690038 C17.7621969,21.6768916 16.7543091,22.4948875 15.5224462,22.4948875 Z" id="Shape" fill-rule="nonzero"></path>
            </g>
        </g>
        <g id="Group" transform="translate(16.000000, 106.000000)">
            <rect id="Rectangle" stroke="#FFFFFF" x="0.5" y="0.5" width="327" height="39" rx="4"></rect>
            <text id="Pesquisar-medicament" font-family="Dosis-Regular, Dosis" font-size="14" font-weight="normal" line-spacing="21" fill="#E8E8E8">
                <tspan x="34" y="23">Pesquisar medicamentos, sintomas, etc.</tspan>
            </text>
            <g id="Search" transform="translate(8.000000, 11.000000)" fill="#FFFFFF">
                <g id="search">
                    <path d="M17.4145263,16.3853684 L13.1330526,11.9324211 C14.2338947,10.6237895 14.8370526,8.97726316 14.8370526,7.26315789 C14.8370526,3.25831579 11.5787368,0 7.57389474,0 C3.56905263,0 0.310736842,3.25831579 0.310736842,7.26315789 C0.310736842,11.268 3.56905263,14.5263158 7.57389474,14.5263158 C9.07736842,14.5263158 10.5101053,14.0728421 11.7350526,13.212 L16.0490526,17.6987368 C16.2293684,17.886 16.4718947,17.9892632 16.7317895,17.9892632 C16.9777895,17.9892632 17.2111579,17.8954737 17.3883158,17.7249474 C17.7647368,17.3627368 17.7767368,16.7621053 17.4145263,16.3853684 Z M7.57389474,1.89473684 C10.5341053,1.89473684 12.9423158,4.30294737 12.9423158,7.26315789 C12.9423158,10.2233684 10.5341053,12.6315789 7.57389474,12.6315789 C4.61368421,12.6315789 2.20547368,10.2233684 2.20547368,7.26315789 C2.20547368,4.30294737 4.61368421,1.89473684 7.57389474,1.89473684 Z" id="Shape" fill-rule="nonzero"></path>
                </g>
            </g>
            <g id="Filter" transform="translate(303.000000, 12.000000)" stroke="#FFFFFF">
                <g id="Group" transform="translate(0.000000, 2.266667)">
                    <path d="M2.9,1.76666667 L2.9,1.63333333 L0.5,1.63333333 L0.5,1.76666667 L2.9,1.76666667 Z" id="Rectangle-3"></path>
                    <circle id="Oval" cx="4.53333333" cy="1.13333333" r="1.13333333"></circle>
                    <path d="M6.16666667,1.63333333 L6.16666667,1.76666667 L16.5,1.76666667 L16.5,1.63333333 L6.16666667,1.63333333 Z" id="Rectangle-3"></path>
                </g>
                <g id="Group" transform="translate(8.500000, 7.933333) scale(-1, 1) translate(-8.500000, -7.933333) translate(0.000000, 6.800000)">
                    <path d="M2.9,1.76666667 L2.9,1.63333333 L0.5,1.63333333 L0.5,1.76666667 L2.9,1.76666667 Z" id="Rectangle-3"></path>
                    <circle id="Oval" cx="4.53333333" cy="1.13333333" r="1.13333333"></circle>
                    <path d="M6.16666667,1.63333333 L6.16666667,1.76666667 L16.5,1.76666667 L16.5,1.63333333 L6.16666667,1.63333333 Z" id="Rectangle-3"></path>
                </g>
                <g id="Group" transform="translate(0.000000, 11.333333)">
                    <path d="M2.9,1.76666667 L2.9,1.63333333 L0.5,1.63333333 L0.5,1.76666667 L2.9,1.76666667 Z" id="Rectangle-3"></path>
                    <circle id="Oval" cx="4.53333333" cy="1.13333333" r="1.13333333"></circle>
                    <path d="M6.16666667,1.63333333 L6.16666667,1.76666667 L16.5,1.76666667 L16.5,1.63333333 L6.16666667,1.63333333 Z" id="Rectangle-3"></path>
                </g>
            </g>
            <rect id="Rectangle-5" fill="#FFFFFF" x="294" y="8" width="1" height="24"></rect>
        </g>
        <g id="Rectangle-3">
            <use fill="black" fill-opacity="1" filter="url(#filter-2)" xlink:href="#path-1"></use>
            <use fill="#008CCC" fill-rule="evenodd" xlink:href="#path-1"></use>
        </g>
        <g id="Material/Android/Status-bar-360dp-light-gray-Copy-2">
            <rect id="status-bar-bg" fill="#008CCC" x="0" y="0" width="360" height="24"></rect>
            <g id="status-bar-contents" stroke-width="1" transform="translate(256.000000, 4.000000)">
                <g id="time" opacity="0.9" transform="translate(68.000000, 0.000000)" fill="#FFFFFF" font-family="Dosis-Regular, Dosis" font-size="14" font-weight="normal">
                    <text id="12:30">
                        <tspan x="0.98" y="14">12:30</tspan>
                    </text>
                </g>
                <g id="battery" transform="translate(41.000000, 0.000000)">
                    <polygon id="bounds" points="0 0 16 0 16 16 0 16"></polygon>
                    <polygon id="Shape" fill-opacity="0.600000024" fill="#FFFFFF" points="9 1.875 9 1 6 1 6 1.875 3 1.875 3 15 12 15 12 1.875"></polygon>
                </g>
                <g id="cellular" transform="translate(21.000000, 0.000000)">
                    <polygon id="bounds" points="0 0 16 0 16 16 0 16"></polygon>
                    <polygon id="Shape" fill-opacity="0.600000024" fill="#FFFFFF" points="0 15 14 15 14 1"></polygon>
                </g>
                <g id="wifi">
                    <polygon id="bounds" points="2 0 18 0 18 16 2 16"></polygon>
                    <path d="M0.977372085,4.01593123 C3.48821908,2.12256382 6.61301513,1 10,1 C13.3869849,1 16.5117809,2.12256382 19.0226279,4.01593123 L10,15 L0.977372085,4.01593123 Z" id="Shape" fill-opacity="0.600000024" fill="#FFFFFF"></path>
                </g>
            </g>
        </g>
        <rect id="Rectangle-2" fill="#083863" transform="translate(164.000000, 60.000000) scale(1, -1) translate(-164.000000, -60.000000) " x="0" y="40" width="328" height="40"></rect>
        <rect id="Rectangle-2-Copy-3" fill="#083863" opacity="0" transform="translate(164.000000, 180.000000) scale(1, -1) translate(-164.000000, -180.000000) " x="0" y="160" width="328" height="40"></rect>
        <rect id="Rectangle-2-Copy" fill="#083863" opacity="0" transform="translate(164.000000, 100.000000) scale(1, -1) translate(-164.000000, -100.000000) " x="0" y="80" width="328" height="40"></rect>
        <rect id="Rectangle-2-Copy-4" fill="#083863" opacity="0" transform="translate(164.000000, 220.000000) scale(1, -1) translate(-164.000000, -220.000000) " x="0" y="200" width="328" height="40"></rect>
        <rect id="Rectangle-2-Copy-2" fill="#083863" opacity="0" transform="translate(164.000000, 140.000000) scale(1, -1) translate(-164.000000, -140.000000) " x="0" y="120" width="328" height="40"></rect>
        <rect id="Rectangle-2-Copy-5" fill="#083863" opacity="0" transform="translate(164.000000, 260.000000) scale(1, -1) translate(-164.000000, -260.000000) " x="0" y="240" width="328" height="40"></rect>
        <rect id="Rectangle-2-Copy-6" fill="#083863" opacity="0" transform="translate(164.000000, 340.000000) scale(1, -1) translate(-164.000000, -340.000000) " x="0" y="320" width="328" height="40"></rect>
        <rect id="Rectangle-2-Copy-7" fill="#083863" opacity="0" transform="translate(164.000000, 300.000000) scale(1, -1) translate(-164.000000, -300.000000) " x="0" y="280" width="328" height="40"></rect>
        <text id="Início" font-family="Dosis-Regular, Dosis" font-size="14" font-weight="normal" fill="#FFFFFF">
            <tspan x="42" y="65">Início</tspan>
        </text>
        <g id="Início" transform="translate(16.000000, 51.000000)" fill="#FFFFFF">
            <g id="home" transform="translate(0.000000, 1.000000)">
                <path d="M17.8089474,6.35312281 L9.29329825,0.118140351 C9.12908772,-0.00207017544 8.906,-0.00207017544 8.74185965,0.118140351 L0.226140351,6.35312281 C0.0181403509,6.5054386 -0.0270526316,6.79750877 0.125263158,7.00550877 C0.277578947,7.21350877 0.569684211,7.25863158 0.777649123,7.10638596 L9.01754386,1.07326316 L17.2574386,7.10635088 C17.3405263,7.16722807 17.4370877,7.19652632 17.532807,7.19652632 C17.6765263,7.19652632 17.8183509,7.13038596 17.9097895,7.00547368 C18.0621404,6.79750877 18.0169474,6.5054386 17.8089474,6.35312281 Z" id="Shape" fill-rule="nonzero"></path>
                <path d="M15.5524912,7.21203509 C15.2947368,7.21203509 15.0857193,7.42101754 15.0857193,7.67880702 L15.0857193,15.1085965 L11.351614,15.1085965 L11.351614,11.0529474 C11.351614,9.76592982 10.3045263,8.71891228 9.01757895,8.71891228 C7.73063158,8.71891228 6.68354386,9.766 6.68354386,11.0529474 L6.68354386,15.1086316 L2.94940351,15.1086316 L2.94940351,7.67884211 C2.94940351,7.42105263 2.74038596,7.21207018 2.48263158,7.21207018 C2.22487719,7.21207018 2.01585965,7.42105263 2.01585965,7.67884211 L2.01585965,15.5754386 C2.01585965,15.8332281 2.22487719,16.0422105 2.48263158,16.0422105 L7.15031579,16.0422105 C7.39578947,16.0422105 7.59666667,15.8525614 7.61526316,15.6117895 C7.61638596,15.6008772 7.61708772,15.5889474 7.61708772,15.5754386 L7.61708772,11.0529825 C7.61708772,10.2807368 8.24533333,9.65249123 9.01757895,9.65249123 C9.78982456,9.65249123 10.4180702,10.2807719 10.4180702,11.0529825 L10.4180702,15.5754386 C10.4180702,15.5888772 10.4187719,15.6005965 10.4198947,15.6113684 C10.4382807,15.8523158 10.6392281,16.0422105 10.8848421,16.0422105 L15.5525263,16.0422105 C15.8103158,16.0422105 16.0192982,15.8332281 16.0192982,15.5754386 L16.0192982,7.67884211 C16.0192632,7.42101754 15.8102807,7.21203509 15.5524912,7.21203509 Z" id="Shape" fill-rule="nonzero"></path>
            </g>
        </g>
        <g id="Cesta-de-compras" transform="translate(16.000000, 91.000000)" fill="#FFFFFF">
            <g id="shopping-bag" transform="translate(2.000000, 0.000000)">
                <path d="M14.3185802,15.436021 L13.2960853,3.92199825 C13.2741747,3.66637453 13.0587204,3.47283085 12.8067485,3.47283085 L10.7033304,3.47283085 C10.6741163,1.55200117 9.10385627,0 7.17572305,0 C5.24758983,0 3.67732983,1.55200117 3.64811569,3.47283085 L1.54469763,3.47283085 C1.28907391,3.47283085 1.0772714,3.66637453 1.05536079,3.92199825 L0.0328659071,15.436021 C0.0328659071,15.4506281 0.0292141396,15.4652352 0.0292141396,15.4798422 C0.0292141396,16.7908268 1.23064563,17.8571429 2.70961145,17.8571429 L11.6418346,17.8571429 C13.1208005,17.8571429 14.322232,16.7908268 14.322232,15.4798422 C14.322232,15.4652352 14.322232,15.4506281 14.3185802,15.436021 Z M7.17572305,0.985977213 C8.55974292,0.985977213 9.68813906,2.09611452 9.7173532,3.47283085 L4.6340929,3.47283085 C4.66330704,2.09611452 5.79170318,0.985977213 7.17572305,0.985977213 Z M11.6418346,16.8711656 L2.70961145,16.8711656 C1.78206252,16.8711656 1.02979842,16.2576687 1.01519135,15.5017528 L1.99386503,4.46245983 L3.64446392,4.46245983 L3.64446392,5.95968449 C3.64446392,6.23356705 3.86356997,6.45267309 4.13745253,6.45267309 C4.41133509,6.45267309 4.63044113,6.23356705 4.63044113,5.95968449 L4.63044113,4.46245983 L9.7173532,4.46245983 L9.7173532,5.95968449 C9.7173532,6.23356705 9.93645925,6.45267309 10.2103418,6.45267309 C10.4842244,6.45267309 10.7033304,6.23356705 10.7033304,5.95968449 L10.7033304,4.46245983 L12.3539293,4.46245983 L13.3362547,15.5017528 C13.3216477,16.2576687 12.5657318,16.8711656 11.6418346,16.8711656 Z" id="Shape" fill-rule="nonzero"></path>
            </g>
        </g>
        <g id="Lembretes" transform="translate(16.000000, 171.000000)" fill="#FFFFFF">
            <g id="star">
                <path d="M17.9466639,6.48483197 C17.8876475,6.30409426 17.7327295,6.1749959 17.5446148,6.1454877 L11.9380574,5.34876639 L9.41510656,0.277045082 C9.33027049,0.107372951 9.15690984,0.000405737705 8.96879508,0.000405737705 C8.78068033,0.000405737705 8.60731967,0.107372951 8.52248361,0.280733607 L6.03272951,5.36720902 L0.426172131,6.20081557 C0.238057377,6.23032377 0.0831393443,6.35942213 0.0241229508,6.54015984 C-0.0348934426,6.72089754 0.0167459016,6.92007787 0.153221311,7.04917623 L4.22166393,10.992209 L3.28109016,16.5766352 C3.24789344,16.76475 3.32535246,16.9528648 3.48027049,17.0635205 C3.56510656,17.1262254 3.66838525,17.1594221 3.77166393,17.1594221 C3.85281148,17.1594221 3.93027049,17.1409795 4.00404098,17.1004057 L9.00936885,14.4483566 L14.0294508,17.0708975 C14.1032213,17.1077828 14.1806803,17.1262254 14.2581393,17.1262254 C14.5310902,17.1262254 14.7560902,16.9012254 14.7560902,16.6282746 C14.7560902,16.5877008 14.7524016,16.5508156 14.7413361,16.5139303 L13.7712541,10.9627008 L17.813877,6.99753689 C17.9577295,6.86475 18.0056803,6.66556967 17.9466639,6.48483197 Z M12.8933852,10.4352418 C12.7753525,10.5495861 12.7237131,10.7155697 12.7532213,10.8778648 L13.5978934,15.7208975 L9.23805738,13.4450779 C9.09420492,13.3676189 8.92084426,13.3713074 8.77330328,13.4450779 L4.42822131,15.7467172 L5.24338525,10.8963074 C5.26920492,10.7340123 5.21756557,10.5717172 5.09953279,10.457373 L1.57330328,7.03442213 L6.43846721,6.31147131 C6.6007623,6.28565164 6.74092623,6.18606148 6.8110082,6.03852049 L8.97248361,1.62335656 L11.1634672,6.02745492 C11.2372377,6.1749959 11.3774016,6.27458607 11.5396967,6.30040574 L16.4085492,6.99384836 L12.8933852,10.4352418 Z" id="Shape" fill-rule="nonzero"></path>
            </g>
        </g>
        <g id="Configurações" transform="translate(16.000000, 251.000000)" fill="#FFFFFF">
            <g id="settings">
                <path d="M17.0680585,7.10609186 L15.805428,6.89189562 C15.673904,6.46726096 15.5048017,6.05765762 15.2981211,5.66684342 L16.0421712,4.62592484 C16.3578288,4.18250104 16.308977,3.57749061 15.9219207,3.19419207 L14.8020877,2.07435908 C14.5916493,1.86392067 14.3135699,1.74742797 14.0167015,1.74742797 C13.7837161,1.74742797 13.5620042,1.81882672 13.3741127,1.95410856 L12.3294363,2.69815866 C11.9235908,2.48396242 11.4989562,2.30734447 11.0592902,2.17582046 L10.8488518,0.928221294 C10.7586639,0.390851775 10.2964509,3.75782881e-05 9.75156576,3.75782881e-05 L8.16951983,3.75782881e-05 C7.62463466,3.75782881e-05 7.16242171,0.390851775 7.07223382,0.928221294 L6.85427975,2.20588309 C6.43340292,2.3374071 6.02379958,2.51026722 5.63298539,2.72070564 L4.59958246,1.97665553 C4.41169102,1.8413737 4.18622129,1.76997495 3.95323591,1.76997495 C3.65636743,1.76997495 3.37453027,1.88646764 3.16784969,2.09690605 L2.04425887,3.21673904 C1.66096033,3.60003758 1.60835073,4.20504802 1.92400835,4.64847182 L2.67557411,5.70442171 C2.46889353,6.09899374 2.30354906,6.50859708 2.17578288,6.93323173 L0.928183716,7.14367015 C0.390814196,7.23385804 -2.84217094e-14,7.69607098 -2.84217094e-14,8.24095616 L-2.84217094e-14,9.82300209 C-2.84217094e-14,10.3678873 0.390814196,10.8301002 0.928183716,10.9202881 L2.20584551,11.1382422 C2.33736952,11.559119 2.51022965,11.9687223 2.72066806,12.3595365 L1.98037578,13.3891816 C1.66471816,13.8326054 1.71356994,14.4376159 2.1006263,14.8209144 L3.22045929,15.9407474 C3.4308977,16.1511858 3.70897704,16.2676785 4.00584551,16.2676785 C4.2388309,16.2676785 4.4605428,16.1962797 4.64843424,16.0609979 L5.70438413,15.3094322 C6.08392484,15.5085971 6.4822547,15.6701837 6.89185804,15.7979499 L7.10229645,17.0605804 C7.19248434,17.5979499 7.65469729,17.9887641 8.19958246,17.9887641 L9.78538622,17.9887641 C10.3302714,17.9887641 10.7924843,17.5979499 10.8826722,17.0605804 L11.0968685,15.7979499 C11.5215031,15.6664259 11.9311065,15.4973236 12.3219207,15.290643 L13.3628392,16.0346931 C13.5507307,16.1699749 13.7762004,16.2413737 14.0091858,16.2413737 C14.3060543,16.2413737 14.5841336,16.124881 14.794572,15.9144426 L15.914405,14.7946096 C16.2977035,14.4113111 16.3503132,13.8063006 16.0346555,13.3628768 L15.2906054,12.3182004 C15.497286,11.9236284 15.6701461,11.5140251 15.7979123,11.0931482 L17.0605428,10.8827098 C17.5979123,10.7925219 17.9887265,10.330309 17.9887265,9.7854238 L17.9887265,8.20337787 C17.9962422,7.65849269 17.605428,7.19627975 17.0680585,7.10609186 Z M16.9816284,9.7854238 C16.9816284,9.83427557 16.9478079,9.87561169 16.8989562,9.88312735 L15.3206681,10.1461754 C15.1215031,10.1799958 14.9636743,10.3265511 14.9148225,10.5182004 C14.7720251,11.0706013 14.554071,11.6004551 14.2609603,12.0927307 C14.159499,12.2655908 14.1670146,12.4797871 14.2835073,12.6451315 L15.211691,13.9528559 C15.2379958,13.9904342 15.234238,14.0468017 15.2004175,14.0806221 L14.0805846,15.2004551 C14.0542797,15.2267599 14.0279749,15.2305177 14.0091858,15.2305177 C13.9866388,15.2305177 13.9678497,15.2230021 13.9528184,15.2117286 L12.6488518,14.2835449 C12.4872651,14.1670522 12.2693111,14.1595365 12.0964509,14.2609979 C11.6041754,14.5541086 11.0743215,14.7720626 10.5219207,14.9148601 C10.3265136,14.9637119 10.1799582,15.1252985 10.1498956,15.3207056 L9.88308977,16.8989937 C9.87557411,16.9478455 9.834238,16.981666 9.78538622,16.981666 L8.20334029,16.981666 C8.15448852,16.981666 8.1131524,16.9478455 8.10563674,16.8989937 L7.84258873,15.3207056 C7.80876827,15.1215407 7.66221294,14.9637119 7.47056367,14.9148601 C6.93319415,14.7758205 6.41461378,14.5616242 5.92985386,14.2835449 C5.85093946,14.2384509 5.76075157,14.215904 5.6743215,14.215904 C5.57286013,14.215904 5.46764092,14.2459666 5.38121086,14.3098497 L4.06597077,15.2455491 C4.04718163,15.2568225 4.02839248,15.2643382 4.00960334,15.2643382 C3.99457203,15.2643382 3.96450939,15.2605804 3.93820459,15.2342756 L2.81837161,14.1144426 C2.78455115,14.0806221 2.78079332,14.0280125 2.80709812,13.9866764 L3.73152401,12.6902255 C3.8480167,12.524881 3.85553236,12.3069269 3.75407098,12.1340668 C3.46096033,11.6455491 3.23549061,11.1156952 3.09269311,10.5632944 C3.04008351,10.3716451 2.8822547,10.2250898 2.6868476,10.1912693 L1.09728601,9.92070564 C1.04843424,9.91318998 1.01461378,9.87185386 1.01461378,9.82300209 L1.01461378,8.24095616 C1.01461378,8.19210438 1.04843424,8.15076827 1.09728601,8.14325261 L2.66430063,7.88020459 C2.86346555,7.84638413 3.02505219,7.69982881 3.07390397,7.50442171 C3.21294363,6.95202088 3.42713987,6.41840919 3.71649269,5.92613361 C3.81795407,5.75327349 3.80668058,5.53907724 3.69018789,5.37749061 L2.75448852,4.06225052 C2.72818372,4.02467223 2.73194154,3.9683048 2.765762,3.93448434 L3.88559499,2.81465136 C3.91189979,2.78834656 3.93820459,2.78458873 3.95699374,2.78458873 C3.97954071,2.78458873 3.99832985,2.79210438 4.01336117,2.80337787 L5.30981211,3.72780376 C5.47515658,3.84429645 5.69311065,3.85181211 5.86597077,3.75035073 C6.35448852,3.45724008 6.88434238,3.23177035 7.43674322,3.08897286 C7.62839248,3.03636326 7.77494781,2.87853445 7.80876827,2.68312735 L8.07933194,1.09356576 C8.0868476,1.04471399 8.12818372,1.01089353 8.17703549,1.01089353 L9.75908142,1.01089353 C9.80793319,1.01089353 9.84926931,1.04471399 9.85678497,1.09356576 L10.119833,2.66058038 C10.1536534,2.8597453 10.3002088,3.02133194 10.4956159,3.07018372 C11.063048,3.21298121 11.6041754,3.43469311 12.1077244,3.73156159 C12.2805846,3.83302296 12.4947808,3.82550731 12.6601253,3.70901461 L13.9565762,2.77707307 C13.9753653,2.76579958 13.9941545,2.75828392 14.0129436,2.75828392 C14.0279749,2.75828392 14.0580376,2.76204175 14.0843424,2.78834656 L15.2041754,3.90817954 C15.2379958,3.942 15.2417537,3.9946096 15.2154489,4.03594572 L14.2872651,5.33991232 C14.1707724,5.50149896 14.1632568,5.71945303 14.2647182,5.89231315 C14.5578288,6.38458873 14.7757829,6.91444259 14.9185804,7.46684342 C14.9674322,7.66225052 15.1290188,7.80880585 15.3244259,7.83886848 L16.902714,8.10567432 C16.9515658,8.11318998 16.9853862,8.1545261 16.9853862,8.20337787 L16.9853862,9.7854238 L16.9816284,9.7854238 Z" id="Shape" fill-rule="nonzero"></path>
                <path d="M8.99624217,5.11068476 C6.85427975,5.11068476 5.11440501,6.8505595 5.11440501,8.99252192 C5.11440501,11.1344843 6.85427975,12.8743591 8.99624217,12.8743591 C11.1382046,12.8743591 12.8780793,11.1344843 12.8780793,8.99252192 C12.8780793,6.8505595 11.1382046,5.11068476 8.99624217,5.11068476 Z M8.99624217,11.8597453 C7.41419624,11.8597453 6.12901879,10.5745678 6.12901879,8.99252192 C6.12901879,7.41047599 7.41419624,6.12529854 8.99624217,6.12529854 C10.5782881,6.12529854 11.8634656,7.41047599 11.8634656,8.99252192 C11.8634656,10.5745678 10.5782881,11.8597453 8.99624217,11.8597453 Z" id="Shape" fill-rule="nonzero"></path>
            </g>
        </g>
        <g id="Lojas-parceiras" transform="translate(16.000000, 131.000000)" fill="#FFFFFF">
            <g id="pharmacy">
                <path d="M18,6.8203125 L18,3.22380067 L16.6640625,3.22380067 L16.6640625,0.94921875 L11.4947205,0.94921875 C10.8301849,0.358566293 9.95622254,0 9,0 C8.04377746,0 7.16981505,0.358566293 6.50527952,0.94921875 L1.3359375,0.94921875 L1.3359375,3.22380067 L0,3.22380067 L0,6.8203125 L0.958419809,6.8203125 L0.958419809,16.9453125 L0,16.9453125 L0,18 L18,18 L18,16.9453125 L17.0415802,16.9453125 L17.0415802,6.8203125 L18,6.8203125 Z M11.0566406,2.00390625 C11.3505249,2.34709168 11.5603638,2.76470947 11.6531982,3.22380067 C11.6883545,3.39779665 11.7070312,3.57756043 11.7070312,3.76171875 C11.7070312,3.93859863 11.6901398,4.1112213 11.6570435,4.27848817 C11.5442963,4.86282347 11.2423096,5.38069152 10.8179627,5.765625 C10.8157654,5.76768495 10.8137055,5.76947021 10.8116455,5.77125548 C10.3316803,6.20466613 9.69612121,6.46875 9,6.46875 C8.30387879,6.46875 7.66831971,6.20466613 7.18835449,5.77125548 C7.18629455,5.76947021 7.1842346,5.76768495 7.18203734,5.765625 C6.75769043,5.38069152 6.45570373,4.86282347 6.34295654,4.27848817 C6.30986024,4.1112213 6.29296875,3.93859863 6.29296875,3.76171875 C6.29296875,3.57756043 6.31164551,3.39779665 6.34680176,3.22380067 C6.43963623,2.76470947 6.6494751,2.34709168 6.94335938,2.00390625 C7.43980409,1.42314149 8.17767334,1.0546875 9,1.0546875 C9.82232666,1.0546875 10.5601959,1.42314149 11.0566406,2.00390625 Z M16.9453125,5.765625 L12.1820526,5.765625 C12.461792,5.32342529 12.6517181,4.81915283 12.7258759,4.27848817 L16.9453125,4.27848817 L16.9453125,5.765625 Z M15.609375,2.00390625 L15.609375,3.22380067 L12.722992,3.22380067 C12.6607819,2.78860472 12.5237274,2.37757873 12.3250122,2.00390625 L15.609375,2.00390625 Z M2.390625,2.00390625 L5.67498779,2.00390625 C5.47627257,2.37757873 5.33921815,2.78860472 5.27700804,3.22380067 L2.390625,3.22380067 L2.390625,2.00390625 Z M1.0546875,4.27848817 L5.27412414,4.27848817 C5.34828185,4.81915283 5.53820801,5.32342529 5.81794738,5.765625 L1.0546875,5.765625 L1.0546875,4.27848817 Z M7.3828125,16.9453125 L4.21875,16.9453125 L4.21875,9.703125 L7.3828125,9.703125 L7.3828125,16.9453125 Z M8.4375,16.9453125 L8.4375,8.6484375 L3.1640625,8.6484375 L3.1640625,16.9453125 L2.01310731,16.9453125 L2.01310731,6.82594298 L6.8203125,6.82594298 C7.43554687,7.26498415 8.18824767,7.5234375 9,7.5234375 C9.81175233,7.5234375 10.5644531,7.26498415 11.1796875,6.82594298 L15.9868927,6.82594298 L15.9868927,16.9453125 L8.4375,16.9453125 Z" id="Shape" fill-rule="nonzero"></path>
                <path d="M9.6328125,13.8515625 L14.8359375,13.8515625 L14.8359375,8.6484375 L9.6328125,8.6484375 L9.6328125,13.8515625 Z M10.6875,9.703125 L13.78125,9.703125 L13.78125,12.796875 L10.6875,12.796875 L10.6875,9.703125 Z" id="Shape" fill-rule="nonzero"></path>
                <polygon id="Shape" fill-rule="nonzero" points="8.47265625 2.13121034 8.47265625 3.22380067 7.38006592 3.22380067 7.38006592 4.27848817 8.47265625 4.27848817 8.47265625 5.37121582 9.52734375 5.37121582 9.52734375 4.27848817 10.6199341 4.27848817 10.6199341 3.22380067 9.52734375 3.22380067 9.52734375 2.13121034"></polygon>
            </g>
        </g>
        <g id="Histórico-de-pedidos" transform="translate(16.000000, 211.000000)" fill="#FFFFFF">
            <g id="reload" transform="translate(1.000000, 0.000000)">
                <path d="M3.38532245,3.56734286 C6.04124082,1.16489388 10.0159347,1.12815918 12.7085878,3.32122041 L10.574302,3.40203673 C10.2987918,3.41305714 10.0857306,3.64081224 10.096751,3.91632245 C10.1077714,4.18448571 10.3281796,4.39387347 10.5926694,4.39387347 C10.6000163,4.39387347 10.6036898,4.39387347 10.6110367,4.39387347 L13.8877714,4.27264898 C14.1559347,4.26162857 14.3653224,4.04489388 14.3653224,3.77673061 L14.3653224,3.73999592 C14.3653224,3.73264898 14.3653224,3.72897551 14.3653224,3.72162857 L14.3653224,3.7179551 L14.244098,0.477955102 C14.2330776,0.202444898 14.001649,-0.0106163265 13.7298122,0.000404081633 C13.454302,0.0114244898 13.2412408,0.239179592 13.2522612,0.514689796 L13.3294041,2.54611837 C11.9959347,1.45509796 10.3538939,0.823261224 8.59797551,0.735097959 C6.42328163,0.624893878 4.33307755,1.37060816 2.72042449,2.83264898 C0.50164898,4.84203673 -0.438759184,7.89836327 0.266546939,10.807751 C0.32164898,11.0355061 0.523689796,11.1861184 0.747771429,11.1861184 C0.788179592,11.1861184 0.824914286,11.1824449 0.865322449,11.1714245 C1.12981224,11.105302 1.29511837,10.8371388 1.22899592,10.572649 C0.611853061,8.01591429 1.4347102,5.33060816 3.38532245,3.56734286 Z" id="Shape" fill-rule="nonzero"></path>
                <path d="M16.2534857,7.18203673 C16.1873633,6.91754694 15.9192,6.75224082 15.6547102,6.81836327 C15.3902204,6.88448571 15.2249143,7.15264898 15.2910367,7.41713878 C15.9118531,9.97387347 15.0853224,12.6591796 13.1347102,14.4224449 C11.7645061,15.6604041 10.0453224,16.2702 8.33348571,16.2702 C6.69879184,16.2702 5.06777143,15.7155061 3.75266939,14.6208122 L5.91266939,14.4261184 C6.18450612,14.4004041 6.38654694,14.1616286 6.36083265,13.8861184 C6.33511837,13.6106082 6.09634286,13.4122408 5.82083265,13.4379551 L2.55511837,13.7318327 C2.28328163,13.7575469 2.08124082,13.9963224 2.1069551,14.2718327 L2.40083265,17.5375469 C2.42287347,17.7946898 2.63960816,17.9893837 2.89307755,17.9893837 C2.90777143,17.9893837 2.92246531,17.9893837 2.93715918,17.9857102 C3.20899592,17.9599959 3.41103673,17.7212204 3.38532245,17.4457102 L3.20899592,15.4583633 C4.54246531,16.5383633 6.17715918,17.1665265 7.92205714,17.2546898 C8.06164898,17.2620367 8.20124082,17.2657102 8.33715918,17.2657102 C10.3612408,17.2657102 12.2861388,16.5236694 13.7996082,15.1571388 C16.0183837,13.147751 16.9587918,10.095098 16.2534857,7.18203673 Z" id="Shape" fill-rule="nonzero"></path>
            </g>
        </g>
        <g id="Central-de-Atendimento" transform="translate(16.000000, 331.000000)" fill="#FFFFFF">
            <g id="chat">
                <path d="M15.3582622,2.6372093 C13.6572051,0.93615222 11.4005455,0 8.99547146,0 C6.59039746,0 4.33373784,0.93615222 2.63268076,2.6372093 C-0.655268499,5.92515856 -0.883598309,11.1881607 2.06566173,14.7386892 C1.77644397,15.3209302 1.31217336,15.9983087 0.623378436,16.3369979 C0.292300211,16.5006342 0.105830867,16.8545455 0.162913319,17.2198732 C0.219995772,17.5852008 0.501602537,17.8706131 0.866930233,17.9276956 C1.03817759,17.954334 1.28172939,17.9809725 1.57855814,17.9809725 C2.37390698,17.9809725 3.546,17.7945032 4.7447315,16.9306554 C6.08046089,17.6498943 7.54177167,18 8.99166596,18 C11.32063,18 13.6267611,17.0980973 15.3620677,15.3627907 C17.0631247,13.6617336 17.999277,11.405074 17.999277,9 C17.999277,6.594926 17.0593192,4.33826638 15.3582622,2.6372093 Z M14.6314123,14.6359408 C12.0627019,17.2046512 8.08595772,17.7145877 4.95783932,15.8765328 C4.75234249,15.7547569 4.49737421,15.7928118 4.33373784,15.9564482 C4.31851586,15.9640592 4.30329387,15.9754757 4.29187738,15.9868922 C3.26058774,16.7860465 2.24832558,16.9534884 1.57855814,16.9534884 L1.57475264,16.9534884 C2.3472685,16.3902748 2.83437209,15.5530655 3.11978436,14.9023256 C3.16545032,14.7919662 3.17306131,14.6778013 3.14642283,14.5712474 C3.13500634,14.4684989 3.09314588,14.3657505 3.02084144,14.2820296 C0.235217759,11.1348837 0.379826638,6.33995772 3.35572516,3.3640592 C6.46481607,0.254968288 11.5223214,0.254968288 14.6276068,3.3640592 C17.7405032,6.47315011 17.7405032,11.5268499 14.6314123,14.6359408 Z" id="Shape" fill-rule="nonzero"></path>
                <circle id="Oval" fill-rule="nonzero" cx="8.99547146" cy="9" r="1"></circle>
                <circle id="Oval" fill-rule="nonzero" cx="12.2529767" cy="9" r="1"></circle>
                <circle id="Oval" fill-rule="nonzero" cx="5.73796617" cy="9" r="1"></circle>
            </g>
        </g>
        <g id="Minha-conta" transform="translate(16.000000, 291.000000)" fill="#FFFFFF">
            <g id="avatar" transform="translate(1.000000, 0.000000)">
                <path d="M7.59130435,9.69689441 C7.60993789,9.69689441 7.62857143,9.69689441 7.65093168,9.69689441 C7.65838509,9.69689441 7.66583851,9.69689441 7.67329193,9.69689441 C7.68447205,9.69689441 7.69937888,9.69689441 7.71055901,9.69689441 C8.80248447,9.67826087 9.68571429,9.29440994 10.3378882,8.56024845 C11.7726708,6.94285714 11.5341615,4.17018634 11.5080745,3.90559006 C11.4149068,1.91925466 10.4757764,0.968944099 9.70062112,0.525465839 C9.12298137,0.19378882 8.4484472,0.0149068323 7.69565217,0 L7.66956522,0 C7.66583851,0 7.65838509,0 7.65465839,0 L7.63229814,0 C7.21863354,0 6.40621118,0.0670807453 5.62732919,0.510559006 C4.8447205,0.954037267 3.89068323,1.90434783 3.79751553,3.90559006 C3.77142857,4.17018634 3.53291925,6.94285714 4.96770186,8.56024845 C5.61614907,9.29440994 6.49937888,9.67826087 7.59130435,9.69689441 Z M4.79254658,3.99875776 C4.79254658,3.98757764 4.79627329,3.97639752 4.79627329,3.9689441 C4.91925466,1.29689441 6.81614907,1.00993789 7.62857143,1.00993789 L7.64347826,1.00993789 C7.65093168,1.00993789 7.6621118,1.00993789 7.67329193,1.00993789 C8.67950311,1.03229814 10.3900621,1.44223602 10.5055901,3.9689441 C10.5055901,3.98012422 10.5055901,3.99130435 10.5093168,3.99875776 C10.5130435,4.02484472 10.773913,6.55900621 9.58881988,7.8931677 C9.11925466,8.42236025 8.4931677,8.68322981 7.66956522,8.69068323 C7.6621118,8.69068323 7.65838509,8.69068323 7.65093168,8.69068323 C7.64347826,8.69068323 7.63975155,8.69068323 7.63229814,8.69068323 C6.81242236,8.68322981 6.1826087,8.42236025 5.71677019,7.8931677 C4.53540373,6.56645963 4.78881988,4.02111801 4.79254658,3.99875776 Z" id="Shape" fill-rule="nonzero"></path>
                <path d="M15.3093168,14.2956522 C15.3093168,14.2919255 15.3093168,14.2881988 15.3093168,14.284472 C15.3093168,14.2546584 15.3055901,14.2248447 15.3055901,14.1913043 C15.2832298,13.4534161 15.2347826,11.7279503 13.6173913,11.1763975 C13.6062112,11.1726708 13.5913043,11.1689441 13.5801242,11.1652174 C11.8993789,10.736646 10.5018634,9.76770186 10.4869565,9.75652174 C10.2596273,9.59627329 9.94658385,9.65217391 9.7863354,9.87950311 C9.62608696,10.1068323 9.68198758,10.4198758 9.90931677,10.5801242 C9.97267081,10.6248447 11.4559006,11.6571429 13.3118012,12.1341615 C14.1801242,12.4434783 14.2770186,13.3714286 14.3031056,14.221118 C14.3031056,14.2546584 14.3031056,14.284472 14.3068323,14.3142857 C14.310559,14.6496894 14.2881988,15.1677019 14.2285714,15.4658385 C13.6248447,15.8086957 11.2583851,16.9937888 7.65838509,16.9937888 C4.07329193,16.9937888 1.69192547,15.8049689 1.08447205,15.4621118 C1.02484472,15.1639752 0.998757764,14.6459627 1.00621118,14.310559 C1.00621118,14.2807453 1.00993789,14.2509317 1.00993789,14.2173913 C1.03602484,13.3677019 1.13291925,12.4397516 2.00124224,12.1304348 C3.85714286,11.6534161 5.34037267,10.6173913 5.40372671,10.5763975 C5.6310559,10.4161491 5.68695652,10.1031056 5.52670807,9.8757764 C5.36645963,9.6484472 5.05341615,9.59254658 4.82608696,9.75279503 C4.81118012,9.76397516 3.42111801,10.7329193 1.73291925,11.1614907 C1.71801242,11.1652174 1.7068323,11.1689441 1.69565217,11.1726708 C0.0782608696,11.7279503 0.0298136646,13.4534161 0.00745341615,14.1875776 C0.00745341615,14.221118 0.00745341615,14.2509317 0.00372670807,14.2807453 C0.00372670807,14.284472 0.00372670807,14.2881988 0.00372670807,14.2919255 C-3.43475248e-15,14.4857143 -0.00372670807,15.4807453 0.19378882,15.9801242 C0.231055901,16.0770186 0.298136646,16.1590062 0.38757764,16.2149068 C0.499378882,16.289441 3.17888199,17.9962733 7.6621118,17.9962733 C12.1453416,17.9962733 14.8248447,16.2857143 14.936646,16.2149068 C15.0223602,16.1590062 15.0931677,16.0770186 15.1304348,15.9801242 C15.3167702,15.484472 15.3130435,14.489441 15.3093168,14.2956522 Z" id="Shape" fill-rule="nonzero"></path>
            </g>
        </g>
        <text id="Cesta-de-compras" font-family="Dosis-Regular, Dosis" font-size="14" font-weight="normal" fill="#FFFFFF">
            <tspan x="42" y="105">Cesta de compras</tspan>
        </text>
        <text id="Lembretes" font-family="Dosis-Regular, Dosis" font-size="14" font-weight="normal" fill="#FFFFFF">
            <tspan x="42" y="185">Lembretes</tspan>
        </text>
        <text id="Configurações" font-family="Dosis-Regular, Dosis" font-size="14" font-weight="normal" fill="#FFFFFF">
            <tspan x="42" y="265">Configurações</tspan>
        </text>
        <text id="Lojas-parceiras" font-family="Dosis-Regular, Dosis" font-size="14" font-weight="normal" fill="#FFFFFF">
            <tspan x="42" y="145">Lojas parceiras</tspan>
        </text>
        <text id="Histórico-de-pedidos" font-family="Dosis-Regular, Dosis" font-size="14" font-weight="normal" fill="#FFFFFF">
            <tspan x="42" y="225">Histórico de pedidos</tspan>
        </text>
        <text id="Central-de-atendimen" font-family="Dosis-Regular, Dosis" font-size="14" font-weight="normal" fill="#FFFFFF">
            <tspan x="42" y="345">Central de atendimento</tspan>
        </text>
        <text id="Minha-conta" font-family="Dosis-Regular, Dosis" font-size="14" font-weight="normal" fill="#FFFFFF">
            <tspan x="42" y="305">Minha conta</tspan>
        </text>
    </g>
</svg>